<svg width="57" height="57" viewBox="0 0 57 57" fill="none" xmlns="http://www.w3.org/2000/svg">
<g clip-path="url(#clip0_288_8689)">
<path d="M56.25 28.1249C56.25 12.5919 43.658 -0.0001297 28.125 -0.0001297C12.592 -0.0001297 0 12.5919 0 28.1249C0 42.1629 10.2849 53.7983 23.7305 55.9082V36.2548H16.5894V28.1249H23.7305V21.9286C23.7305 14.8798 27.9293 10.9862 34.3537 10.9862C37.4308 10.9862 40.6494 11.5355 40.6494 11.5355V18.4569H37.1029C33.6091 18.4569 32.5195 20.6249 32.5195 22.8491V28.1249H40.3198L39.0729 36.2548H32.5195V55.9082C45.9651 53.7983 56.25 42.1629 56.25 28.1249Z" fill="#1877F2"/>
<path d="M39.0734 36.2549L40.3203 28.125H32.52V22.8492C32.52 20.625 33.6096 18.457 37.1034 18.457H40.6499V11.5356C40.6499 11.5356 37.4313 10.9863 34.3542 10.9863C27.9298 10.9863 23.731 14.8799 23.731 21.9287V28.125H16.5898V36.2549H23.731V55.9083C25.1629 56.133 26.6305 56.25 28.1255 56.25C29.6205 56.25 31.0881 56.133 32.52 55.9083V36.2549H39.0734Z" fill="white"/>
</g>
<defs>
<clipPath id="clip0_288_8689">
<rect width="56.25" height="56.25" fill="white"/>
</clipPath>
</defs>
</svg>
