<svg width="37" height="56" viewBox="0 0 37 56" fill="none" xmlns="http://www.w3.org/2000/svg">
<g clip-path="url(#clip0_288_8747)">
<path d="M18.5312 28.1247C18.5312 23.0767 22.6235 18.9844 27.6716 18.9844C32.7196 18.9844 36.812 23.0767 36.812 28.1247C36.812 33.1729 32.7196 37.2651 27.6716 37.2651C22.6235 37.2651 18.5312 33.1729 18.5312 28.1247Z" fill="#1ABCFE"/>
<path d="M0.25 46.406C0.25 41.358 4.34227 37.2656 9.39036 37.2656H18.5307V46.406C18.5307 51.4541 14.4385 55.5464 9.39036 55.5464C4.34227 55.5464 0.25 51.4541 0.25 46.406Z" fill="#0ACF83"/>
<path d="M18.5312 0.704102V18.9848H27.6716C32.7197 18.9848 36.812 14.8925 36.812 9.84446C36.812 4.79638 32.7197 0.704102 27.6716 0.704102H18.5312Z" fill="#FF7262"/>
<path d="M0.25 9.84446C0.25 14.8925 4.34227 18.9848 9.39036 18.9848H18.5307V0.704102H9.39036C4.34227 0.704102 0.25 4.79638 0.25 9.84446Z" fill="#F24E1E"/>
<path d="M0.25 28.1247C0.25 33.1729 4.34227 37.2651 9.39036 37.2651H18.5307V18.9844H9.39036C4.34227 18.9844 0.25 23.0767 0.25 28.1247Z" fill="#A259FF"/>
</g>
<defs>
<clipPath id="clip0_288_8747">
<rect width="36.9375" height="55.4062" fill="white" transform="translate(0.0625 0.421875)"/>
</clipPath>
</defs>
</svg>
