<svg width="500" height="500" viewBox="0 0 500 500" fill="none" xmlns="http://www.w3.org/2000/svg">
<path d="M249.03 487.2C375.194 487.2 477.47 433.944 477.47 368.25C477.47 302.556 375.194 249.3 249.03 249.3C122.866 249.3 20.5898 302.556 20.5898 368.25C20.5898 433.944 122.866 487.2 249.03 487.2Z" fill="#222426"/>
<path d="M395.38 383.79C429.031 383.79 456.31 368.039 456.31 348.61C456.31 329.18 429.031 313.43 395.38 313.43C361.729 313.43 334.45 329.18 334.45 348.61C334.45 368.039 361.729 383.79 395.38 383.79Z" fill="#E6E6E6"/>
<path d="M150 327.73C173.31 341.19 174.26 363.41 150.94 376.87C127.62 390.33 88.8902 389.93 65.5702 376.47C42.2502 363.01 42.2602 341.19 65.5702 327.73C88.8802 314.27 126.67 314.27 150 327.73Z" fill="#E6E6E6"/>
<path d="M340.14 400.26L263.62 356.08C262.278 355.399 260.795 355.044 259.29 355.044C257.786 355.044 256.302 355.399 254.96 356.08L178.44 400.26C176.05 401.64 176.05 403.88 178.44 405.26L213.29 425.38L180.74 444.17C174.13 447.98 163.37 447.98 156.74 444.17L105.54 414.61C102.72 412.98 101.16 410.93 101.16 408.85C101.16 406.77 102.72 404.71 105.54 403.08L150.91 376.88C151.149 376.755 151.36 376.582 151.531 376.374C151.702 376.165 151.829 375.924 151.904 375.665C151.979 375.406 152.001 375.134 151.969 374.866C151.936 374.598 151.85 374.34 151.715 374.106C151.58 373.873 151.399 373.669 151.183 373.507C150.967 373.345 150.721 373.229 150.459 373.165C150.197 373.101 149.925 373.09 149.659 373.134C149.392 373.178 149.138 373.275 148.91 373.42L103.56 399.6C99.4502 401.98 97.1802 405.26 97.1802 408.84C97.1802 412.42 99.4502 415.69 103.56 418.07L154.76 447.63C159.09 449.861 163.89 451.025 168.76 451.025C173.631 451.025 178.431 449.861 182.76 447.63L217.31 427.69L255 449.44C256.342 450.12 257.826 450.475 259.33 450.475C260.835 450.475 262.318 450.12 263.66 449.44L340.18 405.26C342.53 403.88 342.53 401.64 340.14 400.26Z" fill="#E6E6E6"/>
<path d="M427.58 332.09C427.58 332.09 430.36 290.91 429.58 275.73C428.93 263.73 427.3 258.73 426.96 256.02C426.96 256.02 424.01 228.02 423.77 204.13C423.65 192.65 422.59 184.49 416.3 170.85L375.87 180.52C375.05 186.58 372.27 226.88 371.61 262.71C371.04 294.08 371.93 321.54 371.93 321.54V323.19C371.93 325.03 371.53 326.31 370.35 329.25C368.875 333.037 366.757 336.542 364.09 339.61C363.26 340.51 357.49 345.55 356.73 346.61C354.25 349.5 359.39 351.13 363.2 350.61C367.2 350.07 373.46 348.54 375.2 346.1C376.38 344.46 377.27 338.75 378.48 337.1C382.57 331.52 384.25 329.1 384.28 327.34C384.34 324.12 383.23 322.85 382.83 321.03C383.16 317.23 391.37 285.98 391.51 274.91C391.58 269.64 391.22 262.38 391.22 262.38L397.58 225.86C400.04 234.98 404.36 257.62 405.82 266.31C407.59 276.93 412.22 304.19 414.96 320.45C416.01 326.72 416.5 329.89 416.96 332.8L417.07 334.04C417.16 335.62 418.31 352.52 418.93 356.04C420.23 363.43 426.8 362.5 427.85 356.52C428.75 351.44 427.63 335.68 427.6 333.75L427.58 332.09Z" fill="#FFA8A7"/>
<path d="M427.58 332.09C429.44 332.09 428.22 339.3 428.7 343.91C429.21 348.86 430.83 352.48 431.3 356.53C431.931 360.07 431.386 363.718 429.75 366.92C428.46 369.92 421.96 373.92 419.49 369.71C417.02 365.5 416.49 360.63 416.78 356.01C417.07 351.39 416.78 348.29 416.87 344.66C416.96 341.46 414.61 333.29 417.02 332.83L417.13 334.07C418 335.8 426.78 336.14 427.66 333.8L427.58 332.09Z" fill="#37474F"/>
<path d="M384.7 331.27C385.27 333.58 384.7 339.92 384.7 339.92C384.7 339.92 383.7 342.11 380.13 343.56L378.53 334.74L384.7 331.27Z" fill="#263238"/>
<path d="M380.11 343.56L372.25 340.98L370.35 334L379.19 338.47L380.11 343.56Z" fill="#060607"/>
<path d="M371.93 323.19V321.54C370.86 322.06 368.51 330.67 365.33 336.54C362.43 341.93 356.68 344.93 354.81 347.28C352.31 350.41 357.17 354.46 364.96 352.79C368.83 351.96 374.69 349.49 376.28 346.88C377.87 344.27 378.4 339.47 379.7 337.55C381 335.63 384.09 333.42 384.7 331.24C385.208 329.272 385.208 327.208 384.7 325.24C384.09 323.24 383.55 320.85 382.87 321.07V322.58C382.35 323.64 380.46 324.88 376.53 325.1C374.61 325.19 372.79 324.9 371.93 323.19Z" fill="#37474F"/>
<path d="M375.05 180C375.05 180 372.38 209.67 371.52 235.94C370.66 262.21 371.43 296.11 371.43 296.11C371.43 296.11 374.14 298.05 380.11 298.32C386.08 298.59 388.11 296.6 388.11 296.6C388.11 296.6 391.76 284.69 392.33 276.31C392.692 271.773 392.692 267.216 392.33 262.68L397.66 227.62C397.66 227.62 404.42 262.14 405.19 266.31C405.96 270.48 412.43 307.37 412.43 307.37C412.43 307.37 414.97 309.71 421.49 309.59C427.26 309.48 428.93 307.41 428.93 307.41C428.93 307.41 430.32 284.79 430 275.13C429.73 266.61 427.78 259.83 427.39 254.3C427 248.77 426.78 217.3 426.39 205.3C426 193.3 425 183 414.73 168.56L375.05 180Z" fill="#455A64"/>
<path d="M397.7 227.649L393.26 205.649C393.26 205.649 385.53 203.649 381.92 198.909C381.92 198.909 382.92 204.149 390.92 207.499L395.64 229.379L394 251.999L397.7 227.649Z" fill="#37474F"/>
<path d="M318.56 174.529C321.408 174.964 324.317 174.748 327.07 173.899C325.861 173.295 324.729 172.546 323.7 171.669C323.228 171.29 322.922 170.741 322.848 170.14C322.773 169.539 322.935 168.933 323.3 168.449C323.67 168.049 324.59 168.979 326.67 169.569C329.33 170.319 331.26 170.479 333.82 171.959C334.786 172.521 335.921 172.72 337.02 172.519C343.26 171.349 357.81 164.519 364.48 160.959C365.84 155.409 368.2 147.249 371.11 137.069C373.8 127.689 378.11 123.589 384.99 123.739L384 144.109C384 144.109 380.72 158.179 376.66 169.669C375.95 171.669 373.1 173.999 367.88 175.939C361.12 178.449 352.96 180.819 342.99 183.549C338.95 184.7 334.823 185.519 330.65 185.999C320.11 186.899 316.07 183.999 314.65 181.919C310.61 176.179 313 173.419 318.56 174.529Z" fill="#FFA8A7"/>
<path d="M402.72 123.59L412.34 124.33C411.512 128.24 411.747 132.3 413.02 136.088C414.293 139.877 416.558 143.254 419.58 145.87L415.29 163.15C415.43 165.29 418.97 172.49 422.4 180.23C415.95 188.87 384.31 191.82 373.99 184.23C375.58 176.09 376.77 169.91 377.09 166.82L376.57 155.65C363.63 145.04 379.24 128.87 384.99 123.73L392.21 123.41L402.72 123.59Z" fill="#FFF9B2"/>
<path d="M443.23 209.679C442.532 209.135 441.979 208.426 441.619 207.617C441.26 206.808 441.106 205.923 441.17 205.039C441.34 203.429 441.71 201.409 442.38 200.629C443.05 199.849 447.25 194.139 449.11 197.459C451.11 201.079 450.7 202.549 450.7 202.549L443.23 209.679Z" fill="#F28F8F"/>
<path d="M430.27 286C425.756 285.85 421.36 284.519 417.52 282.14L367.59 253.3C359.88 248.85 353.59 237.98 353.59 229.07V187.18C353.585 185.778 353.212 184.402 352.508 183.19C351.804 181.977 350.793 180.972 349.578 180.273C348.363 179.574 346.985 179.207 345.583 179.208C344.181 179.209 342.804 179.579 341.59 180.28L324.11 190.4C323.882 190.545 323.628 190.642 323.362 190.686C323.096 190.729 322.823 190.719 322.561 190.655C322.299 190.59 322.053 190.474 321.837 190.312C321.621 190.15 321.441 189.946 321.306 189.713C321.171 189.479 321.084 189.221 321.052 188.953C321.019 188.685 321.041 188.414 321.116 188.155C321.191 187.896 321.318 187.655 321.489 187.446C321.66 187.237 321.871 187.065 322.11 186.94L339.64 176.81C341.463 175.758 343.53 175.203 345.634 175.202C347.739 175.201 349.807 175.754 351.63 176.804C353.454 177.855 354.969 179.367 356.024 181.188C357.079 183.009 357.636 185.075 357.64 187.18V229.07C357.64 236.57 363.14 246.07 369.64 249.84L419.57 278.66C425.96 282.35 431.89 282.99 436.25 280.48C440.61 277.97 443.02 272.48 443.02 265.13V211.65C443.02 202.59 448.81 192.15 456.2 187.88L468.39 180.88C468.618 180.735 468.872 180.638 469.138 180.594C469.405 180.55 469.677 180.561 469.939 180.625C470.201 180.689 470.447 180.806 470.663 180.968C470.879 181.129 471.06 181.333 471.195 181.567C471.33 181.8 471.416 182.059 471.448 182.327C471.481 182.594 471.459 182.866 471.384 183.125C471.309 183.384 471.182 183.625 471.011 183.834C470.84 184.043 470.629 184.215 470.39 184.34L458.2 191.34C452.14 194.84 447.02 204.13 447.02 211.64V265.12C447.02 273.98 443.9 280.66 438.25 283.93C435.822 285.319 433.067 286.034 430.27 286Z" fill="#37474F"/>
<path d="M344 193.29V196.56C344 201.79 340.33 208.16 335.79 210.77L305.51 228.26L274.72 210.48V183.82L304.58 170C309.33 167.81 316.85 168.15 321.39 170.76L335.77 179.07C340.3 181.69 344 188.06 344 193.29Z" fill="#37474F"/>
<path d="M304.58 170C309.33 167.81 316.85 168.15 321.39 170.76L335.77 179.07C340.3 181.68 340.12 185.58 335.37 187.78L305.48 201.58L274.68 183.81L304.58 170Z" fill="#455A64"/>
<path opacity="0.15" d="M308.39 195.181C309.583 195.959 310.575 197.007 311.288 198.241C312 199.475 312.412 200.858 312.49 202.281V224.211L305.49 228.211L274.7 210.431V183.821L282.5 180.221L308.39 195.181Z" fill="#060607"/>
<path d="M272.07 179.23C272.531 179.015 273.042 178.928 273.548 178.977C274.055 179.026 274.539 179.21 274.95 179.51L305.23 197C306.425 197.779 307.419 198.829 308.131 200.064C308.844 201.3 309.254 202.686 309.33 204.11V230.19C309.384 230.697 309.302 231.21 309.091 231.674C308.88 232.138 308.548 232.538 308.13 232.83C307.43 233.22 304.96 234.65 304.27 235.06C303.807 235.274 303.295 235.362 302.787 235.312C302.279 235.263 301.793 235.079 301.38 234.78L271.09 217.29C269.897 216.512 268.904 215.463 268.192 214.23C267.48 212.996 267.068 211.612 266.99 210.19V184.11C266.937 183.602 267.019 183.09 267.228 182.625C267.437 182.159 267.765 181.757 268.18 181.46L272.07 179.23Z" fill="#37474F"/>
<path d="M301.38 199.22L271.09 181.74C268.83 180.43 266.99 181.49 266.99 184.11V210.19C267.068 211.612 267.479 212.996 268.192 214.23C268.904 215.463 269.897 216.512 271.09 217.29L301.38 234.78C303.64 236.09 305.48 235.03 305.48 232.41V206.33C305.402 204.907 304.99 203.521 304.278 202.286C303.566 201.051 302.573 200.001 301.38 199.22Z" fill="#455A64"/>
<path d="M265.51 229.58V234.09C265.51 235.92 266.14 237.19 267.18 237.79L269.9 239.36C270.552 239.677 271.277 239.811 272 239.748C272.722 239.684 273.413 239.426 274 239L299 224.54V206.74L296.28 205.17L271.23 219.63C269.562 220.722 268.174 222.193 267.181 223.921C266.187 225.65 265.614 227.589 265.51 229.58ZM276.84 224C276.935 224.325 276.989 224.661 277 225C276.928 226.336 276.543 227.637 275.874 228.796C275.204 229.955 274.271 230.94 273.15 231.67C272.838 231.852 272.501 231.987 272.15 232.07C272.062 231.744 272.015 231.408 272.01 231.07C272.082 229.734 272.468 228.433 273.137 227.274C273.806 226.116 274.739 225.131 275.86 224.4C276.17 224.23 276.499 224.096 276.84 224Z" fill="#FFF9B2"/>
<path opacity="0.2" d="M269.76 239.26C269.812 239.306 269.869 239.346 269.93 239.38L269.83 239.32L267.2 237.79C266.15 237.21 265.53 235.94 265.53 234.1V229.59C265.595 227.586 266.178 225.633 267.22 223.92L269.94 225.49C268.908 227.207 268.329 229.158 268.26 231.16V235.67C268.187 236.838 268.562 237.99 269.31 238.89C269.445 239.031 269.596 239.155 269.76 239.26Z" fill="#060607"/>
<path opacity="0.5" d="M299 206.74L274 221.2C272.304 222.257 270.906 223.73 269.94 225.48L267.22 223.91C268.185 222.163 269.579 220.69 271.27 219.63L296.32 205.17L299 206.74Z" fill="#FFEA00"/>
<path opacity="0.2" d="M277 225C276.999 224.639 276.952 224.28 276.86 223.93C278.51 223.48 279.72 224.51 279.72 226.57C279.648 227.906 279.263 229.205 278.596 230.364C277.929 231.522 276.999 232.508 275.88 233.24C274.1 234.24 272.58 233.73 272.16 232.07C272.513 231.993 272.851 231.858 273.16 231.67C274.278 230.937 275.208 229.952 275.875 228.793C276.542 227.635 276.928 226.335 277 225Z" fill="#060607"/>
<path d="M242.42 216.24V220.76C242.42 222.58 243.05 223.86 244.09 224.45L246.81 226.03C247.461 226.341 248.184 226.469 248.902 226.402C249.621 226.335 250.307 226.075 250.89 225.65L275.89 211.18V193.41L273.17 191.83L248.17 206.29C246.498 207.381 245.106 208.85 244.107 210.579C243.108 212.307 242.53 214.247 242.42 216.24ZM253.75 210.63C253.841 210.98 253.888 211.339 253.89 211.7C253.818 213.036 253.432 214.337 252.763 215.496C252.094 216.654 251.161 217.639 250.04 218.37C249.723 218.542 249.388 218.676 249.04 218.77C248.945 218.428 248.897 218.075 248.9 217.72C248.972 216.385 249.357 215.086 250.024 213.927C250.691 212.768 251.621 211.783 252.74 211.05C253.055 210.863 253.395 210.722 253.75 210.63Z" fill="#FFF9B2"/>
<path opacity="0.2" d="M246.93 226.101H246.88H246.81L244.09 224.511C243.04 223.921 242.42 222.651 242.42 220.811V216.301C242.431 215.337 242.582 214.38 242.87 213.461C243.171 212.477 243.584 211.531 244.1 210.641L246.82 212.201C246.562 212.646 246.332 213.107 246.13 213.581C245.509 214.924 245.169 216.381 245.13 217.861V222.371C245.045 223.532 245.402 224.682 246.13 225.591C246.366 225.805 246.636 225.977 246.93 226.101Z" fill="#060607"/>
<path opacity="0.5" d="M275.92 193.41L250.92 207.87C249.222 208.924 247.823 210.398 246.86 212.15L244.14 210.59C245.089 208.842 246.465 207.362 248.14 206.29L273.14 191.83L275.92 193.41Z" fill="#FFEA00"/>
<path opacity="0.2" d="M253.88 211.69C253.882 211.333 253.838 210.976 253.75 210.63C255.39 210.17 256.61 211.21 256.61 213.27C256.538 214.605 256.153 215.905 255.486 217.063C254.819 218.222 253.888 219.208 252.77 219.94C250.98 220.94 249.47 220.43 249.05 218.76C249.404 218.686 249.742 218.55 250.05 218.36C251.168 217.628 252.097 216.642 252.762 215.483C253.428 214.324 253.811 213.025 253.88 211.69Z" fill="#060607"/>
<path d="M250 199.55C249.667 199.551 249.343 199.44 249.08 199.235C248.817 199.03 248.631 198.743 248.55 198.42L244.55 182.74C244.451 182.354 244.508 181.944 244.711 181.601C244.914 181.258 245.244 181.009 245.63 180.91C246.016 180.81 246.425 180.868 246.769 181.071C247.112 181.273 247.361 181.604 247.46 181.99L251.46 197.68C251.511 197.87 251.523 198.069 251.496 198.264C251.469 198.46 251.404 198.648 251.303 198.817C251.202 198.987 251.069 199.134 250.91 199.252C250.752 199.369 250.572 199.453 250.38 199.5C250.256 199.532 250.128 199.549 250 199.55Z" fill="#FFEA00"/>
<path d="M238.74 206.09C238.403 206.091 238.076 205.978 237.81 205.77L222.92 194C222.756 193.881 222.617 193.731 222.513 193.557C222.408 193.383 222.34 193.19 222.312 192.99C222.284 192.789 222.297 192.585 222.35 192.389C222.404 192.194 222.496 192.011 222.622 191.852C222.747 191.693 222.904 191.562 223.082 191.465C223.26 191.368 223.456 191.309 223.658 191.29C223.859 191.271 224.063 191.293 224.256 191.355C224.449 191.417 224.627 191.517 224.78 191.65L239.67 203.41C239.982 203.658 240.182 204.018 240.229 204.413C240.276 204.808 240.165 205.206 239.92 205.52C239.781 205.699 239.601 205.844 239.397 205.942C239.192 206.041 238.968 206.092 238.74 206.09Z" fill="#FFEA00"/>
<path d="M218.22 220.45C217.822 220.464 217.435 220.32 217.143 220.049C216.852 219.778 216.68 219.403 216.665 219.005C216.65 218.607 216.795 218.22 217.066 217.928C217.337 217.636 217.712 217.464 218.11 217.45L235.52 216.1C235.717 216.083 235.915 216.106 236.102 216.167C236.29 216.228 236.464 216.325 236.613 216.453C236.763 216.582 236.886 216.739 236.975 216.915C237.063 217.091 237.116 217.283 237.13 217.48C237.158 217.876 237.028 218.267 236.77 218.568C236.512 218.869 236.146 219.057 235.75 219.09L218.34 220.44L218.22 220.45Z" fill="#FFEA00"/>
<path d="M456.84 193.36C456.501 189.665 455.953 185.992 455.2 182.36C452.925 173.836 449.893 165.533 446.14 157.55C444.47 154.36 440.7 149.71 438.03 145.78C434.25 140.23 431.59 137.12 428.72 133.35C422.4 125.08 419.72 124.6 412.34 124.35C411.34 126.98 409.06 137.76 416.45 146.47L432.29 163.17C433.19 164.62 442.87 181.17 444.48 187.28C444.759 188.366 444.623 189.517 444.1 190.51C442.835 193.31 441.905 196.251 441.33 199.27C440.86 201.39 439.6 203.07 440.03 203.4C440.561 203.755 441.197 203.92 441.834 203.869C442.471 203.818 443.072 203.554 443.54 203.12C444.671 201.906 445.593 200.514 446.27 199C446.567 198.98 446.866 199.023 447.146 199.125C447.426 199.226 447.681 199.385 447.897 199.591C448.112 199.797 448.282 200.046 448.396 200.321C448.511 200.596 448.566 200.892 448.56 201.19C448.65 202.42 448.09 204.13 447.66 206.26C447.58 206.68 447.48 207.16 447.29 208.32C447.126 209.103 447.032 209.9 447.01 210.7C449.01 211.07 451.1 209.85 454.46 206.7C457.49 203.76 457.69 199.9 456.84 193.36Z" fill="#FFA8A7"/>
<path d="M404.44 118.73C404.5 116.73 411 112.05 414.29 107.07C417.29 102.45 421.6 89.7498 411.5 85.6898C411.5 85.6898 413.68 79.5998 409.72 76.0098C405.76 72.4198 400.43 74.6398 399.59 76.1398C399.083 74.2698 397.985 72.6135 396.461 71.4172C394.937 70.2208 393.067 69.5484 391.13 69.4998C389.238 69.3573 387.358 69.9032 385.837 71.0369C384.315 72.1707 383.255 73.816 382.85 75.6698C381.252 74.978 379.464 74.8568 377.787 75.3265C376.111 75.7963 374.646 76.8284 373.64 78.2498C369.93 83.3598 374.85 88.0398 374.85 88.0398C374.212 88.4704 373.703 89.0663 373.377 89.7637C373.051 90.4612 372.921 91.234 373 91.9998C373.29 94.1598 375.36 94.6898 375.6 95.7698C375.646 95.9957 375.618 96.2307 375.519 96.439C375.419 96.6472 375.255 96.8174 375.05 96.9238C374.845 97.0301 374.612 97.0667 374.384 97.0281C374.157 96.9895 373.948 96.8777 373.79 96.7098C373.844 96.9917 373.953 97.2603 374.111 97.5C374.269 97.7397 374.473 97.9459 374.711 98.1066C374.948 98.2674 375.216 98.3795 375.497 98.4367C375.778 98.4939 376.068 98.4949 376.35 98.4398C378.68 98.3098 380.76 95.1398 380.76 95.1398L404.44 118.73Z" fill="#263238"/>
<path d="M383.24 85.0498C380.24 86.3498 377.41 90.9198 377.45 103.7C377.45 114.53 380.81 117.27 382.45 118.08C384.09 118.89 387.4 118.47 390.59 117.98V124.21C390.59 124.21 384.82 131.37 389.99 134.93C403.31 132.6 404.33 123.86 404.33 123.86L404.57 110.28C404.57 110.28 406.4 112.2 409.57 109.38C412.23 107.05 413.19 103.06 411.19 100.86C409.19 98.6598 406.63 98.4898 404.31 100.94C404.31 100.94 400.06 101.22 393.67 97.2098C387.28 93.1998 385 89.1298 383.24 85.0498Z" fill="#FFA8A7"/>
<path d="M390.91 110.48C390.924 110.686 390.896 110.893 390.828 111.089C390.761 111.285 390.655 111.465 390.518 111.62C390.38 111.774 390.213 111.9 390.026 111.989C389.839 112.078 389.637 112.129 389.43 112.14C389.109 112.165 388.789 112.095 388.509 111.936C388.229 111.778 388.003 111.54 387.859 111.252C387.716 110.964 387.662 110.639 387.705 110.321C387.748 110.002 387.885 109.703 388.099 109.463C388.313 109.223 388.594 109.053 388.906 108.974C389.218 108.895 389.546 108.911 389.848 109.021C390.151 109.13 390.414 109.327 390.603 109.587C390.792 109.848 390.899 110.158 390.91 110.48Z" fill="#B16668"/>
<path d="M382.68 100C382.678 100.282 382.593 100.557 382.436 100.791C382.279 101.025 382.057 101.208 381.797 101.317C381.538 101.426 381.252 101.456 380.975 101.404C380.698 101.352 380.442 101.22 380.239 101.024C380.037 100.828 379.896 100.577 379.835 100.302C379.773 100.027 379.794 99.7404 379.894 99.477C379.994 99.2137 380.17 98.9855 380.398 98.8207C380.627 98.6559 380.899 98.5619 381.18 98.5501C381.374 98.5461 381.567 98.5806 381.747 98.6514C381.928 98.7222 382.093 98.8281 382.232 98.9629C382.371 99.0977 382.483 99.2587 382.56 99.4367C382.637 99.6147 382.678 99.8062 382.68 100Z" fill="#263238"/>
<path d="M393.75 100.66C393.764 100.866 393.736 101.073 393.669 101.269C393.601 101.465 393.496 101.645 393.358 101.8C393.22 101.954 393.053 102.08 392.866 102.169C392.68 102.258 392.477 102.31 392.27 102.32C391.852 102.322 391.449 102.16 391.15 101.868C390.85 101.576 390.678 101.178 390.67 100.76C390.664 100.558 390.697 100.356 390.768 100.167C390.84 99.9773 390.948 99.8038 391.086 99.6562C391.224 99.5085 391.39 99.3896 391.575 99.3061C391.759 99.2227 391.958 99.1763 392.16 99.1698C392.362 99.1632 392.564 99.1965 392.753 99.2678C392.943 99.3392 393.116 99.4471 393.264 99.5855C393.411 99.7238 393.53 99.8899 393.614 100.074C393.697 100.259 393.744 100.458 393.75 100.66Z" fill="#263238"/>
<path d="M381.68 94.2695L378.63 96.0595C378.739 96.2657 378.889 96.4473 379.071 96.593C379.253 96.7387 379.463 96.8453 379.689 96.9063C379.914 96.9672 380.149 96.9812 380.38 96.9474C380.61 96.9135 380.832 96.8326 381.03 96.7095C381.431 96.4642 381.722 96.0739 381.843 95.6196C381.964 95.1653 381.906 94.6819 381.68 94.2695Z" fill="#263238"/>
<path d="M404.37 99.1797V105.18C403.986 105.189 403.603 105.12 403.246 104.977C402.889 104.833 402.565 104.618 402.294 104.344C402.023 104.071 401.812 103.745 401.672 103.386C401.532 103.028 401.467 102.644 401.48 102.26C401.484 101.476 401.783 100.723 402.32 100.151C402.856 99.5799 403.589 99.2328 404.37 99.1797Z" fill="#263238"/>
<path d="M386.62 98.5693L386.01 107.209L381.45 106.139L386.62 98.5693Z" fill="#F28F8F"/>
<path d="M390.63 118C393.98 117.61 400.9 115.69 402.03 112.87C401.582 114.283 400.718 115.527 399.55 116.44C397.46 118.24 390.62 120.1 390.62 120.1L390.63 118Z" fill="#F28F8F"/>
<path d="M430.9 51.18C432.176 51.6671 433.373 52.3411 434.45 53.18C435.494 53.9431 436.392 54.8882 437.1 55.97C437.774 57.0107 438.218 58.1837 438.4 59.41C438.58 60.719 438.418 62.0523 437.93 63.28C437.581 64.263 437.041 65.167 436.34 65.94C435.714 66.599 434.997 67.1648 434.21 67.62C433.445 68.0574 432.641 68.4255 431.81 68.72L429.45 69.57C428.756 69.8209 428.086 70.1355 427.45 70.51C426.851 70.8115 426.348 71.2759 426 71.85C425.841 72.1181 425.613 72.3389 425.34 72.49C425.21 72.5619 425.065 72.6037 424.916 72.6124C424.767 72.621 424.618 72.5963 424.48 72.54L421.36 71.37C421.212 71.3152 421.076 71.2312 420.961 71.123C420.846 71.0148 420.754 70.8845 420.69 70.74C420.622 70.6017 420.586 70.4494 420.586 70.295C420.586 70.1406 420.622 69.9883 420.69 69.85C421.091 68.8878 421.683 68.017 422.43 67.29C423.108 66.653 423.864 66.1053 424.68 65.66C425.468 65.2368 426.291 64.8822 427.14 64.6C427.98 64.32 428.76 64.05 429.49 63.77C430.15 63.528 430.783 63.2197 431.38 62.85C431.894 62.5244 432.287 62.0398 432.5 61.47C432.697 60.9709 432.77 60.4312 432.71 59.8978C432.651 59.3644 432.462 58.8537 432.16 58.41C431.408 57.3173 430.314 56.505 429.05 56.1C427.95 55.6621 426.74 55.576 425.589 55.8536C424.438 56.1312 423.4 56.7588 422.62 57.65C422.421 57.8608 422.188 58.0365 421.93 58.17C421.653 58.2569 421.353 58.2355 421.09 58.11L417.77 56.86C417.652 56.8189 417.543 56.7544 417.45 56.6702C417.357 56.586 417.283 56.4839 417.23 56.37C417.173 56.2533 417.143 56.125 417.143 55.995C417.143 55.865 417.173 55.7367 417.23 55.62C417.67 54.6004 418.358 53.7067 419.23 53.02C420.202 52.2119 421.309 51.5822 422.5 51.16C423.809 50.6977 425.183 50.4479 426.57 50.42C428.049 50.3921 429.519 50.6501 430.9 51.18ZM423.78 75.08C423.926 75.1318 424.059 75.2138 424.171 75.3206C424.283 75.4275 424.372 75.5568 424.43 75.7C424.492 75.842 424.524 75.9952 424.524 76.15C424.524 76.3048 424.492 76.458 424.43 76.6L423.07 80.21C423.018 80.3559 422.936 80.4892 422.83 80.6012C422.723 80.7132 422.594 80.8014 422.45 80.86C422.308 80.9217 422.155 80.9535 422 80.9535C421.845 80.9535 421.692 80.9217 421.55 80.86L418.02 79.53C417.874 79.4782 417.741 79.3962 417.629 79.2894C417.517 79.1826 417.429 79.0533 417.37 78.91C417.309 78.768 417.277 78.6148 417.277 78.46C417.277 78.3052 417.309 78.152 417.37 78.01L418.73 74.4C418.784 74.2538 418.866 74.1199 418.973 74.0064C419.079 73.893 419.208 73.8023 419.35 73.74C419.493 73.6806 419.646 73.65 419.8 73.65C419.955 73.65 420.108 73.6806 420.25 73.74L423.78 75.08Z" fill="#FFF9B2"/>
<path d="M432.63 94.28C432.734 94.3824 432.817 94.5045 432.874 94.6393C432.93 94.7741 432.96 94.9188 432.96 95.065C432.96 95.2112 432.93 95.3559 432.874 95.4907C432.817 95.6254 432.734 95.7476 432.63 95.85L430.13 98.49C430.03 98.5965 429.909 98.6816 429.775 98.74C429.641 98.7985 429.496 98.8291 429.35 98.83C429.204 98.8353 429.057 98.8115 428.92 98.7601C428.783 98.7086 428.657 98.6304 428.55 98.53L426 96.08C425.894 95.9798 425.809 95.859 425.75 95.7249C425.692 95.5908 425.661 95.4463 425.66 95.3C425.653 95.1532 425.675 95.0064 425.727 94.8688C425.778 94.7311 425.858 94.6056 425.96 94.5L428.47 91.87C428.68 91.6642 428.961 91.5489 429.255 91.5489C429.549 91.5489 429.831 91.6642 430.04 91.87L432.63 94.28ZM447.63 76.15C448.56 77.031 449.358 78.0414 450 79.15C450.619 80.2005 451.049 81.3512 451.27 82.55C451.458 83.6991 451.4 84.8749 451.1 86C450.781 87.0646 450.244 88.051 449.522 88.8963C448.801 89.7417 447.911 90.4275 446.91 90.91C446.128 91.2554 445.299 91.4845 444.45 91.59C443.624 91.683 442.791 91.7064 441.96 91.66L439.6 91.53C438.896 91.492 438.19 91.5154 437.49 91.6C436.863 91.6692 436.267 91.9116 435.77 92.3C435.535 92.4778 435.254 92.5853 434.96 92.61C434.82 92.6257 434.678 92.6096 434.544 92.5629C434.411 92.5162 434.29 92.44 434.19 92.34L431.92 90.18C431.702 89.9738 431.572 89.6903 431.56 89.39C431.546 89.2423 431.567 89.0933 431.623 88.9557C431.679 88.8181 431.767 88.6961 431.88 88.6C432.577 87.9072 433.407 87.363 434.32 87C435.141 86.695 435.998 86.4967 436.87 86.41C437.712 86.3401 438.558 86.3401 439.4 86.41C440.233 86.4833 441.013 86.5333 441.74 86.56C442.409 86.5937 443.079 86.5568 443.74 86.45C444.309 86.3615 444.833 86.0873 445.23 85.67C445.581 85.3071 445.839 84.8647 445.981 84.3806C446.124 83.8966 446.148 83.3852 446.05 82.89C445.801 81.6633 445.15 80.5547 444.2 79.74C443.402 78.9588 442.381 78.4435 441.278 78.2645C440.176 78.0855 439.045 78.2515 438.04 78.74C437.793 78.8486 437.529 78.9129 437.26 78.93C437.123 78.9218 436.99 78.8856 436.868 78.8237C436.746 78.7618 436.638 78.6754 436.55 78.57L434.13 76.26C433.956 76.1024 433.849 75.8842 433.83 75.65C433.824 75.5263 433.844 75.4027 433.889 75.2872C433.933 75.1718 434.002 75.0671 434.09 74.98C434.846 74.2607 435.766 73.7356 436.77 73.45C437.911 73.109 439.102 72.9702 440.29 73.04C441.598 73.1197 442.885 73.4101 444.1 73.9C445.4 74.4126 446.587 75.1772 447.59 76.15H447.63Z" fill="#FFF9B2"/>
<g opacity="0.6">
<path d="M432.63 94.28C432.734 94.3824 432.817 94.5045 432.874 94.6393C432.93 94.7741 432.96 94.9188 432.96 95.065C432.96 95.2112 432.93 95.3559 432.874 95.4907C432.817 95.6254 432.734 95.7476 432.63 95.85L430.13 98.49C430.03 98.5965 429.909 98.6816 429.775 98.74C429.641 98.7985 429.496 98.8291 429.35 98.83C429.204 98.8353 429.057 98.8115 428.92 98.7601C428.783 98.7086 428.657 98.6304 428.55 98.53L426 96.08C425.894 95.9798 425.809 95.859 425.75 95.7249C425.692 95.5908 425.661 95.4463 425.66 95.3C425.653 95.1532 425.675 95.0064 425.727 94.8688C425.778 94.7311 425.858 94.6056 425.96 94.5L428.47 91.87C428.68 91.6642 428.961 91.5489 429.255 91.5489C429.549 91.5489 429.831 91.6642 430.04 91.87L432.63 94.28ZM447.63 76.15C448.56 77.031 449.358 78.0414 450 79.15C450.619 80.2005 451.049 81.3512 451.27 82.55C451.458 83.6991 451.4 84.8749 451.1 86C450.781 87.0646 450.244 88.051 449.522 88.8963C448.801 89.7417 447.911 90.4275 446.91 90.91C446.128 91.2554 445.299 91.4845 444.45 91.59C443.624 91.683 442.791 91.7064 441.96 91.66L439.6 91.53C438.896 91.492 438.19 91.5154 437.49 91.6C436.863 91.6692 436.267 91.9116 435.77 92.3C435.535 92.4778 435.254 92.5853 434.96 92.61C434.82 92.6257 434.678 92.6096 434.544 92.5629C434.411 92.5162 434.29 92.44 434.19 92.34L431.92 90.18C431.702 89.9738 431.572 89.6903 431.56 89.39C431.546 89.2423 431.567 89.0933 431.623 88.9557C431.679 88.8181 431.767 88.6961 431.88 88.6C432.577 87.9072 433.407 87.363 434.32 87C435.141 86.695 435.998 86.4967 436.87 86.41C437.712 86.3401 438.558 86.3401 439.4 86.41C440.233 86.4833 441.013 86.5333 441.74 86.56C442.409 86.5937 443.079 86.5568 443.74 86.45C444.309 86.3615 444.833 86.0873 445.23 85.67C445.581 85.3071 445.839 84.8647 445.981 84.3806C446.124 83.8966 446.148 83.3852 446.05 82.89C445.801 81.6633 445.15 80.5547 444.2 79.74C443.402 78.9588 442.381 78.4435 441.278 78.2645C440.176 78.0855 439.045 78.2515 438.04 78.74C437.793 78.8486 437.529 78.9129 437.26 78.93C437.123 78.9218 436.99 78.8856 436.868 78.8237C436.746 78.7618 436.638 78.6754 436.55 78.57L434.13 76.26C433.956 76.1024 433.849 75.8842 433.83 75.65C433.824 75.5263 433.844 75.4027 433.889 75.2872C433.933 75.1718 434.002 75.0671 434.09 74.98C434.846 74.2607 435.766 73.7356 436.77 73.45C437.911 73.109 439.102 72.9702 440.29 73.04C441.598 73.1197 442.885 73.4101 444.1 73.9C445.4 74.4126 446.587 75.1772 447.59 76.15H447.63Z" fill="#FFEA00"/>
</g>
<path d="M76.8096 345.71C79.9796 347.64 84.1896 347.71 88.1596 346.32L91.1596 325.32L77.1596 321.74L76.8096 345.71Z" fill="#FFA8A7"/>
<path d="M99.3998 365.81C99.7498 366.17 99.5398 368.81 99.1098 369.4C98.6798 369.99 96.2698 371.99 91.8298 372.07C87.5998 372.14 83.8298 371.37 81.4698 369.66C79.1098 367.95 77.9798 366.16 77.8698 363.74C77.7598 361.32 78.1598 359.03 77.1198 357.12C76.0798 355.21 74.8298 353.61 74.5098 352.67C74.1341 350.967 74.1341 349.203 74.5098 347.5L99.3998 365.81Z" fill="#263238"/>
<path d="M89.1297 345.44C89.1494 346.352 89.2769 347.258 89.5097 348.14C90.0549 350.031 90.8237 351.851 91.7997 353.56C92.2851 354.452 92.8296 355.311 93.4297 356.13C94.6197 357.72 96.1397 359.05 97.4297 360.58C98.799 362.03 99.6226 363.91 99.7597 365.9C99.7597 369.22 96.1097 370.15 93.3197 370.49C90.2879 370.86 87.2117 370.542 84.3197 369.56C82.8061 369.076 81.4642 368.166 80.455 366.939C79.4457 365.711 78.812 364.219 78.6297 362.64C78.5197 361.71 78.6297 360.78 78.5697 359.85C78.3206 357.716 77.5439 355.678 76.3097 353.92C75.5921 352.903 74.9885 351.809 74.5097 350.66C73.7497 348.57 74.5697 346.3 75.2297 344.29C75.7997 342.56 76.2297 340.47 76.8697 340.67C76.8697 341.02 76.8697 341.8 76.8697 341.8C77.0497 342.19 77.4897 342.47 77.5997 342.93C77.7034 343.405 77.8473 343.87 78.0297 344.32C78.302 345.016 78.7843 345.61 79.4097 346.02C79.5197 344.77 79.6297 343.52 79.7297 342.28C79.7013 342.083 79.7182 341.882 79.7791 341.693C79.84 341.503 79.9433 341.33 80.0811 341.186C80.219 341.043 80.3878 340.932 80.5747 340.864C80.7615 340.795 80.9616 340.77 81.1597 340.79C83.5054 340.361 85.9027 340.29 88.2697 340.58C88.448 340.593 88.6219 340.642 88.7815 340.722C88.941 340.803 89.0831 340.914 89.1997 341.05C89.3217 341.316 89.3601 341.612 89.3097 341.9C89.1859 343.076 89.1258 344.258 89.1297 345.44Z" fill="#FFF9B2"/>
<path opacity="0.2" d="M89.1297 345.44C89.1494 346.352 89.2769 347.258 89.5097 348.14C90.0549 350.031 90.8237 351.851 91.7997 353.56C92.2851 354.452 92.8296 355.311 93.4297 356.13C94.6197 357.72 96.1397 359.05 97.4297 360.58C98.799 362.03 99.6226 363.91 99.7597 365.9C99.7597 369.22 96.1097 370.15 93.3197 370.49C90.2879 370.86 87.2117 370.542 84.3197 369.56C82.8061 369.076 81.4642 368.166 80.455 366.939C79.4457 365.711 78.812 364.219 78.6297 362.64C78.5197 361.71 78.6297 360.78 78.5697 359.85C78.3206 357.716 77.5439 355.678 76.3097 353.92C75.5921 352.903 74.9885 351.809 74.5097 350.66C73.7497 348.57 74.5697 346.3 75.2297 344.29C75.7997 342.56 76.2297 340.47 76.8697 340.67C76.8697 341.02 76.8697 341.8 76.8697 341.8C77.0497 342.19 77.4897 342.47 77.5997 342.93C77.7034 343.405 77.8473 343.87 78.0297 344.32C78.302 345.016 78.7843 345.61 79.4097 346.02C79.5197 344.77 79.6297 343.52 79.7297 342.28C79.7013 342.083 79.7182 341.882 79.7791 341.693C79.84 341.503 79.9433 341.33 80.0811 341.186C80.219 341.043 80.3878 340.932 80.5747 340.864C80.7615 340.795 80.9616 340.77 81.1597 340.79C83.5054 340.361 85.9027 340.29 88.2697 340.58C88.448 340.593 88.6219 340.642 88.7815 340.722C88.941 340.803 89.0831 340.914 89.1997 341.05C89.3217 341.316 89.3601 341.612 89.3097 341.9C89.1859 343.076 89.1258 344.258 89.1297 345.44Z" fill="#060607"/>
<path d="M92.2097 354.281C91.0297 353.281 88.2697 353.131 86.7497 353.211C85.2098 353.262 83.7073 353.699 82.3797 354.481C82.1835 354.6 81.9521 354.649 81.7245 354.618C81.4968 354.587 81.2868 354.478 81.1297 354.311C81.0373 354.213 80.9674 354.097 80.9248 353.969C80.8823 353.842 80.8681 353.707 80.8834 353.573C80.8986 353.44 80.9429 353.312 81.0131 353.197C81.0833 353.083 81.1777 352.985 81.2897 352.911C82.7592 351.953 84.4662 351.423 86.2197 351.381C89.9997 351.321 90.9997 352.001 90.9997 352.001C90.9997 352.001 92.6397 353.201 92.2097 354.281Z" fill="#455A64"/>
<path d="M94.8596 357.82C93.3596 356.82 90.3196 356.82 88.7996 356.87C87.288 356.942 85.822 357.411 84.5496 358.23C84.3525 358.353 84.119 358.402 83.8891 358.371C83.6593 358.34 83.4473 358.23 83.2896 358.06C83.1961 357.963 83.1253 357.846 83.0825 357.718C83.0398 357.59 83.026 357.454 83.0423 357.32C83.0586 357.186 83.1044 357.057 83.1766 356.943C83.2488 356.829 83.3455 356.732 83.4596 356.66C84.9377 355.649 86.6703 355.074 88.4596 355C92.1896 354.93 93.1196 355.75 93.1196 355.75C93.5484 355.94 93.9282 356.225 94.2298 356.583C94.5314 356.942 94.7469 357.365 94.8596 357.82Z" fill="#455A64"/>
<path d="M84.9296 347.75C86.5088 347.561 88.1102 347.782 89.5796 348.39C90.2096 348.8 90.5796 349.85 90.1496 350.09C88.8527 349.488 87.4269 349.217 85.9996 349.3C84.6021 349.362 83.2254 349.663 81.9296 350.19C81.5996 350.31 81.2196 350.49 80.9296 350.65C80.8228 350.705 80.7058 350.737 80.5859 350.744C80.4661 350.752 80.3461 350.734 80.2333 350.693C80.1206 350.652 80.0177 350.587 79.931 350.504C79.8443 350.421 79.7757 350.321 79.7296 350.21C79.6669 350.025 79.6705 349.825 79.7398 349.642C79.8092 349.46 79.9399 349.307 80.1096 349.21C81.5941 348.386 83.2374 347.888 84.9296 347.75Z" fill="#455A64"/>
<path d="M116.269 337.82C118.709 343.93 122.529 342.05 128.349 338.53L129.229 317.67L114.419 316.3L116.269 337.82Z" fill="#FFA8A7"/>
<path d="M150.69 352.53C150.96 353.512 150.845 354.56 150.37 355.46C149.91 356.3 145.28 358.6 139.23 357.86C134.744 357.308 130.489 355.56 126.91 352.8C124.68 351.14 122.29 350.73 119.29 350.39C116.29 350.05 114.04 349.01 113.45 347.57C112.86 346.13 113.76 343.75 113.76 343.75L150.69 352.53Z" fill="#263238"/>
<path d="M127.13 333.3C127.676 333.185 128.214 333.031 128.74 332.84C129.033 332.732 129.356 332.732 129.65 332.84C130.03 333.01 130.15 333.47 130.24 333.84C130.325 334.745 130.499 335.64 130.76 336.51C131.169 337.233 131.712 337.871 132.36 338.39C133.801 339.68 135.373 340.817 137.05 341.78C138.98 342.96 140.88 343.89 142.87 344.92C144.86 345.95 147.65 346.69 149.23 347.92C151.52 349.66 151.61 353.71 148.81 355.15C146.4 356.4 140.16 357.56 133.81 355.38C130.34 354.19 126.64 350.22 122.04 349.61C119.11 349.23 115.21 348.77 113.44 346.44C112.8 345.44 113.36 342.54 113.88 339.15C114.35 336.15 114.78 331.35 115.75 331.67L115.82 332.59L117 334C117.258 334.276 117.532 334.536 117.82 334.78C118.135 335.15 118.469 335.504 118.82 335.84C119.295 336.248 119.886 336.496 120.51 336.55C120.805 336.569 121.1 336.503 121.36 336.36C121.86 336.08 121.93 335.42 122.36 335.01C122.825 334.532 123.383 334.154 124 333.9C124.856 333.596 125.752 333.414 126.66 333.36C126.818 333.351 126.975 333.331 127.13 333.3Z" fill="#FFF9B2"/>
<path opacity="0.2" d="M127.13 333.3C127.676 333.185 128.214 333.031 128.74 332.84C129.033 332.732 129.356 332.732 129.65 332.84C130.03 333.01 130.15 333.47 130.24 333.84C130.325 334.745 130.499 335.64 130.76 336.51C131.169 337.233 131.712 337.871 132.36 338.39C133.801 339.68 135.373 340.817 137.05 341.78C138.98 342.96 140.88 343.89 142.87 344.92C144.86 345.95 147.65 346.69 149.23 347.92C151.52 349.66 151.61 353.71 148.81 355.15C146.4 356.4 140.16 357.56 133.81 355.38C130.34 354.19 126.64 350.22 122.04 349.61C119.11 349.23 115.21 348.77 113.44 346.44C112.8 345.44 113.36 342.54 113.88 339.15C114.35 336.15 114.78 331.35 115.75 331.67L115.82 332.59L117 334C117.258 334.276 117.532 334.536 117.82 334.78C118.135 335.15 118.469 335.504 118.82 335.84C119.295 336.248 119.886 336.496 120.51 336.55C120.805 336.569 121.1 336.503 121.36 336.36C121.86 336.08 121.93 335.42 122.36 335.01C122.825 334.532 123.383 334.154 124 333.9C124.856 333.596 125.752 333.414 126.66 333.36C126.818 333.351 126.975 333.331 127.13 333.3Z" fill="#060607"/>
<path d="M134.4 340C134.207 339.585 133.914 339.224 133.548 338.95C133.181 338.676 132.752 338.497 132.3 338.43C130.98 338.11 128.57 338.97 127.04 340.1C126.894 340.206 126.777 340.345 126.698 340.507C126.619 340.668 126.581 340.846 126.587 341.026C126.593 341.205 126.643 341.381 126.732 341.537C126.821 341.692 126.948 341.824 127.1 341.92C127.292 342.036 127.516 342.092 127.74 342.079C127.965 342.067 128.181 341.987 128.36 341.85C130.051 340.463 132.221 339.799 134.4 340Z" fill="#455A64"/>
<path d="M138.41 342.57C138.14 342.144 137.772 341.79 137.337 341.536C136.902 341.282 136.413 341.136 135.91 341.11C133.847 341.089 131.83 341.723 130.15 342.92C130.007 343.018 129.891 343.15 129.811 343.303C129.73 343.456 129.688 343.627 129.688 343.8C129.688 343.973 129.73 344.143 129.811 344.297C129.891 344.45 130.007 344.581 130.15 344.68C130.337 344.793 130.554 344.846 130.772 344.831C130.99 344.817 131.199 344.736 131.37 344.6C132.314 343.753 133.438 343.131 134.657 342.779C135.876 342.427 137.159 342.356 138.41 342.57Z" fill="#455A64"/>
<path d="M142.87 344.91C142.558 344.513 142.164 344.188 141.716 343.957C141.267 343.725 140.774 343.594 140.27 343.57C138.279 343.586 136.343 344.23 134.74 345.41C134.6 345.514 134.488 345.649 134.413 345.805C134.338 345.961 134.302 346.133 134.308 346.306C134.314 346.479 134.361 346.648 134.447 346.799C134.533 346.949 134.654 347.077 134.8 347.17C134.981 347.293 135.198 347.352 135.416 347.34C135.635 347.327 135.843 347.243 136.01 347.1C136.902 346.224 137.988 345.57 139.179 345.19C140.371 344.809 141.634 344.714 142.87 344.91Z" fill="#455A64"/>
<path d="M76.4195 289.41C76.8695 279.34 79.0095 274.1 79.3095 271.31C79.3095 271.31 80.1296 215.91 81.4796 199.1L131.08 196.99C131.81 214.99 132.47 263.35 132.08 269.75C131.71 275.88 129.22 329.05 129.22 329.05C122.22 331.24 114.75 328.05 114.75 328.05C114.75 328.05 110.59 297.8 109.91 291.13C109.427 285.131 109.581 279.097 110.37 273.13L107.2 230.06C107.2 230.06 103.37 263.46 101.48 276.06C99.3196 290.47 89.9995 335.14 89.9995 335.14C83.2995 336.81 76.7795 333.92 76.7795 333.92C76.7795 333.92 75.7595 304 76.4195 289.41Z" fill="#455A64"/>
<path d="M107.209 230.1L108.149 224.16C111.039 223.73 118.359 219.16 122.689 215.16C119.605 219.827 115.432 223.675 110.529 226.37L110.379 273.15L107.209 230.1Z" fill="#37474F"/>
<path d="M127.55 167.81C124.18 160.12 118.38 147.17 118.38 147.17L116.91 126.17C119.055 126.238 121.196 126.429 123.32 126.74C126.44 127.23 131.39 130.21 133.65 135.83C135.34 140 144.12 165.44 144.12 165.44L159.42 157.38C163.34 154.89 164.73 150.76 167.23 148.38C169.73 146 172.23 145.64 175 143.73C177.77 141.82 178.86 140.29 179.56 142.2C180.26 144.11 177.16 147.04 176.56 147.77C175.96 148.5 172.95 150.06 176.79 150.26C180.63 150.46 188.4 146.72 190.26 146.08C192.12 145.44 191.96 147.65 190.99 149.02C190.02 150.39 189.92 154.41 188.3 156.66C186.58 159.06 185.65 160.09 181.96 161.52C178.53 162.84 171.42 163.18 167.76 165.29C164.1 167.4 155.24 175.41 149.33 179.52C141.4 185.04 136.94 185.4 133.83 181C130.72 176.6 128.74 170.52 127.55 167.81Z" fill="#FFA8A7"/>
<path d="M114.84 125.72C120.04 125.32 126.17 125.64 129.56 128.72C132.27 131.19 133.29 132.72 136.31 141.26C138.31 146.99 142.59 160.19 142.59 160.19C136.713 161.516 131.44 164.747 127.59 169.38L117.84 147.47L114.84 125.72Z" fill="#FFEA00"/>
<path d="M144.12 165.39C141.485 166.323 139.217 168.075 137.65 170.39C137.65 170.39 138.02 166.39 143.65 164L144.12 165.39Z" fill="#F28F8F"/>
<path d="M102.39 124.78C99.9267 124.678 97.4625 124.948 95.0797 125.58C90.5097 126.79 82.3197 129.09 82.3197 129.09C79.7197 130.44 78.7097 134.94 78.1197 137.53C76.2397 145.82 81.1197 164.53 81.8697 171.82C82.6197 179.11 80.9997 201.44 80.9997 201.44C86.5897 207.92 116.88 212.22 131.63 201.44C131.63 201.44 132.27 150.17 130.82 142.81C128.62 131.67 125.35 126.38 113.82 125.71L102.39 124.78Z" fill="#BEC2C8"/>
<path d="M108.86 97.2798L105.57 99.0898C105.342 98.6369 105.295 98.1143 105.438 97.628C105.581 97.1416 105.903 96.7277 106.34 96.4698C106.557 96.3518 106.796 96.279 107.043 96.256C107.289 96.233 107.538 96.2601 107.773 96.3358C108.009 96.4115 108.226 96.5342 108.413 96.6965C108.6 96.8588 108.752 97.0572 108.86 97.2798Z" fill="#263238"/>
<path d="M123.17 98.5995L120.17 96.2895C120.311 96.0866 120.492 95.9145 120.701 95.7838C120.911 95.653 121.145 95.5662 121.389 95.5288C121.633 95.4914 121.882 95.5041 122.122 95.5661C122.361 95.6281 122.585 95.7381 122.78 95.8895C123.177 96.207 123.439 96.6639 123.511 97.1673C123.584 97.6708 123.462 98.1829 123.17 98.5995Z" fill="#263238"/>
<path d="M93.7399 86.8096C93.7399 86.8096 90.1999 87.2996 88.8999 89.9996C87.7799 92.3196 88.1799 97.9196 89.6899 104C90.5433 107.944 91.8172 111.786 93.4899 115.46C94.0808 116.5 95.0465 117.276 96.1899 117.63L95.9999 110.37L95.7399 105.37C95.7399 105.37 98.9699 100.95 99.3299 97.3696C99.7899 92.7096 98.8099 90.7996 98.8099 90.7996L93.7399 86.8096Z" fill="#263238"/>
<path d="M99.4498 93.8101C99.463 97.3933 100.897 100.825 103.437 103.352C105.978 105.879 109.417 107.295 113 107.29C120.46 107.29 126.06 101.14 126 93.6701C125.94 86.2001 120.34 80.2201 112.87 80.2501C109.294 80.2765 105.875 81.7181 103.36 84.2594C100.845 86.8007 99.4391 90.2347 99.4498 93.8101Z" fill="#263238"/>
<path d="M95.9996 104.52C94.7796 105.58 93.7896 102.85 92.7696 101.78C91.7496 100.71 88.3996 99.2695 86.7696 102.78C85.1396 106.29 88.2296 111.38 90.7696 112.36C91.5364 112.65 92.3786 112.674 93.1605 112.427C93.9423 112.18 94.6184 111.677 95.0796 111V127C98.9296 133.94 105.72 133.72 109.35 133.33C112.98 132.94 113.77 129.17 111.12 126.13V121.13C113.137 121.446 115.182 121.543 117.22 121.42C120.54 120.9 122.22 118.42 123.22 114.79C124.82 109 125.47 99.2795 123.22 88.0495C119.5 85.1695 106.6 85.6495 98.7896 90.5995C99.3996 100.67 97.1596 103.47 95.9996 104.52Z" fill="#FFA8A7"/>
<path d="M123.88 82.4898C124.382 80.4052 124.608 78.2634 124.55 76.1198C124.55 75.2798 124.34 74.2598 123.55 73.9398C122.76 73.6198 121.98 74.1998 121.3 74.6598C118.42 76.5998 114.84 77.1498 111.37 77.3398C105.37 77.6698 96.2001 77.2798 93.1501 83.8498C92.3001 85.6698 92.1501 87.5898 93.8301 88.8498C95.3279 89.8532 97.0407 90.4903 98.8301 90.7098C101.83 91.2398 104.83 91.8998 107.91 92.3098C110.99 92.7198 114.65 93.1198 117.7 92.1798C120.27 91.3898 122.88 90.7098 124.79 88.6698C126.446 86.891 127.38 84.5596 127.41 82.1298C127.41 81.7898 127.34 81.3598 127 81.2698C126.83 81.2485 126.658 81.2836 126.51 81.3698L123.88 82.4898Z" fill="#263238"/>
<path d="M111.09 121.239C111.09 121.239 103.67 119.769 101.09 118.399C99.5615 117.608 98.307 116.374 97.4897 114.859C97.8698 116.373 98.5499 117.794 99.4897 119.039C101.4 121.459 111.07 123.209 111.07 123.209L111.09 121.239Z" fill="#F28F8F"/>
<path d="M109.6 102.19C109.59 102.518 109.484 102.836 109.295 103.104C109.105 103.371 108.841 103.578 108.535 103.696C108.229 103.815 107.895 103.841 107.575 103.771C107.254 103.701 106.961 103.538 106.733 103.303C106.504 103.068 106.35 102.77 106.289 102.448C106.229 102.125 106.265 101.792 106.392 101.49C106.52 101.187 106.734 100.929 107.008 100.748C107.281 100.567 107.602 100.47 107.93 100.47C108.379 100.478 108.807 100.663 109.12 100.985C109.433 101.308 109.605 101.741 109.6 102.19Z" fill="#263238"/>
<path d="M112 113.74C112.008 114.163 111.848 114.571 111.556 114.877C111.264 115.182 110.862 115.36 110.44 115.37C110.014 115.362 109.61 115.186 109.313 114.881C109.017 114.576 108.854 114.165 108.86 113.74C108.856 113.531 108.893 113.324 108.969 113.129C109.045 112.935 109.159 112.757 109.304 112.607C109.449 112.457 109.622 112.336 109.813 112.253C110.005 112.169 110.211 112.124 110.42 112.12C110.843 112.128 111.247 112.302 111.542 112.606C111.838 112.909 112.002 113.317 112 113.74Z" fill="#B16668"/>
<path d="M107.5 96.9394L104.06 99.1094C103.776 98.6372 103.686 98.0734 103.809 97.5364C103.932 96.9993 104.259 96.5309 104.72 96.2294C104.948 96.0896 105.202 95.997 105.466 95.957C105.731 95.917 106.001 95.9306 106.26 95.9968C106.519 96.063 106.762 96.1805 106.975 96.3424C107.188 96.5043 107.367 96.7073 107.5 96.9394Z" fill="#263238"/>
<path d="M119.64 94.8193L123.26 96.4393C123.162 96.677 123.017 96.8923 122.834 97.0724C122.651 97.2524 122.433 97.3935 122.194 97.4869C121.955 97.5804 121.699 97.6244 121.442 97.6162C121.185 97.608 120.933 97.5479 120.7 97.4393C120.227 97.2146 119.856 96.8208 119.66 96.3357C119.464 95.8506 119.456 95.3095 119.64 94.8193Z" fill="#263238"/>
<path d="M121.55 101.69C121.538 102.005 121.434 102.309 121.251 102.566C121.067 102.823 120.812 103.02 120.518 103.133C120.223 103.246 119.902 103.27 119.594 103.202C119.286 103.134 119.005 102.977 118.785 102.751C118.566 102.524 118.418 102.238 118.359 101.928C118.3 101.618 118.334 101.298 118.456 101.007C118.578 100.716 118.783 100.468 119.045 100.292C119.307 100.116 119.615 100.022 119.93 100.02C120.366 100.027 120.781 100.207 121.084 100.52C121.388 100.833 121.555 101.254 121.55 101.69Z" fill="#263238"/>
<path d="M113.37 98.8701L113.97 109.99L119.24 108.59L113.37 98.8701Z" fill="#F28F8F"/>
<path d="M19.9999 144.67C21.7299 145.6 28.7799 150.56 32.6099 150.99C34.2299 151.17 34.6699 150.91 34.6099 150.49C34.5299 149.91 33.4999 149.04 33.2499 148.57C32.8199 147.75 30.2499 144.35 31.2499 142.57C32.2499 140.79 33.1199 142.49 35.4999 144.82C37.8799 147.15 40.3199 147.96 42.4099 150.67C44.4999 153.38 45.1999 157.67 48.6599 160.78L62.4399 170.19C62.4399 170.19 68.8599 140.4 71.6799 136.89C74.6799 133.2 87.5499 141.24 84.8499 152.97C82.1499 164.7 75.9999 185.06 71.7199 189.05C68.9599 191.64 63.1499 189.2 55.8999 182.75C50.1699 177.65 42.3199 170 38.9999 167.29C35.6799 164.58 28.7799 163.12 25.6099 161.29C22.1999 159.29 21.4499 158.12 20.1399 155.47C18.9099 152.98 19.4599 148.99 18.7299 147.47C17.9999 145.95 18.2399 143.74 19.9999 144.67Z" fill="#FFA8A7"/>
<path d="M82.3198 129.09C86.7398 131.85 86.9598 135.87 87.1798 140.47C87.2424 145.854 86.3903 151.211 84.6598 156.31C82.7898 162.1 79.8198 172.67 79.8198 172.67C79.8198 172.67 68.2798 172.94 62.3398 167.81C62.3398 167.81 65.0498 156.41 66.9598 147.81C68.8698 139.21 71.1898 130.06 82.3198 129.09Z" fill="#FFEA00"/>
<path d="M62.3896 170.21C65.5396 171.96 67.3896 175.72 67.9596 177.21C67.8233 175.475 67.2772 173.797 66.3662 172.314C65.4553 170.831 64.2056 169.586 62.7197 168.68L62.3896 170.21Z" fill="#F28F8F"/>
<path d="M182.11 386.34L259.29 430.9V447.32L182.11 402.76V386.34Z" fill="#FFF9B2"/>
<path opacity="0.35" d="M182.11 386.34L259.29 430.9V447.32L182.11 402.76V386.34Z" fill="#060607"/>
<path d="M336.47 386.34L259.29 430.9V447.32L336.47 402.76V386.34Z" fill="#FFF9B2"/>
<path opacity="0.2" d="M336.47 386.34L259.29 430.9V447.32L336.47 402.76V386.34Z" fill="#060607"/>
<path d="M336.47 386.34L259.29 341.79L182.11 386.34L259.29 430.9L336.47 386.34Z" fill="#FFF9B2"/>
<path opacity="0.15" d="M336.47 386.34L259.29 341.79L182.11 386.34L259.29 430.9L336.47 386.34Z" fill="#060607"/>
<path opacity="0.1" d="M259.29 430.9V426.21L190.23 386.34H182.11L259.29 430.9Z" fill="#060607"/>
<path opacity="0.1" d="M259.29 341.79V346.48L328.35 386.34H336.47L259.29 341.79Z" fill="#060607"/>
<path d="M336.47 386.34H328.35L259.29 426.21V430.9L336.47 386.34Z" fill="#FFF9B2"/>
<path d="M259.29 341.79V346.48L190.23 386.34H182.11L259.29 341.79Z" fill="#FFF9B2"/>
<path d="M259.57 367L292.73 386.14C295.21 387.58 295.21 389.9 292.73 391.33L268 405.65C266.607 406.362 265.065 406.733 263.5 406.733C261.935 406.733 260.393 406.362 259 405.65L225.84 386.51C223.36 385.07 223.36 382.75 225.84 381.32L250.58 367C251.972 366.29 253.512 365.92 255.075 365.92C256.638 365.92 258.178 366.29 259.57 367Z" fill="#37474F"/>
<path d="M268 405.65L291.91 391.84L259.57 373.17C258.174 372.467 256.633 372.101 255.07 372.101C253.507 372.101 251.965 372.467 250.57 373.17L226.66 387L259 405.65C260.393 406.362 261.935 406.733 263.5 406.733C265.064 406.733 266.606 406.362 268 405.65Z" fill="#455A64"/>
<path d="M239.54 386.37L254.05 378C254.32 377.864 254.618 377.794 254.92 377.794C255.222 377.794 255.52 377.864 255.79 378L257.57 379C258.05 379.27 258.05 379.72 257.57 380L243.06 388.37C242.791 388.505 242.495 388.576 242.195 388.576C241.894 388.576 241.598 388.505 241.33 388.37L239.55 387.37C239.446 387.335 239.355 387.268 239.291 387.179C239.227 387.09 239.192 386.983 239.19 386.874C239.189 386.764 239.222 386.656 239.285 386.566C239.348 386.476 239.437 386.407 239.54 386.37Z" fill="#263238"/>
<path d="M261.21 398.9L275.72 390.53C275.988 390.395 276.284 390.324 276.585 390.324C276.885 390.324 277.181 390.395 277.45 390.53L279.24 391.53C279.72 391.8 279.72 392.25 279.24 392.53L264.73 400.9C264.461 401.035 264.165 401.106 263.865 401.106C263.564 401.106 263.268 401.035 263 400.9L261.22 399.9C261.116 399.865 261.025 399.798 260.961 399.709C260.897 399.62 260.861 399.513 260.86 399.404C260.859 399.294 260.892 399.186 260.955 399.096C261.017 399.006 261.106 398.938 261.21 398.9Z" fill="#263238"/>
<path d="M225.76 418.77C225.678 417.252 225.239 415.775 224.478 414.46C223.716 413.144 222.655 412.027 221.38 411.2C220.939 410.878 220.419 410.68 219.876 410.628C219.332 410.575 218.784 410.669 218.29 410.9L216.4 412C215.955 412.314 215.602 412.741 215.377 413.236C215.152 413.732 215.063 414.279 215.12 414.82C215.203 416.338 215.641 417.815 216.4 419.131C217.16 420.448 218.218 421.568 219.49 422.4C219.933 422.722 220.454 422.92 220.999 422.972C221.544 423.025 222.093 422.931 222.59 422.7L224.47 421.57C224.912 421.258 225.264 420.835 225.49 420.343C225.717 419.852 225.81 419.309 225.76 418.77Z" fill="#FFF9B2"/>
<path opacity="0.1" d="M219.49 412.33C220.765 413.157 221.826 414.274 222.588 415.59C223.349 416.905 223.788 418.382 223.87 419.9C223.87 422.69 221.87 423.82 219.49 422.43C218.218 421.598 217.16 420.478 216.4 419.161C215.641 417.845 215.203 416.368 215.12 414.85C215.12 412.07 217.08 410.94 219.49 412.33Z" fill="#060607"/>
<path d="M168.76 444.27C163.88 444.355 159.06 443.188 154.76 440.88L103.56 411.32C99.4497 408.94 97.1797 405.66 97.1797 402.08C97.1797 398.5 99.4497 395.23 103.56 392.85L162.88 358.6C169.38 354.85 174.88 345.34 174.88 337.83V150.1C174.88 149.569 175.09 149.06 175.465 148.685C175.841 148.31 176.349 148.1 176.88 148.1C177.41 148.1 177.919 148.31 178.294 148.685C178.669 149.06 178.88 149.569 178.88 150.1V337.83C178.88 346.89 172.74 357.54 164.88 362.07L105.56 396.32C102.74 397.95 101.18 399.99 101.18 402.08C101.18 404.17 102.74 406.22 105.56 407.85L156.76 437.41C163.37 441.23 174.13 441.23 180.76 437.41L218.51 415.63C218.737 415.485 218.992 415.388 219.258 415.344C219.524 415.3 219.796 415.311 220.058 415.375C220.32 415.439 220.567 415.556 220.783 415.717C220.998 415.879 221.179 416.083 221.314 416.317C221.449 416.55 221.536 416.809 221.568 417.076C221.601 417.344 221.579 417.616 221.503 417.875C221.428 418.134 221.302 418.375 221.131 418.584C220.96 418.793 220.749 418.965 220.51 419.09L182.76 440.88C178.46 443.19 173.64 444.357 168.76 444.27Z" fill="#37474F"/>
<path d="M78.9196 78.3098C78.89 78.1742 78.889 78.034 78.9165 77.898C78.9441 77.7619 78.9996 77.6332 79.0797 77.5198C79.155 77.4012 79.2545 77.2999 79.3717 77.2223C79.4889 77.1448 79.6211 77.0928 79.7597 77.0698L84.6197 76.1298C84.7568 76.0987 84.8989 76.0969 85.0367 76.1245C85.1746 76.1521 85.305 76.2084 85.4196 76.2898C85.652 76.4497 85.8133 76.6934 85.8697 76.9698L86.6197 80.8698C86.6478 81.0061 86.6473 81.1467 86.618 81.2827C86.5887 81.4188 86.5314 81.5472 86.4496 81.6598C86.3764 81.7791 86.2789 81.8817 86.1635 81.9609C86.0481 82.0402 85.9173 82.0943 85.7796 82.1198L80.9097 83.0498C80.7741 83.0794 80.6338 83.0805 80.4978 83.0529C80.3618 83.0254 80.233 82.9698 80.1197 82.8898C80.0011 82.8144 79.8997 82.7149 79.8222 82.5977C79.7447 82.4806 79.6927 82.3484 79.6696 82.2098L78.9196 78.3098ZM74.8597 57.2498C74.8321 57.1125 74.8319 56.9711 74.8593 56.8338C74.8867 56.6965 74.941 56.5659 75.0191 56.4497C75.0972 56.3335 75.1975 56.2339 75.3143 56.1566C75.4312 56.0794 75.5621 56.0261 75.6996 55.9998L80.5697 55.0598C80.7059 55.0316 80.8466 55.0322 80.9826 55.0614C81.1186 55.0907 81.247 55.1481 81.3597 55.2298C81.4771 55.3041 81.5778 55.402 81.6552 55.5174C81.7327 55.6327 81.7853 55.763 81.8096 55.8998L84.9997 72.5698C85.0278 72.7061 85.0273 72.8467 84.998 72.9827C84.9687 73.1188 84.9114 73.2472 84.8297 73.3598C84.7554 73.4772 84.6574 73.5779 84.5421 73.6554C84.4267 73.7329 84.2965 73.7855 84.1597 73.8098L79.2897 74.7498C79.1534 74.778 79.0127 74.7774 78.8767 74.7481C78.7407 74.7189 78.6123 74.6615 78.4997 74.5798C78.3822 74.5055 78.2815 74.4076 78.2041 74.2922C78.1266 74.1768 78.074 74.0466 78.0497 73.9098L74.8597 57.2498Z" fill="#FFF9B2"/>
<path d="M70.7998 94.6293C70.7063 94.5257 70.6342 94.4047 70.5876 94.2731C70.541 94.1416 70.5208 94.0021 70.5283 93.8627C70.5357 93.7234 70.5706 93.5868 70.6309 93.461C70.6912 93.3351 70.7758 93.2224 70.8798 93.1293L74.5698 89.8193C74.6728 89.7245 74.7946 89.6524 74.9272 89.6076C75.0599 89.5628 75.2004 89.5464 75.3398 89.5593C75.4784 89.5623 75.6149 89.5941 75.7406 89.6526C75.8662 89.7111 75.9784 89.7952 76.0698 89.8993L78.7198 92.8993C78.8133 93.003 78.8854 93.124 78.932 93.2556C78.9786 93.3871 78.9988 93.5266 78.9914 93.666C78.9839 93.8053 78.9491 93.9419 78.8887 94.0677C78.8284 94.1936 78.7438 94.3063 78.6398 94.3993L74.9998 97.6693C74.8968 97.7642 74.7751 97.8363 74.6424 97.8811C74.5098 97.9259 74.3692 97.9423 74.2298 97.9293C74.0912 97.9264 73.9548 97.8946 73.8291 97.8361C73.7034 97.7775 73.5913 97.6935 73.4998 97.5893L70.7998 94.6293ZM56.4898 78.6293C56.3016 78.4184 56.2046 78.1416 56.2198 77.8593C56.224 77.72 56.2574 77.5831 56.3176 77.4573C56.3779 77.3316 56.4638 77.2199 56.5698 77.1293L60.2598 73.8193C60.362 73.7227 60.4833 73.6488 60.616 73.6022C60.7487 73.5557 60.8897 73.5377 61.0298 73.5493C61.1692 73.5536 61.3061 73.5869 61.4318 73.6472C61.5575 73.7074 61.6693 73.7933 61.7598 73.8993L73.0798 86.5593C73.1746 86.6623 73.2468 86.7841 73.2916 86.9167C73.3364 87.0494 73.3528 87.1899 73.3398 87.3293C73.3368 87.4679 73.3051 87.6044 73.2465 87.7301C73.188 87.8557 73.104 87.9679 72.9998 88.0593L69.2998 91.3693C69.198 91.4629 69.0779 91.5342 68.9471 91.579C68.8163 91.6237 68.6776 91.6409 68.5398 91.6293C68.3995 91.6277 68.2611 91.5967 68.1336 91.5381C68.0061 91.4795 67.8924 91.3948 67.7998 91.2893L56.4898 78.6293Z" fill="#FFF9B2"/>
<g opacity="0.6">
<path d="M70.7998 94.6293C70.7063 94.5257 70.6342 94.4047 70.5876 94.2731C70.541 94.1416 70.5208 94.0021 70.5283 93.8627C70.5357 93.7234 70.5706 93.5868 70.6309 93.461C70.6912 93.3351 70.7758 93.2224 70.8798 93.1293L74.5698 89.8193C74.6728 89.7245 74.7946 89.6524 74.9272 89.6076C75.0599 89.5628 75.2004 89.5464 75.3398 89.5593C75.4784 89.5623 75.6149 89.5941 75.7406 89.6526C75.8662 89.7111 75.9784 89.7952 76.0698 89.8993L78.7198 92.8993C78.8133 93.003 78.8854 93.124 78.932 93.2556C78.9786 93.3871 78.9988 93.5266 78.9914 93.666C78.9839 93.8053 78.9491 93.9419 78.8887 94.0677C78.8284 94.1936 78.7438 94.3063 78.6398 94.3993L74.9998 97.6693C74.8968 97.7642 74.7751 97.8363 74.6424 97.8811C74.5098 97.9259 74.3692 97.9423 74.2298 97.9293C74.0912 97.9264 73.9548 97.8946 73.8291 97.8361C73.7034 97.7775 73.5913 97.6935 73.4998 97.5893L70.7998 94.6293ZM56.4898 78.6293C56.3016 78.4184 56.2046 78.1416 56.2198 77.8593C56.224 77.72 56.2574 77.5831 56.3176 77.4573C56.3779 77.3316 56.4638 77.2199 56.5698 77.1293L60.2598 73.8193C60.362 73.7227 60.4833 73.6488 60.616 73.6022C60.7487 73.5557 60.8897 73.5377 61.0298 73.5493C61.1692 73.5536 61.3061 73.5869 61.4318 73.6472C61.5575 73.7074 61.6693 73.7933 61.7598 73.8993L73.0798 86.5593C73.1746 86.6623 73.2468 86.7841 73.2916 86.9167C73.3364 87.0494 73.3528 87.1899 73.3398 87.3293C73.3368 87.4679 73.3051 87.6044 73.2465 87.7301C73.188 87.8557 73.104 87.9679 72.9998 88.0593L69.2998 91.3693C69.198 91.4629 69.0779 91.5342 68.9471 91.579C68.8163 91.6237 68.6776 91.6409 68.5398 91.6293C68.3995 91.6277 68.2611 91.5967 68.1336 91.5381C68.0061 91.4795 67.8924 91.3948 67.7998 91.2893L56.4898 78.6293Z" fill="#FFEA00"/>
</g>
</svg>
