<svg width="369" height="362" viewBox="0 0 369 362" fill="none" xmlns="http://www.w3.org/2000/svg">
<path d="M287.397 273.062C289.4 273.062 291.024 271.438 291.024 269.435C291.024 267.432 289.4 265.808 287.397 265.808C285.393 265.808 283.77 267.432 283.77 269.435C283.77 271.438 285.393 273.062 287.397 273.062Z" stroke="#7B9FE1" stroke-width="0.5" stroke-linejoin="round"/>
<path d="M334.549 309.333C336.552 309.333 338.176 307.709 338.176 305.706C338.176 303.703 336.552 302.079 334.549 302.079C332.546 302.079 330.922 303.703 330.922 305.706C330.922 307.709 332.546 309.333 334.549 309.333Z" stroke="#7B9FE1" stroke-width="0.5" stroke-linejoin="round"/>
<path d="M270.068 306.915C272.072 306.915 273.696 305.291 273.696 303.288C273.696 301.285 272.072 299.661 270.068 299.661C268.065 299.661 266.441 301.285 266.441 303.288C266.441 305.291 268.065 306.915 270.068 306.915Z" stroke="#7B9FE1" stroke-width="0.5" stroke-miterlimit="10"/>
<path d="M291.428 304.497C294.767 304.497 297.473 301.791 297.473 298.452C297.473 295.114 294.767 292.407 291.428 292.407C288.089 292.407 285.383 295.114 285.383 298.452C285.383 301.791 288.089 304.497 291.428 304.497Z" stroke="#7B9FE1" stroke-width="0.5" stroke-linejoin="round"/>
<path d="M284.174 329.08C286.177 329.08 287.801 327.456 287.801 325.453C287.801 323.45 286.177 321.826 284.174 321.826C282.171 321.826 280.547 323.45 280.547 325.453C280.547 327.456 282.171 329.08 284.174 329.08Z" stroke="#7B9FE1" stroke-width="0.5" stroke-linejoin="round"/>
<path d="M360.744 335.529C362.747 335.529 364.371 333.905 364.371 331.901C364.371 329.898 362.747 328.274 360.744 328.274C358.741 328.274 357.117 329.898 357.117 331.901C357.117 333.905 358.741 335.529 360.744 335.529Z" stroke="#7B9FE1" stroke-width="0.5" stroke-linejoin="round"/>
<path d="M364.373 273.867C366.376 273.867 368 272.244 368 270.24C368 268.237 366.376 266.613 364.373 266.613C362.37 266.613 360.746 268.237 360.746 270.24C360.746 272.244 362.37 273.867 364.373 273.867Z" stroke="#7B9FE1" stroke-width="0.5" stroke-linejoin="round"/>
<path d="M334.951 264.599C336.954 264.599 338.578 262.975 338.578 260.972C338.578 258.969 336.954 257.345 334.951 257.345C332.948 257.345 331.324 258.969 331.324 260.972C331.324 262.975 332.948 264.599 334.951 264.599Z" stroke="#7B9FE1" stroke-width="0.5" stroke-linejoin="round"/>
<path d="M347.043 283.943C350.382 283.943 353.088 281.236 353.088 277.898C353.088 274.559 350.382 271.853 347.043 271.853C343.705 271.853 340.998 274.559 340.998 277.898C340.998 281.236 343.705 283.943 347.043 283.943Z" stroke="#7B9FE1" stroke-width="0.5" stroke-linejoin="round"/>
<path d="M290.219 271.048L331.729 303.289" stroke="#7B9FE1" stroke-width="0.5" stroke-linejoin="round"/>
<path d="M336.162 302.885L345.028 283.943" stroke="#7B9FE1" stroke-width="0.5" stroke-linejoin="round"/>
<path d="M349.059 283.943L360.746 328.274L364.373 273.868" stroke="#7B9FE1" stroke-width="0.5" stroke-linejoin="round"/>
<path d="M330.923 307.721L287.801 325.453" stroke="#7B9FE1" stroke-width="0.5" stroke-linejoin="round"/>
<path d="M297.473 298.451L341.401 279.913" stroke="#7B9FE1" stroke-width="0.5" stroke-linejoin="round"/>
<path d="M289.816 292.407L287.398 273.062" stroke="#7B9FE1" stroke-width="0.5" stroke-linejoin="round"/>
<path d="M353.09 275.883L361.15 272.256" stroke="#7B9FE1" stroke-width="0.5" stroke-linejoin="round"/>
<path d="M272.084 306.512L281.756 322.229" stroke="#7B9FE1" stroke-width="0.5" stroke-linejoin="round"/>
<path d="M270.068 299.661L284.98 272.257" stroke="#7B9FE1" stroke-width="0.5" stroke-linejoin="round"/>
<path d="M295.859 302.885L357.117 331.901" stroke="#7B9FE1" stroke-width="0.5" stroke-linejoin="round"/>
<path d="M334.551 309.332L358.731 329.482" stroke="#7B9FE1" stroke-width="0.5" stroke-linejoin="round"/>
<path d="M291.027 269.436L341 277.899" stroke="#7B9FE1" stroke-width="0.5" stroke-linejoin="round"/>
<path d="M360.745 270.241L290.219 267.823" stroke="#7B9FE1" stroke-width="0.5" stroke-linejoin="round"/>
<path d="M361.151 268.628L338.582 262.986" stroke="#7B9FE1" stroke-width="0.5" stroke-linejoin="round"/>
<path d="M331.326 262.584L286.592 322.632" stroke="#7B9FE1" stroke-width="0.5" stroke-linejoin="round"/>
<path d="M285.383 300.466L273.695 303.287" stroke="#7B9FE1" stroke-width="0.5" stroke-linejoin="round"/>
<path d="M311.03 272.482C311.03 272.145 310.93 271.816 310.743 271.536C310.556 271.256 310.29 271.038 309.979 270.91C309.667 270.781 309.325 270.748 308.995 270.815C308.665 270.881 308.362 271.044 308.124 271.282C307.887 271.521 307.725 271.825 307.661 272.155C307.596 272.486 307.631 272.828 307.761 273.138C307.891 273.449 308.11 273.714 308.391 273.9C308.671 274.086 309.001 274.184 309.338 274.183C309.561 274.183 309.781 274.139 309.987 274.053C310.193 273.967 310.38 273.842 310.537 273.684C310.695 273.526 310.819 273.338 310.904 273.132C310.988 272.926 311.031 272.705 311.03 272.482Z" fill="#7B9FE1"/>
<path d="M294.097 314.652C294.098 314.315 294 313.986 293.814 313.705C293.628 313.424 293.363 313.205 293.052 313.075C292.742 312.945 292.4 312.91 292.069 312.975C291.739 313.04 291.435 313.201 291.196 313.439C290.958 313.676 290.795 313.979 290.729 314.309C290.662 314.639 290.695 314.982 290.824 315.293C290.952 315.604 291.17 315.87 291.45 316.058C291.73 316.245 292.059 316.345 292.396 316.345C292.619 316.346 292.84 316.303 293.046 316.218C293.253 316.134 293.44 316.009 293.598 315.852C293.756 315.695 293.882 315.508 293.967 315.302C294.053 315.096 294.097 314.875 294.097 314.652Z" fill="#7B9FE1"/>
<path d="M341.618 294.776C341.62 294.439 341.521 294.109 341.335 293.828C341.149 293.547 340.883 293.328 340.572 293.198C340.261 293.069 339.918 293.034 339.588 293.1C339.257 293.165 338.953 293.327 338.715 293.566C338.477 293.804 338.314 294.108 338.249 294.438C338.184 294.769 338.218 295.112 338.348 295.423C338.478 295.734 338.697 295.999 338.978 296.186C339.259 296.372 339.588 296.47 339.926 296.469C340.374 296.469 340.805 296.29 341.122 295.973C341.44 295.656 341.618 295.225 341.618 294.776Z" fill="#7B9FE1"/>
<path d="M341.175 323.406C341.176 323.069 341.078 322.74 340.892 322.459C340.706 322.178 340.441 321.959 340.131 321.829C339.82 321.699 339.478 321.664 339.147 321.729C338.817 321.794 338.513 321.955 338.274 322.193C338.036 322.43 337.873 322.733 337.807 323.063C337.74 323.393 337.774 323.736 337.902 324.047C338.031 324.358 338.249 324.624 338.528 324.811C338.808 324.999 339.137 325.099 339.474 325.099C339.923 325.097 340.353 324.918 340.672 324.601C340.99 324.284 341.171 323.855 341.175 323.406Z" fill="#7B9FE1"/>
<path d="M280.546 284C280.546 283.664 280.446 283.335 280.259 283.055C280.072 282.775 279.805 282.557 279.494 282.428C279.183 282.3 278.841 282.267 278.51 282.333C278.18 282.399 277.877 282.562 277.64 282.801C277.402 283.039 277.241 283.343 277.176 283.674C277.112 284.004 277.146 284.346 277.276 284.657C277.406 284.968 277.626 285.233 277.906 285.418C278.187 285.604 278.517 285.703 278.853 285.701C279.076 285.701 279.297 285.657 279.503 285.572C279.709 285.486 279.896 285.361 280.053 285.203C280.21 285.045 280.335 284.857 280.419 284.651C280.504 284.444 280.547 284.223 280.546 284Z" fill="#7B9FE1"/>
<path d="M363.509 282.968C364.444 282.968 365.202 282.21 365.202 281.276C365.202 280.341 364.444 279.583 363.509 279.583C362.574 279.583 361.816 280.341 361.816 281.276C361.816 282.21 362.574 282.968 363.509 282.968Z" fill="#7B9FE1"/>
<path d="M302.148 214.803V173.478C302.147 173.205 302.2 172.934 302.305 172.681C302.409 172.428 302.562 172.198 302.755 172.005C302.948 171.812 303.178 171.659 303.431 171.555C303.684 171.45 303.955 171.397 304.228 171.398H347.616C347.89 171.397 348.161 171.45 348.414 171.554C348.667 171.658 348.898 171.811 349.092 172.005C349.286 172.198 349.439 172.427 349.544 172.68C349.649 172.933 349.703 173.204 349.703 173.478V175.09" stroke="#7B9FE1" stroke-width="0.5" stroke-miterlimit="10"/>
<path d="M305.824 219.759H304.212C303.939 219.759 303.668 219.705 303.415 219.6C303.162 219.495 302.932 219.341 302.739 219.148C302.546 218.954 302.393 218.723 302.289 218.47C302.185 218.217 302.132 217.946 302.133 217.672" stroke="#7B9FE1" stroke-width="0.5" stroke-miterlimit="10"/>
<path d="M349.706 177.879V217.672C349.706 218.226 349.486 218.757 349.094 219.148C348.703 219.54 348.172 219.76 347.618 219.76H308.809" stroke="#7B9FE1" stroke-width="0.5" stroke-miterlimit="10"/>
<path d="M315.617 189.663V185.101H336.227V206.057H329.86" stroke="#7B9FE1" stroke-width="0.5" stroke-miterlimit="10"/>
<path d="M315.617 195.636V192.492" stroke="#7B9FE1" stroke-width="0.5" stroke-miterlimit="10"/>
<path d="M327.345 206.058H315.617V198.465" stroke="#7B9FE1" stroke-width="0.5" stroke-miterlimit="10"/>
<path d="M311.91 171.769V158.688" stroke="#7B9FE1" stroke-width="0.5" stroke-miterlimit="10"/>
<path d="M321.254 171.769V158.688" stroke="#7B9FE1" stroke-width="0.5" stroke-miterlimit="10"/>
<path d="M330.594 171.769V158.688" stroke="#7B9FE1" stroke-width="0.5" stroke-miterlimit="10"/>
<path d="M339.934 171.769V158.688" stroke="#7B9FE1" stroke-width="0.5" stroke-miterlimit="10"/>
<path d="M311.91 232.962V219.889" stroke="#7B9FE1" stroke-width="0.5" stroke-miterlimit="10"/>
<path d="M321.254 232.962V219.889" stroke="#7B9FE1" stroke-width="0.5" stroke-miterlimit="10"/>
<path d="M330.594 232.962V219.889" stroke="#7B9FE1" stroke-width="0.5" stroke-miterlimit="10"/>
<path d="M339.934 232.962V219.889" stroke="#7B9FE1" stroke-width="0.5" stroke-miterlimit="10"/>
<path d="M349.98 181.812H363.062" stroke="#7B9FE1" stroke-width="0.5" stroke-miterlimit="10"/>
<path d="M349.98 191.154H363.062" stroke="#7B9FE1" stroke-width="0.5" stroke-miterlimit="10"/>
<path d="M349.98 200.496H363.062" stroke="#7B9FE1" stroke-width="0.5" stroke-miterlimit="10"/>
<path d="M349.98 209.838H363.062" stroke="#7B9FE1" stroke-width="0.5" stroke-miterlimit="10"/>
<path d="M288.785 181.812H301.867" stroke="#7B9FE1" stroke-width="0.5" stroke-miterlimit="10"/>
<path d="M288.785 191.154H301.867" stroke="#7B9FE1" stroke-width="0.5" stroke-miterlimit="10"/>
<path d="M288.785 200.496H301.867" stroke="#7B9FE1" stroke-width="0.5" stroke-miterlimit="10"/>
<path d="M288.785 209.838H301.867" stroke="#7B9FE1" stroke-width="0.5" stroke-miterlimit="10"/>
<path d="M364.761 200.52C364.761 200.184 364.661 199.855 364.474 199.575C364.287 199.296 364.022 199.078 363.711 198.949C363.4 198.82 363.058 198.786 362.728 198.852C362.398 198.918 362.095 199.08 361.857 199.317C361.62 199.555 361.458 199.858 361.392 200.188C361.326 200.518 361.36 200.86 361.489 201.171C361.618 201.482 361.836 201.747 362.115 201.934C362.395 202.121 362.724 202.221 363.06 202.221C363.511 202.221 363.944 202.042 364.263 201.723C364.582 201.404 364.761 200.971 364.761 200.52Z" fill="#7B9FE1"/>
<path d="M308.331 171.769C308.331 171.434 308.231 171.107 308.045 170.828C307.859 170.55 307.595 170.333 307.286 170.205C306.976 170.077 306.636 170.043 306.308 170.109C305.979 170.174 305.678 170.335 305.441 170.572C305.204 170.809 305.043 171.11 304.978 171.439C304.913 171.767 304.946 172.107 305.074 172.417C305.202 172.726 305.419 172.99 305.698 173.176C305.976 173.362 306.303 173.461 306.638 173.461C307.087 173.461 307.517 173.283 307.835 172.966C308.152 172.648 308.331 172.218 308.331 171.769Z" fill="#7B9FE1"/>
<path d="M296.62 209.458C296.62 209.123 296.52 208.796 296.334 208.518C296.148 208.24 295.884 208.023 295.575 207.894C295.265 207.766 294.925 207.733 294.597 207.798C294.268 207.863 293.967 208.025 293.73 208.261C293.493 208.498 293.332 208.8 293.267 209.128C293.202 209.456 293.235 209.797 293.363 210.106C293.491 210.415 293.708 210.68 293.987 210.866C294.265 211.052 294.592 211.151 294.927 211.151C295.149 211.151 295.369 211.107 295.575 211.022C295.78 210.937 295.967 210.812 296.124 210.655C296.281 210.498 296.406 210.311 296.491 210.106C296.576 209.901 296.62 209.681 296.62 209.458Z" fill="#7B9FE1"/>
<path d="M330.595 164.604C331.53 164.604 332.288 163.846 332.288 162.911C332.288 161.977 331.53 161.219 330.595 161.219C329.66 161.219 328.902 161.977 328.902 162.911C328.902 163.846 329.66 164.604 330.595 164.604Z" fill="#7B9FE1"/>
<path d="M327.297 219.865C327.297 219.53 327.198 219.203 327.012 218.924C326.826 218.646 326.562 218.429 326.252 218.301C325.943 218.173 325.603 218.139 325.275 218.204C324.946 218.27 324.645 218.431 324.408 218.668C324.171 218.904 324.01 219.206 323.945 219.534C323.879 219.863 323.913 220.203 324.041 220.512C324.169 220.822 324.386 221.086 324.664 221.272C324.943 221.458 325.27 221.557 325.605 221.557C326.053 221.555 326.482 221.376 326.799 221.059C327.116 220.742 327.295 220.313 327.297 219.865Z" fill="#7B9FE1"/>
<path d="M341.651 228.94C341.653 228.603 341.554 228.273 341.368 227.992C341.182 227.711 340.916 227.492 340.605 227.362C340.294 227.233 339.952 227.198 339.621 227.264C339.29 227.329 338.986 227.491 338.748 227.73C338.51 227.968 338.348 228.272 338.282 228.602C338.217 228.933 338.251 229.276 338.381 229.587C338.511 229.898 338.73 230.163 339.011 230.35C339.292 230.536 339.622 230.634 339.959 230.633C340.408 230.633 340.838 230.454 341.156 230.137C341.473 229.82 341.651 229.389 341.651 228.94Z" fill="#7B9FE1"/>
<path d="M267.537 41.5098C267.537 41.5098 264.152 42.3158 263.104 44.9031C262.056 47.4904 254.754 64.9971 254.754 67.0847C254.827 68.4508 255.381 69.7471 256.318 70.744L273.542 77.7886C273.542 77.7886 277.193 76.7408 280.063 77.2647C282.932 77.7886 284.762 82.7456 287.631 83.2696C290.501 83.7935 302.51 83.0036 308.249 80.3921C313.988 77.7806 315.818 69.6962 315.818 64.2153C315.818 58.7344 313.988 53.2534 312.424 52.2137L310.079 50.65" stroke="#7B9FE1" stroke-width="0.5" stroke-miterlimit="10"/>
<path d="M306.163 48.0379C306.163 48.0379 304.333 46.4743 309.032 47.2319C313.731 47.9896 325.475 63.4087 329.392 68.3657C333.309 73.3227 337.219 73.5887 340.346 70.4533C343.473 67.3179 341.152 63.4087 340.088 61.3211C339.024 59.2335 334.607 54.0105 333.043 50.3593C331.48 46.708 327.039 37.3098 323.371 34.9643C319.704 32.6188 314.239 32.0949 305.889 35.4882C297.538 38.8816 293.621 41.751 293.621 41.751" stroke="#7B9FE1" stroke-width="0.5" stroke-miterlimit="10"/>
<path d="M270.672 41.2507L287.115 40.2109" stroke="#7B9FE1" stroke-width="0.5" stroke-miterlimit="10"/>
<path d="M279.281 72.5647C282.417 71.5249 282.151 69.9532 285.286 65.778C288.421 61.6029 292.073 47.5137 292.331 45.684C292.473 44.5768 292.184 43.4571 291.525 42.5566L307.186 50.4314" stroke="#7B9FE1" stroke-width="0.5" stroke-miterlimit="10"/>
<path d="M260.234 70.751H274.59C277.142 68.8918 279.128 66.3611 280.328 63.4404C282.15 58.7413 285.809 48.0455 286.849 45.708C287.169 45.1061 287.336 44.435 287.336 43.7534C287.336 43.0719 287.169 42.4007 286.849 41.7988" stroke="#7B9FE1" stroke-width="0.5" stroke-miterlimit="10"/>
<path d="M276.156 77.0075C276.156 77.0075 268.845 73.0902 272.238 73.6141C275.632 74.1381 283.2 78.8291 288.681 78.8291C294.162 78.8291 296.25 75.7017 298.861 71.5266C301.473 67.3514 307.727 56.1236 307.727 52.7383" stroke="#7B9FE1" stroke-width="0.5" stroke-miterlimit="10"/>
<path d="M330.955 78.3043C330.955 78.3043 335.388 72.5655 339.563 77.7885C343.738 83.0115 337.999 91.0958 335.654 93.4414C333.308 95.7869 326.788 95.7949 325.732 95.271C325.066 94.9237 324.453 94.4841 323.91 93.9653" stroke="#7B9FE1" stroke-width="0.5" stroke-miterlimit="10"/>
<path d="M335.355 72.565L348.929 88.2259C348.929 88.2259 349.187 84.0508 351.54 82.2211C352.599 81.3431 353.732 80.5584 354.926 79.8756L342.4 66.8262" stroke="#7B9FE1" stroke-width="0.5" stroke-miterlimit="10"/>
<path d="M356.531 80.4238H358.353C358.353 80.4238 363.052 86.1707 363.052 87.7344C363.052 89.2981 355.749 99.736 353.379 99.736C351.01 99.736 347.641 97.9144 347.641 97.9144C347.641 97.9144 348.946 96.0848 349.986 94.2551C351.026 92.4254 349.986 89.822 349.986 89.822C349.986 89.822 354.685 93.2153 353.903 97.6484" stroke="#7B9FE1" stroke-width="0.5" stroke-miterlimit="10"/>
<path d="M279.586 112.52C284.325 113.567 292.958 113.72 294.683 114.583C296.77 115.623 301.461 128.672 301.461 128.672" stroke="#7B9FE1" stroke-width="0.5" stroke-miterlimit="10"/>
<path d="M275.631 78.5703C275.631 78.5703 273.285 80.134 274.591 82.2216C275.897 84.3092 278.766 85.6149 278.766 85.6149C278.766 85.6149 274.849 89.7901 275.631 91.6197C276.083 92.7947 276.083 94.096 275.631 95.271C275.631 95.271 274.825 97.6165 275.107 98.9223C275.389 100.228 275.631 102.316 275.631 102.316C275.631 102.316 274.067 109.884 277.194 111.714" stroke="#7B9FE1" stroke-width="0.5" stroke-miterlimit="10"/>
<path d="M347.654 97.8828C347.654 97.8828 342.697 102.316 342.431 107.797C342.165 113.278 341.625 114.841 341.625 114.841" stroke="#7B9FE1" stroke-width="0.5" stroke-miterlimit="10"/>
<path d="M361.034 72.9512C360.699 75.1304 360.159 77.2732 359.422 79.351" stroke="#7B9FE1" stroke-width="0.5" stroke-miterlimit="10"/>
<path d="M361.52 65.1094C361.568 66.2378 361.56 67.334 361.52 68.3899" stroke="#7B9FE1" stroke-width="0.5" stroke-miterlimit="10"/>
<path d="M322.34 32.643C322.34 32.643 338.259 29.7655 352.09 43.5967C357.124 48.5396 360.349 55.0324 361.246 62.0304" stroke="#7B9FE1" stroke-width="0.5" stroke-miterlimit="10"/>
<path d="M259.976 53.9943C261.013 53.9943 261.854 53.1535 261.854 52.1163C261.854 51.0791 261.013 50.2383 259.976 50.2383C258.938 50.2383 258.098 51.0791 258.098 52.1163C258.098 53.1535 258.938 53.9943 259.976 53.9943Z" fill="#7B9FE1"/>
<path d="M298.464 84.2678C299.501 84.2678 300.342 83.4269 300.342 82.3897C300.342 81.3525 299.501 80.5117 298.464 80.5117C297.427 80.5117 296.586 81.3525 296.586 82.3897C296.586 83.4269 297.427 84.2678 298.464 84.2678Z" fill="#7B9FE1"/>
<path d="M295.417 116.187C296.454 116.187 297.295 115.346 297.295 114.309C297.295 113.271 296.454 112.431 295.417 112.431C294.38 112.431 293.539 113.271 293.539 114.309C293.539 115.346 294.38 116.187 295.417 116.187Z" fill="#7B9FE1"/>
<path d="M331.26 68.3897C331.26 68.0179 331.15 67.6545 330.943 67.3455C330.736 67.0365 330.442 66.7958 330.099 66.6539C329.755 66.512 329.377 66.4753 329.013 66.5484C328.648 66.6215 328.313 66.8012 328.051 67.0646C327.789 67.3281 327.611 67.6635 327.539 68.0283C327.467 68.3931 327.506 68.771 327.649 69.114C327.793 69.457 328.035 69.7498 328.344 69.9552C328.654 70.1606 329.018 70.2693 329.39 70.2677C329.636 70.2677 329.88 70.2191 330.107 70.1246C330.335 70.0302 330.541 69.8917 330.715 69.7172C330.889 69.5427 331.026 69.3356 331.12 69.1078C331.213 68.88 331.261 68.636 331.26 68.3897Z" fill="#7B9FE1"/>
<path d="M326.868 40.8478C327.905 40.8478 328.746 40.007 328.746 38.9698C328.746 37.9326 327.905 37.0918 326.868 37.0918C325.831 37.0918 324.99 37.9326 324.99 38.9698C324.99 40.007 325.831 40.8478 326.868 40.8478Z" fill="#7B9FE1"/>
<path d="M294.571 43.1857C295.609 43.1857 296.449 42.3449 296.449 41.3077C296.449 40.2705 295.609 39.4297 294.571 39.4297C293.534 39.4297 292.693 40.2705 292.693 41.3077C292.693 42.3449 293.534 43.1857 294.571 43.1857Z" fill="#7B9FE1"/>
<path d="M357.376 82.3908C358.413 82.3908 359.254 81.55 359.254 80.5128C359.254 79.4756 358.413 78.6348 357.376 78.6348C356.339 78.6348 355.498 79.4756 355.498 80.5128C355.498 81.55 356.339 82.3908 357.376 82.3908Z" fill="#7B9FE1"/>
<path d="M46.084 36.6006H42.7793" stroke="#7B9FE1" stroke-width="0.5" stroke-miterlimit="10"/>
<path d="M31.2773 74.5395H46.0839C46.7363 74.5435 47.3782 74.3748 47.9444 74.0507C48.5106 73.7265 48.981 73.2584 49.308 72.6937L58.0855 57.4197C58.4102 56.8573 58.5811 56.2193 58.5811 55.5699C58.5811 54.9205 58.4102 54.2825 58.0855 53.7201L49.2918 38.4541" stroke="#7B9FE1" stroke-width="0.5" stroke-miterlimit="10"/>
<path d="M39.7009 36.6006H28.4167C27.7636 36.5983 27.1215 36.7685 26.5554 37.0941C25.9893 37.4196 25.5191 37.8889 25.1926 38.4545L16.4312 53.7204C16.1065 54.2829 15.9355 54.9208 15.9355 55.5702C15.9355 56.2197 16.1065 56.8576 16.4312 57.4201L25.249 72.7344C25.576 73.299 26.0464 73.7672 26.6126 74.0913C27.1788 74.4155 27.8207 74.5841 28.4731 74.5802" stroke="#7B9FE1" stroke-width="0.5" stroke-miterlimit="10"/>
<path d="M57.9727 88.6205L60.5036 92.9891C60.8298 93.5543 61.3001 94.0229 61.8665 94.3471C62.4328 94.6714 63.075 94.8397 63.7276 94.8349H81.3633C82.0159 94.8397 82.6581 94.6714 83.2244 94.3471C83.7908 94.0229 84.2611 93.5543 84.5874 92.9891L93.4052 77.6748C93.73 77.1138 93.901 76.4772 93.901 75.829C93.901 75.1808 93.73 74.5441 93.4052 73.9832L88.1983 64.9639" stroke="#7B9FE1" stroke-width="0.5" stroke-miterlimit="10"/>
<path d="M55.709 84.6865L57.0067 86.9353" stroke="#7B9FE1" stroke-width="0.5" stroke-miterlimit="10"/>
<path d="M86.5294 62.1992L84.5386 58.7494C84.2127 58.1833 83.7427 57.7135 83.1764 57.3879C82.6101 57.0623 81.9677 56.8924 81.3145 56.8956H63.7272C63.074 56.8924 62.4316 57.0623 61.8653 57.3879C61.299 57.7135 60.829 58.1833 60.5031 58.7494L51.6853 74.0637C51.3605 74.6247 51.1895 75.2614 51.1895 75.9095C51.1895 76.5577 51.3605 77.1944 51.6853 77.7553L54.2887 82.2771" stroke="#7B9FE1" stroke-width="0.5" stroke-miterlimit="10"/>
<path d="M57.4743 22.8652L51.6871 32.8679C51.3624 33.4303 51.1914 34.0683 51.1914 34.7177C51.1914 35.3671 51.3624 36.0051 51.6871 36.5675L60.5049 51.8658C60.8312 52.4309 61.3015 52.8995 61.8678 53.2238C62.4342 53.548 63.0764 53.7163 63.729 53.7115H81.3646C82.0172 53.7163 82.6594 53.548 83.2258 53.2238C83.7921 52.8995 84.2624 52.4309 84.5887 51.8658L93.4065 36.5917C93.7313 36.0293 93.9022 35.3913 93.9022 34.7419C93.9022 34.0925 93.7313 33.4545 93.4065 32.8921L92.7456 31.8685" stroke="#7B9FE1" stroke-width="0.5" stroke-miterlimit="10"/>
<path d="M60.5055 17.6182L59.1191 20.0201" stroke="#7B9FE1" stroke-width="0.5" stroke-miterlimit="10"/>
<path d="M91.8013 30.1922L84.5471 17.6183C84.2208 17.0532 83.7505 16.5846 83.1842 16.2603C82.6178 15.9361 81.9756 15.7678 81.323 15.7726H63.7277C63.4369 15.7711 63.1472 15.8063 62.8652 15.8773" stroke="#7B9FE1" stroke-width="0.5" stroke-miterlimit="10"/>
<path d="M116.587 36.0919H98.9509C98.2983 36.0871 97.6561 36.2554 97.0897 36.5797C96.5234 36.9039 96.0531 37.3725 95.7268 37.9377L86.9332 53.1875C86.6084 53.7499 86.4375 54.3879 86.4375 55.0373C86.4375 55.6868 86.6084 56.3247 86.9332 56.8872L95.751 72.2015C96.0773 72.7667 96.5476 73.2353 97.1139 73.5595C97.6803 73.8838 98.3225 74.0521 98.9751 74.0473H116.611C117.263 74.0512 117.905 73.8826 118.471 73.5584C119.037 73.2343 119.508 72.7661 119.835 72.2015L128.645 56.8872C128.969 56.3247 129.14 55.6868 129.14 55.0373C129.14 54.3879 128.969 53.7499 128.645 53.1875L119.794 37.9135C119.466 37.3557 118.997 36.894 118.434 36.5743C117.871 36.2547 117.234 36.0883 116.587 36.0919V36.0919Z" stroke="#7B9FE1" stroke-width="0.5" stroke-miterlimit="10"/>
<path d="M81.1224 98.962H63.4868C62.8342 98.9572 62.192 99.1255 61.6256 99.4498C61.0593 99.774 60.589 100.243 60.2627 100.808L51.4449 116.122C51.1202 116.685 50.9492 117.323 50.9492 117.972C50.9492 118.621 51.1202 119.259 51.4449 119.822L60.2627 135.096C60.589 135.661 61.0593 136.13 61.6256 136.454C62.192 136.778 62.8342 136.946 63.4868 136.942H81.1224C81.7749 136.946 82.4167 136.777 82.983 136.453C83.5492 136.129 84.0196 135.66 84.3465 135.096L93.1563 119.822C93.481 119.259 93.6519 118.621 93.6519 117.972C93.6519 117.323 93.481 116.685 93.1563 116.122L84.3465 100.808C84.0196 100.243 83.5492 99.775 82.983 99.4509C82.4167 99.1267 81.7749 98.9581 81.1224 98.962V98.962Z" stroke="#7B9FE1" stroke-width="0.5" stroke-miterlimit="10"/>
<path d="M122.672 109.931L129.402 98.268C129.727 97.7071 129.898 97.0704 129.898 96.4222C129.898 95.774 129.727 95.1373 129.402 94.5764L120.584 79.2621C120.258 78.696 119.788 78.2262 119.222 77.9006C118.656 77.575 118.013 77.4051 117.36 77.4082H99.7487C99.0955 77.4051 98.453 77.575 97.8868 77.9006C97.3205 78.2262 96.8505 78.696 96.5246 79.2621L87.7068 94.5764C87.382 95.1373 87.2109 95.774 87.2109 96.4222C87.2109 97.0704 87.382 97.7071 87.7068 98.268L96.5246 113.582C96.8505 114.148 97.3205 114.618 97.8868 114.944C98.453 115.269 99.0955 115.439 99.7487 115.436H113.87" stroke="#7B9FE1" stroke-width="0.5" stroke-miterlimit="10"/>
<path d="M117.385 115.397C118.038 115.4 118.68 115.23 119.247 114.904C119.813 114.579 120.283 114.109 120.609 113.543L121.141 112.624" stroke="#7B9FE1" stroke-width="0.5" stroke-miterlimit="10"/>
<path d="M81.3062 81.568L83.4583 82.0516L83.958 79.8754L81.8946 79.4079C81.8946 79.3434 81.8946 79.2789 81.8946 79.2225C81.8977 78.56 81.7632 77.904 81.4997 77.2961L83.1762 75.9581L81.7818 74.2091L80.1697 75.4906C79.6124 75.0032 78.9506 74.6502 78.2353 74.4589V72.3633H75.9946V74.3622C75.2607 74.5112 74.5695 74.8224 73.9715 75.273L72.3594 73.9834L70.9811 75.7405L72.5932 77.0059C72.258 77.6658 72.0788 78.3938 72.0693 79.1338L70.0059 79.6094L70.5056 81.7856L72.5368 81.3181C72.842 81.9739 73.2878 82.5545 73.8425 83.0188L72.8995 84.9775L74.9145 85.9527L75.8414 84.0183C76.2213 84.1122 76.6108 84.1608 77.0021 84.1634C77.3161 84.1604 77.6291 84.128 77.9371 84.0667L78.9043 86.0656L80.9193 85.0984L79.9763 83.1559C80.5278 82.7276 80.9813 82.1861 81.3062 81.568ZM74.7694 79.2225C74.7694 78.7889 74.898 78.365 75.1389 78.0045C75.3798 77.6439 75.7222 77.3629 76.1228 77.197C76.5234 77.0311 76.9642 76.9877 77.3895 77.0723C77.8148 77.1568 78.2054 77.3656 78.512 77.6723C78.8186 77.9789 79.0274 78.3695 79.112 78.7948C79.1966 79.2201 79.1532 79.6609 78.9873 80.0615C78.8213 80.4621 78.5403 80.8045 78.1798 81.0454C77.8193 81.2863 77.3954 81.4149 76.9618 81.4149C76.3803 81.4149 75.8227 81.1839 75.4115 80.7727C75.0004 80.3616 74.7694 79.8039 74.7694 79.2225Z" stroke="#7B9FE1" stroke-width="0.5" stroke-miterlimit="10"/>
<path d="M70.8297 72.7501L72.9737 73.2418L73.4734 71.0655L71.41 70.59C71.41 70.5255 71.41 70.4691 71.41 70.4046C71.4111 69.7431 71.2795 69.088 71.0231 68.4782L72.6916 67.1483L71.2972 65.3992L69.6851 66.6728C69.1227 66.1882 68.459 65.8357 67.7426 65.6411V63.5615H65.5261V65.5604C64.7911 65.7059 64.0991 66.0175 63.503 66.4712L61.8909 65.1816L60.5046 66.9307L62.1166 68.1881C61.7819 68.851 61.6027 69.5815 61.5927 70.324L59.5293 70.7915L60.029 72.9678L62.0602 72.5083C62.3678 73.1604 62.8133 73.7379 63.3659 74.201L62.4229 76.1676L64.4379 77.1349L65.3649 75.2004C65.744 75.2982 66.134 75.347 66.5255 75.3455C66.8393 75.3451 67.1523 75.3154 67.4605 75.2568L68.4277 77.2558L70.4428 76.2885L69.5078 74.338C70.0559 73.9083 70.5065 73.3671 70.8297 72.7501V72.7501ZM64.2848 70.4046C64.2848 69.971 64.4134 69.5471 64.6543 69.1866C64.8952 68.8261 65.2376 68.5451 65.6382 68.3791C66.0388 68.2132 66.4796 68.1698 66.9049 68.2544C67.3302 68.339 67.7208 68.5478 68.0274 68.8544C68.334 69.161 68.5428 69.5516 68.6274 69.9769C68.712 70.4022 68.6686 70.843 68.5027 71.2436C68.3367 71.6442 68.0557 71.9866 67.6952 72.2275C67.3346 72.4684 66.9108 72.597 66.4772 72.597C65.8957 72.597 65.3381 72.366 64.9269 71.9549C64.5158 71.5437 64.2848 70.9861 64.2848 70.4046V70.4046Z" stroke="#7B9FE1" stroke-width="0.5" stroke-miterlimit="10"/>
<path d="M112.145 56.2885C113.678 52.6112 111.94 48.3873 108.263 46.8543C104.585 45.3213 100.361 47.0597 98.8285 50.7371C97.2955 54.4144 99.0338 58.6383 102.711 60.1712C106.389 61.7042 110.612 59.9659 112.145 56.2885Z" stroke="#7B9FE1" stroke-width="0.5" stroke-miterlimit="10"/>
<path d="M105.489 59.6441C108.872 59.6441 111.615 56.9015 111.615 53.5183C111.615 50.1352 108.872 47.3926 105.489 47.3926C102.106 47.3926 99.3633 50.1352 99.3633 53.5183C99.3633 56.9015 102.106 59.6441 105.489 59.6441Z" stroke="#7B9FE1" stroke-width="0.5" stroke-miterlimit="10"/>
<path d="M113.604 61.1436L118.383 65.1092" stroke="#7B9FE1" stroke-width="1.5" stroke-miterlimit="10"/>
<path d="M110.736 58.7656L113.606 61.1434" stroke="#7B9FE1" stroke-miterlimit="10"/>
<path d="M26.3047 50.7461H47.7448" stroke="#7B9FE1" stroke-width="0.5" stroke-miterlimit="10"/>
<path d="M30.8923 49.5605H28.6758V51.7771H30.8923V49.5605Z" fill="#7B9FE1"/>
<path d="M26.3047 55.7676H47.7448" stroke="#7B9FE1" stroke-width="0.5" stroke-miterlimit="10"/>
<path d="M42.3435 54.5908H40.127V56.8074H42.3435V54.5908Z" fill="#7B9FE1"/>
<path d="M26.3047 60.7969H47.7448" stroke="#7B9FE1" stroke-width="0.5" stroke-miterlimit="10"/>
<path d="M37.2419 59.6123H35.0254V61.8289H37.2419V59.6123Z" fill="#7B9FE1"/>
<path d="M108.058 116.96C108.993 116.96 109.751 116.203 109.751 115.268C109.751 114.333 108.993 113.575 108.058 113.575C107.123 113.575 106.365 114.333 106.365 115.268C106.365 116.203 107.123 116.96 108.058 116.96Z" fill="#7B9FE1"/>
<path d="M121.263 82.1724C122.198 82.1724 122.956 81.4146 122.956 80.4797C122.956 79.5449 122.198 78.7871 121.263 78.7871C120.328 78.7871 119.57 79.5449 119.57 80.4797C119.57 81.4146 120.328 82.1724 121.263 82.1724Z" fill="#7B9FE1"/>
<path d="M71.5947 57.2664C71.5963 56.9293 71.4977 56.5994 71.3115 56.3185C71.1252 56.0376 70.8597 55.8183 70.5486 55.6886C70.2375 55.5589 69.8949 55.5245 69.5642 55.5899C69.2336 55.6553 68.9298 55.8174 68.6915 56.0557C68.4532 56.2941 68.291 56.5978 68.2256 56.9285C68.1603 57.2592 68.1946 57.6018 68.3244 57.9129C68.4541 58.2239 68.6733 58.4895 68.9542 58.6757C69.2351 58.862 69.5651 58.9606 69.9021 58.959C70.351 58.959 70.7815 58.7807 71.099 58.4632C71.4164 58.1458 71.5947 57.7153 71.5947 57.2664Z" fill="#7B9FE1"/>
<path d="M89.6743 23.7766C89.6743 23.4419 89.5751 23.1146 89.3891 22.8362C89.2031 22.5579 88.9387 22.3409 88.6294 22.2128C88.3202 22.0847 87.9798 22.0512 87.6515 22.1165C87.3231 22.1818 87.0215 22.343 86.7848 22.5797C86.5481 22.8165 86.3869 23.1181 86.3216 23.4464C86.2563 23.7747 86.2898 24.1151 86.4179 24.4244C86.546 24.7337 86.763 24.998 87.0413 25.184C87.3197 25.37 87.6469 25.4693 87.9817 25.4693C88.43 25.4671 88.8593 25.2881 89.1762 24.9712C89.4932 24.6542 89.6722 24.2249 89.6743 23.7766Z" fill="#7B9FE1"/>
<path d="M24.5479 68.7683C24.5495 68.4313 24.4509 68.1013 24.2646 67.8204C24.0783 67.5395 23.8128 67.3203 23.5017 67.1906C23.1906 67.0609 22.848 67.0265 22.5174 67.0919C22.1867 67.1572 21.8829 67.3194 21.6446 67.5577C21.4063 67.796 21.2441 68.0998 21.1788 68.4304C21.1134 68.7611 21.1478 69.1037 21.2775 69.4148C21.4072 69.7259 21.6264 69.9914 21.9073 70.1777C22.1883 70.3639 22.5182 70.4625 22.8552 70.4609C23.3041 70.4609 23.7347 70.2826 24.0521 69.9652C24.3695 69.6478 24.5479 69.2172 24.5479 68.7683Z" fill="#7B9FE1"/>
<path d="M77.1411 94.6575C77.1411 94.3227 77.0419 93.9955 76.8559 93.7171C76.6699 93.4387 76.4055 93.2218 76.0962 93.0937C75.787 92.9656 75.4466 92.9321 75.1183 92.9974C74.7899 93.0627 74.4883 93.2239 74.2516 93.4606C74.0149 93.6973 73.8537 93.9989 73.7884 94.3273C73.7231 94.6556 73.7566 94.9959 73.8847 95.3052C74.0128 95.6145 74.2298 95.8789 74.5081 96.0649C74.7865 96.2508 75.1137 96.3501 75.4485 96.3501C75.8968 96.348 76.3261 96.169 76.643 95.852C76.96 95.535 77.139 95.1057 77.1411 94.6575Z" fill="#7B9FE1"/>
<path d="M55.104 122.827C55.104 122.493 55.0048 122.165 54.8188 121.887C54.6328 121.609 54.3684 121.392 54.0591 121.264C53.7498 121.135 53.4095 121.102 53.0812 121.167C52.7528 121.233 52.4512 121.394 52.2145 121.631C51.9778 121.867 51.8166 122.169 51.7513 122.497C51.686 122.826 51.7195 123.166 51.8476 123.475C51.9757 123.784 52.1927 124.049 52.471 124.235C52.7494 124.421 53.0766 124.52 53.4114 124.52C53.8603 124.52 54.2908 124.342 54.6083 124.024C54.9257 123.707 55.104 123.276 55.104 122.827Z" fill="#7B9FE1"/>
<path d="M89.3997 111.335C90.3345 111.335 91.0923 110.577 91.0923 109.642C91.0923 108.707 90.3345 107.949 89.3997 107.949C88.4648 107.949 87.707 108.707 87.707 109.642C87.707 110.577 88.4648 111.335 89.3997 111.335Z" fill="#7B9FE1"/>
<path d="M123.728 46.8365C124.663 46.8365 125.42 46.0786 125.42 45.1438C125.42 44.209 124.663 43.4512 123.728 43.4512C122.793 43.4512 122.035 44.209 122.035 45.1438C122.035 46.0786 122.793 46.8365 123.728 46.8365Z" fill="#7B9FE1"/>
<path d="M102.827 73.9024C102.83 73.5653 102.733 73.2349 102.548 72.9532C102.363 72.6714 102.099 72.4509 101.788 72.3197C101.478 72.1885 101.136 72.1525 100.805 72.2163C100.474 72.2801 100.169 72.4408 99.9296 72.678C99.6902 72.9152 99.5266 73.2181 99.4597 73.5485C99.3927 73.8788 99.4254 74.2216 99.5537 74.5333C99.6819 74.845 99.8999 75.1116 100.18 75.2992C100.46 75.4868 100.789 75.5869 101.126 75.5869C101.349 75.588 101.569 75.5453 101.775 75.4612C101.981 75.3771 102.168 75.2533 102.326 75.0969C102.484 74.9405 102.609 74.7545 102.695 74.5495C102.781 74.3445 102.826 74.1247 102.827 73.9024Z" fill="#7B9FE1"/>
<path d="M56.3936 42.0561C56.3936 41.7194 56.2936 41.3903 56.1064 41.1105C55.9192 40.8306 55.6531 40.6126 55.3418 40.4842C55.0306 40.3557 54.6882 40.3225 54.3581 40.3887C54.028 40.455 53.725 40.6178 53.4875 40.8564C53.2499 41.0951 53.0886 41.3989 53.0239 41.7293C52.9592 42.0598 52.994 42.402 53.124 42.7126C53.2539 43.0232 53.4732 43.2882 53.7539 43.4742C54.0346 43.6601 54.3642 43.7584 54.7009 43.7568C54.9239 43.7568 55.1447 43.7128 55.3506 43.6272C55.5564 43.5417 55.7434 43.4163 55.9007 43.2582C56.058 43.1002 56.1825 42.9127 56.2671 42.7064C56.3516 42.5001 56.3946 42.2791 56.3936 42.0561Z" fill="#7B9FE1"/>
<path d="M11.4414 310.42V266.008C11.4404 265.513 11.5369 265.023 11.7256 264.566C11.9143 264.108 12.1914 263.692 12.541 263.342C12.8907 262.991 13.306 262.713 13.7632 262.524C14.2204 262.334 14.7105 262.236 15.2055 262.236H83.5478C84.5482 262.236 85.5077 262.634 86.2151 263.341C86.9225 264.049 87.3199 265.008 87.3199 266.008V310.614" stroke="#A0BDF5" stroke-width="0.5" stroke-miterlimit="10"/>
<path d="M39.8536 315.507H36.291" stroke="#A0BDF5" stroke-width="0.5" stroke-miterlimit="10"/>
<path d="M31.7935 315.507H8.35455C7.90016 315.509 7.44984 315.422 7.02943 315.249C6.60903 315.077 6.22682 314.823 5.90477 314.502C5.58272 314.182 5.32718 313.801 5.1528 313.381C4.97843 312.962 4.88867 312.512 4.88867 312.057V310.445H93.8488V312.057C93.8488 312.971 93.4865 313.847 92.8413 314.494C92.1961 315.141 91.3207 315.505 90.4071 315.507H43.2309" stroke="#A0BDF5" stroke-width="0.5" stroke-miterlimit="10"/>
<path d="M43.9805 265.034H47.7285" stroke="#A0BDF5" stroke-width="0.5" stroke-miterlimit="10"/>
<path d="M50.5417 265.034H84.87V309.865H13.9727V265.034H38.9189" stroke="#7B9FE1" stroke-width="0.5" stroke-miterlimit="10"/>
<path d="M26.2725 261.979C26.2741 261.642 26.1755 261.312 25.9892 261.031C25.8029 260.75 25.5374 260.531 25.2263 260.402C24.9152 260.272 24.5726 260.237 24.242 260.303C23.9113 260.368 23.6075 260.53 23.3692 260.769C23.1309 261.007 22.9687 261.311 22.9034 261.641C22.838 261.972 22.8724 262.315 23.0021 262.626C23.1318 262.937 23.351 263.202 23.632 263.389C23.9129 263.575 24.2428 263.673 24.5798 263.672C25.0281 263.67 25.4574 263.491 25.7744 263.174C26.0913 262.857 26.2703 262.428 26.2725 261.979Z" fill="#A0BDF5"/>
<path d="M93.2276 310.549C93.2276 310.213 93.1276 309.883 92.9404 309.604C92.7531 309.324 92.4871 309.106 92.1758 308.977C91.8646 308.849 91.5222 308.816 91.1921 308.882C90.862 308.948 90.559 309.111 90.3214 309.35C90.0839 309.588 89.9226 309.892 89.8579 310.222C89.7932 310.553 89.828 310.895 89.958 311.206C90.0879 311.516 90.3071 311.781 90.5879 311.967C90.8686 312.153 91.1982 312.252 91.5349 312.25C91.7579 312.25 91.9787 312.206 92.1845 312.12C92.3904 312.035 92.5774 311.909 92.7347 311.751C92.8919 311.593 93.0165 311.406 93.101 311.2C93.1856 310.993 93.2286 310.772 93.2276 310.549Z" fill="#A0BDF5"/>
<path d="M80.751 265.227C80.7526 264.891 80.6542 264.561 80.4683 264.28C80.2824 264 80.0173 263.78 79.7067 263.65C79.3961 263.52 79.0539 263.486 78.7235 263.55C78.393 263.615 78.0892 263.776 77.8506 264.014C77.6119 264.251 77.4492 264.554 77.3829 264.884C77.3166 265.215 77.3498 265.557 77.4783 265.868C77.6068 266.179 77.8247 266.446 78.1046 266.633C78.3844 266.82 78.7136 266.92 79.0503 266.92C79.4999 266.92 79.9313 266.742 80.25 266.425C80.5687 266.107 80.7489 265.677 80.751 265.227Z" fill="#A0BDF5"/>
<path d="M19.3955 315.297C19.3955 314.961 19.2958 314.632 19.1089 314.353C18.922 314.073 18.6564 313.855 18.3457 313.726C18.0349 313.597 17.693 313.564 17.3631 313.629C17.0331 313.695 16.7301 313.857 16.4923 314.095C16.2544 314.333 16.0924 314.636 16.0268 314.966C15.9612 315.296 15.9949 315.637 16.1236 315.948C16.2523 316.259 16.4703 316.525 16.75 316.711C17.0297 316.898 17.3585 316.998 17.6948 316.998C17.9185 316.999 18.1401 316.956 18.3469 316.871C18.5538 316.786 18.7417 316.66 18.8998 316.502C19.0579 316.344 19.1832 316.156 19.2683 315.949C19.3533 315.743 19.3966 315.521 19.3955 315.297Z" fill="#A0BDF5"/>
<path d="M69.7405 234.188C69.7405 234.769 69.5096 235.327 69.0984 235.738C68.6873 236.149 68.1296 236.38 67.5482 236.38H30.6084C30.0269 236.38 29.4693 236.149 29.0581 235.738C28.647 235.327 28.416 234.769 28.416 234.188V165.313C28.416 164.732 28.647 164.174 29.0581 163.763C29.4693 163.352 30.0269 163.121 30.6084 163.121H67.5482C68.1296 163.121 68.6873 163.352 69.0984 163.763C69.5096 164.174 69.7405 164.732 69.7405 165.313V227.449" stroke="#7B9FE1" stroke-width="0.5" stroke-miterlimit="10"/>
<path d="M59.0695 169.77H67.2748V229.729H30.875V220.686" stroke="#7B9FE1" stroke-width="0.5" stroke-miterlimit="10"/>
<path d="M51.4609 169.77H55.6845" stroke="#7B9FE1" stroke-width="0.5" stroke-miterlimit="10"/>
<path d="M30.875 216.462V169.77H48.0754" stroke="#7B9FE1" stroke-width="0.5" stroke-miterlimit="10"/>
<path d="M50.3645 232.438C50.3645 232.17 50.2851 231.908 50.1363 231.686C49.9875 231.463 49.776 231.29 49.5286 231.187C49.2811 231.085 49.0089 231.058 48.7462 231.11C48.4835 231.162 48.2422 231.291 48.0529 231.481C47.8635 231.67 47.7345 231.911 47.6823 232.174C47.63 232.437 47.6568 232.709 47.7593 232.956C47.8618 233.204 48.0354 233.415 48.2581 233.564C48.4807 233.713 48.7425 233.792 49.0104 233.792C49.3695 233.792 49.7139 233.65 49.9679 233.396C50.2218 233.142 50.3645 232.797 50.3645 232.438V232.438Z" stroke="#7B9FE1" stroke-width="0.5" stroke-miterlimit="10"/>
<path d="M49.6475 163.443C49.6491 163.106 49.5505 162.776 49.3642 162.495C49.178 162.214 48.9124 161.995 48.6013 161.865C48.2902 161.736 47.9476 161.701 47.617 161.767C47.2863 161.832 46.9826 161.994 46.7442 162.233C46.5059 162.471 46.3437 162.775 46.2784 163.105C46.213 163.436 46.2474 163.779 46.3771 164.09C46.5068 164.401 46.726 164.666 47.007 164.852C47.2879 165.039 47.6178 165.137 47.9548 165.136C48.4037 165.136 48.8343 164.957 49.1517 164.64C49.4691 164.323 49.6475 163.892 49.6475 163.443Z" fill="#7B9FE1"/>
<path d="M61.6084 229.424C61.61 229.087 61.5116 228.757 61.3257 228.477C61.1398 228.196 60.8748 227.977 60.5641 227.847C60.2535 227.717 59.9113 227.682 59.5809 227.747C59.2505 227.811 58.9467 227.973 58.708 228.21C58.4694 228.448 58.3066 228.751 58.2403 229.081C58.174 229.411 58.2072 229.753 58.3357 230.064C58.4642 230.376 58.6822 230.642 58.962 230.829C59.2419 231.016 59.571 231.116 59.9077 231.116C60.3574 231.116 60.7887 230.938 61.1074 230.621C61.4262 230.304 61.6063 229.873 61.6084 229.424Z" fill="#7B9FE1"/>
<path d="M69.7649 199.004C70.6997 199.004 71.4575 198.247 71.4575 197.312C71.4575 196.377 70.6997 195.619 69.7649 195.619C68.8301 195.619 68.0723 196.377 68.0723 197.312C68.0723 198.247 68.8301 199.004 69.7649 199.004Z" fill="#7B9FE1"/>
<path d="M38.2256 235.896C38.2256 235.559 38.1257 235.23 37.9384 234.95C37.7512 234.67 37.4851 234.452 37.1739 234.324C36.8626 234.195 36.5203 234.162 36.1902 234.229C35.86 234.295 35.557 234.458 35.3195 234.696C35.082 234.935 34.9206 235.239 34.8559 235.569C34.7912 235.9 34.826 236.242 34.956 236.552C35.086 236.863 35.3052 237.128 35.5859 237.314C35.8667 237.5 36.1963 237.598 36.533 237.597C36.7559 237.597 36.9767 237.553 37.1826 237.467C37.3885 237.382 37.5754 237.256 37.7327 237.098C37.89 236.94 38.0145 236.753 38.0991 236.546C38.1837 236.34 38.2267 236.119 38.2256 235.896Z" fill="#7B9FE1"/>
<path d="M37.3779 169.424C37.3795 169.087 37.2809 168.757 37.0947 168.476C36.9084 168.195 36.6429 167.976 36.3318 167.846C36.0207 167.716 35.6781 167.682 35.3474 167.747C35.0168 167.812 34.713 167.975 34.4747 168.213C34.2364 168.451 34.0742 168.755 34.0089 169.086C33.9435 169.416 33.9778 169.759 34.1076 170.07C34.2373 170.381 34.4565 170.647 34.7374 170.833C35.0183 171.019 35.3483 171.118 35.6853 171.116C36.1342 171.116 36.5647 170.938 36.8822 170.62C37.1996 170.303 37.3779 169.872 37.3779 169.424Z" fill="#7B9FE1"/>
<path d="M241.996 11.1699H194.392C194.05 11.1699 193.711 11.2375 193.394 11.3689C193.078 11.5002 192.791 11.6927 192.549 11.9353C192.307 12.1779 192.115 12.4659 191.985 12.7826C191.855 13.0994 191.788 13.4389 191.789 13.7814V38.1393C191.788 38.4815 191.855 38.8205 191.985 39.1368C192.116 39.4532 192.307 39.7406 192.549 39.9826C192.791 40.2245 193.079 40.4163 193.395 40.5467C193.711 40.6772 194.05 40.7438 194.392 40.7427H220.427L216.397 52.7201L226.577 40.7427H241.964C242.654 40.7427 243.316 40.4684 243.805 39.9802C244.293 39.4919 244.567 38.8298 244.567 38.1393V13.7814C244.567 13.0957 244.298 12.4375 243.817 11.9489C243.335 11.4603 242.682 11.1805 241.996 11.1699V11.1699Z" stroke="#7B9FE1" stroke-width="0.5" stroke-miterlimit="10"/>
<path d="M229.092 19.585H238.45" stroke="#7B9FE1" stroke-width="0.5" stroke-miterlimit="10"/>
<path d="M222.74 19.585H226.585" stroke="#7B9FE1" stroke-width="0.5" stroke-miterlimit="10"/>
<path d="M207.207 19.585H219.064" stroke="#7B9FE1" stroke-width="0.5" stroke-miterlimit="10"/>
<path d="M199.559 19.585H204.201" stroke="#7B9FE1" stroke-width="0.5" stroke-miterlimit="10"/>
<path d="M235.604 25.7266H238.449" stroke="#7B9FE1" stroke-width="0.5" stroke-miterlimit="10"/>
<path d="M210.715 25.7266H233.598" stroke="#7B9FE1" stroke-width="0.5" stroke-miterlimit="10"/>
<path d="M199.559 25.7266H208.376" stroke="#7B9FE1" stroke-width="0.5" stroke-miterlimit="10"/>
<path d="M234.934 31.8682H238.448" stroke="#7B9FE1" stroke-width="0.5" stroke-miterlimit="10"/>
<path d="M227.584 31.8682H231.259" stroke="#7B9FE1" stroke-width="0.5" stroke-miterlimit="10"/>
<path d="M207.039 31.8682H224.409" stroke="#7B9FE1" stroke-width="0.5" stroke-miterlimit="10"/>
<path d="M199.559 31.8691H205.04" stroke="#7B9FE1" stroke-width="0.5" stroke-miterlimit="10"/>
<path d="M232.677 254.298H141.379V294.792H232.677V254.298Z" fill="#081F4A" stroke="#081F4A" stroke-width="0.5" stroke-miterlimit="10"/>
<path d="M194.028 255.66H180.221V260.94H194.028V255.66Z" fill="#F5F5F5" stroke="#081F4A" stroke-width="0.5" stroke-miterlimit="10"/>
<path d="M249.168 148.194C249.168 147.235 246.992 145.776 243.614 143.849C240.237 141.923 208.367 127.431 208.367 127.431L189.531 126.455V126.222L187.354 126.343L185.186 126.222V126.455L166.349 127.431C166.349 127.431 134.48 141.939 131.102 143.849C127.725 145.76 125.549 147.235 125.549 148.194C125.549 149.153 139.694 240.015 139.952 242.562C140.21 245.109 139.952 252.452 139.952 254.225C139.952 255.999 143.757 257.014 143.757 257.014H230.96C230.96 257.014 234.764 255.999 234.764 254.225C234.764 252.452 234.514 245.101 234.764 242.562C235.014 240.023 249.168 149.161 249.168 148.194Z" fill="#7B9FE1" stroke="#081F4A" stroke-width="0.5" stroke-miterlimit="10"/>
<path d="M243.614 143.849C240.237 141.923 208.367 127.431 208.367 127.431L189.531 126.455V126.222L187.354 126.343L185.186 126.222V126.455L166.349 127.431C166.349 127.431 134.48 141.939 131.102 143.849C127.725 145.76 125.549 147.235 125.549 148.194C125.549 148.524 127.161 158.986 129.273 172.842L130.28 173.648C130.28 173.648 135.971 154.303 153.042 146.34C170.114 138.376 176.932 136.095 193.432 136.095C208.907 136.095 236.876 158.599 245.468 172.664C247.58 158.89 249.168 148.484 249.168 148.17C249.168 147.235 246.992 145.784 243.614 143.849Z" fill="#081F4A" stroke="#081F4A" stroke-width="0.5" stroke-miterlimit="10"/>
<path d="M177.456 145.058L186.637 153.989L174.562 236.807L186.814 255.604L200.927 236.581L191.706 153.747L200.395 144.575L189.288 132.742L177.456 145.058Z" fill="#081F4A" stroke="#081F4A" stroke-width="0.5" stroke-miterlimit="10"/>
<path d="M205.845 57.5487C203.209 56.9844 197.342 55.7915 192.642 54.8485V53.4863L189.257 54.1634L185.88 53.4863V54.8485C181.181 55.7915 175.305 56.9844 172.677 57.5487C167.938 58.5642 165.061 58.5642 165.061 63.3036C165.061 63.3036 166.415 97.3176 167.092 100.534C167.769 103.75 168.277 107.973 170.477 109.835C172.677 111.697 172.847 112.374 172.847 112.374V122.53C172.847 122.53 180.971 139.956 182.519 141.149C184.411 142.749 186.808 143.627 189.285 143.627C191.763 143.627 194.16 142.749 196.052 141.149C197.575 139.964 205.724 122.53 205.724 122.53V112.374C205.724 112.374 205.893 111.697 208.094 109.835C210.294 107.973 210.802 103.75 211.479 100.534C212.156 97.3176 213.51 63.3036 213.51 63.3036C213.462 58.5642 210.584 58.5642 205.845 57.5487Z" fill="#F5F5F5" stroke="#081F4A" stroke-width="0.5" stroke-miterlimit="10"/>
<path d="M174.707 62.9655C174.707 62.9655 191.456 69.8973 196.196 69.8973C200.935 69.8973 195.688 67.7049 195.688 67.7049C195.688 67.7049 202.289 69.8973 204.828 69.8973H207.367C207.367 69.8973 207.706 74.6366 208.044 75.1444C208.383 75.6522 208.214 76.3293 208.721 76.6678C209.142 76.9754 209.538 77.3149 209.906 77.6834C209.906 77.6834 211.091 96.1331 211.768 97.995C212.445 99.8569 213.646 70.7516 213.646 70.7516C214.468 69.8477 215.077 68.771 215.429 67.6008C215.78 66.4306 215.865 65.1965 215.677 63.9891C215.169 59.5883 205.691 52.3099 195.704 48.9247C192.17 47.6578 188.361 47.3635 184.675 48.0724C180.988 48.7813 177.56 50.4675 174.748 52.9548C171.362 56.0015 170.855 57.3556 170.855 57.3556C170.855 57.3556 165.607 57.0171 164.761 59.0482C163.915 61.0794 167.469 97.1245 167.469 97.1245L168.316 77.6592C168.316 77.6592 171.024 74.7817 171.193 73.2583C171.362 71.735 173.055 64.9725 173.055 64.9725C173.055 64.9725 175.594 66.4959 176.279 65.9881C176.964 65.4803 174.707 62.9655 174.707 62.9655Z" fill="#081F4A" stroke="#081F4A" stroke-width="0.5" stroke-miterlimit="10"/>
<path d="M166.414 86.6538C166.414 86.6538 165.398 85.1304 164.213 86.146C163.029 87.1616 162.013 93.9321 162.69 95.6248C163.367 97.3174 164.383 99.8563 165.229 100.026C165.858 100.163 166.479 100.332 167.091 100.533L166.414 86.6538Z" fill="#081F4A" stroke="#081F4A" stroke-width="0.5" stroke-miterlimit="10"/>
<path d="M212.228 86.6538C212.228 86.6538 213.243 85.1304 214.428 86.146C215.613 87.1616 216.629 93.9321 215.952 95.6248C215.275 97.3174 214.259 99.8563 213.413 100.026C212.784 100.163 212.162 100.332 211.551 100.533L212.228 86.6538Z" fill="#081F4A" stroke="#081F4A" stroke-width="0.5" stroke-miterlimit="10"/>
<path d="M171.154 76.4984C171.154 76.4984 172.847 73.2743 175.724 72.9439C178.602 72.6134 185.397 74.298 184.865 76.4984C184.333 78.6988 171.154 76.4984 171.154 76.4984Z" fill="#081F4A" stroke="#081F4A" stroke-width="0.5" stroke-miterlimit="10"/>
<path d="M207.391 76.4984C207.391 76.4984 205.698 73.2743 202.821 72.9439C199.943 72.6134 193.149 74.298 193.689 76.4984C194.229 78.6988 207.391 76.4984 207.391 76.4984Z" fill="#081F4A" stroke="#081F4A" stroke-width="0.5" stroke-miterlimit="10"/>
<path d="M185.105 86.6538H170.927C170.456 86.6539 170.004 86.4673 169.671 86.135C169.337 85.8027 169.148 85.3516 169.146 84.8806L168.461 77.7715C168.461 77.3005 168.647 76.8486 168.98 76.5148C169.312 76.181 169.763 75.9924 170.234 75.9902H185.806C186.04 75.9902 186.271 76.0364 186.487 76.126C186.703 76.2156 186.898 76.3469 187.063 76.5125C187.228 76.678 187.358 76.8744 187.447 77.0905C187.536 77.3065 187.581 77.538 187.58 77.7715L186.895 84.8806C186.895 85.1148 186.848 85.3468 186.758 85.563C186.668 85.7791 186.536 85.9753 186.37 86.1402C186.203 86.3051 186.006 86.4354 185.789 86.5235C185.572 86.6117 185.339 86.656 185.105 86.6538Z" fill="#F5F5F5" stroke="#081F4A" stroke-width="0.5" stroke-miterlimit="10"/>
<path d="M207.102 86.6538H192.908C192.438 86.6538 191.986 86.467 191.654 86.1345C191.321 85.8019 191.135 85.3509 191.135 84.8806L190.441 77.7715C190.441 77.2991 190.629 76.846 190.963 76.512C191.297 76.1779 191.75 75.9902 192.223 75.9902H207.787C208.259 75.9902 208.712 76.1779 209.046 76.512C209.381 76.846 209.568 77.2991 209.568 77.7715L208.883 84.8806C208.881 85.3516 208.692 85.8027 208.359 86.135C208.025 86.4673 207.573 86.6539 207.102 86.6538Z" fill="#F5F5F5" stroke="#081F4A" stroke-width="0.5" stroke-miterlimit="10"/>
<path d="M192.223 75.9902H185.791" stroke="#081F4A" stroke-width="0.5" stroke-miterlimit="10"/>
<path d="M187.564 77.7715H190.442" stroke="#081F4A" stroke-width="0.5" stroke-miterlimit="10"/>
<path d="M187.395 79.2061C187.395 79.2061 185.034 87.6693 185.034 88.6849C185.028 88.9684 185.105 89.2475 185.255 89.488C185.405 89.7285 185.622 89.92 185.88 90.039C185.88 90.039 186.686 87.1615 187.564 86.8149C188.443 86.4683 191.119 86.6456 191.119 86.6456L192.812 90.0309C193.023 89.8318 193.193 89.5923 193.311 89.3265C193.428 89.0607 193.492 88.774 193.497 88.4834C193.666 87.2985 190.619 79.0046 190.619 79.0046C190.619 79.0046 188.241 78.3598 187.395 79.2061Z" fill="#081F4A" stroke="#081F4A" stroke-width="0.5" stroke-miterlimit="10"/>
<path d="M180.857 116.082C181.283 116.225 181.716 116.343 182.155 116.437" stroke="#081F4A" stroke-width="0.5" stroke-miterlimit="10"/>
<path d="M172.846 112.375C174.94 113.522 177.093 114.56 179.294 115.486" stroke="#081F4A" stroke-width="0.5" stroke-miterlimit="10"/>
<path d="M205.676 111.858C205.676 111.858 201.783 115.244 198.229 115.751" stroke="#081F4A" stroke-width="0.5" stroke-miterlimit="10"/>
<path d="M181.139 100.704C184.093 100.086 187.089 99.6896 190.102 99.5191C192.536 99.6559 194.934 100.17 197.211 101.043C197.211 101.043 193.656 96.1339 192.302 95.6261C190.948 95.1183 187.224 95.6261 186.047 95.6261C184.871 95.6261 181.139 100.704 181.139 100.704Z" fill="#081F4A" stroke="#081F4A" stroke-width="0.5" stroke-linejoin="round"/>
<path d="M194.164 104.056C194.164 104.056 187.901 103.886 185.709 104.056C183.517 104.225 183.17 106.933 183.17 106.933C185.271 106.31 187.433 105.913 189.618 105.748C191.725 105.859 193.82 106.143 195.881 106.595C195.881 106.595 196.195 105.241 194.164 104.056Z" fill="#081F4A" stroke="#081F4A" stroke-width="0.5" stroke-linejoin="round"/>
<path d="M125.547 148.193L100.432 214.593L122.887 224.975L135.203 201.318L125.547 148.193Z" fill="#7B9FE1" stroke="#081F4A" stroke-width="0.5" stroke-miterlimit="10"/>
<path d="M131.238 208.943C130.376 207.427 129.094 205.308 127.208 202.495C124.639 198.628 121.64 195.064 118.27 191.871C120.067 192.536 121.771 193.43 123.339 194.531C126.725 196.699 128.651 197.908 127.926 195.015C127.2 192.121 120.204 182.699 119.72 181.006C119.237 179.313 122.138 179.08 122.856 176.17C123.436 173.857 125.564 158.873 126.386 152.973L125.516 148.137L100.408 214.536L106.671 217.438H114.651L129.054 213.021L131.238 208.943Z" fill="#081F4A" stroke="#081F4A" stroke-width="0.5" stroke-miterlimit="10"/>
<path d="M127.717 206.871C127.717 206.871 117.577 206.162 113.7 206.162C109.823 206.162 104.028 206.646 101.868 210.265C99.7078 213.884 98.9743 225.233 101.868 231.511C104.762 237.79 112.975 239.483 117.561 239.241C122.147 238.999 130.844 232.237 132.069 228.86C133.295 225.482 131.828 217.753 130.619 213.642C129.944 211.271 128.969 208.995 127.717 206.871Z" fill="#7B9FE1" stroke="#081F4A" stroke-width="0.5" stroke-miterlimit="10"/>
<path d="M127.717 206.872C127.717 206.872 119.27 208.557 119.27 213.868C119.27 219.18 121.929 224.492 125.065 225.459C128.2 226.426 132.553 223.532 132.553 223.532C132.553 223.532 135.446 221.598 134.237 215.803C133.028 210.007 129.893 207.114 127.717 206.872Z" fill="#7B9FE1" stroke="#081F4A" stroke-width="0.5" stroke-miterlimit="10"/>
<path d="M133.511 196.967C133.511 196.967 136.171 192.864 136.896 191.897C137.621 190.93 140.273 188.278 141.732 185.86C143.191 183.442 144.868 181.024 145.351 184.417C145.835 187.81 142.458 191.413 141.732 192.38L138.113 197.217C138.113 197.217 133.269 199.868 133.511 196.967Z" fill="#F5F5F5" stroke="#081F4A" stroke-width="0.5" stroke-miterlimit="10"/>
<path d="M126.758 211.217C126.758 211.217 128.443 201.544 129.893 199.626C131.344 197.708 141.726 190.937 143.902 189.728C146.078 188.519 159.837 188.761 159.837 188.761C159.837 188.761 163.456 189.728 161.28 191.179C159.103 192.63 153.8 192.138 153.8 192.138L145.587 196.249L153.8 194.556L162.005 195.765C162.005 195.765 163.698 197.208 162.972 198.417C162.247 199.626 157.177 199.626 157.177 199.626H153.316L144.378 203.745L154.283 202.294C154.283 202.294 160.554 201.093 160.796 202.778C161.038 204.462 159.112 205.921 157.903 205.921C156.428 206.109 154.973 206.433 153.558 206.888L147.553 209.04L156.726 207.59C156.726 207.59 157.209 209.04 156.484 209.766C155.759 210.491 146.812 213.868 146.812 213.868C146.812 213.868 138.365 217.254 137.139 218.221C135.914 219.188 133.754 221.84 129.652 221.356C125.549 220.873 125.791 212.667 126.758 211.217Z" fill="#F5F5F5" stroke="#081F4A" stroke-width="0.5" stroke-miterlimit="10"/>
<path d="M147.52 209.04L144.377 210.249" stroke="#081F4A" stroke-width="0.5" stroke-miterlimit="10"/>
<path d="M145.586 196.248L142.209 197.449" stroke="#081F4A" stroke-width="0.5" stroke-miterlimit="10"/>
<path d="M249.127 148.193L274.234 214.593L251.779 224.975L239.471 201.318L249.127 148.193Z" fill="#7B9FE1" stroke="#081F4A" stroke-width="0.5" stroke-miterlimit="10"/>
<path d="M243.469 208.944C244.331 207.429 245.613 205.309 247.499 202.496C250.047 198.641 253.021 195.086 256.365 191.897C254.568 192.561 252.864 193.455 251.295 194.557C247.91 196.725 245.984 197.934 246.701 195.04C247.418 192.147 254.431 182.724 254.914 181.032C255.398 179.339 252.496 179.105 251.779 176.195C251.198 173.882 249.071 158.898 248.248 152.998L249.119 148.162L274.226 214.562L267.964 217.464H259.984L245.581 213.047L243.469 208.944Z" fill="#081F4A" stroke="#081F4A" stroke-width="0.5" stroke-miterlimit="10"/>
<path d="M172.386 118.258L184.219 138.779L174.321 153.271L165.148 127.188L172.386 118.258Z" fill="#7B9FE1" stroke="#081F4A" stroke-width="0.5" stroke-miterlimit="10"/>
<path d="M205.948 118.258L194.115 138.779L204.013 153.271L213.194 127.188L205.948 118.258Z" fill="#7B9FE1" stroke="#081F4A" stroke-width="0.5" stroke-miterlimit="10"/>
<path d="M246.951 206.872C246.951 206.872 257.099 206.146 260.96 206.146C264.821 206.146 270.632 206.63 272.792 210.249C274.952 213.868 275.686 225.217 272.792 231.496C269.899 237.775 261.685 239.467 257.099 239.225C252.513 238.984 243.816 232.221 242.591 228.844C241.366 225.467 242.832 217.737 244.041 213.626C244.722 211.261 245.7 208.991 246.951 206.872Z" fill="#7B9FE1" stroke="#081F4A" stroke-width="0.5" stroke-miterlimit="10"/>
<path d="M246.951 206.872C246.951 206.872 255.406 208.557 255.406 213.868C255.406 219.18 252.746 224.492 249.61 225.459C246.475 226.426 242.122 223.532 242.122 223.532C242.122 223.532 239.229 221.598 240.438 215.803C241.647 210.007 244.782 207.114 246.951 206.872Z" fill="#7B9FE1" stroke="#081F4A" stroke-width="0.5" stroke-miterlimit="10"/>
<path d="M241.163 196.967C241.163 196.967 238.503 192.864 237.778 191.897C237.052 190.93 234.4 188.278 232.942 185.86C231.483 183.442 229.806 181.024 229.323 184.417C228.839 187.81 232.216 191.413 232.942 192.38L236.561 197.217C236.561 197.217 241.397 199.868 241.163 196.967Z" fill="#F5F5F5" stroke="#081F4A" stroke-width="0.5" stroke-miterlimit="10"/>
<path d="M247.918 211.217C247.918 211.217 246.233 201.544 244.782 199.626C243.332 197.708 232.99 190.937 230.774 189.728C228.557 188.519 214.839 188.761 214.839 188.761C214.839 188.761 211.22 189.728 213.396 191.179C215.572 192.63 220.9 192.138 220.9 192.138L229.113 196.249L220.9 194.556L212.695 195.765C212.695 195.765 211.002 197.208 211.728 198.417C212.453 199.626 217.523 199.626 217.523 199.626H221.384L230.298 203.745L220.392 202.294C220.392 202.294 214.121 201.093 213.88 202.778C213.638 204.462 215.564 205.921 216.773 205.921C218.248 206.109 219.702 206.433 221.118 206.888L227.155 209.056L217.982 207.606C217.982 207.606 217.499 209.056 218.224 209.782C218.95 210.507 227.896 213.885 227.896 213.885C227.896 213.885 236.343 217.27 237.569 218.237C238.794 219.204 240.954 221.856 245.056 221.372C249.159 220.889 248.885 212.667 247.918 211.217Z" fill="#F5F5F5" stroke="#081F4A" stroke-width="0.5" stroke-miterlimit="10"/>
<path d="M227.154 209.04L230.298 210.249" stroke="#081F4A" stroke-width="0.5" stroke-miterlimit="10"/>
<path d="M229.09 196.248L232.467 197.449" stroke="#081F4A" stroke-width="0.5" stroke-miterlimit="10"/>
<path d="M148.955 293.027V297.493H197.276V300.741H168.848V303.175H208.238V299.113H201.741V296.678H228.541V290.585" fill="#081F4A"/>
<path d="M148.955 293.027V297.493H197.276V300.741H168.848V303.175H208.238V299.113H201.741V296.678H228.541V290.585" stroke="#7B9FE1" stroke-width="0.5" stroke-miterlimit="10"/>
<path d="M163.98 301.555H154.639V303.586H163.98V301.555Z" fill="#081F4A" stroke="#7B9FE1" stroke-width="0.5" stroke-miterlimit="10"/>
<path d="M160.311 311.848H153.928V316.523H160.311V311.848Z" stroke="#7B9FE1" stroke-width="0.5" stroke-miterlimit="10"/>
<path d="M178.601 316.949H174.346V319.504H178.601V316.949Z" stroke="#7B9FE1" stroke-width="0.5" stroke-miterlimit="10"/>
<path d="M197.309 315.676H190.506V317.804H197.309V315.676Z" stroke="#7B9FE1" stroke-width="0.5" stroke-miterlimit="10"/>
<path d="M186.258 327.59H182.002V330.145H186.258V327.59Z" stroke="#7B9FE1" stroke-width="0.5" stroke-miterlimit="10"/>
<path d="M202.837 320.778H199.863V322.479H202.837V320.778Z" stroke="#7B9FE1" stroke-width="0.5" stroke-miterlimit="10"/>
<path d="M219.425 311.002H205.393V315.258H219.425V311.002Z" stroke="#7B9FE1" stroke-width="0.5" stroke-miterlimit="10"/>
<path d="M171.789 326.734H164.986V330.136H171.789V326.734Z" stroke="#7B9FE1" stroke-width="0.5" stroke-miterlimit="10"/>
<path d="M188.378 338.64H184.977V340.34H188.378V338.64Z" stroke="#7B9FE1" stroke-width="0.5" stroke-miterlimit="10"/>
<path d="M184.282 306.834H170.475V309.268H184.282V306.834Z" fill="#081F4A" stroke="#7B9FE1" stroke-width="0.5" stroke-miterlimit="10"/>
<path d="M204.991 305.206H196.463V306.423H204.991V305.206Z" fill="#081F4A" stroke="#7B9FE1" stroke-width="0.5" stroke-miterlimit="10"/>
<path d="M219.612 298.709H211.084V300.337H219.612V298.709Z" fill="#081F4A" stroke="#7B9FE1" stroke-width="0.5" stroke-miterlimit="10"/>
<path d="M147.738 298.71H143.676V302.772H147.738V298.71Z" fill="#081F4A" stroke="#7B9FE1" stroke-width="0.5" stroke-miterlimit="10"/>
<path d="M228.139 301.555H224.076V305.617H228.139V301.555Z" fill="#081F4A" stroke="#7B9FE1" stroke-width="0.5" stroke-miterlimit="10"/>
<path d="M138.51 336.656L146.747 361.723" stroke="#7B9FE1" stroke-width="0.5" stroke-miterlimit="10"/>
<path d="M136.244 329.758L137.477 333.514" stroke="#7B9FE1" stroke-width="0.5" stroke-miterlimit="10"/>
<path d="M110.475 251.3L134.969 325.881" stroke="#7B9FE1" stroke-width="0.5" stroke-miterlimit="10"/>
<path d="M160.449 334.32L164.479 355.277" stroke="#7B9FE1" stroke-width="0.5" stroke-miterlimit="10"/>
<path d="M257.961 273.425L228.961 361.724" stroke="#7B9FE1" stroke-width="0.5" stroke-miterlimit="10"/>
<path d="M260.7 265.099L258.951 270.418" stroke="#7B9FE1" stroke-width="0.5" stroke-miterlimit="10"/>
<path d="M265.233 251.3L262.686 259.054" stroke="#7B9FE1" stroke-width="0.5" stroke-miterlimit="10"/>
<path d="M215.259 334.319L211.229 355.276" stroke="#7B9FE1" stroke-width="0.5" stroke-miterlimit="10"/>
</svg>
