<svg xmlns="http://www.w3.org/2000/svg" version="1.1" xmlns:xlink="http://www.w3.org/1999/xlink" xmlns:svgjs="http://svgjs.com/svgjs" width="1440" height="400" preserveAspectRatio="none" viewBox="0 0 1440 400">
    <g mask="url(&quot;#SvgjsMask1010&quot;)" fill="none">
        <rect width="1440" height="400" x="0" y="0" fill="rgba(8, 31, 74, 1)"></rect>
        <path d="M1488 400L0 400 L0 233.09Q25.63 186.72, 72 212.34Q149.55 169.89, 192 247.44Q218.49 201.93, 264 228.41Q287.99 180.39, 336 204.38Q378.62 175, 408 217.62Q485.19 174.81, 528 251.99Q554.06 206.05, 600 232.11Q647.56 159.67, 720 207.23Q775.71 190.94, 792 246.65Q819.49 202.13, 864 229.62Q913.52 159.14, 984 208.66Q1073.34 178, 1104 267.34Q1128.5 219.84, 1176 244.34Q1216.57 164.91, 1296 205.48Q1338.17 175.65, 1368 217.82Q1447.17 176.99, 1488 256.16z" fill="#182f5d"></path>
        <path d="M1512 400L0 400 L0 314.24Q52.41 246.65, 120 299.06Q139.88 246.94, 192 266.83Q274.57 229.4, 312 311.97Q342.41 222.38, 432 252.79Q511.38 212.18, 552 291.56Q580.98 248.54, 624 277.52Q697.31 230.83, 744 304.14Q810.8 250.94, 864 317.74Q885.02 266.76, 936 287.78Q979.76 259.54, 1008 303.31Q1050.99 274.31, 1080 317.3Q1097.79 263.09, 1152 280.88Q1219.11 227.99, 1272 295.1Q1314.41 217.51, 1392 259.93Q1479.48 227.41, 1512 314.89z" fill="#25467d"></path>
        <path d="M1560 400L0 400 L0 318.74Q48.85 295.59, 72 344.44Q102.52 302.96, 144 333.47Q190.91 308.38, 216 355.29Q233.42 300.71, 288 318.13Q360.12 270.25, 408 342.37Q451.19 313.56, 480 356.74Q526.5 283.25, 600 329.75Q667.7 277.45, 720 345.15Q768.38 321.52, 792 369.9Q795.35 301.25, 864 304.6Q929.41 250.01, 984 315.43Q1070.15 281.59, 1104 367.74Q1129.96 321.71, 1176 347.67Q1190.29 289.96, 1248 304.25Q1294.89 279.14, 1320 326.03Q1400.71 286.74, 1440 367.45Q1469.35 276.79, 1560 306.14z" fill="#356cb1"></path>
        <path d="M1464 400L0 400 L0 418.06Q54.84 352.9, 120 407.75Q165.65 333.4, 240 379.06Q262.56 329.62, 312 352.18Q354.88 323.06, 384 365.93Q432.32 342.25, 456 390.58Q474.57 337.15, 528 355.72Q595.98 303.7, 648 371.67Q690.86 342.53, 720 385.4Q771.18 364.58, 792 415.76Q822.53 326.29, 912 356.82Q992.77 317.59, 1032 398.35Q1100.37 346.72, 1152 415.09Q1166.69 357.78, 1224 372.47Q1293.13 321.6, 1344 390.72Q1410.88 337.61, 1464 404.49z" fill="white"></path>
    </g>
    <defs>
        <mask id="SvgjsMask1010">
            <rect width="1440" height="400" fill="#ffffff"></rect>
        </mask>
    </defs>
</svg>