<svg width="161" height="160" viewBox="0 0 161 160" fill="none" xmlns="http://www.w3.org/2000/svg">
<path d="M143.659 80.2753C144.775 81.5742 144.775 83.4258 143.659 84.7247C136.731 92.7867 111.083 120 80.5018 120C49.9208 120 24.2724 92.7868 17.3449 84.7247C16.2288 83.4258 16.2288 81.5742 17.3449 80.2753C24.2723 72.2133 49.9208 45 80.5018 45C111.083 45 136.731 72.2132 143.659 80.2753Z" fill="#081F4A"/>
<path d="M80.5 80C69.4543 80 60.5 71.0457 60.5 60C60.5 48.9543 69.4543 40 80.5 40C91.5457 40 100.5 48.9543 100.5 60C100.5 71.0457 91.5457 80 80.5 80Z" fill="url(#paint0_linear_487_5003)"/>
<path d="M80.5 85C91.5457 85 100.5 93.9543 100.5 105C100.5 116.046 91.5457 125 80.5 125C69.4543 125 60.5 116.046 60.5 105C60.5 93.9543 69.4543 85 80.5 85Z" fill="url(#paint1_linear_487_5003)"/>
<path d="M105.5 82.5C105.5 96.3071 94.3071 107.5 80.5 107.5C66.6929 107.5 55.5 96.3071 55.5 82.5C55.5 68.6929 66.6929 57.5 80.5 57.5C94.3071 57.5 105.5 68.6929 105.5 82.5Z" fill="url(#paint2_radial_487_5003)"/>
<path d="M80.5 97.5C88.7843 97.5 95.5 90.7843 95.5 82.5C95.5 81.4725 95.2089 80.0007 94.9302 78.8269C94.7185 77.9353 93.6259 77.6072 92.8665 78.1201C91.8697 78.7934 90.5689 79.5 89.5 79.5C86.1863 79.5 83.5 76.8137 83.5 73.5C83.5 72.2913 83.8574 71.166 84.4723 70.2242C85.0162 69.3912 84.837 68.1019 83.8673 67.8795C82.7849 67.6312 81.6578 67.5 80.5 67.5C72.2157 67.5 65.5 74.2157 65.5 82.5C65.5 90.7843 72.2157 97.5 80.5 97.5Z" fill="#081F4A"/>
<path d="M26.75 33.75C26.75 31.6789 28.4289 30 30.5 30H38C40.0711 30 41.75 31.6789 41.75 33.75V41.25C41.75 43.3211 40.0711 45 38 45H30.5C28.4289 45 26.75 43.3211 26.75 41.25V33.75Z" fill="#081F4A"/>
<path d="M23 118.75C25.0711 118.75 26.75 117.071 26.75 115C26.75 112.929 25.0711 111.25 23 111.25C20.9289 111.25 19.25 112.929 19.25 115C19.25 117.071 20.9289 118.75 23 118.75Z" fill="url(#paint3_linear_487_5003)"/>
<path d="M34.25 118.75C36.3211 118.75 38 117.071 38 115C38 112.929 36.3211 111.25 34.25 111.25C32.1789 111.25 30.5 112.929 30.5 115C30.5 117.071 32.1789 118.75 34.25 118.75Z" fill="url(#paint4_linear_487_5003)"/>
<path d="M26.75 126.25C26.75 128.321 25.0711 130 23 130C20.9289 130 19.25 128.321 19.25 126.25C19.25 124.179 20.9289 122.5 23 122.5C25.0711 122.5 26.75 124.179 26.75 126.25Z" fill="url(#paint5_linear_487_5003)"/>
<path d="M34.25 130C36.3211 130 38 128.321 38 126.25C38 124.179 36.3211 122.5 34.25 122.5C32.1789 122.5 30.5 124.179 30.5 126.25C30.5 128.321 32.1789 130 34.25 130Z" fill="url(#paint6_linear_487_5003)"/>
<path d="M128.917 38.75C127.955 37.0833 125.55 37.0833 124.587 38.75L119.175 48.125C118.212 49.7917 119.415 51.875 121.34 51.875H132.165C134.089 51.875 135.292 49.7917 134.33 48.125L128.917 38.75Z" fill="url(#paint7_linear_487_5003)"/>
<path d="M128.917 68.75C127.955 70.4167 125.55 70.4167 124.587 68.75L119.175 59.375C118.212 57.7083 119.415 55.625 121.34 55.625H132.165C134.089 55.625 135.292 57.7083 134.33 59.375L128.917 68.75Z" fill="url(#paint8_linear_487_5003)"/>
<path d="M131.75 117.5C131.75 119.571 130.071 121.25 128 121.25C125.929 121.25 124.25 119.571 124.25 117.5C124.25 115.429 125.929 113.75 128 113.75C130.071 113.75 131.75 115.429 131.75 117.5Z" fill="#081F4A"/>
<path d="M128 130H135.5C138.261 130 140.5 127.761 140.5 125V117.5" stroke="url(#paint9_linear_487_5003)" stroke-width="3.75" stroke-linecap="round"/>
<path d="M33 43.75C33 46.5114 30.7614 48.75 28 48.75C25.2386 48.75 23 46.5114 23 43.75C23 40.9886 25.2386 38.75 28 38.75C30.7614 38.75 33 40.9886 33 43.75Z" fill="url(#paint10_linear_487_5003)"/>
<defs>
<linearGradient id="paint0_linear_487_5003" x1="80.5" y1="80" x2="80.5" y2="40" gradientUnits="userSpaceOnUse">
<stop stop-color="#F3F8FF"/>
<stop offset="0.505208" stop-color="#B9D9FF"/>
<stop offset="1" stop-color="#96C6FF"/>
</linearGradient>
<linearGradient id="paint1_linear_487_5003" x1="80.5" y1="85" x2="80.5" y2="125" gradientUnits="userSpaceOnUse">
<stop stop-color="#F3F8FF"/>
<stop offset="0.505208" stop-color="#B9D9FF"/>
<stop offset="1" stop-color="#96C6FF"/>
</linearGradient>
<radialGradient id="paint2_radial_487_5003" cx="0" cy="0" r="1" gradientUnits="userSpaceOnUse" gradientTransform="translate(80.5 82.5) rotate(90) scale(25)">
<stop stop-color="white"/>
<stop offset="1" stop-color="white"/>
</radialGradient>
<linearGradient id="paint3_linear_487_5003" x1="35.5" y1="111.25" x2="33.8091" y2="132.253" gradientUnits="userSpaceOnUse">
<stop stop-color="#B0D4FF"/>
<stop offset="1" stop-color="#F2F8FF"/>
</linearGradient>
<linearGradient id="paint4_linear_487_5003" x1="35.5" y1="111.25" x2="33.8091" y2="132.253" gradientUnits="userSpaceOnUse">
<stop stop-color="#B0D4FF"/>
<stop offset="1" stop-color="#F2F8FF"/>
</linearGradient>
<linearGradient id="paint5_linear_487_5003" x1="35.5" y1="111.25" x2="33.8091" y2="132.253" gradientUnits="userSpaceOnUse">
<stop stop-color="#B0D4FF"/>
<stop offset="1" stop-color="#F2F8FF"/>
</linearGradient>
<linearGradient id="paint6_linear_487_5003" x1="35.5" y1="111.25" x2="33.8091" y2="132.253" gradientUnits="userSpaceOnUse">
<stop stop-color="#B0D4FF"/>
<stop offset="1" stop-color="#F2F8FF"/>
</linearGradient>
<linearGradient id="paint7_linear_487_5003" x1="134.252" y1="40" x2="120.502" y2="70" gradientUnits="userSpaceOnUse">
<stop stop-color="#F2F8FF"/>
<stop offset="1" stop-color="#8EC2FF"/>
</linearGradient>
<linearGradient id="paint8_linear_487_5003" x1="134.252" y1="40" x2="120.502" y2="70" gradientUnits="userSpaceOnUse">
<stop stop-color="#F2F8FF"/>
<stop offset="1" stop-color="#8EC2FF"/>
</linearGradient>
<linearGradient id="paint9_linear_487_5003" x1="140.5" y1="130" x2="131.125" y2="120.625" gradientUnits="userSpaceOnUse">
<stop stop-color="#ECF4FF"/>
<stop offset="1" stop-color="#D5E8FF"/>
</linearGradient>
<linearGradient id="paint10_linear_487_5003" x1="23" y1="48.75" x2="33" y2="38.75" gradientUnits="userSpaceOnUse">
<stop stop-color="#F3F8FF"/>
<stop offset="1" stop-color="#96C6FF"/>
</linearGradient>
</defs>
</svg>
