<svg width="180" height="57" viewBox="0 0 180 57" fill="none" xmlns="http://www.w3.org/2000/svg">
<g clip-path="url(#clip0_288_8739)">
<path d="M22.7023 20.071V26.0795H37.2026C36.8176 29.4034 35.6627 31.9602 33.8662 33.6222C31.8131 35.6676 28.4767 37.9688 22.7023 37.9688C13.8481 37.9688 6.91879 30.8097 6.91879 21.9886C6.91879 13.1676 13.7198 6.00852 22.7023 6.00852C27.4502 6.00852 31.0432 7.92614 33.6096 10.3551L37.8442 6.13636C34.2512 2.68466 29.375 0 22.7023 0C10.5118 0 0.246094 9.84375 0.246094 21.9886C0.246094 34.1335 10.5118 43.9773 22.7023 43.9773C29.2467 43.9773 34.2512 41.804 38.1008 37.8409C42.0788 33.8778 43.362 28.2528 43.362 23.7784C43.362 22.3722 43.2337 21.0938 43.1054 20.071H22.7023Z" fill="#4285F4"/>
<path d="M61.3251 15.085C53.4975 15.085 46.9531 21.0935 46.9531 29.2753C46.9531 37.4571 53.3692 43.4656 61.3251 43.4656C69.281 43.4656 75.6971 37.585 75.6971 29.4031C75.6971 21.0935 69.281 15.085 61.3251 15.085ZM61.3251 37.9685C56.9622 37.9685 53.2409 34.3889 53.2409 29.4031C53.2409 24.2895 56.9622 20.8378 61.3251 20.8378C65.688 20.8378 69.4093 24.2895 69.4093 29.4031C69.4093 34.3889 65.688 37.9685 61.3251 37.9685Z" fill="#EA4335"/>
<path d="M131.519 18.281H131.262C129.851 16.6191 127.156 15.085 123.691 15.085C116.505 15.085 110.346 21.2213 110.346 29.2753C110.346 37.2014 116.505 43.4656 123.691 43.4656C127.156 43.4656 129.851 41.9316 131.262 40.2696H131.519V42.3151C131.519 47.6844 128.567 50.6247 123.948 50.6247C120.098 50.6247 117.788 47.9401 116.762 45.5111L111.372 47.8122C112.912 51.5196 117.147 56.2497 124.076 56.2497C131.39 56.2497 137.678 51.9031 137.678 41.4202V15.852H131.775V18.281H131.519ZM124.333 37.9685C119.97 37.9685 116.762 34.2611 116.762 29.4031C116.762 24.4173 120.098 20.8378 124.333 20.8378C128.567 20.8378 131.904 24.5452 131.904 29.531C132.032 34.3889 128.696 37.9685 124.333 37.9685Z" fill="#4285F4"/>
<path d="M93.2782 15.085C85.4506 15.085 78.9062 21.0935 78.9062 29.2753C78.9062 37.4571 85.3223 43.4656 93.2782 43.4656C101.234 43.4656 107.65 37.585 107.65 29.4031C107.65 21.0935 101.234 15.085 93.2782 15.085ZM93.2782 37.9685C88.9153 37.9685 85.194 34.3889 85.194 29.4031C85.194 24.2895 88.9153 20.8378 93.2782 20.8378C97.6411 20.8378 101.362 24.2895 101.362 29.4031C101.362 34.3889 97.6411 37.9685 93.2782 37.9685Z" fill="#FBBC05"/>
<path d="M142.426 0.639648H148.585V43.5942H142.426V0.639648Z" fill="#34A853"/>
<path d="M167.576 37.9685C164.368 37.9685 162.187 36.5622 160.647 33.6219L179.767 25.8236L179.125 24.1617C177.97 20.9656 174.249 15.085 166.935 15.085C159.62 15.085 153.461 20.8378 153.461 29.2753C153.461 37.2014 159.492 43.4656 167.576 43.4656C174.121 43.4656 177.842 39.5026 179.51 37.2014L174.634 34.0054C172.966 36.4344 170.784 37.9685 167.576 37.9685ZM167.191 20.4543C169.758 20.4543 171.939 21.7327 172.581 23.5225L159.749 28.8918C159.62 23.0111 163.983 20.4543 167.191 20.4543Z" fill="#EA4335"/>
</g>
<defs>
<clipPath id="clip0_288_8739">
<rect width="179.521" height="56.25" fill="white" transform="translate(0.244141)"/>
</clipPath>
</defs>
</svg>
