<svg width="433" height="445" viewBox="0 0 433 445" fill="none" xmlns="http://www.w3.org/2000/svg">
<path d="M222.53 270.771L222.12 271.251C220.114 273.544 210.973 282.878 196.775 282.856C187.634 282.851 176.231 279.059 162.909 266.776L161.677 266.467C161.677 266.467 161.41 266.531 160.877 266.643C159.277 266.974 155.394 267.651 150.498 267.651C144.52 267.656 137.042 266.643 130.295 262.862C123.549 259.08 117.453 252.59 114.071 241.267C113.863 240.569 113.128 240.163 112.424 240.366L111.944 240.489C110.962 240.718 108.573 241.198 105.746 241.193C103.069 241.198 100.013 240.766 97.3462 239.395C94.6795 238.014 92.3594 235.753 90.9514 231.795L90.1407 230.979L88.9941 231.102L88.5728 231.347C86.5408 232.499 77.426 237.219 66.5087 237.209C55.842 237.171 43.4795 232.889 33.5222 216.164L32.706 215.55L32.4662 215.481C31.1808 215.113 25.0368 213.118 18.7222 207.881C12.4075 202.633 5.91131 194.196 3.75131 180.697C3.24997 177.556 3.02604 174.553 3.02604 171.705C3.02604 160.031 6.75404 150.809 10.482 144.489C12.3487 141.332 14.2153 138.9 15.6073 137.273C16.3006 136.457 16.8768 135.844 17.2768 135.433L17.73 134.98L17.8794 134.841C18.2688 134.484 18.4126 133.929 18.2419 133.428L18.1034 132.959C17.8314 131.983 17.2714 129.577 17.2714 126.58C17.2714 123.449 17.874 119.706 19.986 116.175C22.098 112.644 25.7086 109.268 31.9967 106.874C32.4927 106.682 32.8288 106.212 32.8555 105.684C32.8555 105.684 32.8767 105.135 33.0047 104.09C33.4474 100.436 35.17 91.1351 41.3834 82.5272C47.6127 73.9246 58.2155 65.9192 76.9569 64.6126C77.5009 64.5752 77.9702 64.2019 78.1355 63.6793L78.3061 63.1779C79.2181 60.6126 83.8688 48.7088 95.1061 37.5089C106.354 26.3143 124.119 15.7704 151.607 15.7597C157.89 15.7597 164.685 16.3143 172.029 17.5409L173.17 17.1943L173.837 16.6023C177.037 13.845 191.384 2.65045 211.352 2.66644C222.136 2.67178 234.594 5.88779 248.04 15.5091L249.384 15.6317L249.576 15.5463C250.541 15.1303 255.021 13.3704 260.546 13.3757C267.57 13.4237 276.152 16.0156 282.274 27.9515C282.546 28.4849 283.133 28.7729 283.72 28.6555L284.264 28.5649C285.378 28.3943 288.141 28.037 291.992 28.037C305.128 28.0689 330.573 32.0796 346.888 61.3593C347.149 61.8287 347.667 62.0954 348.2 62.0367L348.728 61.9993C349.09 61.978 349.634 61.9566 350.328 61.9566C353.885 61.9513 361.384 62.538 369.101 66.666C376.819 70.7993 384.818 78.4098 389.56 92.7831L390.323 93.5991L390.557 93.7057C391.821 94.271 397.811 97.1777 403.427 103.172C409.043 109.183 414.307 118.201 414.312 131.273L414.306 131.988L414.877 133.097L414.989 133.177C416.243 134.121 427.197 142.793 427.192 160.404C427.192 164.591 426.573 169.295 425.053 174.548L425.171 175.577L425.379 175.961C426.349 177.828 430.344 186.244 430.333 196.521C430.333 201.15 429.533 206.158 427.309 211.166C423.266 220.254 419.368 225.689 416.53 228.835C415.106 230.403 413.949 231.406 413.171 232.003L412.285 232.617L412.083 232.739L412.045 232.761L412.162 232.99L412.05 232.761H412.045L412.162 232.99L412.05 232.761C411.592 232.985 411.304 233.459 411.315 233.971V234.259C411.315 236.27 411.133 248.558 407.08 262.67C403.032 276.792 395.133 292.659 379.859 302.109C370.083 308.168 358.034 310.333 345.928 310.333C331.933 310.333 317.901 307.443 307.394 304.547C302.141 303.096 297.768 301.651 294.712 300.563C291.65 299.48 289.938 298.765 289.933 298.765C289.25 298.483 288.472 298.808 288.189 299.486C287.906 300.168 288.232 300.947 288.914 301.23C288.994 301.251 317.218 312.984 345.928 313C358.338 312.995 370.883 310.803 381.267 304.376C397.347 294.408 405.491 277.87 409.645 263.406C413.8 248.926 413.981 236.43 413.981 234.259V233.934L412.648 233.95L413.245 235.145C413.549 234.995 421.475 230.862 429.747 212.249C432.147 206.852 433 201.46 433 196.521C432.989 183.993 427.549 174.372 427.496 174.265L426.333 174.921L427.613 175.289C429.203 169.812 429.859 164.852 429.859 160.404C429.843 140.329 416.557 131.012 416.403 130.911L415.64 132.004L416.973 132.02L416.979 131.273C416.989 116.538 410.563 106.431 404.179 100.122C397.784 93.7964 391.437 91.1777 391.336 91.135L390.829 92.3671L392.093 91.951C387.176 76.9752 378.627 68.7139 370.355 64.3139C362.088 59.9032 354.168 59.29 350.328 59.29C348.829 59.29 347.949 59.3806 347.906 59.3859L348.05 60.7139L349.218 60.0633C332.344 29.7168 305.602 25.3383 291.992 25.3703C286.642 25.3703 283.272 26.0263 283.208 26.0423L283.464 27.3489L284.653 26.7409C278.184 13.9303 268.248 10.6558 260.546 10.7091C253.592 10.7144 248.354 13.173 248.253 13.2157L248.818 14.4211L249.597 13.3383C235.746 3.41843 222.669 -0.0055542 211.352 -0.000213623C187.357 0.0264587 171.447 15.1676 171.33 15.2636L172.253 16.229L172.472 14.9117C164.994 13.6583 158.05 13.093 151.607 13.093C121.538 13.0771 102.429 25.5142 90.9834 37.9514C79.5274 50.3834 75.6342 62.7673 75.5915 62.8793L76.8662 63.2793L76.7754 61.9513C54.546 63.4446 42.6953 74.3885 36.674 84.9111C30.626 95.423 30.1995 105.45 30.1888 105.567L31.5222 105.626L31.0474 104.378C24.2954 106.938 20.1141 110.746 17.6927 114.804C15.2714 118.868 14.6047 123.119 14.6047 126.58C14.6047 131.017 15.6873 134.196 15.7193 134.287L16.9781 133.86L16.082 132.873C15.9647 132.991 0.380708 147.177 0.359375 171.705C0.359375 174.692 0.594 177.838 1.11667 181.118C3.51667 196.238 11.2501 205.561 18.3594 211.001C25.4687 216.451 31.9328 218.105 32.0448 218.131L32.3753 216.841L31.2287 217.523C41.5274 234.985 55.1007 239.918 66.5087 239.875C79.858 239.859 90.2795 233.427 90.3915 233.374L89.6928 232.238L88.4342 232.681C90.0342 237.246 92.9301 240.137 96.1301 241.769C99.3301 243.406 102.797 243.859 105.746 243.859C109.912 243.859 113.085 242.947 113.16 242.931L112.792 241.646L111.512 242.03C115.048 253.939 121.677 261.118 128.994 265.192C136.306 269.278 144.226 270.318 150.498 270.318C157.357 270.318 162.264 269.064 162.333 269.048L162.007 267.758L161.101 268.739C174.76 281.352 186.866 285.528 196.775 285.523C214.418 285.486 224.525 272.526 224.626 272.414C225.08 271.832 224.978 270.995 224.402 270.542C223.821 270.088 222.984 270.19 222.53 270.771Z" fill="#7B9FE1"/>
<path d="M251.498 191.072H183.242V122.822H251.498V191.072Z" fill="#7B9FE1"/>
<path d="M191.253 197.201H187.227V116.7H191.253V197.201Z" fill="#7B9FE1"/>
<path d="M200.394 197.201H196.367V116.7H200.394V197.201Z" fill="#7B9FE1"/>
<path d="M209.55 197.201H205.523V116.7H209.55V197.201Z" fill="#7B9FE1"/>
<path d="M218.698 197.201H214.672V116.7H218.698V197.201Z" fill="#7B9FE1"/>
<path d="M227.834 197.201H223.812V116.7H227.834V197.201Z" fill="#7B9FE1"/>
<path d="M236.988 197.201H232.961V116.7H236.988V197.201Z" fill="#7B9FE1"/>
<path d="M246.136 197.201H242.109V116.7H246.136V197.201Z" fill="#7B9FE1"/>
<path d="M256.931 182.378V186.404H176.43V182.378H256.931Z" fill="#7B9FE1"/>
<path d="M256.931 173.229V177.256H176.43V173.229H256.931Z" fill="#7B9FE1"/>
<path d="M256.931 164.086V168.107H176.43V164.086H256.931Z" fill="#7B9FE1"/>
<path d="M256.931 154.932V158.959H176.43V154.932H256.931Z" fill="#7B9FE1"/>
<path d="M256.931 145.788V149.814H176.43V145.788H256.931Z" fill="#7B9FE1"/>
<path d="M256.931 136.641V140.662H176.43V136.641H256.931Z" fill="#7B9FE1"/>
<path d="M256.931 127.492V131.514H176.43V127.492H256.931Z" fill="#7B9FE1"/>
<path d="M75.9485 64.2527L146.103 130.476L147.021 130.839H184.381C185.117 130.839 185.714 130.242 185.714 129.506C185.714 128.77 185.117 128.172 184.381 128.172H147.549L77.778 62.3114C77.2446 61.8101 76.4018 61.8313 75.8951 62.37C75.3885 62.9033 75.4152 63.746 75.9485 64.2527Z" fill="#7B9FE1"/>
<path d="M59.7235 67.5228L132.742 139.602L133.681 139.986H184.38C185.116 139.986 185.713 139.389 185.713 138.653C185.713 137.917 185.116 137.32 184.38 137.32H134.23L61.5954 65.6243C61.0727 65.1069 60.2301 65.1123 59.7128 65.6349C59.1955 66.1629 59.2008 67.0055 59.7235 67.5228Z" fill="#7B9FE1"/>
<path d="M251.497 158.284H294.777L411.919 235.067C412.532 235.473 413.359 235.302 413.764 234.683C414.17 234.07 413.994 233.243 413.38 232.838L295.903 155.836L295.172 155.617H251.497C250.761 155.617 250.164 156.215 250.164 156.951C250.164 157.687 250.761 158.284 251.497 158.284Z" fill="#7B9FE1"/>
<path d="M30.5457 106.534L86.7538 167.002L87.7296 167.424H183.239C183.975 167.424 184.572 166.832 184.572 166.091C184.572 165.355 183.975 164.763 183.239 164.763L88.3111 164.757L32.4978 104.72C31.9964 104.182 31.1536 104.15 30.615 104.651C30.071 105.152 30.0444 105.995 30.5457 106.534Z" fill="#7B9FE1"/>
<path d="M15.9976 134.758L53.8857 176.144L54.8724 176.576H183.24C183.977 176.576 184.574 175.979 184.574 175.243C184.574 174.507 183.977 173.91 183.24 173.91H55.4591L17.9658 132.96C17.4645 132.416 16.6218 132.379 16.0778 132.875C15.5391 133.371 15.5016 134.219 15.9976 134.758Z" fill="#7B9FE1"/>
<path d="M62.974 106.843H100.11C100.846 106.843 101.443 106.245 101.443 105.509C101.443 104.773 100.846 104.176 100.11 104.176H62.974C62.238 104.176 61.6406 104.773 61.6406 105.509C61.6406 106.245 62.238 106.843 62.974 106.843Z" fill="#7B9FE1"/>
<path d="M87.7916 129.448L86.0955 166.034C86.0581 166.77 86.6288 167.394 87.3648 167.426C88.1008 167.463 88.7249 166.893 88.7569 166.157L90.4528 129.57C90.4901 128.834 89.9195 128.21 89.1835 128.173C88.4475 128.141 87.8236 128.712 87.7916 129.448Z" fill="#7B9FE1"/>
<path d="M62.0419 105.629H60.7086C60.7086 107.474 59.2154 108.968 57.3701 108.973C55.5194 108.968 54.026 107.474 54.026 105.629C54.026 103.784 55.5194 102.29 57.3701 102.285C59.2154 102.29 60.7086 103.784 60.7086 105.629H62.0419H63.3753C63.3753 102.312 60.6874 99.6184 57.3701 99.6184C54.0474 99.6184 51.3594 102.312 51.3594 105.629C51.3594 108.952 54.0474 111.64 57.3701 111.64C60.6874 111.64 63.3753 108.952 63.3753 105.629H62.0419Z" fill="#7B9FE1"/>
<path d="M152.107 78.5029H189.238C189.974 78.5029 190.571 77.9056 190.571 77.1696C190.571 76.4336 189.974 75.8363 189.238 75.8363H152.107C151.371 75.8363 150.773 76.4336 150.773 77.1696C150.773 77.9056 151.371 78.5029 152.107 78.5029Z" fill="#7B9FE1"/>
<path d="M151.172 77.2892H149.839C149.839 79.1345 148.346 80.6278 146.495 80.6332C144.65 80.6278 143.156 79.1345 143.151 77.2892C143.156 75.4439 144.65 73.9505 146.495 73.9452C148.346 73.9505 149.839 75.4439 149.839 77.2892H151.172H152.506C152.506 73.9719 149.818 71.2785 146.495 71.2785C143.178 71.2785 140.49 73.9719 140.484 77.2892C140.49 80.6118 143.178 83.2998 146.495 83.2998C149.818 83.2998 152.506 80.6118 152.506 77.2892H151.172Z" fill="#7B9FE1"/>
<path d="M281.258 101.161H244.122C243.386 101.161 242.789 101.758 242.789 102.494C242.789 103.23 243.386 103.827 244.122 103.827H281.258C281.994 103.827 282.592 103.23 282.592 102.494C282.592 101.758 281.994 101.161 281.258 101.161Z" fill="#7B9FE1"/>
<path d="M282.193 102.615H280.859C280.859 105.932 283.548 108.62 286.865 108.62C290.182 108.62 292.876 105.932 292.876 102.615C292.876 99.2922 290.182 96.6042 286.865 96.6042C283.548 96.6042 280.859 99.2922 280.859 102.615H282.193H283.526C283.526 100.764 285.025 99.2708 286.865 99.2708C288.71 99.2708 290.204 100.764 290.209 102.615C290.204 104.455 288.71 105.948 286.865 105.953C285.025 105.948 283.526 104.455 283.526 102.615H282.193Z" fill="#7B9FE1"/>
<path d="M324.001 218.613H286.865C286.129 218.613 285.531 219.21 285.531 219.946C285.531 220.682 286.129 221.279 286.865 221.279H324.001C324.737 221.279 325.334 220.682 325.334 219.946C325.334 219.21 324.737 218.613 324.001 218.613Z" fill="#7B9FE1"/>
<path d="M324.927 220.069H323.594C323.599 223.387 326.287 226.075 329.604 226.08C332.927 226.075 335.615 223.387 335.615 220.069C335.615 216.747 332.927 214.059 329.604 214.059C326.287 214.059 323.599 216.747 323.594 220.069H324.927H326.26C326.266 218.219 327.759 216.725 329.604 216.725C331.455 216.725 332.948 218.219 332.948 220.069C332.948 221.915 331.455 223.408 329.604 223.413C327.759 223.408 326.266 221.915 326.26 220.069H324.927Z" fill="#7B9FE1"/>
<path d="M251.497 218.536H250.164C250.164 221.853 252.852 224.541 256.175 224.541C259.492 224.541 262.18 221.853 262.18 218.536C262.18 215.213 259.492 212.525 256.175 212.525C252.852 212.525 250.164 215.213 250.164 218.536H251.497H252.831C252.836 216.685 254.329 215.192 256.175 215.192C258.015 215.192 259.508 216.685 259.514 218.536C259.508 220.381 258.015 221.874 256.175 221.874C254.329 221.874 252.836 220.381 252.831 218.536H251.497Z" fill="#7B9FE1"/>
<path d="M348.865 253.882H289.419C288.683 253.882 288.086 254.48 288.086 255.216C288.086 255.951 288.683 256.549 289.419 256.549H348.865C349.601 256.549 350.198 255.951 350.198 255.216C350.198 254.48 349.601 253.882 348.865 253.882Z" fill="#7B9FE1"/>
<path d="M348.654 255.408H347.32C347.32 259.066 350.286 262.037 353.945 262.037C357.603 262.037 360.569 259.066 360.569 255.408C360.569 251.749 357.603 248.784 353.945 248.778C350.286 248.784 347.32 251.749 347.32 255.408H348.654H349.987C349.987 253.221 351.758 251.45 353.945 251.445C356.131 251.45 357.897 253.221 357.902 255.408C357.897 257.594 356.126 259.365 353.945 259.37C351.758 259.365 349.987 257.594 349.987 255.408H348.654Z" fill="#7B9FE1"/>
<path d="M307.435 437.423H306.102C306.102 441.082 309.067 444.042 312.726 444.047C316.39 444.047 319.355 441.082 319.36 437.423C319.36 433.759 316.39 430.788 312.726 430.788C309.067 430.788 306.102 433.759 306.102 437.423H307.435H308.768C308.774 435.231 310.544 433.46 312.726 433.455C314.918 433.46 316.688 435.231 316.694 437.423C316.688 439.604 314.918 441.375 312.726 441.38C310.544 441.375 308.774 439.604 308.768 437.423H307.435Z" fill="#7B9FE1"/>
<path d="M281.576 419.364H280.242C280.242 423.023 283.208 425.988 286.866 425.988C290.53 425.988 293.496 423.023 293.496 419.364C293.496 415.706 290.53 412.74 286.866 412.74C283.208 412.74 280.242 415.706 280.242 419.364H281.576H282.909C282.909 417.178 284.68 415.407 286.866 415.407C289.058 415.407 290.824 417.178 290.829 419.364C290.824 421.546 289.058 423.316 286.866 423.322C284.68 423.316 282.909 421.546 282.909 419.364H281.576Z" fill="#7B9FE1"/>
<path d="M245.122 405.806H243.789C243.789 409.464 246.754 412.43 250.413 412.43C254.072 412.43 257.037 409.464 257.037 405.806C257.037 402.142 254.072 399.176 250.413 399.176C246.754 399.176 243.789 402.142 243.789 405.806H245.122H246.456C246.456 403.614 248.226 401.843 250.413 401.843C252.594 401.843 254.365 403.614 254.37 405.806C254.365 407.987 252.594 409.758 250.413 409.763C248.226 409.758 246.456 407.987 246.456 405.806H245.122Z" fill="#7B9FE1"/>
<path d="M215.099 428.888H213.766C213.766 432.546 216.731 435.512 220.395 435.512C224.054 435.512 227.019 432.546 227.019 428.888C227.019 425.229 224.054 422.264 220.395 422.264C216.731 422.264 213.766 425.229 213.766 428.888H215.099H216.432C216.432 426.701 218.203 424.93 220.395 424.93C222.582 424.93 224.347 426.701 224.352 428.888C224.347 431.074 222.582 432.84 220.395 432.845C218.203 432.84 216.432 431.069 216.432 428.888H215.099Z" fill="#7B9FE1"/>
<path d="M373.661 180.866H372.328C372.328 184.189 375.021 186.877 378.339 186.877C381.661 186.877 384.349 184.189 384.349 180.866C384.349 177.544 381.661 174.856 378.339 174.856C375.021 174.856 372.328 177.544 372.328 180.866H373.661H374.995C375 179.021 376.493 177.528 378.339 177.522C380.184 177.528 381.677 179.021 381.683 180.866C381.677 182.712 380.184 184.205 378.339 184.21C376.493 184.205 375 182.712 374.995 180.866H373.661Z" fill="#7B9FE1"/>
<path d="M93.8 122.823H92.4667C92.4613 124.669 90.968 126.162 89.1227 126.167C87.2827 126.162 85.7839 124.669 85.7839 122.823C85.7839 120.978 87.2827 119.485 89.1227 119.479C90.968 119.485 92.4613 120.978 92.4667 122.823H93.8H95.1333C95.128 119.506 92.44 116.813 89.1227 116.813C85.8053 116.818 83.1172 119.506 83.1172 122.823C83.1172 126.141 85.8053 128.829 89.1227 128.834C92.44 128.834 95.128 126.141 95.1333 122.823H93.8Z" fill="#7B9FE1"/>
<path d="M100.11 215.394H98.7763C98.7763 217.239 97.2779 218.732 95.4326 218.738C93.5872 218.732 92.0939 217.239 92.0885 215.394C92.0939 213.543 93.5872 212.05 95.4326 212.05C97.2779 212.05 98.7763 213.543 98.7763 215.394H100.11H101.443C101.443 212.071 98.7552 209.383 95.4326 209.383C92.1152 209.383 89.4219 212.071 89.4219 215.394C89.4219 218.711 92.1152 221.399 95.4326 221.404C98.7552 221.399 101.443 218.711 101.443 215.394H100.11Z" fill="#7B9FE1"/>
<path d="M184.378 183.059H143.898C143.407 183.059 142.959 183.326 142.725 183.758L111.615 241.016C111.263 241.661 111.503 242.472 112.154 242.824C112.799 243.176 113.61 242.936 113.962 242.291L144.693 185.726H184.378C185.114 185.726 185.711 185.128 185.711 184.392C185.711 183.656 185.114 183.059 184.378 183.059Z" fill="#7B9FE1"/>
<path d="M99.2424 211.33L117.632 175.859C117.968 175.208 117.712 174.402 117.061 174.061C116.405 173.725 115.6 173.981 115.264 174.632L96.8745 210.104C96.5385 210.754 96.7944 211.56 97.445 211.901C98.101 212.237 98.9064 211.981 99.2424 211.33Z" fill="#7B9FE1"/>
<path d="M43.305 206.118H41.9716C41.9663 207.958 40.4732 209.456 38.6279 209.456C36.7825 209.456 35.2839 207.958 35.2839 206.118C35.2839 204.272 36.7825 202.779 38.6279 202.774C40.4732 202.779 41.9663 204.272 41.9716 206.118H43.305H44.6383C44.6383 202.8 41.9452 200.112 38.6279 200.107C35.3052 200.112 32.6172 202.8 32.6172 206.118C32.6172 209.435 35.3052 212.123 38.6279 212.123C41.9452 212.123 44.6383 209.435 44.6383 206.118H43.305Z" fill="#7B9FE1"/>
<path d="M42.5706 202.053L56.1492 175.856C56.4906 175.206 56.2344 174.4 55.5784 174.059C54.9277 173.723 54.1226 173.979 53.7813 174.63L40.2026 200.827C39.8666 201.483 40.1225 202.288 40.7732 202.624C41.4292 202.965 42.2346 202.709 42.5706 202.053Z" fill="#7B9FE1"/>
<path d="M190.565 122.821V59.92L190.474 59.4347L173.493 15.7444C173.221 15.0618 172.453 14.7204 171.765 14.987C171.077 15.2537 170.736 16.0271 171.008 16.7098L187.898 60.1708V122.821C187.898 123.557 188.496 124.154 189.232 124.154C189.968 124.154 190.565 123.557 190.565 122.821Z" fill="#7B9FE1"/>
<path d="M247.773 13.6004L215.634 54.3628L215.352 55.1895V122.821C215.352 123.557 215.949 124.154 216.685 124.154C217.421 124.154 218.018 123.557 218.018 122.821V55.648L249.864 15.2483C250.322 14.6724 250.221 13.8352 249.645 13.3765C249.064 12.9232 248.226 13.0191 247.773 13.6004Z" fill="#7B9FE1"/>
<path d="M282.389 26.555L243.05 79.8239L242.789 80.6132V122.821C242.789 123.557 243.386 124.154 244.122 124.154C244.858 124.154 245.456 123.557 245.456 122.821V81.0506L284.533 28.139C284.97 27.547 284.848 26.715 284.256 26.2777C283.664 25.8404 282.826 25.963 282.389 26.555Z" fill="#7B9FE1"/>
<path d="M346.948 59.9709L294.596 137.32H251.497C250.761 137.32 250.164 137.917 250.164 138.653C250.164 139.389 250.761 139.986 251.497 139.986H295.306L296.409 139.4L349.156 61.4643C349.572 60.8509 349.412 60.0243 348.804 59.6136C348.191 59.1976 347.364 59.3576 346.948 59.9709Z" fill="#7B9FE1"/>
<path d="M389.743 91.5954L350.682 146.464H251.497C250.761 146.464 250.164 147.062 250.164 147.798C250.164 148.534 250.761 149.131 251.497 149.131H351.37L352.452 148.571L391.919 93.142C392.346 92.5393 392.202 91.7073 391.604 91.2806C391.002 90.854 390.17 90.9927 389.743 91.5954Z" fill="#7B9FE1"/>
<path d="M414.878 129.872L379.993 176.453C379.55 177.045 379.673 177.883 380.26 178.32C380.852 178.763 381.684 178.645 382.126 178.053L417.012 131.472C417.454 130.886 417.332 130.048 416.745 129.606C416.153 129.168 415.321 129.286 414.878 129.872Z" fill="#7B9FE1"/>
<path d="M398.591 205.866H397.258C397.258 209.189 399.946 211.877 403.268 211.877C406.586 211.877 409.279 209.189 409.279 205.866C409.279 202.549 406.586 199.861 403.268 199.861C399.946 199.861 397.258 202.549 397.258 205.866H398.591H399.924C399.93 204.021 401.423 202.528 403.268 202.528C405.114 202.528 406.607 204.021 406.613 205.866C406.607 207.717 405.114 209.21 403.268 209.21C401.423 209.21 399.93 207.717 399.924 205.866H398.591Z" fill="#7B9FE1"/>
<path d="M425.668 172.433L404.729 200.395C404.286 200.982 404.404 201.819 404.996 202.262C405.582 202.699 406.42 202.582 406.862 201.99L427.801 174.027C428.244 173.441 428.126 172.603 427.534 172.161C426.948 171.723 426.11 171.841 425.668 172.433Z" fill="#7B9FE1"/>
<path d="M251.497 185.724H280.02L288.095 300.096C288.148 300.827 288.783 301.382 289.519 301.328C290.255 301.28 290.804 300.641 290.756 299.905L282.591 184.3C282.543 183.601 281.961 183.057 281.263 183.057H251.497C250.761 183.057 250.164 183.655 250.164 184.391C250.164 185.127 250.761 185.724 251.497 185.724Z" fill="#7B9FE1"/>
<path d="M163.192 268.37L188.04 219.869H250.259C251 219.869 251.592 219.272 251.592 218.536C251.592 217.794 251 217.202 250.259 217.202H187.224C186.723 217.202 186.264 217.48 186.04 217.928L160.818 267.154C160.482 267.81 160.744 268.615 161.4 268.951C162.056 269.282 162.856 269.026 163.192 268.37Z" fill="#7B9FE1"/>
<path d="M222.491 245.356L226.896 322.753L214.198 334.31L213.766 335.361L218.038 422.379C218.075 423.115 218.699 423.68 219.435 423.643C220.171 423.605 220.736 422.981 220.699 422.245L216.459 335.862L229.163 324.3L229.595 323.238L225.152 245.207C225.11 244.471 224.48 243.911 223.744 243.953C223.008 243.991 222.448 244.626 222.491 245.356Z" fill="#7B9FE1"/>
<path d="M240.119 243.22L249.08 400.584C249.122 401.32 249.752 401.88 250.488 401.838C251.224 401.795 251.784 401.166 251.741 400.43L242.781 243.071C242.738 242.335 242.109 241.769 241.373 241.812C240.637 241.855 240.077 242.484 240.119 243.22Z" fill="#7B9FE1"/>
<path d="M255.26 243.221L260.737 339.327C260.769 339.898 261.158 340.378 261.707 340.532L282.886 346.463L285.532 414.121C285.558 414.857 286.182 415.433 286.918 415.401C287.649 415.374 288.225 414.756 288.198 414.02L285.516 345.391C285.489 344.81 285.1 344.314 284.54 344.159L263.345 338.223L257.926 243.072C257.884 242.336 257.254 241.77 256.518 241.813C255.782 241.856 255.222 242.485 255.26 243.221Z" fill="#7B9FE1"/>
<path d="M271.807 242.266L276.42 323.358C276.452 323.945 276.863 324.436 277.428 324.58L304.175 331.225L311.396 432.216C311.45 432.952 312.084 433.507 312.82 433.453C313.556 433.4 314.111 432.76 314.058 432.029L306.767 330.068C306.725 329.497 306.314 329.012 305.754 328.873L279.028 322.228L274.468 242.116C274.426 241.38 273.796 240.82 273.06 240.858C272.324 240.9 271.764 241.53 271.807 242.266Z" fill="#7B9FE1"/>
</svg>
