<svg width="142" height="57" viewBox="0 0 142 57" fill="none" xmlns="http://www.w3.org/2000/svg">
<path d="M27.6719 52.668H0.09375V56.2496H27.6719V52.668Z" fill="#929AA3"/>
<path d="M27.6719 45.1475H0.09375V48.729H27.6719V45.1475Z" fill="#929AA3"/>
<path d="M19.7917 37.626H7.97266V41.2075H19.7917V37.626Z" fill="#929AA3"/>
<path d="M19.7917 30.1045H7.97266V33.686H19.7917V30.1045Z" fill="#929AA3"/>
<path d="M19.7917 22.583H7.97266V26.1646H19.7917V22.583Z" fill="#929AA3"/>
<path d="M19.7917 15.0615H7.97266V18.6431H19.7917V15.0615Z" fill="#929AA3"/>
<path d="M27.6719 7.54102H0.09375V11.1226H27.6719V7.54102Z" fill="#929AA3"/>
<path d="M27.6719 0.0195312H0.09375V3.60108H27.6719V0.0195312Z" fill="#929AA3"/>
<path d="M31.6113 52.668V56.2496H60.6221C64.191 56.2539 67.6442 54.9838 70.3598 52.6681L31.6113 52.668Z" fill="#929AA3"/>
<path d="M31.6113 45.1475V48.729H73.6472C74.2983 47.6051 74.8 46.4011 75.1399 45.1475H31.6113Z" fill="#929AA3"/>
<path d="M51.3093 37.626H39.4902V41.2075H51.3093V37.626Z" fill="#929AA3"/>
<path d="M70.6247 30.1045H39.4902V33.686H73.5151C72.7403 32.3515 71.7655 31.1436 70.6247 30.1045Z" fill="#929AA3"/>
<path d="M39.4902 22.584V26.1656H70.7539C71.8947 25.1265 72.8695 23.9186 73.6442 22.584H39.4902Z" fill="#929AA3"/>
<path d="M75.1399 11.1216C74.8001 9.86794 74.2983 8.66395 73.6472 7.54004H31.6113V11.1216H75.1399Z" fill="#929AA3"/>
<path d="M70.3598 3.6011C67.6442 1.28532 64.191 0.0152227 60.6221 0.0195422H31.6113V3.6011H70.3598Z" fill="#929AA3"/>
<path d="M51.3093 15.0615H39.4902V18.6431H51.3093V15.0615Z" fill="#929AA3"/>
<path d="M62.4121 18.6431H75.2258C75.515 17.4712 75.6621 16.2686 75.6639 15.0615H62.4121V18.6431Z" fill="#929AA3"/>
<path d="M62.4121 37.626V41.2075H75.6639C75.6621 40.0004 75.515 38.7979 75.2258 37.626H62.4121Z" fill="#929AA3"/>
<path d="M101.093 0H78.8867V3.58129H102.335L101.093 0Z" fill="#929AA3"/>
<path d="M98.594 52.667H78.8887V56.2498H98.594V52.667Z" fill="#929AA3"/>
<path d="M98.594 45.1436H78.8887V48.7263H98.594V45.1436Z" fill="#929AA3"/>
<path d="M98.5929 37.6191H86.7695V41.2019H98.5929V37.6191Z" fill="#929AA3"/>
<path d="M98.5929 30.0957H86.7695V33.6785H98.5929V30.0957Z" fill="#929AA3"/>
<path d="M141.946 52.667H122.24V56.2498H141.946V52.667Z" fill="#929AA3"/>
<path d="M141.946 45.1436H122.24V48.7263H141.946V45.1436Z" fill="#929AA3"/>
<path d="M134.063 37.6191H122.24V41.2019H134.063V37.6191Z" fill="#929AA3"/>
<path d="M134.063 30.0957H122.24V33.6785H134.063V30.0957Z" fill="#929AA3"/>
<path d="M122.24 26.1549H134.063V22.5723H122.24H111.901L110.658 26.1549H121.035L122.24 22.7425V26.1549Z" fill="#929AA3"/>
<path d="M108.931 22.5723H98.5931H86.7695V26.1549H98.5931V22.7425L99.7973 26.1549H110.174L108.931 22.5723Z" fill="#929AA3"/>
<path d="M134.064 15.0479H114.512L113.27 18.6305H134.064V15.0479Z" fill="#929AA3"/>
<path d="M119.733 0L118.49 3.58262H141.947V0H119.733Z" fill="#929AA3"/>
<path d="M110.409 56.2496L111.674 52.667H109.158L110.409 56.2496Z" fill="#929AA3"/>
<path d="M107.768 48.7266H113.067L114.332 45.1436H106.504L107.768 48.7266Z" fill="#929AA3"/>
<path d="M105.11 41.2022H115.722L116.987 37.6191H103.846L105.11 41.2022Z" fill="#929AA3"/>
<path d="M102.454 33.6788H118.378L119.643 30.0957H101.189L102.454 33.6788Z" fill="#929AA3"/>
<path d="M86.7695 18.6315H107.564L106.321 15.0488H86.7695V18.6315Z" fill="#929AA3"/>
<path d="M115.879 11.107H141.946V7.52441H117.122L115.879 11.107Z" fill="#929AA3"/>
<path d="M103.711 7.52441H78.8867V11.107H104.953L103.711 7.52441Z" fill="#929AA3"/>
</svg>
