<svg width="19" height="18" viewBox="0 0 19 18" fill="none" xmlns="http://www.w3.org/2000/svg">
<path d="M17.4385 0.000976562H2.06929C1.30775 0.000976562 0.753906 0.554822 0.753906 1.31636V16.6856C0.753906 17.3779 1.37698 18.001 2.06929 18.001H17.4385C18.2001 18.001 18.7539 17.4471 18.7539 16.6856V1.31636C18.7539 0.554822 18.1308 0.000976562 17.4385 0.000976562ZM6.29237 15.2317H3.52314V6.92405H6.29237V15.2317ZM4.90775 5.81636C4.00775 5.81636 3.24621 5.05482 3.24621 4.15482C3.24621 3.25482 4.00775 2.49328 4.90775 2.49328C5.80775 2.49328 6.56929 3.25482 6.56929 4.15482C6.56929 5.05482 5.80775 5.81636 4.90775 5.81636ZM15.9847 15.2317H13.2154V11.0779C13.2154 9.97021 12.9385 8.86251 11.8308 8.86251C10.7231 8.86251 10.4462 9.97021 10.4462 11.0779V15.2317H7.67698V6.92405H10.4462V7.89328H10.5847C10.9308 7.20098 11.8308 6.64713 12.8693 6.64713C15.4308 6.64713 15.9847 8.30867 15.9847 10.3856V15.2317Z" fill="#F5F5F5"/>
</svg>
