<svg width="1080" height="914" viewBox="0 0 1080 914" fill="none" xmlns="http://www.w3.org/2000/svg">
<g style="mix-blend-mode:luminosity" opacity="0.2">
<path opacity="0.010101" d="M241.489 591.115C236.926 585.707 235.98 578.001 239.064 571.362L444.564 128.934C448.294 120.905 456.969 116.391 465.398 118.093L893.334 204.47C900.83 205.983 906.432 212.089 907.376 219.773L968.57 718.212C969.513 725.895 965.598 733.532 958.757 737.352L568.197 955.41C560.504 959.706 551.078 958.104 545.56 951.563L241.489 591.115Z" stroke="url(#paint0_linear_247_5244)" stroke-width="3"/>
<path opacity="0.020202" d="M236.84 585.014C232.366 579.522 231.539 571.812 234.72 565.243L446.526 127.832C450.379 119.874 459.136 115.53 467.549 117.403L893.246 212.126C900.719 213.788 906.227 220 907.053 227.694L960.538 726.344C961.364 734.039 957.332 741.591 950.432 745.274L557.399 955.074C549.631 959.22 540.216 957.43 534.796 950.776L236.84 585.014Z" stroke="url(#paint1_linear_247_5244)" stroke-width="3"/>
<path opacity="0.030303" d="M232.313 578.918C227.928 573.343 227.22 565.629 230.497 559.132L448.518 126.854C452.494 118.971 461.328 114.799 469.721 116.842L893.058 219.848C900.506 221.66 905.918 227.976 906.626 235.68L952.414 734.382C953.121 742.086 948.975 749.551 942.019 753.096L546.641 954.607C538.802 958.603 529.404 956.625 524.083 949.86L232.313 578.918Z" stroke="url(#paint2_linear_247_5244)" stroke-width="3"/>
<path opacity="0.040404" d="M227.905 572.847C223.61 567.19 223.02 559.472 226.392 553.048L450.536 126.02C454.634 118.213 463.54 114.217 471.909 116.428L892.768 227.654C900.188 229.615 905.503 236.033 906.092 243.745L944.198 742.34C944.788 750.052 940.527 757.429 933.517 760.835L535.925 954.029C528.018 957.871 518.641 955.705 513.422 948.832L227.905 572.847Z" stroke="url(#paint3_linear_247_5244)" stroke-width="3"/>
<path opacity="0.050505" d="M223.619 566.785C219.414 561.048 218.942 553.327 222.409 546.976L452.582 125.31C456.8 117.584 465.774 113.764 474.115 116.144L892.377 235.522C899.767 237.631 904.982 244.151 905.454 251.87L935.895 750.199C936.366 757.917 931.994 765.205 924.932 768.471L525.255 953.323C517.285 957.009 507.933 954.656 502.817 947.677L223.619 566.785Z" stroke="url(#paint4_linear_247_5244)" stroke-width="3"/>
<path opacity="0.0606061" d="M219.452 560.742C215.338 554.925 214.984 547.203 218.545 540.925L454.652 124.733C458.987 117.091 468.026 113.449 476.334 115.997L891.882 243.458C899.24 245.715 904.355 252.336 904.709 260.059L927.504 757.965C927.857 765.689 923.374 772.885 916.263 776.01L514.63 952.496C506.6 956.025 497.279 953.485 492.269 946.403L219.452 560.742Z" stroke="url(#paint5_linear_247_5244)" stroke-width="3"/>
<path opacity="0.0707071" d="M215.405 554.714C211.381 548.818 211.145 541.095 214.8 534.892L456.743 124.282C461.195 116.726 470.293 113.265 478.565 115.98L891.284 251.454C898.606 253.857 903.62 260.577 903.855 268.304L919.027 765.63C919.262 773.357 914.67 780.461 907.513 783.443L504.054 951.544C495.968 954.913 486.682 952.186 481.78 945.004L215.405 554.714Z" stroke="url(#paint6_linear_247_5244)" stroke-width="3"/>
<path opacity="0.0808081" d="M211.475 548.719C207.542 542.745 207.425 535.02 211.173 528.893L458.854 123.973C463.421 116.506 472.573 113.226 480.804 116.107L890.58 259.52C897.865 262.07 902.775 268.888 902.893 276.617L910.465 773.206C910.583 780.935 905.884 787.946 898.681 790.785L493.527 950.481C485.388 953.689 476.142 950.778 471.35 943.498L211.475 548.719Z" stroke="url(#paint7_linear_247_5244)" stroke-width="3"/>
<path opacity="0.0909091" d="M207.663 542.745C203.822 536.694 203.822 528.969 207.663 522.918L460.982 123.792C465.663 116.417 474.864 113.321 483.051 116.366L889.771 267.644C897.016 270.339 901.822 277.254 901.822 284.983V780.681C901.822 788.41 897.016 795.325 889.771 798.02L483.051 949.298C474.864 952.343 465.663 949.247 460.982 941.872L207.663 542.745Z" stroke="url(#paint8_linear_247_5244)" stroke-width="3"/>
<path opacity="0.10101" d="M203.967 536.793C200.219 530.666 200.337 522.941 204.27 516.967L463.125 123.737C467.918 116.457 477.164 113.545 485.302 116.753L888.855 275.819C896.057 278.658 900.757 285.668 900.639 293.397L893.097 788.048C892.979 795.777 888.068 802.595 880.784 805.145L472.627 947.991C464.396 950.872 455.244 947.592 450.677 940.125L203.967 536.793Z" stroke="url(#paint9_linear_247_5244)" stroke-width="3"/>
<path opacity="0.111111" d="M200.389 530.88C196.734 524.677 196.97 516.953 200.994 511.057L465.283 123.823C470.185 116.641 479.471 113.915 487.558 117.284L887.833 284.058C894.991 287.04 899.583 294.144 899.347 301.871L884.294 795.322C884.058 803.049 879.045 809.769 871.722 812.172L462.26 946.577C453.988 949.292 444.89 945.831 440.438 938.275L200.389 530.88Z" stroke="url(#paint10_linear_247_5244)" stroke-width="3"/>
<path opacity="0.121212" d="M196.927 524.994C193.366 518.716 193.719 510.994 197.834 505.177L467.453 124.037C472.463 116.955 481.784 114.415 489.814 117.944L886.704 292.345C893.814 295.47 898.297 302.667 897.944 310.39L875.415 802.487C875.061 810.21 869.946 816.831 862.588 819.088L451.948 945.044C443.64 947.592 434.602 943.95 430.266 936.308L196.927 524.994Z" stroke="url(#paint11_linear_247_5244)" stroke-width="3"/>
<path opacity="0.131313" d="M193.58 519.141C190.113 512.789 190.585 505.069 194.79 499.332L469.633 124.381C474.749 117.402 484.101 115.049 492.071 118.735L885.467 300.681C892.528 303.947 896.901 311.235 896.429 318.953L866.461 809.546C865.99 817.264 860.774 823.785 853.384 825.894L441.696 943.395C433.355 945.776 424.38 941.956 420.163 934.23L193.58 519.141Z" stroke="url(#paint12_linear_247_5244)" stroke-width="3"/>
<path opacity="0.141414" d="M190.346 513.33C186.974 506.906 187.563 499.188 191.859 493.532L471.819 124.863C477.038 117.99 486.416 115.824 494.322 119.666L884.119 309.072C891.129 312.478 895.39 319.855 894.8 327.567L857.432 816.504C856.843 824.216 851.528 830.635 844.108 832.596L431.501 941.64C423.132 943.852 414.225 939.855 410.128 932.049L190.346 513.33Z" stroke="url(#paint13_linear_247_5244)" stroke-width="3"/>
<path opacity="0.151515" d="M187.227 507.554C183.95 501.058 184.659 493.343 189.043 487.768L474.013 125.472C479.334 118.707 488.732 116.729 496.571 120.724L882.665 317.504C889.621 321.049 893.768 328.514 893.061 336.218L848.334 823.351C847.627 831.055 842.215 837.37 834.767 839.182L421.37 939.77C412.977 941.812 404.143 937.641 400.167 929.757L187.227 507.554Z" stroke="url(#paint14_linear_247_5244)" stroke-width="3"/>
<path opacity="0.161616" d="M184.218 501.825C181.037 495.257 181.865 487.546 186.339 482.054L476.208 126.218C481.628 119.564 491.043 117.774 498.811 121.92L881.099 325.985C887.999 329.667 892.03 337.219 891.205 344.914L839.164 830.093C838.339 837.788 832.831 843.999 825.358 845.662L411.3 937.795C402.886 939.667 394.129 935.323 390.276 927.366L184.218 501.825Z" stroke="url(#paint15_linear_247_5244)" stroke-width="3"/>
<path opacity="0.171717" d="M181.321 496.131C178.237 489.493 179.184 481.786 183.746 476.378L478.405 127.088C483.923 120.547 493.349 118.945 501.042 123.241L879.423 334.499C886.264 338.319 890.179 345.956 889.236 353.639L829.928 836.719C828.984 844.402 823.382 850.508 815.886 852.021L401.294 935.705C392.865 937.407 384.19 932.892 380.46 924.864L181.321 496.131Z" stroke="url(#paint16_linear_247_5244)" stroke-width="3"/>
<path opacity="0.181818" d="M178.535 490.49C175.549 483.781 176.614 476.08 181.265 470.756L480.602 128.097C486.215 121.671 495.647 120.257 503.263 124.699L877.637 343.06C884.417 347.015 888.215 354.735 887.153 362.406L820.625 843.239C819.564 850.91 813.868 856.909 806.352 858.272L391.356 933.514C382.914 935.045 374.325 930.363 370.721 922.266L178.535 490.49Z" stroke="url(#paint17_linear_247_5244)" stroke-width="3"/>
<path opacity="0.191919" d="M175.857 484.899C172.969 478.121 174.155 470.426 178.893 465.188L482.795 129.239C488.501 122.931 497.935 121.704 505.47 126.29L875.738 351.659C882.456 355.748 886.134 363.55 884.954 371.207L811.258 849.65C810.079 857.307 804.291 863.199 796.758 864.411L381.483 931.221C373.033 932.58 364.534 927.733 361.057 919.572L175.857 484.899Z" stroke="url(#paint18_linear_247_5244)" stroke-width="3"/>
<path opacity="0.20202" d="M173.289 479.354C170.5 472.508 171.806 464.819 176.632 459.668L484.985 130.507C490.781 124.32 500.213 123.28 507.663 128.007L873.73 360.289C880.382 364.51 883.939 372.392 882.642 380.034L801.83 855.942C800.533 863.585 794.655 869.367 787.106 870.428L371.682 928.818C363.228 930.006 354.823 924.997 351.473 916.774L173.289 479.354Z" stroke="url(#paint19_linear_247_5244)" stroke-width="3"/>
<path opacity="0.212121" d="M170.828 473.861C168.139 466.948 169.565 459.267 174.478 454.203L487.167 131.908C493.052 125.842 502.477 124.988 509.839 129.854L871.609 368.952C878.194 373.304 881.629 381.263 880.213 388.889L792.342 862.122C790.926 869.748 784.96 875.42 777.398 876.33L361.95 926.315C353.496 927.332 345.189 922.164 341.968 913.882L170.828 473.861Z" stroke="url(#paint20_linear_247_5244)" stroke-width="3"/>
<path opacity="0.222222" d="M168.472 468.421C165.884 461.441 167.432 453.768 172.431 448.793L489.341 133.436C495.312 127.495 504.725 126.826 511.996 131.827L869.376 377.642C875.891 382.123 879.203 390.159 877.668 397.766L782.795 868.184C781.261 875.791 775.207 881.352 767.635 882.111L352.291 923.708C343.84 924.554 335.636 919.23 332.544 910.893L168.472 468.421Z" stroke="url(#paint21_linear_247_5244)" stroke-width="3"/>
<path opacity="0.232323" d="M166.222 463.046C163.736 456.001 165.405 448.337 170.49 443.453L491.505 135.104C497.559 129.289 506.956 128.805 514.133 133.939L867.031 386.369C873.475 390.978 876.661 399.089 875.008 406.676L773.192 874.14C771.54 881.727 765.4 887.176 757.821 887.783L342.705 921.011C334.263 921.687 326.164 916.209 323.203 907.821L166.222 463.046Z" stroke="url(#paint22_linear_247_5244)" stroke-width="3"/>
<path opacity="0.242424" d="M164.077 457.722C161.693 450.612 163.484 442.958 168.655 438.165L493.656 136.893C499.791 131.206 509.169 130.905 516.249 136.169L864.574 395.113C870.944 399.848 874.004 408.031 872.233 415.597L763.536 879.97C761.765 887.536 755.541 892.871 747.956 893.326L333.196 918.209C324.765 918.715 316.775 913.087 313.946 904.65L164.077 457.722Z" stroke="url(#paint23_linear_247_5244)" stroke-width="3"/>
<path opacity="0.252525" d="M162.034 452.461C159.753 445.287 161.668 437.644 166.923 432.943L495.793 138.815C502.006 133.257 511.359 133.139 518.34 138.529L862.004 403.883C868.298 408.743 871.23 416.996 869.341 424.539L753.827 885.686C751.938 893.228 745.631 898.449 738.043 898.752L323.762 915.313C315.347 915.65 307.47 909.876 304.773 901.394L162.034 452.461Z" stroke="url(#paint24_linear_247_5244)" stroke-width="3"/>
<path opacity="0.262626" d="M160.091 447.263C157.914 440.026 159.952 432.395 165.292 427.789L497.911 140.866C504.201 135.44 513.525 135.502 520.404 141.016L859.319 412.674C865.536 417.657 868.339 425.979 866.331 433.497L744.067 891.284C742.059 898.801 735.67 903.907 728.082 904.058L314.405 912.324C306.009 912.492 298.249 906.575 295.685 898.051L160.091 447.263Z" stroke="url(#paint25_linear_247_5244)" stroke-width="3"/>
<path opacity="0.272727" d="M158.249 442.123C156.177 434.824 158.34 427.206 163.763 422.695L500.012 143.038C506.375 137.746 515.666 137.988 522.44 143.621L856.523 421.477C862.66 426.581 865.332 434.97 863.205 442.461L734.259 896.756C732.132 904.247 725.664 909.236 718.078 909.236L305.129 909.236C296.756 909.236 289.115 903.18 286.684 894.617L158.249 442.123Z" stroke="url(#paint26_linear_247_5244)" stroke-width="3"/>
<path opacity="0.282828" d="M156.508 437.059C154.542 429.7 156.829 422.095 162.336 417.681L502.094 145.349C508.528 140.191 517.782 140.611 524.449 146.361L853.615 430.305C859.67 435.529 862.21 443.983 859.965 451.445L724.406 902.118C722.161 909.581 715.614 914.453 708.032 914.301L295.935 906.067C287.588 905.9 280.07 899.708 277.774 891.11L156.508 437.059Z" stroke="url(#paint27_linear_247_5244)" stroke-width="3"/>
<path opacity="0.292929" d="M154.863 432.058C153.004 424.638 155.417 417.049 161.007 412.733L504.152 147.78C510.654 142.759 519.868 143.355 526.425 149.219L850.592 439.142C856.565 444.483 858.971 452.999 856.607 460.432L714.507 907.354C712.144 914.787 705.519 919.54 697.945 919.237L286.821 902.803C278.505 902.47 271.113 896.146 268.951 887.515L154.863 432.058Z" stroke="url(#paint28_linear_247_5244)" stroke-width="3"/>
<path opacity="0.30303" d="M153.313 427.127C151.563 419.648 154.102 412.075 159.774 407.858L506.184 150.338C512.753 145.456 521.922 146.225 528.368 152.2L847.456 447.99C853.343 453.447 855.614 462.023 853.133 469.424L704.566 912.469C702.084 919.87 695.383 924.504 687.818 924.05L277.791 899.451C269.509 898.954 262.245 892.502 260.218 883.843L153.313 427.127Z" stroke="url(#paint29_linear_247_5244)" stroke-width="3"/>
<path opacity="0.313131" d="M151.859 422.27C150.218 414.734 152.884 407.179 158.638 403.063L508.191 153.025C514.822 148.282 523.944 149.224 530.276 155.305L844.207 456.85C850.007 462.421 852.142 471.055 849.542 478.423L694.584 917.466C691.984 924.833 685.209 929.346 677.655 928.742L268.845 896.018C260.6 895.358 253.467 888.781 251.576 880.096L151.859 422.27Z" stroke="url(#paint30_linear_247_5244)" stroke-width="3"/>
<path opacity="0.323232" d="M150.5 417.486C148.969 409.893 151.763 402.357 157.598 398.343L510.171 155.835C516.863 151.233 525.933 152.344 532.149 158.53L840.847 465.715C846.558 471.398 848.556 480.088 845.837 487.42L684.566 922.338C681.847 929.671 674.999 934.062 667.46 933.307L259.988 892.498C251.783 891.677 244.784 884.98 243.028 876.272L150.5 417.486Z" stroke="url(#paint31_linear_247_5244)" stroke-width="3"/>
<path opacity="0.333333" d="M149.232 412.778C147.812 405.13 150.735 397.615 156.65 393.705L512.119 158.772C518.869 154.311 527.884 155.591 533.982 161.876L837.372 474.586C842.992 480.379 844.852 489.122 842.014 496.418L674.509 927.09C671.672 934.385 664.752 938.654 657.23 937.749L251.216 888.899C243.055 887.917 236.192 881.104 234.571 872.377L149.232 412.778Z" stroke="url(#paint32_linear_247_5244)" stroke-width="3"/>
<path opacity="0.343434" d="M148.055 408.145C146.747 400.443 149.8 392.949 155.795 389.145L514.036 161.829C520.841 157.511 529.799 158.957 535.777 165.339L833.785 483.456C839.314 489.358 841.033 498.152 838.077 505.408L664.42 931.716C661.464 938.973 654.474 943.118 646.971 942.063L242.533 885.217C234.42 884.077 227.695 877.152 226.21 868.409L148.055 408.145Z" stroke="url(#paint33_linear_247_5244)" stroke-width="3"/>
<path opacity="0.353535" d="M146.966 403.592C145.772 395.836 148.954 388.367 155.028 384.67L515.917 165.009C522.775 160.835 531.671 162.445 537.528 168.92L830.084 492.328C835.519 498.335 837.097 507.177 834.023 514.393L654.296 936.22C651.222 943.435 644.163 947.456 636.682 946.252L233.939 881.458C225.876 880.161 219.291 873.128 217.942 864.372L146.966 403.592Z" stroke="url(#paint34_linear_247_5244)" stroke-width="3"/>
<path opacity="0.363636" d="M145.967 399.117C144.887 391.31 148.201 383.865 154.353 380.277L517.765 168.31C524.673 164.281 533.504 166.052 539.239 172.617L826.274 501.194C831.612 507.306 833.048 516.194 829.856 523.367L644.144 940.598C640.951 947.771 633.825 951.666 626.368 950.314L225.438 877.622C217.428 876.169 210.985 869.032 209.772 860.266L145.967 399.117Z" stroke="url(#paint35_linear_247_5244)" stroke-width="3"/>
<path opacity="0.373737" d="M145.053 394.726C144.089 386.869 147.534 379.451 153.763 375.973L519.573 171.733C526.528 167.85 535.292 169.781 540.903 176.431L822.349 510.058C827.59 516.272 828.883 525.204 825.572 532.332L633.962 944.855C630.651 951.983 623.459 955.751 616.029 954.251L217.027 873.714C209.073 872.108 202.774 864.87 201.697 856.098L145.053 394.726Z" stroke="url(#paint36_linear_247_5244)" stroke-width="3"/>
<path opacity="0.383838" d="M144.226 390.42C143.378 382.514 146.956 375.126 153.262 371.76L521.344 175.279C528.344 171.542 537.038 173.629 542.523 180.363L818.315 518.917C823.458 525.23 824.606 534.203 821.177 541.285L623.756 948.988C620.327 956.07 613.071 959.71 605.669 958.063L208.711 869.735C200.816 867.978 194.663 860.644 193.721 851.869L144.226 390.42Z" stroke="url(#paint37_linear_247_5244)" stroke-width="3"/>
<path opacity="0.393939" d="M143.479 386.197C142.748 378.244 146.459 370.886 152.841 367.634L523.07 178.94C530.112 175.351 538.733 177.592 544.092 184.405L814.165 527.764C819.208 534.175 820.21 543.186 816.663 550.219L613.521 952.995C609.974 960.028 602.656 963.54 595.285 961.746L200.486 865.684C192.652 863.778 186.646 856.352 185.841 847.576L143.479 386.197Z" stroke="url(#paint38_linear_247_5244)" stroke-width="3"/>
<path opacity="0.40404" d="M142.816 382.059C142.204 374.061 146.049 366.735 152.505 363.598L524.755 182.718C531.837 179.278 540.382 181.671 545.613 188.559L809.908 536.599C814.848 543.105 815.704 552.152 812.04 559.133L603.267 956.877C599.603 963.859 592.223 967.241 584.885 965.302L192.358 861.564C184.589 859.511 178.732 851.997 178.061 843.224L142.816 382.059Z" stroke="url(#paint39_linear_247_5244)" stroke-width="3"/>
<path opacity="0.414141" d="M142.233 378.01C141.742 369.968 145.721 362.677 152.251 359.657L526.396 186.615C533.514 183.323 541.982 185.865 547.084 192.826L805.54 545.42C810.377 552.02 811.086 561.1 807.303 568.028L592.993 960.635C589.211 967.564 581.771 970.815 574.469 968.731L184.327 857.379C176.625 855.181 170.917 847.583 170.382 838.816L142.233 378.01Z" stroke="url(#paint40_linear_247_5244)" stroke-width="3"/>
<path opacity="0.424242" d="M141.729 374.054C141.359 365.97 145.474 358.716 152.076 355.815L527.99 190.631C535.143 187.488 543.53 190.177 548.503 197.207L801.062 554.23C805.795 560.921 806.355 570.03 802.455 576.904L582.701 964.272C578.801 971.145 571.304 974.265 564.039 972.037L176.394 853.135C168.761 850.793 163.204 843.116 162.803 834.358L141.729 374.054Z" stroke="url(#paint41_linear_247_5244)" stroke-width="3"/>
<path opacity="0.434343" d="M141.301 370.183C141.054 362.059 145.304 354.844 151.978 352.064L529.535 194.755C536.719 191.762 545.023 194.595 549.866 201.691L796.472 563.016C801.1 569.795 801.51 578.932 797.493 585.749L572.391 967.778C568.374 974.595 560.82 977.582 553.595 975.211L168.557 848.823C160.996 846.341 155.59 838.588 155.324 829.842L141.301 370.183Z" stroke="url(#paint42_linear_247_5244)" stroke-width="3"/>
<path opacity="0.444444" d="M140.949 366.403C140.824 358.24 145.212 351.067 151.955 348.409L531.029 198.992C538.242 196.149 546.462 199.123 551.174 206.281L791.774 571.779C796.294 578.646 796.554 587.807 792.421 594.564L562.066 971.159C557.933 977.916 550.324 980.769 543.141 978.255L160.819 844.451C153.332 841.83 148.079 834.005 147.946 825.274L140.949 366.403Z" stroke="url(#paint43_linear_247_5244)" stroke-width="3"/>
<path opacity="0.454545" d="M140.671 362.722C140.671 354.522 145.196 347.393 152.008 344.859L532.472 203.347C539.712 200.654 547.845 203.767 552.425 210.984L786.968 580.526C791.379 587.477 791.488 596.66 787.239 603.355L551.73 974.42C547.48 981.116 539.817 983.835 532.679 981.18L153.182 840.027C145.771 837.271 140.671 829.378 140.671 820.664L140.671 362.722Z" stroke="url(#paint44_linear_247_5244)" stroke-width="3"/>
<path opacity="0.464646" d="M140.465 359.132C140.591 350.898 145.253 343.815 152.133 341.407L533.862 207.81C541.125 205.268 549.17 208.517 553.618 215.79L782.053 589.246C786.355 596.279 786.312 605.48 781.947 612.111L541.383 977.555C537.017 984.186 529.303 986.769 522.211 983.974L145.645 835.546C138.312 832.655 133.366 824.699 133.499 816.006L140.465 359.132Z" stroke="url(#paint45_linear_247_5244)" stroke-width="3"/>
<path opacity="0.474747" d="M140.33 355.636C140.582 347.369 145.383 340.335 152.329 338.055L535.196 212.38C542.481 209.989 550.435 213.372 554.751 220.697L777.031 597.936C781.222 605.048 781.027 614.265 776.546 620.83L531.027 980.562C526.546 987.127 518.781 989.574 511.739 986.639L138.209 831.009C130.956 827.987 126.165 819.971 126.429 811.301L140.33 355.636Z" stroke="url(#paint46_linear_247_5244)" stroke-width="3"/>
<path opacity="0.484848" d="M140.262 352.241C140.642 343.944 145.581 336.962 152.592 334.811L536.473 217.064C543.776 214.824 551.638 218.337 555.821 225.712L771.901 606.602C775.98 613.792 775.631 623.021 771.035 629.517L520.664 983.449C516.068 989.946 508.254 992.255 501.263 989.183L130.875 826.427C123.704 823.276 119.067 815.203 119.463 806.56L140.262 352.241Z" stroke="url(#paint47_linear_247_5244)" stroke-width="3"/>
<path opacity="0.494949" d="M140.263 348.935C140.771 340.61 145.85 333.682 152.924 331.663L537.692 221.845C545.012 219.756 552.78 223.398 556.83 230.818L766.666 615.227C770.632 622.492 770.129 631.73 765.419 638.156L510.297 986.204C505.586 992.63 497.726 994.8 490.787 991.591L123.644 821.787C116.557 818.509 112.075 810.384 112.601 801.77L140.263 348.935Z" stroke="url(#paint48_linear_247_5244)" stroke-width="3"/>
<path opacity="0.50505" d="M140.329 345.741C140.967 337.39 146.185 330.519 153.32 328.633L538.851 226.744C546.184 224.806 553.857 228.574 557.775 236.037L761.325 623.831C765.177 631.17 764.52 640.414 759.696 646.766L499.927 988.847C495.102 995.2 487.197 997.23 480.313 993.885L116.517 817.113C109.515 813.711 105.188 805.538 105.844 796.955L140.329 345.741Z" stroke="url(#paint49_linear_247_5244)" stroke-width="3"/>
<path opacity="0.515152" d="M140.459 342.636C141.228 334.26 146.585 327.45 153.78 325.699L539.948 231.737C547.293 229.949 554.869 233.84 558.653 241.344L755.879 632.389C759.616 639.798 758.804 649.045 753.867 655.322L489.555 991.355C484.618 997.632 476.669 999.523 469.842 996.043L109.493 812.385C102.579 808.861 98.4063 800.643 99.1912 792.094L140.459 342.636Z" stroke="url(#paint50_linear_247_5244)" stroke-width="3"/>
<path opacity="0.525253" d="M140.65 339.636C141.551 331.24 147.048 324.492 154.302 322.878L540.982 236.837C548.336 235.2 555.814 239.212 559.466 246.752L750.329 640.915C753.95 648.391 752.983 657.638 747.933 663.837L479.185 993.745C474.135 999.944 466.145 1001.69 459.377 998.08L102.574 807.62C95.7484 803.977 91.7308 795.717 92.6439 787.205L140.65 339.636Z" stroke="url(#paint51_linear_247_5244)" stroke-width="3"/>
<path opacity="0.535354" d="M140.902 336.738C141.936 328.323 147.572 321.642 154.883 320.166L541.951 242.038C549.312 240.552 556.691 244.682 560.209 252.256L744.676 649.4C748.18 656.943 747.058 666.186 741.896 672.305L468.818 996.012C463.656 1002.13 455.626 1003.74 448.919 999.992L95.7601 802.816C89.0246 799.055 85.1616 790.758 86.2018 782.285L140.902 336.738Z" stroke="url(#paint52_linear_247_5244)" stroke-width="3"/>
<path opacity="0.545455" d="M141.213 333.938C142.379 325.507 148.156 318.895 155.521 317.559L542.854 247.333C550.219 245.998 557.498 250.243 560.883 257.849L738.921 657.839C742.306 665.445 741.028 674.681 735.756 680.717L458.455 998.151C453.183 1004.19 445.114 1005.65 438.47 1001.77L89.0516 797.969C82.4075 794.094 78.6988 785.762 79.8653 777.331L141.213 333.938Z" stroke="url(#paint53_linear_247_5244)" stroke-width="3"/>
<path opacity="0.555556" d="M141.58 331.247C142.881 322.803 148.797 316.263 156.215 315.069L543.69 252.732C551.057 251.546 558.234 255.905 561.487 263.539L733.064 666.239C736.33 673.906 734.896 683.132 729.513 689.082L448.099 1000.17C442.716 1006.12 434.612 1007.44 428.032 1003.44L82.4491 793.093C75.8977 789.105 72.343 780.742 73.6349 772.356L141.58 331.247Z" stroke="url(#paint54_linear_247_5244)" stroke-width="3"/>
<path opacity="0.565657" d="M142.004 328.659C143.44 320.203 149.495 313.739 156.963 312.69L544.457 258.225C551.823 257.19 558.898 261.659 562.019 269.319L727.107 674.592C730.254 682.317 728.664 691.529 723.172 697.392L437.752 1002.07C432.26 1007.93 424.121 1009.11 417.609 1004.97L75.9539 788.183C69.4963 784.085 66.0952 775.695 67.5114 767.355L142.004 328.659Z" stroke="url(#paint55_linear_247_5244)" stroke-width="3"/>
<path opacity="0.575758" d="M142.48 326.178C144.052 317.715 150.246 311.33 157.763 310.426L545.153 263.817C552.517 262.931 559.489 267.508 562.477 275.191L721.05 682.9C724.077 690.681 722.33 699.877 716.73 705.649L427.415 1003.85C421.815 1009.62 413.644 1010.65 407.2 1006.39L69.565 783.245C63.2024 779.04 59.9544 770.625 61.4939 762.334L142.48 326.178Z" stroke="url(#paint56_linear_247_5244)" stroke-width="3"/>
<path opacity="0.585859" d="M143.008 323.8C144.716 315.332 151.049 309.03 158.613 308.272L545.777 269.497C553.136 268.76 560.004 273.444 562.86 281.147L714.894 691.155C717.799 698.99 715.897 708.165 710.189 713.844L417.09 1005.51C411.382 1011.19 403.181 1012.07 396.807 1007.68L63.2825 778.277C57.016 773.966 53.9204 765.53 55.5822 757.29L143.008 323.8Z" stroke="url(#paint57_linear_247_5244)" stroke-width="3"/>
<path opacity="0.59596" d="M143.586 321.526C145.431 313.055 151.903 306.839 159.51 306.23L546.329 275.266C553.681 274.678 560.443 279.465 563.169 287.186L708.641 699.354C711.424 707.241 709.366 716.392 703.552 721.976L406.779 1007.04C400.965 1012.62 392.735 1013.36 386.434 1008.85L57.1083 773.279C50.9388 768.866 47.995 760.411 49.778 752.225L143.586 321.526Z" stroke="url(#paint58_linear_247_5244)" stroke-width="3"/>
<path opacity="0.606061" d="M144.213 319.365C146.196 310.896 152.805 304.769 160.454 304.31L546.806 281.132C554.149 280.692 560.806 285.58 563.401 293.317L702.292 707.508C704.953 715.443 702.738 724.566 696.82 730.053L396.484 1008.46C390.566 1013.95 382.309 1014.53 376.082 1009.9L51.0423 768.265C44.9706 763.751 42.1779 755.281 44.081 747.151L144.213 319.365Z" stroke="url(#paint59_linear_247_5244)" stroke-width="3"/>
<path opacity="0.616162" d="M144.885 317.314C147.006 308.848 153.752 302.815 161.441 302.507L547.207 287.086C554.538 286.793 561.089 291.78 563.553 299.53L695.845 715.606C698.383 723.587 696.013 732.68 689.991 738.066L386.205 1009.76C380.183 1015.15 371.902 1015.58 365.751 1010.83L45.0823 763.231C39.1093 758.619 36.467 750.136 38.489 742.064L144.885 317.314Z" stroke="url(#paint60_linear_247_5244)" stroke-width="3"/>
<path opacity="0.626263" d="M145.603 315.367C147.862 306.909 154.744 300.972 162.47 300.818L547.531 293.124C554.848 292.977 561.293 298.061 563.627 305.822L689.305 723.643C691.719 731.669 689.194 740.727 683.069 746.01L375.946 1010.94C369.822 1016.22 361.519 1016.5 355.445 1011.64L39.2313 758.175C33.3578 753.467 30.8649 744.974 33.0047 736.962L145.603 315.367Z" stroke="url(#paint61_linear_247_5244)" stroke-width="3"/>
<path opacity="0.636364" d="M146.363 313.524C148.761 305.075 155.778 299.239 163.538 299.239L163.593 297.651L163.538 299.239L547.776 299.239C555.078 299.239 561.415 304.418 563.62 312.187L682.671 731.616C684.961 739.683 682.28 748.704 676.055 753.881L365.708 1012C359.483 1017.17 351.16 1017.3 345.165 1012.32L33.4877 753.097C27.7143 748.295 25.37 739.795 27.6265 731.845L146.363 313.524L145.026 313.093L146.363 313.524Z" stroke="url(#paint62_linear_247_5244)" stroke-width="3"/>
<path opacity="0.646465" d="M147.163 311.798C149.7 303.363 156.851 297.631 164.643 297.787L547.941 305.446C555.226 305.591 561.456 310.863 563.532 318.638L675.944 739.535C678.109 747.641 675.274 756.621 668.95 761.69L355.492 1012.94C349.167 1018.01 340.826 1017.99 334.913 1012.89L27.8518 748.013C22.1791 743.119 19.9827 734.615 22.3546 726.73L147.163 311.798Z" stroke="url(#paint63_linear_247_5244)" stroke-width="3"/>
<path opacity="0.656566" d="M148.005 310.182C150.681 301.765 157.965 296.141 165.785 296.453L548.027 311.733C555.292 312.024 561.414 317.386 563.363 325.165L669.127 747.392C671.166 755.535 668.178 764.47 661.756 769.429L345.301 1013.77C338.879 1018.73 330.522 1018.56 324.691 1013.34L22.3251 742.917C16.7538 737.934 14.7041 729.429 17.1904 721.609L148.005 310.182Z" stroke="url(#paint64_linear_247_5244)" stroke-width="3"/>
<path opacity="0.666667" d="M148.884 308.673C151.7 300.275 159.114 294.763 166.961 295.234L548.032 318.095C555.275 318.53 561.288 323.98 563.11 331.762L662.22 755.18C664.134 763.357 660.992 772.244 654.474 777.089L335.136 1014.48C328.618 1019.33 320.248 1019 314.501 1013.67L16.9069 737.808C11.4374 732.738 9.53359 724.233 12.1329 716.481L148.884 308.673Z" stroke="url(#paint65_linear_247_5244)" stroke-width="3"/>
<path opacity="0.676768" d="M149.798 307.277C152.754 298.903 160.298 293.507 168.168 294.137L547.953 324.538C555.173 325.115 561.077 330.652 562.772 338.434L655.224 762.905C657.012 771.114 653.717 779.948 647.105 784.679L324.999 1015.08C318.386 1019.81 310.006 1019.33 304.344 1013.89L11.5961 732.694C6.22906 727.539 4.47005 719.037 7.18121 711.356L149.798 307.277Z" stroke="url(#paint66_linear_247_5244)" stroke-width="3"/>
<path opacity="0.686869" d="M150.747 305.99C153.842 297.643 161.514 292.366 169.405 293.157L547.791 331.052C554.985 331.773 560.78 337.394 562.349 345.175L648.14 770.559C649.802 778.797 646.356 787.577 639.65 792.189L314.891 1015.57C308.186 1020.18 299.796 1019.54 294.222 1013.99L6.39338 727.574C1.12906 722.336 -0.486187 713.839 2.33558 706.229L150.747 305.99Z" stroke="url(#paint67_linear_247_5244)" stroke-width="3"/>
<path opacity="0.69697" d="M151.729 304.817C154.963 296.501 162.761 291.347 170.67 292.299L547.543 337.643C554.71 338.505 560.396 344.21 561.84 351.986L640.971 778.147C642.505 786.411 638.909 795.132 632.113 799.623L304.814 1015.94C298.019 1020.43 289.623 1019.64 284.138 1013.98L1.2989 722.454C-3.86227 717.134 -5.33479 708.645 -2.40366 701.109L151.729 304.817Z" stroke="url(#paint68_linear_247_5244)" stroke-width="3"/>
<path opacity="0.707071" d="M152.74 303.756C156.114 295.475 164.035 290.448 171.958 291.562L547.209 344.305C554.347 345.309 559.923 351.094 561.243 358.865L633.715 785.663C635.122 793.952 631.376 802.61 624.491 806.979L294.769 1016.2C287.884 1020.57 279.485 1019.62 274.09 1013.86L-3.68937 717.334C-8.74707 711.935 -10.0779 703.456 -7.03869 695.995L152.74 303.756Z" stroke="url(#paint69_linear_247_5244)" stroke-width="3"/>
<path opacity="0.717172" d="M153.78 302.801C157.292 294.557 165.336 289.662 173.27 290.938L546.787 351.03C553.894 352.173 559.361 358.038 560.557 365.802L626.375 793.099C627.655 801.411 623.76 810.003 616.789 814.246L284.757 1016.34C277.786 1020.58 269.385 1019.48 264.082 1013.61L-8.57052 712.209C-13.5244 706.733 -14.7147 698.265 -11.5686 690.881L153.78 302.801Z" stroke="url(#paint70_linear_247_5244)" stroke-width="3"/>
<path opacity="0.727273" d="M154.848 301.971C158.499 293.769 166.662 289.008 174.604 290.448L546.279 357.835C553.354 359.118 558.71 365.06 559.783 372.815L618.954 800.474C620.107 808.805 616.064 817.328 609.008 821.444L274.783 1016.39C267.727 1020.5 259.328 1019.24 254.118 1013.27L-13.3431 707.102C-18.193 701.55 -19.2438 693.096 -15.9922 685.791L154.848 301.971Z" stroke="url(#paint71_linear_247_5244)" stroke-width="3"/>
<path opacity="0.737374" d="M155.942 301.245C159.731 293.089 168.011 288.466 175.958 290.07L545.683 364.698C552.723 366.119 557.97 372.137 558.92 379.881L611.452 807.766C612.477 816.113 608.289 824.563 601.151 828.549L264.846 1016.32C257.708 1020.3 249.313 1018.88 244.197 1012.81L-18.0084 701.993C-22.754 696.368 -23.6665 687.93 -20.3105 680.705L155.942 301.245Z" stroke="url(#paint72_linear_247_5244)" stroke-width="3"/>
<path opacity="0.747475" d="M157.059 300.635C160.985 292.527 169.379 288.047 177.329 289.816L544.996 371.626C552 373.185 557.136 379.277 557.966 387.009L603.87 814.982C604.767 823.344 600.434 831.718 593.216 835.571L254.947 1016.14C247.729 1019.99 239.34 1018.41 234.32 1012.25L-22.5683 696.896C-27.2095 691.199 -27.9847 682.779 -24.5257 675.635L157.059 300.635Z" stroke="url(#paint73_linear_247_5244)" stroke-width="3"/>
<path opacity="0.757576" d="M158.198 300.138C162.261 292.083 170.766 287.748 178.714 289.682L544.218 378.617C551.184 380.312 556.211 386.477 556.919 394.195L596.209 822.119C596.978 830.494 592.502 838.788 585.206 842.506L245.088 1015.85C237.792 1019.57 229.412 1017.83 224.49 1011.57L-27.0226 691.811C-31.5591 686.043 -32.1981 677.642 -28.6373 670.582L158.198 300.138Z" stroke="url(#paint74_linear_247_5244)" stroke-width="3"/>
<path opacity="0.767677" d="M159.359 299.748C163.557 291.749 172.171 287.563 180.114 289.663L543.352 385.66C550.278 387.49 555.194 393.727 555.783 401.43L588.474 829.17C589.114 837.555 584.496 845.765 577.125 849.347L235.273 1015.46C227.901 1019.04 219.534 1017.14 214.71 1010.79L-31.3692 686.733C-35.8009 680.897 -36.3049 672.517 -32.6436 665.541L159.359 299.748Z" stroke="url(#paint75_linear_247_5244)" stroke-width="3"/>
<path opacity="0.777778" d="M160.537 299.483C164.87 291.544 173.589 287.512 181.524 289.776L542.392 392.773C549.277 394.738 554.082 401.044 554.552 408.731L580.661 836.151C581.174 844.543 576.416 852.668 568.971 856.111L225.5 1014.97C218.055 1018.41 209.702 1016.35 204.979 1009.9L-35.6119 681.682C-39.9386 675.78 -40.3086 667.422 -36.5482 660.533L160.537 299.483Z" stroke="url(#paint76_linear_247_5244)" stroke-width="3"/>
<path opacity="0.787879" d="M161.732 299.324C166.199 291.45 175.02 287.574 182.942 290.004L541.338 399.935C548.181 402.033 552.876 408.408 553.227 416.077L572.774 843.043C573.159 851.44 568.262 859.475 560.748 862.777L215.771 1014.37C208.256 1017.67 199.921 1015.45 195.298 1008.91L-39.7501 676.643C-43.9718 670.676 -44.209 662.342 -40.3506 655.541L161.732 299.324Z" stroke="url(#paint77_linear_247_5244)" stroke-width="3"/>
<path opacity="0.79798" d="M162.942 299.277C167.542 291.47 176.461 287.754 184.368 290.35L184.883 288.875L184.368 290.35L540.192 407.148C546.991 409.379 551.575 415.821 551.808 423.471L564.815 849.848C565.071 858.248 560.038 866.189 552.456 869.348L206.088 1013.66C198.506 1016.82 190.191 1014.44 185.671 1007.82L-43.7841 671.623C-47.9008 665.591 -48.0061 657.284 -44.0511 650.571L162.942 299.277L161.719 298.526L162.942 299.277Z" stroke="url(#paint78_linear_247_5244)" stroke-width="3"/>
<path opacity="0.808081" d="M164.166 299.346C168.897 291.611 177.911 288.058 185.8 290.819L538.952 414.415C545.705 416.778 550.179 423.286 550.295 430.915L556.785 856.57C556.913 864.97 551.746 872.816 544.099 875.83L196.453 1012.86C188.807 1015.87 180.515 1013.33 176.098 1006.62L-47.714 666.627C-51.7255 660.534 -51.7001 652.253 -47.6497 645.631L164.166 299.346Z" stroke="url(#paint79_linear_247_5244)" stroke-width="3"/>
<path opacity="0.818182" d="M165.401 299.526C170.263 291.866 179.367 288.48 187.234 291.406L537.617 421.729C544.323 424.224 548.686 430.796 548.686 438.403L548.686 863.204C548.686 871.602 543.385 879.348 535.677 882.215L186.867 1011.95C179.159 1014.82 170.893 1012.12 166.581 1005.33L-51.5414 661.655C-55.4476 655.5 -55.2925 647.248 -51.148 640.718L165.401 299.526Z" stroke="url(#paint80_linear_247_5244)" stroke-width="3"/>
<path opacity="0.828283" d="M166.646 299.825C171.637 292.244 180.828 289.027 188.669 292.117L536.187 429.096C542.844 431.72 547.096 438.355 546.981 445.94L540.518 869.754C540.39 878.147 534.959 885.791 527.192 888.509L177.331 1010.95C169.564 1013.67 161.328 1010.81 157.121 1003.93L-55.2664 656.714C-59.0672 650.5 -58.7835 642.277 -54.5462 635.84L166.646 299.825Z" stroke="url(#paint81_linear_247_5244)" stroke-width="3"/>
<path opacity="0.838384" d="M167.901 300.228C173.019 292.73 182.293 289.685 190.104 292.94L534.662 436.499C541.27 439.252 545.411 445.949 545.18 453.51L532.285 876.207C532.029 884.593 526.47 892.131 518.647 894.699L167.848 1009.85C160.025 1012.42 151.821 1009.4 147.722 1002.44L-58.8887 651.793C-62.5842 645.521 -62.1728 637.33 -57.8439 630.987L167.901 300.228Z" stroke="url(#paint82_linear_247_5244)" stroke-width="3"/>
<path opacity="0.848485" d="M169.161 300.749C174.404 293.337 183.757 290.468 191.535 293.886L533.04 443.95C539.596 446.831 543.625 453.589 543.28 461.125L523.986 882.574C523.602 890.951 517.917 898.38 510.04 900.796L158.416 1008.65C150.54 1011.07 142.371 1007.89 138.38 1000.85L-62.4119 646.908C-66.0019 640.58 -65.4639 632.421 -61.0447 626.174L169.161 300.749Z" stroke="url(#paint83_linear_247_5244)" stroke-width="3"/>
<path opacity="0.858586" d="M170.427 301.386C175.794 294.064 185.221 291.374 192.963 294.954L531.321 451.445C537.824 454.453 541.743 461.271 541.284 468.78L515.624 888.852C515.113 897.218 509.303 904.535 501.377 906.798L149.04 1007.36C141.114 1009.62 132.983 1006.28 129.101 999.171L-65.8337 642.06C-69.3183 635.676 -68.6546 627.55 -64.1462 621.4L170.427 301.386Z" stroke="url(#paint84_linear_247_5244)" stroke-width="3"/>
<path opacity="0.868687" d="M171.697 302.132C177.185 294.905 186.683 292.395 194.384 296.137L529.506 458.976C535.955 462.109 539.762 468.986 539.19 476.468L507.2 895.035C506.562 903.386 500.631 910.589 492.658 912.697L139.719 1005.97C131.746 1008.08 123.657 1004.58 119.885 997.395L-69.1562 637.243C-72.5352 630.805 -71.7467 622.714 -67.1506 616.661L171.697 302.132Z" stroke="url(#paint85_linear_247_5244)" stroke-width="3"/>
<path opacity="0.878788" d="M172.969 302.987C178.577 295.857 188.14 293.53 195.797 297.432L527.594 466.539C533.987 469.797 537.683 476.732 536.999 484.185L498.718 901.119C497.952 909.454 491.902 916.54 483.886 918.491L130.456 1004.49C122.44 1006.44 114.395 1002.78 110.734 995.523L-72.3791 632.459C-75.6526 625.968 -74.7402 617.913 -70.0575 611.959L172.969 302.987Z" stroke="url(#paint86_linear_247_5244)" stroke-width="3"/>
<path opacity="0.888889" d="M174.239 303.96C179.965 296.93 189.588 294.789 197.198 298.851L525.582 474.142C531.919 477.524 535.503 484.515 534.706 491.939L490.174 907.115C489.282 915.431 483.116 922.397 475.059 924.19L121.249 1002.92C113.192 1004.71 105.195 1000.9 101.647 993.567L-75.5065 627.72C-78.6743 621.178 -77.639 613.159 -72.8709 607.306L174.239 303.96Z" stroke="url(#paint87_linear_247_5244)" stroke-width="3"/>
<path opacity="0.89899" d="M175.509 305.041C181.35 298.116 191.029 296.163 198.587 300.383L523.473 481.774C529.751 485.279 533.223 492.326 532.316 499.72L481.575 913.011C480.557 921.306 474.276 928.15 466.182 929.784L112.102 1001.25C104.009 1002.89 96.0619 998.915 92.6266 991.519L-78.5363 623.018C-81.5983 616.426 -80.4409 608.444 -75.5887 602.693L175.509 305.041Z" stroke="url(#paint88_linear_247_5244)" stroke-width="3"/>
<path opacity="0.909091" d="M176.776 306.24C182.731 299.423 192.46 297.659 199.964 302.036L521.266 489.442C527.485 493.069 530.845 500.17 529.826 507.533L472.922 918.816C471.777 927.088 465.385 933.807 457.258 935.28L103.017 999.507C94.8901 1000.98 86.9971 996.851 83.6757 989.389L-81.4689 618.365C-84.4251 611.724 -83.1464 603.781 -78.2113 598.131L176.776 306.24Z" stroke="url(#paint89_linear_247_5244)" stroke-width="3"/>
<path opacity="0.919192" d="M178.037 307.543C184.103 300.837 193.878 299.265 201.323 303.796L518.96 497.131C525.118 500.879 528.366 508.034 527.237 515.364L464.213 924.517C462.943 932.763 456.442 939.354 448.285 940.666L93.993 997.665C85.8357 998.978 77.9996 994.693 74.7931 987.167L-84.3076 613.751C-87.1579 607.061 -85.7587 599.157 -80.7419 593.611L178.037 307.543Z" stroke="url(#paint90_linear_247_5244)" stroke-width="3"/>
<path opacity="0.929293" d="M179.293 308.959C185.467 302.368 195.282 300.989 202.665 305.674L516.555 504.848C522.65 508.715 525.786 515.924 524.547 523.221L455.454 930.121C454.058 938.339 447.451 944.8 439.267 945.95L85.0318 995.74C76.8478 996.89 69.0719 992.451 65.9811 984.863L-87.0521 609.185C-89.7965 602.448 -88.2774 594.585 -83.1803 589.143L179.293 308.959Z" stroke="url(#paint91_linear_247_5244)" stroke-width="3"/>
<path opacity="0.939394" d="M180.539 310.489C186.819 304.016 196.669 302.831 203.987 307.668L514.05 512.591C520.082 516.578 523.105 523.839 521.756 531.102L446.643 935.629C445.122 943.817 438.413 950.145 430.205 951.133L76.1338 993.733C67.9266 994.721 60.2139 990.127 57.2398 982.481L-89.7046 604.67C-92.3429 597.887 -90.7048 590.066 -85.5284 584.73L180.539 310.489Z" stroke="url(#paint92_linear_247_5244)" stroke-width="3"/>
<path opacity="0.949495" d="M181.778 312.133C188.162 305.781 198.041 304.791 205.291 309.778L511.448 520.36C517.416 524.465 520.326 531.777 518.868 539.005L437.786 941.04C436.141 949.195 429.331 955.389 421.104 956.213L67.3037 991.646C59.0768 992.47 51.4306 987.724 48.5739 980.02L-92.2624 600.21C-94.7945 593.382 -93.038 585.602 -87.7836 580.374L181.778 312.133Z" stroke="url(#paint93_linear_247_5244)" stroke-width="3"/>
<path opacity="0.959596" d="M183.004 313.877C189.488 307.649 199.392 306.857 206.569 311.991L508.745 528.139C514.647 532.361 517.443 539.723 515.877 546.916L428.88 946.341C427.111 954.461 420.204 960.519 411.961 961.179L58.5377 989.469C50.2947 990.129 42.7182 985.231 39.9797 977.472L-94.7316 595.793C-97.1573 588.921 -95.2831 581.184 -89.9519 576.063L183.004 313.877Z" stroke="url(#paint94_linear_247_5244)" stroke-width="3"/>
<path opacity="0.969697" d="M184.217 315.736C190.799 309.636 200.722 309.04 207.824 314.32L505.943 535.941C511.777 540.278 514.46 547.69 512.785 554.846L419.929 951.546C418.037 959.628 411.036 965.547 402.78 966.042L49.8397 987.216C41.5842 987.712 34.0804 982.663 31.4608 974.851L-97.1105 591.435C-99.4296 584.519 -97.4383 576.827 -92.0316 571.815L184.217 315.736Z" stroke="url(#paint95_linear_247_5244)" stroke-width="3"/>
<path opacity="0.979798" d="M185.416 317.704C192.092 311.734 202.029 311.337 209.052 316.76L503.041 543.758C508.807 548.21 511.376 555.671 509.593 562.789L410.935 956.648C408.92 964.691 401.827 970.469 393.562 970.8L41.2102 984.885C32.9456 985.215 25.5178 980.018 23.0178 972.155L-99.4008 587.133C-101.613 580.175 -99.5054 572.527 -94.0242 567.625L185.416 317.704Z" stroke="url(#paint96_linear_247_5244)" stroke-width="3"/>
<path opacity="0.989899" d="M186.599 319.78C193.366 313.942 203.311 313.743 210.253 319.307L500.04 551.586C505.737 556.153 508.191 563.662 506.301 570.741L401.899 961.646C399.762 969.648 392.581 975.283 384.311 975.448L32.6506 982.475C24.3806 982.64 17.0318 977.295 14.6522 969.384L-101.603 582.888C-103.709 575.888 -101.485 568.286 -95.9306 563.495L186.599 319.78Z" stroke="url(#paint97_linear_247_5244)" stroke-width="3"/>
<path d="M187.764 321.96C194.62 316.258 204.568 316.258 211.423 321.96L496.94 559.423C502.566 564.102 504.905 571.658 502.907 578.698L392.823 966.537C390.565 974.495 383.298 979.986 375.026 979.986H24.1612C15.8895 979.986 8.62291 974.495 6.36426 966.537L-103.72 578.698C-105.718 571.658 -103.379 564.102 -97.7525 559.423L187.764 321.96Z" stroke="url(#paint98_linear_247_5244)" stroke-width="3"/>
</g>
<defs>
<linearGradient id="paint0_linear_247_5244" x1="656.051" y1="780.625" x2="570.923" y2="251.493" gradientUnits="userSpaceOnUse">
<stop stop-color="#FF1CF7"/>
<stop offset="1" stop-color="#00F0FF"/>
</linearGradient>
<linearGradient id="paint1_linear_247_5244" x1="647.692" y1="782.413" x2="573.181" y2="252.293" gradientUnits="userSpaceOnUse">
<stop stop-color="#FF1CF7"/>
<stop offset="1" stop-color="#00F0FF"/>
</linearGradient>
<linearGradient id="paint2_linear_247_5244" x1="639.339" y1="784.114" x2="575.469" y2="253.266" gradientUnits="userSpaceOnUse">
<stop stop-color="#FF1CF7"/>
<stop offset="1" stop-color="#00F0FF"/>
</linearGradient>
<linearGradient id="paint3_linear_247_5244" x1="630.992" y1="785.745" x2="577.78" y2="254.431" gradientUnits="userSpaceOnUse">
<stop stop-color="#FF1CF7"/>
<stop offset="1" stop-color="#00F0FF"/>
</linearGradient>
<linearGradient id="paint4_linear_247_5244" x1="622.655" y1="787.289" x2="580.108" y2="255.772" gradientUnits="userSpaceOnUse">
<stop stop-color="#FF1CF7"/>
<stop offset="1" stop-color="#00F0FF"/>
</linearGradient>
<linearGradient id="paint5_linear_247_5244" x1="614.326" y1="788.755" x2="582.443" y2="257.297" gradientUnits="userSpaceOnUse">
<stop stop-color="#FF1CF7"/>
<stop offset="1" stop-color="#00F0FF"/>
</linearGradient>
<linearGradient id="paint6_linear_247_5244" x1="606.009" y1="790.133" x2="584.777" y2="259" gradientUnits="userSpaceOnUse">
<stop stop-color="#FF1CF7"/>
<stop offset="1" stop-color="#00F0FF"/>
</linearGradient>
<linearGradient id="paint7_linear_247_5244" x1="597.703" y1="791.442" x2="587.102" y2="260.895" gradientUnits="userSpaceOnUse">
<stop stop-color="#FF1CF7"/>
<stop offset="1" stop-color="#00F0FF"/>
</linearGradient>
<linearGradient id="paint8_linear_247_5244" x1="589.41" y1="792.667" x2="589.41" y2="262.971" gradientUnits="userSpaceOnUse">
<stop stop-color="#FF1CF7"/>
<stop offset="1" stop-color="#00F0FF"/>
</linearGradient>
<linearGradient id="paint9_linear_247_5244" x1="581.132" y1="793.807" x2="591.693" y2="265.222" gradientUnits="userSpaceOnUse">
<stop stop-color="#FF1CF7"/>
<stop offset="1" stop-color="#00F0FF"/>
</linearGradient>
<linearGradient id="paint10_linear_247_5244" x1="572.869" y1="794.877" x2="593.945" y2="267.663" gradientUnits="userSpaceOnUse">
<stop stop-color="#FF1CF7"/>
<stop offset="1" stop-color="#00F0FF"/>
</linearGradient>
<linearGradient id="paint11_linear_247_5244" x1="564.624" y1="795.864" x2="596.155" y2="270.279" gradientUnits="userSpaceOnUse">
<stop stop-color="#FF1CF7"/>
<stop offset="1" stop-color="#00F0FF"/>
</linearGradient>
<linearGradient id="paint12_linear_247_5244" x1="556.397" y1="796.771" x2="598.318" y2="273.07" gradientUnits="userSpaceOnUse">
<stop stop-color="#FF1CF7"/>
<stop offset="1" stop-color="#00F0FF"/>
</linearGradient>
<linearGradient id="paint13_linear_247_5244" x1="548.188" y1="797.606" x2="600.423" y2="276.041" gradientUnits="userSpaceOnUse">
<stop stop-color="#FF1CF7"/>
<stop offset="1" stop-color="#00F0FF"/>
</linearGradient>
<linearGradient id="paint14_linear_247_5244" x1="540.001" y1="798.36" x2="602.467" y2="279.179" gradientUnits="userSpaceOnUse">
<stop stop-color="#FF1CF7"/>
<stop offset="1" stop-color="#00F0FF"/>
</linearGradient>
<linearGradient id="paint15_linear_247_5244" x1="531.834" y1="799.043" x2="604.438" y2="282.491" gradientUnits="userSpaceOnUse">
<stop stop-color="#FF1CF7"/>
<stop offset="1" stop-color="#00F0FF"/>
</linearGradient>
<linearGradient id="paint16_linear_247_5244" x1="523.69" y1="799.642" x2="606.332" y2="285.96" gradientUnits="userSpaceOnUse">
<stop stop-color="#FF1CF7"/>
<stop offset="1" stop-color="#00F0FF"/>
</linearGradient>
<linearGradient id="paint17_linear_247_5244" x1="515.57" y1="800.172" x2="608.142" y2="289.595" gradientUnits="userSpaceOnUse">
<stop stop-color="#FF1CF7"/>
<stop offset="1" stop-color="#00F0FF"/>
</linearGradient>
<linearGradient id="paint18_linear_247_5244" x1="507.474" y1="800.631" x2="609.859" y2="293.389" gradientUnits="userSpaceOnUse">
<stop stop-color="#FF1CF7"/>
<stop offset="1" stop-color="#00F0FF"/>
</linearGradient>
<linearGradient id="paint19_linear_247_5244" x1="499.405" y1="801.01" x2="611.481" y2="297.33" gradientUnits="userSpaceOnUse">
<stop stop-color="#FF1CF7"/>
<stop offset="1" stop-color="#00F0FF"/>
</linearGradient>
<linearGradient id="paint20_linear_247_5244" x1="491.363" y1="801.318" x2="612.999" y2="301.418" gradientUnits="userSpaceOnUse">
<stop stop-color="#FF1CF7"/>
<stop offset="1" stop-color="#00F0FF"/>
</linearGradient>
<linearGradient id="paint21_linear_247_5244" x1="483.349" y1="801.551" x2="614.408" y2="305.644" gradientUnits="userSpaceOnUse">
<stop stop-color="#FF1CF7"/>
<stop offset="1" stop-color="#00F0FF"/>
</linearGradient>
<linearGradient id="paint22_linear_247_5244" x1="475.364" y1="801.721" x2="615.703" y2="310.016" gradientUnits="userSpaceOnUse">
<stop stop-color="#FF1CF7"/>
<stop offset="1" stop-color="#00F0FF"/>
</linearGradient>
<linearGradient id="paint23_linear_247_5244" x1="467.411" y1="801.812" x2="616.881" y2="314.509" gradientUnits="userSpaceOnUse">
<stop stop-color="#FF1CF7"/>
<stop offset="1" stop-color="#00F0FF"/>
</linearGradient>
<linearGradient id="paint24_linear_247_5244" x1="459.488" y1="801.835" x2="617.934" y2="319.129" gradientUnits="userSpaceOnUse">
<stop stop-color="#FF1CF7"/>
<stop offset="1" stop-color="#00F0FF"/>
</linearGradient>
<linearGradient id="paint25_linear_247_5244" x1="451.596" y1="801.791" x2="618.859" y2="323.867" gradientUnits="userSpaceOnUse">
<stop stop-color="#FF1CF7"/>
<stop offset="1" stop-color="#00F0FF"/>
</linearGradient>
<linearGradient id="paint26_linear_247_5244" x1="443.739" y1="801.67" x2="619.654" y2="328.71" gradientUnits="userSpaceOnUse">
<stop stop-color="#FF1CF7"/>
<stop offset="1" stop-color="#00F0FF"/>
</linearGradient>
<linearGradient id="paint27_linear_247_5244" x1="435.917" y1="801.492" x2="620.316" y2="333.668" gradientUnits="userSpaceOnUse">
<stop stop-color="#FF1CF7"/>
<stop offset="1" stop-color="#00F0FF"/>
</linearGradient>
<linearGradient id="paint28_linear_247_5244" x1="428.129" y1="801.241" x2="620.838" y2="338.719" gradientUnits="userSpaceOnUse">
<stop stop-color="#FF1CF7"/>
<stop offset="1" stop-color="#00F0FF"/>
</linearGradient>
<linearGradient id="paint29_linear_247_5244" x1="420.378" y1="800.925" x2="621.221" y2="343.862" gradientUnits="userSpaceOnUse">
<stop stop-color="#FF1CF7"/>
<stop offset="1" stop-color="#00F0FF"/>
</linearGradient>
<linearGradient id="paint30_linear_247_5244" x1="412.663" y1="800.546" x2="621.461" y2="349.094" gradientUnits="userSpaceOnUse">
<stop stop-color="#FF1CF7"/>
<stop offset="1" stop-color="#00F0FF"/>
</linearGradient>
<linearGradient id="paint31_linear_247_5244" x1="404.989" y1="800.101" x2="621.558" y2="354.402" gradientUnits="userSpaceOnUse">
<stop stop-color="#FF1CF7"/>
<stop offset="1" stop-color="#00F0FF"/>
</linearGradient>
<linearGradient id="paint32_linear_247_5244" x1="397.352" y1="799.594" x2="621.509" y2="359.784" gradientUnits="userSpaceOnUse">
<stop stop-color="#FF1CF7"/>
<stop offset="1" stop-color="#00F0FF"/>
</linearGradient>
<linearGradient id="paint33_linear_247_5244" x1="389.756" y1="799.023" x2="621.314" y2="365.23" gradientUnits="userSpaceOnUse">
<stop stop-color="#FF1CF7"/>
<stop offset="1" stop-color="#00F0FF"/>
</linearGradient>
<linearGradient id="paint34_linear_247_5244" x1="382.2" y1="798.39" x2="620.97" y2="370.735" gradientUnits="userSpaceOnUse">
<stop stop-color="#FF1CF7"/>
<stop offset="1" stop-color="#00F0FF"/>
</linearGradient>
<linearGradient id="paint35_linear_247_5244" x1="374.687" y1="797.696" x2="620.48" y2="376.291" gradientUnits="userSpaceOnUse">
<stop stop-color="#FF1CF7"/>
<stop offset="1" stop-color="#00F0FF"/>
</linearGradient>
<linearGradient id="paint36_linear_247_5244" x1="367.216" y1="796.944" x2="619.841" y2="381.896" gradientUnits="userSpaceOnUse">
<stop stop-color="#FF1CF7"/>
<stop offset="1" stop-color="#00F0FF"/>
</linearGradient>
<linearGradient id="paint37_linear_247_5244" x1="359.79" y1="796.135" x2="619.056" y2="387.543" gradientUnits="userSpaceOnUse">
<stop stop-color="#FF1CF7"/>
<stop offset="1" stop-color="#00F0FF"/>
</linearGradient>
<linearGradient id="paint38_linear_247_5244" x1="352.405" y1="795.267" x2="618.122" y2="393.221" gradientUnits="userSpaceOnUse">
<stop stop-color="#FF1CF7"/>
<stop offset="1" stop-color="#00F0FF"/>
</linearGradient>
<linearGradient id="paint39_linear_247_5244" x1="345.068" y1="794.341" x2="617.044" y2="398.926" gradientUnits="userSpaceOnUse">
<stop stop-color="#FF1CF7"/>
<stop offset="1" stop-color="#00F0FF"/>
</linearGradient>
<linearGradient id="paint40_linear_247_5244" x1="337.777" y1="793.36" x2="615.821" y2="404.654" gradientUnits="userSpaceOnUse">
<stop stop-color="#FF1CF7"/>
<stop offset="1" stop-color="#00F0FF"/>
</linearGradient>
<linearGradient id="paint41_linear_247_5244" x1="330.533" y1="792.33" x2="614.456" y2="410.403" gradientUnits="userSpaceOnUse">
<stop stop-color="#FF1CF7"/>
<stop offset="1" stop-color="#00F0FF"/>
</linearGradient>
<linearGradient id="paint42_linear_247_5244" x1="323.335" y1="791.24" x2="612.947" y2="416.158" gradientUnits="userSpaceOnUse">
<stop stop-color="#FF1CF7"/>
<stop offset="1" stop-color="#00F0FF"/>
</linearGradient>
<linearGradient id="paint43_linear_247_5244" x1="316.185" y1="790.097" x2="611.3" y2="421.917" gradientUnits="userSpaceOnUse">
<stop stop-color="#FF1CF7"/>
<stop offset="1" stop-color="#00F0FF"/>
</linearGradient>
<linearGradient id="paint44_linear_247_5244" x1="309.085" y1="788.908" x2="609.515" y2="427.683" gradientUnits="userSpaceOnUse">
<stop stop-color="#FF1CF7"/>
<stop offset="1" stop-color="#00F0FF"/>
</linearGradient>
<linearGradient id="paint45_linear_247_5244" x1="302.035" y1="787.667" x2="607.596" y2="433.442" gradientUnits="userSpaceOnUse">
<stop stop-color="#FF1CF7"/>
<stop offset="1" stop-color="#00F0FF"/>
</linearGradient>
<linearGradient id="paint46_linear_247_5244" x1="295.035" y1="786.375" x2="605.544" y2="439.19" gradientUnits="userSpaceOnUse">
<stop stop-color="#FF1CF7"/>
<stop offset="1" stop-color="#00F0FF"/>
</linearGradient>
<linearGradient id="paint47_linear_247_5244" x1="288.085" y1="785.039" x2="603.361" y2="444.93" gradientUnits="userSpaceOnUse">
<stop stop-color="#FF1CF7"/>
<stop offset="1" stop-color="#00F0FF"/>
</linearGradient>
<linearGradient id="paint48_linear_247_5244" x1="281.187" y1="783.649" x2="601.053" y2="450.644" gradientUnits="userSpaceOnUse">
<stop stop-color="#FF1CF7"/>
<stop offset="1" stop-color="#00F0FF"/>
</linearGradient>
<linearGradient id="paint49_linear_247_5244" x1="274.342" y1="782.225" x2="598.621" y2="456.349" gradientUnits="userSpaceOnUse">
<stop stop-color="#FF1CF7"/>
<stop offset="1" stop-color="#00F0FF"/>
</linearGradient>
<linearGradient id="paint50_linear_247_5244" x1="267.55" y1="780.746" x2="596.069" y2="462.018" gradientUnits="userSpaceOnUse">
<stop stop-color="#FF1CF7"/>
<stop offset="1" stop-color="#00F0FF"/>
</linearGradient>
<linearGradient id="paint51_linear_247_5244" x1="260.81" y1="779.228" x2="593.399" y2="467.664" gradientUnits="userSpaceOnUse">
<stop stop-color="#FF1CF7"/>
<stop offset="1" stop-color="#00F0FF"/>
</linearGradient>
<linearGradient id="paint52_linear_247_5244" x1="254.125" y1="777.669" x2="590.615" y2="473.279" gradientUnits="userSpaceOnUse">
<stop stop-color="#FF1CF7"/>
<stop offset="1" stop-color="#00F0FF"/>
</linearGradient>
<linearGradient id="paint53_linear_247_5244" x1="247.494" y1="776.064" x2="587.721" y2="478.853" gradientUnits="userSpaceOnUse">
<stop stop-color="#FF1CF7"/>
<stop offset="1" stop-color="#00F0FF"/>
</linearGradient>
<linearGradient id="paint54_linear_247_5244" x1="240.919" y1="774.425" x2="584.72" y2="484.396" gradientUnits="userSpaceOnUse">
<stop stop-color="#FF1CF7"/>
<stop offset="1" stop-color="#00F0FF"/>
</linearGradient>
<linearGradient id="paint55_linear_247_5244" x1="234.399" y1="772.745" x2="581.616" y2="489.897" gradientUnits="userSpaceOnUse">
<stop stop-color="#FF1CF7"/>
<stop offset="1" stop-color="#00F0FF"/>
</linearGradient>
<linearGradient id="paint56_linear_247_5244" x1="227.936" y1="771.031" x2="578.413" y2="495.359" gradientUnits="userSpaceOnUse">
<stop stop-color="#FF1CF7"/>
<stop offset="1" stop-color="#00F0FF"/>
</linearGradient>
<linearGradient id="paint57_linear_247_5244" x1="221.528" y1="769.278" x2="575.113" y2="500.772" gradientUnits="userSpaceOnUse">
<stop stop-color="#FF1CF7"/>
<stop offset="1" stop-color="#00F0FF"/>
</linearGradient>
<linearGradient id="paint58_linear_247_5244" x1="215.178" y1="767.487" x2="571.721" y2="506.137" gradientUnits="userSpaceOnUse">
<stop stop-color="#FF1CF7"/>
<stop offset="1" stop-color="#00F0FF"/>
</linearGradient>
<linearGradient id="paint59_linear_247_5244" x1="208.886" y1="765.669" x2="568.241" y2="511.46" gradientUnits="userSpaceOnUse">
<stop stop-color="#FF1CF7"/>
<stop offset="1" stop-color="#00F0FF"/>
</linearGradient>
<linearGradient id="paint60_linear_247_5244" x1="202.65" y1="763.819" x2="564.675" y2="516.735" gradientUnits="userSpaceOnUse">
<stop stop-color="#FF1CF7"/>
<stop offset="1" stop-color="#00F0FF"/>
</linearGradient>
<linearGradient id="paint61_linear_247_5244" x1="196.473" y1="761.935" x2="561.028" y2="521.956" gradientUnits="userSpaceOnUse">
<stop stop-color="#FF1CF7"/>
<stop offset="1" stop-color="#00F0FF"/>
</linearGradient>
<linearGradient id="paint62_linear_247_5244" x1="190.354" y1="760.016" x2="557.303" y2="527.119" gradientUnits="userSpaceOnUse">
<stop stop-color="#FF1CF7"/>
<stop offset="1" stop-color="#00F0FF"/>
</linearGradient>
<linearGradient id="paint63_linear_247_5244" x1="184.293" y1="758.076" x2="553.503" y2="532.238" gradientUnits="userSpaceOnUse">
<stop stop-color="#FF1CF7"/>
<stop offset="1" stop-color="#00F0FF"/>
</linearGradient>
<linearGradient id="paint64_linear_247_5244" x1="178.293" y1="756.108" x2="549.634" y2="537.304" gradientUnits="userSpaceOnUse">
<stop stop-color="#FF1CF7"/>
<stop offset="1" stop-color="#00F0FF"/>
</linearGradient>
<linearGradient id="paint65_linear_247_5244" x1="172.353" y1="754.11" x2="545.698" y2="542.311" gradientUnits="userSpaceOnUse">
<stop stop-color="#FF1CF7"/>
<stop offset="1" stop-color="#00F0FF"/>
</linearGradient>
<linearGradient id="paint66_linear_247_5244" x1="166.472" y1="752.091" x2="541.697" y2="547.268" gradientUnits="userSpaceOnUse">
<stop stop-color="#FF1CF7"/>
<stop offset="1" stop-color="#00F0FF"/>
</linearGradient>
<linearGradient id="paint67_linear_247_5244" x1="160.651" y1="750.045" x2="537.637" y2="552.168" gradientUnits="userSpaceOnUse">
<stop stop-color="#FF1CF7"/>
<stop offset="1" stop-color="#00F0FF"/>
</linearGradient>
<linearGradient id="paint68_linear_247_5244" x1="154.891" y1="747.979" x2="533.52" y2="557.016" gradientUnits="userSpaceOnUse">
<stop stop-color="#FF1CF7"/>
<stop offset="1" stop-color="#00F0FF"/>
</linearGradient>
<linearGradient id="paint69_linear_247_5244" x1="149.19" y1="745.894" x2="529.348" y2="561.811" gradientUnits="userSpaceOnUse">
<stop stop-color="#FF1CF7"/>
<stop offset="1" stop-color="#00F0FF"/>
</linearGradient>
<linearGradient id="paint70_linear_247_5244" x1="143.549" y1="743.781" x2="525.124" y2="566.545" gradientUnits="userSpaceOnUse">
<stop stop-color="#FF1CF7"/>
<stop offset="1" stop-color="#00F0FF"/>
</linearGradient>
<linearGradient id="paint71_linear_247_5244" x1="137.971" y1="741.663" x2="520.855" y2="571.239" gradientUnits="userSpaceOnUse">
<stop stop-color="#FF1CF7"/>
<stop offset="1" stop-color="#00F0FF"/>
</linearGradient>
<linearGradient id="paint72_linear_247_5244" x1="132.454" y1="739.519" x2="516.542" y2="575.872" gradientUnits="userSpaceOnUse">
<stop stop-color="#FF1CF7"/>
<stop offset="1" stop-color="#00F0FF"/>
</linearGradient>
<linearGradient id="paint73_linear_247_5244" x1="126.997" y1="737.363" x2="512.186" y2="580.455" gradientUnits="userSpaceOnUse">
<stop stop-color="#FF1CF7"/>
<stop offset="1" stop-color="#00F0FF"/>
</linearGradient>
<linearGradient id="paint74_linear_247_5244" x1="121.601" y1="735.191" x2="507.79" y2="584.988" gradientUnits="userSpaceOnUse">
<stop stop-color="#FF1CF7"/>
<stop offset="1" stop-color="#00F0FF"/>
</linearGradient>
<linearGradient id="paint75_linear_247_5244" x1="116.268" y1="733.001" x2="503.36" y2="589.464" gradientUnits="userSpaceOnUse">
<stop stop-color="#FF1CF7"/>
<stop offset="1" stop-color="#00F0FF"/>
</linearGradient>
<linearGradient id="paint76_linear_247_5244" x1="110.996" y1="730.81" x2="498.896" y2="593.903" gradientUnits="userSpaceOnUse">
<stop stop-color="#FF1CF7"/>
<stop offset="1" stop-color="#00F0FF"/>
</linearGradient>
<linearGradient id="paint77_linear_247_5244" x1="105.784" y1="728.602" x2="494.4" y2="598.288" gradientUnits="userSpaceOnUse">
<stop stop-color="#FF1CF7"/>
<stop offset="1" stop-color="#00F0FF"/>
</linearGradient>
<linearGradient id="paint78_linear_247_5244" x1="100.635" y1="726.383" x2="489.875" y2="602.623" gradientUnits="userSpaceOnUse">
<stop stop-color="#FF1CF7"/>
<stop offset="1" stop-color="#00F0FF"/>
</linearGradient>
<linearGradient id="paint79_linear_247_5244" x1="95.547" y1="724.159" x2="485.324" y2="606.917" gradientUnits="userSpaceOnUse">
<stop stop-color="#FF1CF7"/>
<stop offset="1" stop-color="#00F0FF"/>
</linearGradient>
<linearGradient id="paint80_linear_247_5244" x1="90.5205" y1="721.926" x2="480.749" y2="611.164" gradientUnits="userSpaceOnUse">
<stop stop-color="#FF1CF7"/>
<stop offset="1" stop-color="#00F0FF"/>
</linearGradient>
<linearGradient id="paint81_linear_247_5244" x1="85.5554" y1="719.692" x2="476.151" y2="615.374" gradientUnits="userSpaceOnUse">
<stop stop-color="#FF1CF7"/>
<stop offset="1" stop-color="#00F0FF"/>
</linearGradient>
<linearGradient id="paint82_linear_247_5244" x1="80.6529" y1="717.446" x2="471.534" y2="619.534" gradientUnits="userSpaceOnUse">
<stop stop-color="#FF1CF7"/>
<stop offset="1" stop-color="#00F0FF"/>
</linearGradient>
<linearGradient id="paint83_linear_247_5244" x1="75.8099" y1="715.202" x2="466.897" y2="623.66" gradientUnits="userSpaceOnUse">
<stop stop-color="#FF1CF7"/>
<stop offset="1" stop-color="#00F0FF"/>
</linearGradient>
<linearGradient id="paint84_linear_247_5244" x1="71.0294" y1="712.959" x2="462.244" y2="627.751" gradientUnits="userSpaceOnUse">
<stop stop-color="#FF1CF7"/>
<stop offset="1" stop-color="#00F0FF"/>
</linearGradient>
<linearGradient id="paint85_linear_247_5244" x1="66.31" y1="710.713" x2="457.576" y2="631.803" gradientUnits="userSpaceOnUse">
<stop stop-color="#FF1CF7"/>
<stop offset="1" stop-color="#00F0FF"/>
</linearGradient>
<linearGradient id="paint86_linear_247_5244" x1="61.6527" y1="708.463" x2="452.895" y2="635.816" gradientUnits="userSpaceOnUse">
<stop stop-color="#FF1CF7"/>
<stop offset="1" stop-color="#00F0FF"/>
</linearGradient>
<linearGradient id="paint87_linear_247_5244" x1="57.0541" y1="706.221" x2="448.2" y2="639.803" gradientUnits="userSpaceOnUse">
<stop stop-color="#FF1CF7"/>
<stop offset="1" stop-color="#00F0FF"/>
</linearGradient>
<linearGradient id="paint88_linear_247_5244" x1="52.517" y1="703.979" x2="443.495" y2="643.756" gradientUnits="userSpaceOnUse">
<stop stop-color="#FF1CF7"/>
<stop offset="1" stop-color="#00F0FF"/>
</linearGradient>
<linearGradient id="paint89_linear_247_5244" x1="48.0417" y1="701.748" x2="438.781" y2="647.685" gradientUnits="userSpaceOnUse">
<stop stop-color="#FF1CF7"/>
<stop offset="1" stop-color="#00F0FF"/>
</linearGradient>
<linearGradient id="paint90_linear_247_5244" x1="43.6256" y1="699.515" x2="434.058" y2="651.581" gradientUnits="userSpaceOnUse">
<stop stop-color="#FF1CF7"/>
<stop offset="1" stop-color="#00F0FF"/>
</linearGradient>
<linearGradient id="paint91_linear_247_5244" x1="39.2699" y1="697.291" x2="429.326" y2="655.453" gradientUnits="userSpaceOnUse">
<stop stop-color="#FF1CF7"/>
<stop offset="1" stop-color="#00F0FF"/>
</linearGradient>
<linearGradient id="paint92_linear_247_5244" x1="34.973" y1="695.079" x2="424.587" y2="659.306" gradientUnits="userSpaceOnUse">
<stop stop-color="#FF1CF7"/>
<stop offset="1" stop-color="#00F0FF"/>
</linearGradient>
<linearGradient id="paint93_linear_247_5244" x1="30.7385" y1="692.879" x2="419.844" y2="663.14" gradientUnits="userSpaceOnUse">
<stop stop-color="#FF1CF7"/>
<stop offset="1" stop-color="#00F0FF"/>
</linearGradient>
<linearGradient id="paint94_linear_247_5244" x1="26.5611" y1="690.681" x2="415.094" y2="666.947" gradientUnits="userSpaceOnUse">
<stop stop-color="#FF1CF7"/>
<stop offset="1" stop-color="#00F0FF"/>
</linearGradient>
<linearGradient id="paint95_linear_247_5244" x1="22.4432" y1="688.499" x2="410.339" y2="670.741" gradientUnits="userSpaceOnUse">
<stop stop-color="#FF1CF7"/>
<stop offset="1" stop-color="#00F0FF"/>
</linearGradient>
<linearGradient id="paint96_linear_247_5244" x1="18.3839" y1="686.331" x2="405.578" y2="674.52" gradientUnits="userSpaceOnUse">
<stop stop-color="#FF1CF7"/>
<stop offset="1" stop-color="#00F0FF"/>
</linearGradient>
<linearGradient id="paint97_linear_247_5244" x1="14.3834" y1="684.176" x2="400.814" y2="678.284" gradientUnits="userSpaceOnUse">
<stop stop-color="#FF1CF7"/>
<stop offset="1" stop-color="#00F0FF"/>
</linearGradient>
<linearGradient id="paint98_linear_247_5244" x1="10.4405" y1="682.032" x2="396.045" y2="682.032" gradientUnits="userSpaceOnUse">
<stop stop-color="#FF1CF7"/>
<stop offset="1" stop-color="#00F0FF"/>
</linearGradient>
</defs>
</svg>
