<svg width="835" height="998" viewBox="0 0 835 998" fill="none" xmlns="http://www.w3.org/2000/svg">
<g style="mix-blend-mode:luminosity" opacity="0.2">
<path opacity="0.010101" d="M171.489 591.116C166.926 585.707 165.98 578.001 169.064 571.362L374.564 128.934C378.294 120.905 386.969 116.391 395.398 118.093L823.334 204.47C830.83 205.983 836.432 212.089 837.376 219.773L898.57 718.212C899.513 725.896 895.598 733.532 888.757 737.352L498.197 955.41C490.504 959.706 481.078 958.104 475.56 951.563L171.489 591.116Z" stroke="url(#paint0_linear_551_9691)" stroke-width="3"/>
<path opacity="0.020202" d="M166.84 585.015C162.366 579.522 161.539 571.812 164.72 565.244L376.526 127.832C380.379 119.875 389.136 115.53 397.549 117.403L823.246 212.126C830.719 213.789 836.227 220 837.053 227.694L890.538 726.344C891.364 734.039 887.332 741.591 880.432 745.274L487.399 955.074C479.631 959.22 470.216 957.431 464.796 950.776L166.84 585.015Z" stroke="url(#paint1_linear_551_9691)" stroke-width="3"/>
<path opacity="0.030303" d="M162.313 578.918C157.928 573.343 157.22 565.629 160.497 559.132L378.518 126.854C382.494 118.971 391.328 114.8 399.721 116.842L823.058 219.848C830.506 221.66 835.918 227.976 836.626 235.68L882.414 734.382C883.121 742.086 878.975 749.551 872.019 753.096L476.641 954.607C468.802 958.603 459.404 956.625 454.083 949.86L162.313 578.918Z" stroke="url(#paint2_linear_551_9691)" stroke-width="3"/>
<path opacity="0.040404" d="M157.905 572.847C153.61 567.19 153.02 559.473 156.392 553.048L380.536 126.02C384.634 118.213 393.54 114.217 401.909 116.429L822.768 227.654C830.188 229.615 835.503 236.033 836.092 243.745L874.198 742.34C874.788 750.052 870.527 757.429 863.517 760.835L465.925 954.029C458.018 957.871 448.641 955.706 443.422 948.832L157.905 572.847Z" stroke="url(#paint3_linear_551_9691)" stroke-width="3"/>
<path opacity="0.050505" d="M153.619 566.785C149.414 561.048 148.942 553.327 152.409 546.976L382.582 125.31C386.8 117.584 395.774 113.764 404.115 116.145L822.377 235.522C829.767 237.631 834.982 244.152 835.454 251.87L865.895 750.199C866.366 757.917 861.994 765.205 854.932 768.471L455.255 953.323C447.285 957.009 437.933 954.656 432.817 947.677L153.619 566.785Z" stroke="url(#paint4_linear_551_9691)" stroke-width="3"/>
<path opacity="0.0606061" d="M99.4525 560.742C95.3375 554.925 94.984 547.203 98.5452 540.925L334.652 124.733C338.987 117.091 348.026 113.449 356.334 115.998L771.882 243.459C779.24 245.715 784.355 252.336 784.709 260.06L807.504 757.965C807.857 765.689 803.374 772.886 796.263 776.01L394.63 952.496C386.6 956.025 377.279 953.485 372.269 946.403L99.4525 560.742Z" stroke="url(#paint5_linear_551_9691)" stroke-width="3"/>
<path opacity="0.0707071" d="M95.4048 554.714C91.3808 548.819 91.1452 541.095 94.8001 534.892L336.743 124.282C341.195 116.726 350.293 113.265 358.565 115.98L771.284 251.454C778.606 253.857 783.62 260.577 783.855 268.304L799.027 765.63C799.262 773.357 794.67 780.461 787.513 783.444L384.054 951.544C375.968 954.913 366.682 952.187 361.78 945.004L95.4048 554.714Z" stroke="url(#paint6_linear_551_9691)" stroke-width="3"/>
<path opacity="0.0808081" d="M91.4749 548.719C87.5424 542.745 87.4246 535.021 91.1726 528.893L338.854 123.973C343.421 116.506 352.573 113.226 360.804 116.107L770.58 259.521C777.865 262.07 782.775 268.888 782.893 276.617L790.465 773.207C790.583 780.936 785.884 787.946 778.681 790.785L373.527 950.481C365.388 953.689 356.142 950.778 351.35 943.498L91.4749 548.719Z" stroke="url(#paint7_linear_551_9691)" stroke-width="3"/>
<path opacity="0.0909091" d="M87.6628 542.745C83.8223 536.694 83.8223 528.969 87.6628 522.918L340.982 123.792C345.663 116.417 354.864 113.321 363.051 116.366L769.771 267.644C777.016 270.339 781.822 277.254 781.822 284.983V780.681C781.822 788.41 777.016 795.325 769.771 798.02L363.051 949.298C354.864 952.343 345.663 949.247 340.982 941.872L87.6628 542.745Z" stroke="url(#paint8_linear_551_9691)" stroke-width="3"/>
<path opacity="0.10101" d="M83.9673 536.793C80.2193 530.666 80.3371 522.941 84.2696 516.967L343.125 123.737C347.918 116.457 357.164 113.545 365.302 116.753L768.855 275.819C776.057 278.658 780.757 285.668 780.639 293.397L773.097 788.048C772.979 795.777 768.068 802.595 760.784 805.145L352.627 947.991C344.396 950.872 335.244 947.592 330.677 940.125L83.9673 536.793Z" stroke="url(#paint9_linear_551_9691)" stroke-width="3"/>
<path opacity="0.111111" d="M130.389 530.88C126.734 524.677 126.97 516.953 130.994 511.057L395.283 123.823C400.185 116.641 409.471 113.915 417.558 117.284L817.833 284.058C824.991 287.04 829.583 294.144 829.347 301.871L814.294 795.322C814.058 803.049 809.045 809.769 801.722 812.172L392.26 946.577C383.988 949.292 374.89 945.831 370.438 938.275L130.389 530.88Z" stroke="url(#paint10_linear_551_9691)" stroke-width="3"/>
<path opacity="0.121212" d="M126.927 524.994C123.366 518.717 123.719 510.994 127.834 505.177L397.453 124.037C402.463 116.955 411.784 114.415 419.814 117.944L816.704 292.345C823.814 295.47 828.297 302.667 827.944 310.39L805.415 802.487C805.061 810.211 799.946 816.831 792.588 819.088L381.948 945.044C373.64 947.592 364.602 943.951 360.266 936.308L126.927 524.994Z" stroke="url(#paint11_linear_551_9691)" stroke-width="3"/>
<path opacity="0.131313" d="M123.58 519.141C120.113 512.789 120.585 505.069 124.79 499.332L399.633 124.381C404.749 117.402 414.101 115.049 422.071 118.735L815.467 300.681C822.528 303.947 826.901 311.235 826.429 318.953L796.461 809.546C795.99 817.264 790.774 823.785 783.384 825.894L371.696 943.395C363.355 945.776 354.38 941.956 350.163 934.23L123.58 519.141Z" stroke="url(#paint12_linear_551_9691)" stroke-width="3"/>
<path opacity="0.141414" d="M120.346 513.331C116.974 506.906 117.563 499.188 121.859 493.532L401.819 124.863C407.038 117.99 416.416 115.824 424.322 119.666L814.119 309.072C821.129 312.478 825.39 319.856 824.8 327.567L787.432 816.505C786.843 824.216 781.528 830.635 774.108 832.596L361.501 941.64C353.132 943.852 344.225 939.855 340.128 932.049L120.346 513.331Z" stroke="url(#paint13_linear_551_9691)" stroke-width="3"/>
<path opacity="0.151515" d="M117.227 507.555C113.95 501.058 114.659 493.343 119.043 487.768L404.013 125.472C409.334 118.707 418.732 116.729 426.571 120.725L812.665 317.504C819.621 321.049 823.768 328.515 823.061 336.219L778.334 823.351C777.627 831.055 772.215 837.37 764.767 839.182L351.37 939.77C342.977 941.812 334.143 937.641 330.167 929.757L117.227 507.555Z" stroke="url(#paint14_linear_551_9691)" stroke-width="3"/>
<path opacity="0.161616" d="M114.218 501.825C111.037 495.257 111.865 487.546 116.339 482.054L406.208 126.218C411.628 119.564 421.043 117.774 428.811 121.92L811.099 325.985C817.999 329.668 822.03 337.219 821.205 344.914L769.164 830.093C768.339 837.788 762.831 843.999 755.358 845.662L341.3 937.795C332.886 939.667 324.129 935.323 320.276 927.366L114.218 501.825Z" stroke="url(#paint15_linear_551_9691)" stroke-width="3"/>
<path opacity="0.171717" d="M111.321 496.131C108.237 489.493 109.184 481.786 113.746 476.378L408.405 127.088C413.923 120.547 423.349 118.945 431.042 123.241L809.423 334.499C816.264 338.319 820.179 345.956 819.236 353.64L759.928 836.719C758.984 844.402 753.382 850.508 745.886 852.021L331.294 935.705C322.865 937.407 314.19 932.892 310.46 924.864L111.321 496.131Z" stroke="url(#paint16_linear_551_9691)" stroke-width="3"/>
<path opacity="0.181818" d="M108.535 490.49C105.549 483.781 106.614 476.08 111.265 470.756L410.602 128.097C416.215 121.671 425.647 120.257 433.263 124.699L807.637 343.06C814.417 347.015 818.215 354.735 817.153 362.406L750.625 843.239C749.564 850.91 743.868 856.909 736.352 858.272L321.356 933.514C312.914 935.045 304.325 930.363 300.721 922.266L108.535 490.49Z" stroke="url(#paint17_linear_551_9691)" stroke-width="3"/>
<path opacity="0.191919" d="M105.857 484.899C102.969 478.122 104.155 470.426 108.893 465.188L412.795 129.239C418.501 122.931 427.935 121.704 435.47 126.29L805.738 351.66C812.456 355.748 816.134 363.55 814.954 371.207L741.258 849.65C740.079 857.307 734.291 863.199 726.758 864.411L311.483 931.221C303.033 932.58 294.534 927.733 291.057 919.572L105.857 484.899Z" stroke="url(#paint18_linear_551_9691)" stroke-width="3"/>
<path opacity="0.20202" d="M103.289 479.354C100.5 472.508 101.806 464.819 106.632 459.668L414.985 130.508C420.781 124.32 430.213 123.28 437.663 128.007L803.73 360.289C810.382 364.51 813.939 372.392 812.642 380.034L731.83 855.943C730.533 863.585 724.655 869.367 717.106 870.428L301.682 928.818C293.228 930.007 284.823 924.997 281.473 916.775L103.289 479.354Z" stroke="url(#paint19_linear_551_9691)" stroke-width="3"/>
<path opacity="0.212121" d="M100.828 473.862C98.1388 466.948 99.5651 459.267 104.478 454.203L417.167 131.908C423.052 125.842 432.477 124.988 439.839 129.854L801.609 368.952C808.194 373.304 811.629 381.264 810.213 388.889L722.342 862.122C720.926 869.748 714.96 875.42 707.398 876.33L291.95 926.315C283.496 927.332 275.189 922.164 271.968 913.882L100.828 473.862Z" stroke="url(#paint20_linear_551_9691)" stroke-width="3"/>
<path opacity="0.222222" d="M98.4723 468.421C95.8842 461.441 97.4317 453.768 102.431 448.793L419.341 133.436C425.312 127.495 434.725 126.826 441.996 131.827L799.376 377.642C805.891 382.123 809.203 390.159 807.668 397.766L712.795 868.184C711.261 875.791 705.207 881.352 697.635 882.111L282.291 923.708C273.84 924.554 265.636 919.23 262.544 910.893L98.4723 468.421Z" stroke="url(#paint21_linear_551_9691)" stroke-width="3"/>
<path opacity="0.232323" d="M96.2223 463.047C93.7357 456.001 95.4049 448.337 100.49 443.453L421.505 135.104C427.559 129.289 436.956 128.805 444.133 133.939L797.031 386.369C803.475 390.978 806.661 399.089 805.008 406.676L703.192 874.14C701.54 881.727 695.4 887.176 687.821 887.783L272.705 921.011C264.263 921.687 256.164 916.21 253.203 907.821L96.2223 463.047Z" stroke="url(#paint22_linear_551_9691)" stroke-width="3"/>
<path opacity="0.242424" d="M94.0771 457.722C91.6928 450.612 93.4845 442.958 98.6549 438.165L423.656 136.893C429.791 131.206 439.169 130.905 446.249 136.169L794.574 395.113C800.944 399.848 804.004 408.031 802.233 415.597L693.536 879.97C691.765 887.536 685.541 892.871 677.956 893.326L263.196 918.209C254.765 918.715 246.775 913.087 243.946 904.65L94.0771 457.722Z" stroke="url(#paint23_linear_551_9691)" stroke-width="3"/>
<path opacity="0.252525" d="M92.0339 452.461C89.7529 445.287 91.6675 437.644 96.9229 432.943L425.793 138.815C432.006 133.257 441.359 133.139 448.34 138.529L792.004 403.883C798.298 408.743 801.23 416.996 799.341 424.539L683.827 885.686C681.938 893.228 675.631 898.449 668.043 898.753L253.762 915.313C245.347 915.65 237.47 909.876 234.773 901.394L92.0339 452.461Z" stroke="url(#paint24_linear_551_9691)" stroke-width="3"/>
<path opacity="0.262626" d="M90.091 447.263C87.9142 440.026 89.9524 432.395 95.2922 427.789L427.911 140.866C434.201 135.44 443.525 135.502 450.404 141.016L789.319 412.674C795.536 417.657 798.339 425.979 796.331 433.497L674.067 891.284C672.059 898.801 665.67 903.907 658.082 904.058L244.405 912.324C236.009 912.492 228.249 906.575 225.685 898.051L90.091 447.263Z" stroke="url(#paint25_linear_551_9691)" stroke-width="3"/>
<path opacity="0.272727" d="M88.249 442.123C86.1773 434.824 88.3397 427.206 93.7635 422.695L430.012 143.038C436.375 137.746 445.666 137.988 452.44 143.621L786.523 421.477C792.66 426.581 795.332 434.97 793.205 442.461L664.259 896.756C662.132 904.247 655.664 909.236 648.078 909.236L235.129 909.236C226.756 909.236 219.115 903.18 216.684 894.617L88.249 442.123Z" stroke="url(#paint26_linear_551_9691)" stroke-width="3"/>
<path opacity="0.282828" d="M86.5075 437.059C84.5419 429.7 86.8293 422.095 92.3365 417.681L432.094 145.349C438.528 140.192 447.782 140.611 454.449 146.362L783.615 430.305C789.67 435.529 792.21 443.983 789.965 451.445L654.406 902.118C652.161 909.581 645.614 914.453 638.032 914.301L225.935 906.067C217.588 905.9 210.07 899.708 207.774 891.11L86.5075 437.059Z" stroke="url(#paint27_linear_551_9691)" stroke-width="3"/>
<path opacity="0.292929" d="M84.8626 432.058C83.004 424.638 85.417 417.049 91.0071 412.733L434.152 147.78C440.654 142.76 449.868 143.355 456.425 149.219L780.592 439.142C786.565 444.483 788.971 452.999 786.607 460.432L644.507 907.354C642.144 914.787 635.519 919.54 627.945 919.237L216.821 902.803C208.505 902.47 201.113 896.146 198.951 887.516L84.8626 432.058Z" stroke="url(#paint28_linear_551_9691)" stroke-width="3"/>
<path opacity="0.30303" d="M83.3132 427.127C81.5627 419.648 84.1021 412.075 89.7745 407.859L436.184 150.339C442.753 145.456 451.922 146.225 458.368 152.2L777.456 447.99C783.343 453.447 785.614 462.023 783.133 469.424L634.566 912.469C632.084 919.87 625.383 924.504 617.818 924.05L207.791 899.451C199.509 898.954 192.245 892.502 190.218 883.843L83.3132 427.127Z" stroke="url(#paint29_linear_551_9691)" stroke-width="3"/>
<path opacity="0.313131" d="M81.859 422.271C80.2175 414.734 82.8841 407.179 88.6381 403.063L438.191 153.026C444.822 148.282 453.944 149.224 460.276 155.305L774.207 456.85C780.007 462.421 782.142 471.055 779.542 478.423L624.584 917.466C621.984 924.833 615.209 929.346 607.655 928.742L198.845 896.018C190.6 895.358 183.467 888.781 181.576 880.096L81.859 422.271Z" stroke="url(#paint30_linear_551_9691)" stroke-width="3"/>
<path opacity="0.323232" d="M80.5 417.486C78.9687 409.893 81.7631 402.357 87.5982 398.343L440.171 155.835C446.863 151.233 455.933 152.345 462.149 158.53L770.847 465.715C776.558 471.398 778.556 480.088 775.837 487.42L614.566 922.338C611.847 929.671 604.999 934.062 597.46 933.307L189.988 892.498C181.783 891.677 174.784 884.98 173.028 876.272L80.5 417.486Z" stroke="url(#paint31_linear_551_9691)" stroke-width="3"/>
<path opacity="0.333333" d="M79.2318 412.778C77.8116 405.13 80.7347 397.615 86.6501 393.705L442.119 158.772C448.869 154.311 457.884 155.591 463.982 161.876L767.372 474.586C772.992 480.379 774.852 489.122 772.014 496.418L604.509 927.09C601.672 934.385 594.752 938.654 587.23 937.749L181.216 888.899C173.055 887.917 166.192 881.104 164.571 872.377L79.2318 412.778Z" stroke="url(#paint32_linear_551_9691)" stroke-width="3"/>
<path opacity="0.343434" d="M78.0553 408.145C76.7474 400.443 79.7998 392.95 85.7949 389.145L444.036 161.829C450.841 157.511 459.799 158.957 465.777 165.339L763.785 483.456C769.314 489.358 771.033 498.152 768.077 505.408L594.42 931.716C591.464 938.973 584.474 943.118 576.971 942.063L172.533 885.217C164.42 884.077 157.695 877.152 156.21 868.409L78.0553 408.145Z" stroke="url(#paint33_linear_551_9691)" stroke-width="3"/>
<path opacity="0.353535" d="M76.9664 403.592C75.7718 395.837 78.9544 388.367 85.0284 384.67L445.917 165.009C452.775 160.835 461.671 162.445 467.528 168.92L760.084 492.328C765.519 498.335 767.097 507.177 764.023 514.393L584.296 936.22C581.222 943.436 574.163 947.456 566.682 946.252L163.939 881.459C155.876 880.161 149.291 873.128 147.942 864.372L76.9664 403.592Z" stroke="url(#paint34_linear_551_9691)" stroke-width="3"/>
<path opacity="0.363636" d="M75.9675 399.117C74.8873 391.31 78.2009 383.865 84.3531 380.277L447.765 168.31C454.673 164.281 463.504 166.052 469.239 172.617L756.274 501.194C761.612 507.306 763.048 516.194 759.856 523.367L574.144 940.598C570.951 947.771 563.825 951.666 556.368 950.314L155.438 877.622C147.428 876.169 140.985 869.032 139.772 860.266L75.9675 399.117Z" stroke="url(#paint35_linear_551_9691)" stroke-width="3"/>
<path opacity="0.373737" d="M75.0532 394.726C74.0886 386.869 77.5339 379.452 83.7634 375.973L449.573 171.733C456.528 167.85 465.292 169.781 470.903 176.431L752.349 510.059C757.59 516.272 758.883 525.204 755.572 532.332L563.962 944.855C560.651 951.983 553.459 955.751 546.029 954.251L147.027 873.714C139.073 872.108 132.774 864.87 131.697 856.098L75.0532 394.726Z" stroke="url(#paint36_linear_551_9691)" stroke-width="3"/>
<path opacity="0.383838" d="M74.226 390.42C73.3781 382.514 76.9559 375.126 83.2618 371.76L451.344 175.279C458.344 171.542 467.038 173.629 472.523 180.363L748.315 518.917C753.458 525.23 754.606 534.203 751.177 541.285L553.756 948.988C550.327 956.07 543.071 959.71 535.669 958.063L138.711 869.735C130.816 867.978 124.663 860.644 123.721 851.869L74.226 390.42Z" stroke="url(#paint37_linear_551_9691)" stroke-width="3"/>
<path opacity="0.393939" d="M73.4786 386.197C72.7485 378.244 76.4595 370.886 82.8409 367.634L453.07 178.94C460.112 175.351 468.733 177.592 474.092 184.405L744.165 527.764C749.208 534.175 750.21 543.186 746.663 550.219L543.521 952.995C539.974 960.028 532.656 963.54 525.285 961.746L130.486 865.684C122.652 863.778 116.646 856.352 115.841 847.576L73.4786 386.197Z" stroke="url(#paint38_linear_551_9691)" stroke-width="3"/>
<path opacity="0.40404" d="M72.8156 382.059C72.2043 374.061 76.0493 366.736 82.5052 363.599L454.755 182.719C461.837 179.278 470.382 181.671 475.613 188.559L739.908 536.599C744.848 543.105 745.704 552.152 742.04 559.133L533.267 956.877C529.603 963.859 522.223 967.241 514.885 965.302L122.358 861.564C114.589 859.511 108.732 851.997 108.061 843.224L72.8156 382.059Z" stroke="url(#paint39_linear_551_9691)" stroke-width="3"/>
<path opacity="0.414141" d="M72.2329 378.01C71.7417 369.968 75.7213 362.677 82.2508 359.658L456.396 186.615C463.514 183.323 471.982 185.865 477.084 192.826L735.54 545.42C740.377 552.02 741.086 561.1 737.303 568.028L522.993 960.635C519.211 967.564 511.771 970.815 504.469 968.731L114.327 857.379C106.625 855.181 100.917 847.583 100.382 838.816L72.2329 378.01Z" stroke="url(#paint40_linear_551_9691)" stroke-width="3"/>
<path opacity="0.424242" d="M71.7295 374.054C71.3594 365.97 75.4743 358.716 82.0763 355.815L457.99 190.631C465.143 187.488 473.53 190.177 478.503 197.207L731.062 554.23C735.795 560.921 736.355 570.03 732.455 576.904L512.701 964.272C508.801 971.146 501.304 974.265 494.039 972.037L106.394 853.135C98.761 850.794 93.2039 843.116 92.8029 834.358L71.7295 374.054Z" stroke="url(#paint41_linear_551_9691)" stroke-width="3"/>
<path opacity="0.434343" d="M71.3014 370.183C71.0535 362.059 75.3045 354.844 81.9778 352.064L459.535 194.756C466.719 191.762 475.023 194.595 479.866 201.691L726.472 563.016C731.1 569.795 731.51 578.932 727.493 585.749L502.391 967.778C498.374 974.595 490.82 977.582 483.595 975.211L98.5571 848.823C90.9958 846.341 85.5904 838.588 85.3236 829.842L71.3014 370.183Z" stroke="url(#paint42_linear_551_9691)" stroke-width="3"/>
<path opacity="0.444444" d="M70.949 366.403C70.8245 358.24 75.212 351.067 81.9555 348.409L461.029 198.992C468.242 196.149 476.462 199.123 481.174 206.281L721.774 571.779C726.294 578.646 726.554 587.807 722.421 594.564L492.066 971.159C487.933 977.916 480.324 980.769 473.141 978.256L90.8192 844.451C83.3318 841.83 78.079 834.006 77.9459 825.274L70.949 366.403Z" stroke="url(#paint43_linear_551_9691)" stroke-width="3"/>
<path opacity="0.454545" d="M70.6709 362.722C70.6709 354.522 75.1957 347.393 82.008 344.859L462.472 203.347C469.712 200.654 477.845 203.767 482.425 210.984L716.968 580.526C721.379 587.477 721.488 596.66 717.239 603.355L481.73 974.42C477.48 981.116 469.817 983.835 462.679 981.18L83.1818 840.027C75.7706 837.271 70.6709 829.378 70.6709 820.664L70.6709 362.722Z" stroke="url(#paint44_linear_551_9691)" stroke-width="3"/>
<path opacity="0.464646" d="M70.4653 359.132C70.5908 350.898 75.2532 343.815 82.1332 341.407L463.862 207.81C471.125 205.268 479.17 208.517 483.618 215.79L712.053 589.246C716.355 596.279 716.312 605.48 711.947 612.111L471.383 977.555C467.017 984.186 459.303 986.769 452.211 983.974L75.645 835.546C68.312 832.655 63.3662 824.699 63.4988 816.006L70.4653 359.132Z" stroke="url(#paint45_linear_551_9691)" stroke-width="3"/>
<path opacity="0.474747" d="M70.3297 355.636C70.5819 347.369 75.3825 340.335 82.3286 338.055L465.196 212.38C472.481 209.989 480.435 213.372 484.751 220.697L707.031 597.936C711.222 605.049 711.027 614.265 706.546 620.83L461.027 980.562C456.546 987.127 448.781 989.574 441.739 986.639L68.2093 831.009C60.9564 827.987 56.1649 819.971 56.4294 811.301L70.3297 355.636Z" stroke="url(#paint46_linear_551_9691)" stroke-width="3"/>
<path opacity="0.484848" d="M70.2622 352.241C70.6421 343.944 75.5814 336.962 82.5922 334.811L466.473 217.064C473.776 214.824 481.638 218.337 485.821 225.712L701.901 606.602C705.98 613.792 705.631 623.021 701.035 629.517L450.664 983.449C446.068 989.946 438.254 992.255 431.263 989.183L60.8749 826.427C53.704 823.276 49.0671 815.203 49.4628 806.56L70.2622 352.241Z" stroke="url(#paint47_linear_551_9691)" stroke-width="3"/>
<path opacity="0.494949" d="M70.2629 348.936C70.7714 340.61 75.8497 333.682 82.9238 331.663L467.692 221.845C475.012 219.756 482.78 223.398 486.83 230.818L696.666 615.227C700.632 622.492 700.129 631.73 695.419 638.156L440.297 986.204C435.586 992.63 427.726 994.8 420.787 991.591L53.6441 821.787C46.5571 818.509 42.0749 810.384 42.6011 801.77L70.2629 348.936Z" stroke="url(#paint48_linear_551_9691)" stroke-width="3"/>
<path opacity="0.50505" d="M70.3289 345.741C70.9672 337.39 76.1847 330.519 83.3205 328.633L468.851 226.744C476.184 224.806 483.857 228.574 487.775 236.037L691.325 623.831C695.177 631.17 694.52 640.414 689.696 646.767L429.927 988.847C425.102 995.2 417.197 997.23 410.313 993.885L46.5167 817.113C39.5152 813.711 35.1879 805.538 35.8439 796.955L70.3289 345.741Z" stroke="url(#paint49_linear_551_9691)" stroke-width="3"/>
<path opacity="0.515152" d="M70.4585 342.636C71.2275 334.261 76.5846 327.45 83.7803 325.699L469.948 231.737C477.293 229.949 484.869 233.84 488.653 241.344L685.879 632.389C689.616 639.798 688.804 649.045 683.867 655.322L419.555 991.355C414.618 997.632 406.669 999.523 399.842 996.043L39.493 812.385C32.5787 808.861 28.4063 800.643 29.1912 792.094L70.4585 342.636Z" stroke="url(#paint50_linear_551_9691)" stroke-width="3"/>
<path opacity="0.525253" d="M70.6504 339.636C71.551 331.24 77.0478 324.492 84.3018 322.878L470.982 236.837C478.336 235.2 485.814 239.212 489.466 246.752L680.329 640.915C683.95 648.392 682.983 657.638 677.933 663.837L409.185 993.745C404.135 999.944 396.145 1001.69 389.377 998.08L32.5741 807.62C25.7484 803.977 21.7308 795.717 22.6439 787.205L70.6504 339.636Z" stroke="url(#paint51_linear_551_9691)" stroke-width="3"/>
<path opacity="0.535354" d="M70.9024 336.738C71.9355 328.324 77.5721 321.642 84.8825 320.166L471.951 242.038C479.312 240.552 486.691 244.682 490.209 252.256L674.676 649.401C678.18 656.943 677.058 666.186 671.896 672.305L398.818 996.012C393.656 1002.13 385.626 1003.74 378.919 999.992L25.7601 802.816C19.0246 799.055 15.1616 790.758 16.2018 782.285L70.9024 336.738Z" stroke="url(#paint52_linear_551_9691)" stroke-width="3"/>
<path opacity="0.545455" d="M71.2129 333.938C72.3794 325.507 78.1558 318.895 85.5208 317.559L472.854 247.333C480.219 245.998 487.498 250.243 490.883 257.849L668.921 657.839C672.306 665.445 671.028 674.681 665.756 680.717L388.455 998.151C383.183 1004.19 375.114 1005.65 368.47 1001.77L19.0516 797.969C12.4075 794.094 8.69883 785.762 9.86534 777.331L71.2129 333.938Z" stroke="url(#paint53_linear_551_9691)" stroke-width="3"/>
<path opacity="0.555556" d="M71.5804 331.247C72.8812 322.803 78.7972 316.263 86.2149 315.069L473.69 252.732C481.057 251.547 488.234 255.905 491.487 263.539L663.064 666.239C666.33 673.906 664.896 683.132 659.513 689.082L378.099 1000.17C372.716 1006.12 364.612 1007.44 358.032 1003.44L12.4491 793.093C5.89767 789.106 2.34302 780.742 3.63485 772.356L71.5804 331.247Z" stroke="url(#paint54_linear_551_9691)" stroke-width="3"/>
<path opacity="0.565657" d="M72.0039 328.659C73.4396 320.203 79.495 313.739 86.9634 312.69L474.457 258.225C481.823 257.19 488.898 261.659 492.019 269.319L657.107 674.592C660.254 682.317 658.664 691.53 653.172 697.392L367.752 1002.07C362.26 1007.93 354.121 1009.11 347.609 1004.97L5.95386 788.183C-0.503692 784.085 -3.90477 775.695 -2.48861 767.355L72.0039 328.659Z" stroke="url(#paint55_linear_551_9691)" stroke-width="3"/>
<path opacity="0.575758" d="M72.4804 326.178C74.0518 317.715 80.2465 311.33 87.7634 310.426L475.153 263.817C482.517 262.931 489.489 267.508 492.477 275.191L651.05 682.9C654.077 690.681 652.33 699.877 646.73 705.649L357.415 1003.85C351.815 1009.62 343.644 1010.65 337.2 1006.39L-0.435044 783.246C-6.79758 779.04 -10.0456 770.625 -8.50611 762.334L72.4804 326.178Z" stroke="url(#paint56_linear_551_9691)" stroke-width="3"/>
<path opacity="0.585859" d="M73.008 323.8C74.7158 315.332 81.0492 309.03 88.6125 308.272L475.777 269.497C483.136 268.76 490.004 273.444 492.86 281.147L644.894 691.155C647.799 698.99 645.897 708.165 640.189 713.844L347.09 1005.51C341.382 1011.19 333.181 1012.07 326.807 1007.68L-6.71746 778.277C-12.984 773.966 -16.0796 765.53 -14.4178 757.29L73.008 323.8Z" stroke="url(#paint57_linear_551_9691)" stroke-width="3"/>
<path opacity="0.59596" d="M73.5864 321.526C75.4312 313.056 81.9029 306.839 89.5103 306.23L476.329 275.266C483.681 274.678 490.443 279.465 493.169 287.186L638.641 699.354C641.424 707.241 639.366 716.392 633.552 721.976L336.779 1007.04C330.965 1012.62 322.735 1013.36 316.434 1008.85L-12.8917 773.279C-19.0612 768.866 -22.005 760.411 -20.222 752.225L73.5864 321.526Z" stroke="url(#paint58_linear_551_9691)" stroke-width="3"/>
<path opacity="0.606061" d="M74.2134 319.366C76.1959 310.896 82.8052 304.769 90.4543 304.31L476.806 281.132C484.149 280.692 490.806 285.58 493.401 293.317L632.292 707.508C634.953 715.443 632.738 724.566 626.82 730.053L326.484 1008.46C320.566 1013.95 312.309 1014.53 306.082 1009.9L-18.9577 768.265C-25.0294 763.752 -27.8221 755.281 -25.919 747.151L74.2134 319.366Z" stroke="url(#paint59_linear_551_9691)" stroke-width="3"/>
<path opacity="0.616162" d="M74.8853 317.314C77.0059 308.848 83.752 302.815 91.4406 302.507L477.207 287.086C484.538 286.793 491.089 291.78 493.553 299.531L625.845 715.606C628.383 723.587 626.013 732.68 619.991 738.066L316.205 1009.76C310.183 1015.15 301.902 1015.58 295.751 1010.83L-24.9177 763.231C-30.8907 758.619 -33.533 750.136 -31.511 742.064L74.8853 317.314Z" stroke="url(#paint60_linear_551_9691)" stroke-width="3"/>
<path opacity="0.626263" d="M75.6029 315.367C77.8619 306.909 84.7441 300.972 92.4695 300.818L477.531 293.124C484.848 292.977 491.293 298.061 493.627 305.822L619.305 723.643C621.719 731.669 619.194 740.728 613.069 746.01L305.946 1010.94C299.822 1016.22 291.519 1016.5 285.445 1011.64L-30.7687 758.175C-36.6422 753.467 -39.1351 744.974 -36.9953 736.962L75.6029 315.367Z" stroke="url(#paint61_linear_551_9691)" stroke-width="3"/>
<path opacity="0.636364" d="M76.3627 313.524C78.7606 305.075 85.7778 299.239 93.5376 299.239L93.5931 297.651L93.5376 299.239L477.776 299.239C485.078 299.239 491.415 304.418 493.62 312.187L612.671 731.616C614.961 739.683 612.28 748.704 606.055 753.881L295.708 1012C289.483 1017.17 281.16 1017.3 275.165 1012.32L-36.5123 753.097C-42.2857 748.295 -44.63 739.795 -42.3735 731.845L76.3627 313.524L75.0257 313.093L76.3627 313.524Z" stroke="url(#paint62_linear_551_9691)" stroke-width="3"/>
<path opacity="0.646465" d="M77.1634 311.798C79.7005 303.363 86.8515 297.631 94.643 297.787L477.941 305.446C485.226 305.591 491.456 310.863 493.532 318.638L605.944 739.535C608.109 747.641 605.274 756.621 598.95 761.69L285.492 1012.94C279.167 1018.01 270.826 1017.99 264.913 1012.89L-42.1482 748.013C-47.8209 743.119 -50.0173 734.615 -47.6454 726.73L77.1634 311.798Z" stroke="url(#paint63_linear_551_9691)" stroke-width="3"/>
<path opacity="0.656566" d="M78.0046 310.182C80.681 301.765 87.9646 296.141 95.7851 296.453L478.027 311.734C485.292 312.024 491.414 317.386 493.363 325.166L599.127 747.393C601.166 755.535 598.178 764.47 591.756 769.429L275.301 1013.77C268.879 1018.73 260.522 1018.56 254.691 1013.34L-47.6749 742.917C-53.2462 737.934 -55.2959 729.429 -52.8096 721.609L78.0046 310.182Z" stroke="url(#paint64_linear_551_9691)" stroke-width="3"/>
<path opacity="0.666667" d="M78.8838 308.673C81.6997 300.275 89.1144 294.763 96.9613 295.234L478.032 318.095C485.275 318.53 491.288 323.98 493.11 331.762L592.22 755.18C594.134 763.357 590.992 772.244 584.474 777.089L265.136 1014.48C258.618 1019.33 250.248 1019 244.501 1013.67L-53.0931 737.808C-58.5626 732.738 -60.4664 724.233 -57.8671 716.481L78.8838 308.673Z" stroke="url(#paint65_linear_551_9691)" stroke-width="3"/>
<path opacity="0.676768" d="M79.7985 307.277C82.7539 298.903 90.2981 293.507 98.1684 294.137L477.953 324.538C485.173 325.116 491.077 330.652 492.772 338.434L585.224 762.905C587.012 771.114 583.717 779.949 577.105 784.679L254.999 1015.08C248.386 1019.81 240.006 1019.33 234.344 1013.89L-58.4039 732.695C-63.7709 727.539 -65.53 719.037 -62.8188 711.356L79.7985 307.277Z" stroke="url(#paint66_linear_551_9691)" stroke-width="3"/>
<path opacity="0.686869" d="M80.7473 305.99C83.8423 297.644 91.5143 292.367 99.4051 293.157L477.791 331.052C484.985 331.773 490.78 337.394 492.349 345.175L578.14 770.559C579.802 778.797 576.356 787.577 569.65 792.189L244.891 1015.57C238.186 1020.18 229.796 1019.54 224.222 1013.99L-63.6066 727.574C-68.8709 722.336 -70.4862 713.839 -67.6644 706.229L80.7473 305.99Z" stroke="url(#paint67_linear_551_9691)" stroke-width="3"/>
<path opacity="0.69697" d="M81.729 304.817C84.9633 296.501 92.7613 291.347 100.67 292.299L477.543 337.643C484.71 338.505 490.396 344.21 491.84 351.986L570.971 778.147C572.505 786.411 568.909 795.132 562.113 799.623L234.814 1015.94C228.019 1020.43 219.623 1019.64 214.138 1013.98L-68.7011 722.454C-73.8623 717.134 -75.3348 708.645 -72.4037 701.109L81.729 304.817Z" stroke="url(#paint68_linear_551_9691)" stroke-width="3"/>
<path opacity="0.707071" d="M82.7401 303.757C86.1136 295.475 94.0355 290.448 101.958 291.562L477.209 344.305C484.347 345.309 489.923 351.094 491.243 358.865L563.715 785.663C565.122 793.952 561.376 802.61 554.491 806.979L224.769 1016.2C217.884 1020.57 209.485 1019.62 204.09 1013.86L-73.6894 717.334C-78.7471 711.935 -80.0779 703.456 -77.0387 695.995L82.7401 303.757Z" stroke="url(#paint69_linear_551_9691)" stroke-width="3"/>
<path opacity="0.717172" d="M83.7797 302.801C87.292 294.558 95.3357 289.662 103.27 290.938L476.787 351.03C483.894 352.174 489.361 358.038 490.557 365.802L556.375 793.1C557.655 801.411 553.76 810.003 546.789 814.246L214.757 1016.34C207.786 1020.58 199.385 1019.48 194.082 1013.61L-78.5705 712.209C-83.5244 706.733 -84.7147 698.266 -81.5686 690.882L83.7797 302.801Z" stroke="url(#paint70_linear_551_9691)" stroke-width="3"/>
<path opacity="0.727273" d="M84.8481 301.971C88.4988 293.769 96.6618 289.008 104.604 290.448L476.279 357.835C483.354 359.118 488.71 365.06 489.783 372.815L548.954 800.475C550.107 808.805 546.064 817.328 539.008 821.444L204.783 1016.39C197.727 1020.5 189.328 1019.24 184.118 1013.27L-83.3431 707.102C-88.193 701.55 -89.2438 693.097 -85.9922 685.791L84.8481 301.971Z" stroke="url(#paint71_linear_551_9691)" stroke-width="3"/>
<path opacity="0.737374" d="M85.9424 301.245C89.731 293.089 98.0109 288.466 105.958 290.07L475.683 364.698C482.723 366.119 487.97 372.137 488.92 379.881L541.452 807.766C542.477 816.114 538.289 824.563 531.151 828.549L194.846 1016.32C187.708 1020.3 179.313 1018.88 174.197 1012.81L-88.0084 701.993C-92.754 696.368 -93.6665 687.93 -90.3105 680.705L85.9424 301.245Z" stroke="url(#paint72_linear_551_9691)" stroke-width="3"/>
<path opacity="0.747475" d="M87.0593 300.635C90.9853 292.528 99.3794 288.047 107.329 289.816L474.996 371.627C482 373.185 487.136 379.277 487.966 387.009L533.87 814.982C534.767 823.345 530.434 831.718 523.216 835.571L184.947 1016.14C177.729 1019.99 169.34 1018.41 164.32 1012.25L-92.5683 696.897C-97.2095 691.199 -97.9847 682.779 -94.5257 675.636L87.0593 300.635Z" stroke="url(#paint73_linear_551_9691)" stroke-width="3"/>
<path opacity="0.757576" d="M88.1979 300.138C92.2605 292.083 100.766 287.748 108.714 289.682L474.218 378.617C481.184 380.312 486.211 386.477 486.919 394.195L526.209 822.119C526.978 830.494 522.502 838.788 515.206 842.507L175.088 1015.85C167.792 1019.57 159.412 1017.83 154.49 1011.57L-97.0226 691.811C-101.559 686.044 -102.198 677.642 -98.6373 670.582L88.1979 300.138Z" stroke="url(#paint74_linear_551_9691)" stroke-width="3"/>
<path opacity="0.767677" d="M89.3587 299.748C93.5571 291.749 102.171 287.563 110.114 289.663L473.352 385.66C480.278 387.49 485.194 393.727 485.783 401.43L518.474 829.17C519.114 837.555 514.496 845.765 507.125 849.347L165.273 1015.46C157.901 1019.04 149.534 1017.14 144.71 1010.79L-101.369 686.733C-105.801 680.897 -106.305 672.517 -102.644 665.541L89.3587 299.748Z" stroke="url(#paint75_linear_551_9691)" stroke-width="3"/>
<path opacity="0.777778" d="M90.5369 299.483C94.8702 291.544 103.589 287.512 111.524 289.776L472.392 392.773C479.277 394.738 484.082 401.044 484.552 408.731L510.661 836.151C511.174 844.543 506.416 852.668 498.971 856.111L155.5 1014.97C148.055 1018.41 139.702 1016.35 134.979 1009.9L-105.612 681.682C-109.939 675.78 -110.309 667.422 -106.548 660.533L90.5369 299.483Z" stroke="url(#paint76_linear_551_9691)" stroke-width="3"/>
<path opacity="0.787879" d="M91.7316 299.324C96.1988 291.45 105.02 287.574 112.942 290.004L471.338 399.935C478.181 402.033 482.876 408.408 483.227 416.077L502.774 843.043C503.159 851.44 498.262 859.475 490.748 862.777L145.771 1014.37C138.256 1017.67 129.921 1015.45 125.298 1008.91L-109.75 676.644C-113.972 670.676 -114.209 662.342 -110.351 655.541L91.7316 299.324Z" stroke="url(#paint77_linear_551_9691)" stroke-width="3"/>
<path opacity="0.79798" d="M92.9416 299.277C97.5416 291.47 106.461 287.754 114.368 290.35L114.883 288.875L114.368 290.35L470.192 407.148C476.991 409.379 481.575 415.821 481.808 423.471L494.815 849.848C495.071 858.248 490.038 866.189 482.456 869.348L136.088 1013.66C128.506 1016.82 120.191 1014.44 115.671 1007.82L-113.784 671.623C-117.901 665.591 -118.006 657.284 -114.051 650.571L92.9416 299.277L91.719 298.526L92.9416 299.277Z" stroke="url(#paint78_linear_551_9691)" stroke-width="3"/>
<path opacity="0.808081" d="M94.1656 299.346C98.8971 291.611 107.911 288.058 115.8 290.819L468.952 414.415C475.705 416.778 480.179 423.286 480.295 430.915L486.785 856.57C486.913 864.97 481.746 872.816 474.099 875.83L126.453 1012.86C118.807 1015.87 110.515 1013.33 106.098 1006.62L-117.714 666.628C-121.725 660.534 -121.7 652.253 -117.65 645.631L94.1656 299.346Z" stroke="url(#paint79_linear_551_9691)" stroke-width="3"/>
<path opacity="0.818182" d="M95.4009 299.526C100.263 291.866 109.367 288.48 117.234 291.406L467.617 421.73C474.323 424.224 478.686 430.796 478.686 438.403L478.686 863.204C478.686 871.602 473.385 879.348 465.677 882.215L116.867 1011.95C109.159 1014.82 100.893 1012.12 96.5811 1005.33L-121.541 661.655C-125.448 655.5 -125.293 647.248 -121.148 640.718L95.4009 299.526Z" stroke="url(#paint80_linear_551_9691)" stroke-width="3"/>
<path opacity="0.828283" d="M96.6463 299.825C101.637 292.244 110.828 289.027 118.669 292.117L466.187 429.096C472.844 431.72 477.096 438.355 476.981 445.94L470.518 869.754C470.39 878.147 464.959 885.791 457.192 888.509L107.331 1010.95C99.5639 1013.67 91.3277 1010.81 87.1214 1003.94L-125.266 656.714C-129.067 650.5 -128.784 642.278 -124.546 635.841L96.6463 299.825Z" stroke="url(#paint81_linear_551_9691)" stroke-width="3"/>
<path opacity="0.838384" d="M97.9013 300.228C103.019 292.73 112.293 289.685 120.104 292.94L464.662 436.499C471.27 439.252 475.411 445.949 475.18 453.51L462.285 876.207C462.029 884.593 456.47 892.131 448.647 894.699L97.8482 1009.85C90.0248 1012.42 81.8207 1009.4 77.7215 1002.44L-128.889 651.793C-132.584 645.522 -132.173 637.33 -127.844 630.987L97.9013 300.228Z" stroke="url(#paint82_linear_551_9691)" stroke-width="3"/>
<path opacity="0.848485" d="M99.1612 300.749C104.404 293.337 113.757 290.469 121.535 293.886L463.04 443.951C469.596 446.831 473.625 453.589 473.28 461.125L453.986 882.574C453.602 890.951 447.917 898.38 440.04 900.796L88.4164 1008.65C80.54 1011.07 72.371 1007.89 68.3799 1000.85L-132.412 646.909C-136.002 640.58 -135.464 632.421 -131.045 626.174L99.1612 300.749Z" stroke="url(#paint83_linear_551_9691)" stroke-width="3"/>
<path opacity="0.858586" d="M100.427 301.386C105.794 294.064 115.221 291.374 122.963 294.954L461.321 451.445C467.824 454.453 471.743 461.271 471.284 468.78L445.624 888.852C445.113 897.218 439.303 904.535 431.377 906.798L79.04 1007.36C71.1137 1009.62 62.983 1006.28 59.101 999.171L-135.834 642.06C-139.318 635.676 -138.655 627.55 -134.146 621.4L100.427 301.386Z" stroke="url(#paint84_linear_551_9691)" stroke-width="3"/>
<path opacity="0.868687" d="M101.697 302.132C107.185 294.905 116.683 292.395 124.384 296.137L459.506 458.976C465.955 462.109 469.762 468.986 469.19 476.468L437.2 895.035C436.562 903.386 430.631 910.59 422.658 912.697L69.7192 1005.97C61.7462 1008.08 53.6568 1004.58 49.885 997.395L-139.156 637.243C-142.535 630.805 -141.747 622.714 -137.151 616.662L101.697 302.132Z" stroke="url(#paint85_linear_551_9691)" stroke-width="3"/>
<path opacity="0.878788" d="M102.969 302.987C108.577 295.857 118.14 293.53 125.797 297.433L457.594 466.539C463.987 469.797 467.683 476.732 466.999 484.185L428.718 901.119C427.952 909.454 421.902 916.54 413.886 918.491L60.4562 1004.49C52.4397 1006.44 44.3947 1002.78 40.7341 995.523L-142.379 632.459C-145.653 625.968 -144.74 617.913 -140.058 611.959L102.969 302.987Z" stroke="url(#paint86_linear_551_9691)" stroke-width="3"/>
<path opacity="0.888889" d="M104.239 303.96C109.965 296.93 119.588 294.789 127.198 298.851L455.582 474.142C461.919 477.524 465.503 484.515 464.706 491.939L420.174 907.115C419.282 915.431 413.116 922.397 405.059 924.19L51.2492 1002.92C43.1924 1004.71 35.195 1000.9 31.6465 993.567L-145.507 627.72C-148.674 621.178 -147.639 613.159 -142.871 607.306L104.239 303.96Z" stroke="url(#paint87_linear_551_9691)" stroke-width="3"/>
<path opacity="0.89899" d="M105.509 305.041C111.35 298.116 121.029 296.163 128.587 300.383L453.473 481.774C459.751 485.279 463.223 492.326 462.316 499.72L411.575 913.011C410.557 921.306 404.276 928.15 396.182 929.784L42.1024 1001.25C34.0088 1002.89 26.0619 998.915 22.6266 991.519L-148.536 623.018C-151.598 616.426 -150.441 608.444 -145.589 602.693L105.509 305.041Z" stroke="url(#paint88_linear_551_9691)" stroke-width="3"/>
<path opacity="0.909091" d="M106.776 306.24C112.731 299.423 122.46 297.659 129.964 302.036L451.266 489.442C457.485 493.069 460.845 500.171 459.826 507.533L402.922 918.816C401.777 927.088 395.385 933.807 387.258 935.28L33.0173 999.507C24.8901 1000.98 16.9971 996.852 13.6757 989.389L-151.469 618.365C-154.425 611.724 -153.146 603.781 -148.211 598.131L106.776 306.24Z" stroke="url(#paint89_linear_551_9691)" stroke-width="3"/>
<path opacity="0.919192" d="M108.037 307.543C114.103 300.837 123.878 299.265 131.323 303.796L448.96 497.131C455.118 500.879 458.366 508.034 457.237 515.365L394.213 924.517C392.943 932.763 386.442 939.354 378.285 940.666L23.993 997.665C15.8357 998.978 7.99962 994.693 4.79314 987.167L-154.308 613.751C-157.158 607.061 -155.759 599.157 -150.742 593.612L108.037 307.543Z" stroke="url(#paint90_linear_551_9691)" stroke-width="3"/>
<path opacity="0.929293" d="M109.293 308.959C115.467 302.368 125.282 300.989 132.665 305.674L446.555 504.848C452.65 508.715 455.786 515.924 454.547 523.221L385.454 930.121C384.058 938.339 377.451 944.8 369.267 945.95L15.0318 995.74C6.84778 996.89 -0.928139 992.451 -4.01886 984.864L-157.052 609.185C-159.796 602.448 -158.277 594.585 -153.18 589.144L109.293 308.959Z" stroke="url(#paint91_linear_551_9691)" stroke-width="3"/>
<path opacity="0.939394" d="M110.539 310.489C116.819 304.016 126.669 302.831 133.987 307.668L444.05 512.591C450.082 516.578 453.105 523.839 451.756 531.102L376.643 935.629C375.122 943.817 368.413 950.145 360.205 951.133L6.13375 993.733C-2.07345 994.721 -9.78605 990.127 -12.7602 982.481L-159.705 604.671C-162.343 597.887 -160.705 590.066 -155.528 584.73L110.539 310.489Z" stroke="url(#paint92_linear_551_9691)" stroke-width="3"/>
<path opacity="0.949495" d="M111.778 312.133C118.162 305.781 128.041 304.791 135.291 309.778L441.448 520.36C447.416 524.465 450.326 531.777 448.868 539.005L367.786 941.04C366.141 949.195 359.331 955.389 351.104 956.213L-2.69631 991.647C-10.9232 992.47 -18.5694 987.724 -21.4261 980.02L-162.262 600.21C-164.794 593.382 -163.038 585.602 -157.784 580.374L111.778 312.133Z" stroke="url(#paint93_linear_551_9691)" stroke-width="3"/>
<path opacity="0.959596" d="M113.004 313.877C119.488 307.65 129.392 306.857 136.569 311.991L438.745 528.139C444.647 532.361 447.443 539.723 445.877 546.916L358.88 946.341C357.111 954.461 350.204 960.519 341.961 961.179L-11.4623 989.469C-19.7053 990.129 -27.2818 985.231 -30.0203 977.472L-164.732 595.793C-167.157 588.921 -165.283 581.184 -159.952 576.063L113.004 313.877Z" stroke="url(#paint94_linear_551_9691)" stroke-width="3"/>
<path opacity="0.969697" d="M114.217 315.736C120.799 309.636 130.722 309.04 137.824 314.32L435.943 535.941C441.777 540.278 444.46 547.69 442.785 554.846L349.929 951.546C348.037 959.628 341.036 965.547 332.78 966.042L-20.1603 987.216C-28.4158 987.712 -35.9196 982.663 -38.5392 974.851L-167.111 591.435C-169.43 584.519 -167.438 576.827 -162.032 571.815L114.217 315.736Z" stroke="url(#paint95_linear_551_9691)" stroke-width="3"/>
<path opacity="0.979798" d="M115.416 317.704C122.092 311.734 132.029 311.337 139.052 316.76L433.041 543.758C438.807 548.21 441.376 555.671 439.593 562.789L340.935 956.648C338.92 964.691 331.827 970.469 323.562 970.8L-28.7898 984.885C-37.0544 985.215 -44.4822 980.018 -46.9822 972.155L-169.401 587.133C-171.613 580.175 -169.505 572.527 -164.024 567.625L115.416 317.704Z" stroke="url(#paint96_linear_551_9691)" stroke-width="3"/>
<path opacity="0.989899" d="M116.599 319.78C123.366 313.942 133.311 313.744 140.253 319.307L430.04 551.586C435.737 556.153 438.191 563.662 436.301 570.741L331.899 961.646C329.762 969.648 322.581 975.283 314.311 975.448L-37.3494 982.475C-45.6194 982.64 -52.9682 977.295 -55.3478 969.384L-171.603 582.888C-173.709 575.888 -171.485 568.286 -165.931 563.495L116.599 319.78Z" stroke="url(#paint97_linear_551_9691)" stroke-width="3"/>
<path d="M117.764 321.96C124.62 316.258 134.568 316.258 141.423 321.96L426.94 559.423C432.566 564.102 434.905 571.658 432.907 578.698L322.823 966.537C320.565 974.495 313.298 979.986 305.026 979.986H-45.8388C-54.1105 979.986 -61.3771 974.495 -63.6357 966.537L-173.72 578.698C-175.718 571.658 -173.379 564.102 -167.752 559.423L117.764 321.96Z" stroke="url(#paint98_linear_551_9691)" stroke-width="3"/>
</g>
<defs>
<linearGradient id="paint0_linear_551_9691" x1="586.051" y1="780.625" x2="500.923" y2="251.493" gradientUnits="userSpaceOnUse">
<stop stop-color="#FF1CF7"/>
<stop offset="1" stop-color="#00F0FF"/>
</linearGradient>
<linearGradient id="paint1_linear_551_9691" x1="577.692" y1="782.413" x2="503.181" y2="252.293" gradientUnits="userSpaceOnUse">
<stop stop-color="#FF1CF7"/>
<stop offset="1" stop-color="#00F0FF"/>
</linearGradient>
<linearGradient id="paint2_linear_551_9691" x1="569.339" y1="784.114" x2="505.469" y2="253.266" gradientUnits="userSpaceOnUse">
<stop stop-color="#FF1CF7"/>
<stop offset="1" stop-color="#00F0FF"/>
</linearGradient>
<linearGradient id="paint3_linear_551_9691" x1="560.992" y1="785.745" x2="507.78" y2="254.431" gradientUnits="userSpaceOnUse">
<stop stop-color="#FF1CF7"/>
<stop offset="1" stop-color="#00F0FF"/>
</linearGradient>
<linearGradient id="paint4_linear_551_9691" x1="552.655" y1="787.29" x2="510.108" y2="255.772" gradientUnits="userSpaceOnUse">
<stop stop-color="#FF1CF7"/>
<stop offset="1" stop-color="#00F0FF"/>
</linearGradient>
<linearGradient id="paint5_linear_551_9691" x1="494.326" y1="788.755" x2="462.443" y2="257.297" gradientUnits="userSpaceOnUse">
<stop stop-color="#FF1CF7"/>
<stop offset="1" stop-color="#00F0FF"/>
</linearGradient>
<linearGradient id="paint6_linear_551_9691" x1="486.009" y1="790.134" x2="464.777" y2="259" gradientUnits="userSpaceOnUse">
<stop stop-color="#FF1CF7"/>
<stop offset="1" stop-color="#00F0FF"/>
</linearGradient>
<linearGradient id="paint7_linear_551_9691" x1="477.703" y1="791.442" x2="467.102" y2="260.895" gradientUnits="userSpaceOnUse">
<stop stop-color="#FF1CF7"/>
<stop offset="1" stop-color="#00F0FF"/>
</linearGradient>
<linearGradient id="paint8_linear_551_9691" x1="469.41" y1="792.667" x2="469.41" y2="262.971" gradientUnits="userSpaceOnUse">
<stop stop-color="#FF1CF7"/>
<stop offset="1" stop-color="#00F0FF"/>
</linearGradient>
<linearGradient id="paint9_linear_551_9691" x1="461.132" y1="793.807" x2="471.693" y2="265.222" gradientUnits="userSpaceOnUse">
<stop stop-color="#FF1CF7"/>
<stop offset="1" stop-color="#00F0FF"/>
</linearGradient>
<linearGradient id="paint10_linear_551_9691" x1="502.869" y1="794.877" x2="523.945" y2="267.663" gradientUnits="userSpaceOnUse">
<stop stop-color="#FF1CF7"/>
<stop offset="1" stop-color="#00F0FF"/>
</linearGradient>
<linearGradient id="paint11_linear_551_9691" x1="494.624" y1="795.864" x2="526.155" y2="270.279" gradientUnits="userSpaceOnUse">
<stop stop-color="#FF1CF7"/>
<stop offset="1" stop-color="#00F0FF"/>
</linearGradient>
<linearGradient id="paint12_linear_551_9691" x1="486.397" y1="796.771" x2="528.318" y2="273.07" gradientUnits="userSpaceOnUse">
<stop stop-color="#FF1CF7"/>
<stop offset="1" stop-color="#00F0FF"/>
</linearGradient>
<linearGradient id="paint13_linear_551_9691" x1="478.188" y1="797.607" x2="530.423" y2="276.041" gradientUnits="userSpaceOnUse">
<stop stop-color="#FF1CF7"/>
<stop offset="1" stop-color="#00F0FF"/>
</linearGradient>
<linearGradient id="paint14_linear_551_9691" x1="470.001" y1="798.36" x2="532.467" y2="279.18" gradientUnits="userSpaceOnUse">
<stop stop-color="#FF1CF7"/>
<stop offset="1" stop-color="#00F0FF"/>
</linearGradient>
<linearGradient id="paint15_linear_551_9691" x1="461.834" y1="799.043" x2="534.438" y2="282.491" gradientUnits="userSpaceOnUse">
<stop stop-color="#FF1CF7"/>
<stop offset="1" stop-color="#00F0FF"/>
</linearGradient>
<linearGradient id="paint16_linear_551_9691" x1="453.69" y1="799.642" x2="536.332" y2="285.96" gradientUnits="userSpaceOnUse">
<stop stop-color="#FF1CF7"/>
<stop offset="1" stop-color="#00F0FF"/>
</linearGradient>
<linearGradient id="paint17_linear_551_9691" x1="445.57" y1="800.172" x2="538.142" y2="289.595" gradientUnits="userSpaceOnUse">
<stop stop-color="#FF1CF7"/>
<stop offset="1" stop-color="#00F0FF"/>
</linearGradient>
<linearGradient id="paint18_linear_551_9691" x1="437.474" y1="800.631" x2="539.859" y2="293.389" gradientUnits="userSpaceOnUse">
<stop stop-color="#FF1CF7"/>
<stop offset="1" stop-color="#00F0FF"/>
</linearGradient>
<linearGradient id="paint19_linear_551_9691" x1="429.405" y1="801.011" x2="541.481" y2="297.33" gradientUnits="userSpaceOnUse">
<stop stop-color="#FF1CF7"/>
<stop offset="1" stop-color="#00F0FF"/>
</linearGradient>
<linearGradient id="paint20_linear_551_9691" x1="421.363" y1="801.318" x2="542.999" y2="301.418" gradientUnits="userSpaceOnUse">
<stop stop-color="#FF1CF7"/>
<stop offset="1" stop-color="#00F0FF"/>
</linearGradient>
<linearGradient id="paint21_linear_551_9691" x1="413.349" y1="801.551" x2="544.408" y2="305.645" gradientUnits="userSpaceOnUse">
<stop stop-color="#FF1CF7"/>
<stop offset="1" stop-color="#00F0FF"/>
</linearGradient>
<linearGradient id="paint22_linear_551_9691" x1="405.364" y1="801.721" x2="545.703" y2="310.016" gradientUnits="userSpaceOnUse">
<stop stop-color="#FF1CF7"/>
<stop offset="1" stop-color="#00F0FF"/>
</linearGradient>
<linearGradient id="paint23_linear_551_9691" x1="397.411" y1="801.812" x2="546.881" y2="314.509" gradientUnits="userSpaceOnUse">
<stop stop-color="#FF1CF7"/>
<stop offset="1" stop-color="#00F0FF"/>
</linearGradient>
<linearGradient id="paint24_linear_551_9691" x1="389.488" y1="801.836" x2="547.934" y2="319.129" gradientUnits="userSpaceOnUse">
<stop stop-color="#FF1CF7"/>
<stop offset="1" stop-color="#00F0FF"/>
</linearGradient>
<linearGradient id="paint25_linear_551_9691" x1="381.596" y1="801.791" x2="548.859" y2="323.867" gradientUnits="userSpaceOnUse">
<stop stop-color="#FF1CF7"/>
<stop offset="1" stop-color="#00F0FF"/>
</linearGradient>
<linearGradient id="paint26_linear_551_9691" x1="373.739" y1="801.67" x2="549.654" y2="328.71" gradientUnits="userSpaceOnUse">
<stop stop-color="#FF1CF7"/>
<stop offset="1" stop-color="#00F0FF"/>
</linearGradient>
<linearGradient id="paint27_linear_551_9691" x1="365.917" y1="801.492" x2="550.316" y2="333.669" gradientUnits="userSpaceOnUse">
<stop stop-color="#FF1CF7"/>
<stop offset="1" stop-color="#00F0FF"/>
</linearGradient>
<linearGradient id="paint28_linear_551_9691" x1="358.129" y1="801.241" x2="550.838" y2="338.719" gradientUnits="userSpaceOnUse">
<stop stop-color="#FF1CF7"/>
<stop offset="1" stop-color="#00F0FF"/>
</linearGradient>
<linearGradient id="paint29_linear_551_9691" x1="350.378" y1="800.925" x2="551.221" y2="343.862" gradientUnits="userSpaceOnUse">
<stop stop-color="#FF1CF7"/>
<stop offset="1" stop-color="#00F0FF"/>
</linearGradient>
<linearGradient id="paint30_linear_551_9691" x1="342.663" y1="800.546" x2="551.461" y2="349.094" gradientUnits="userSpaceOnUse">
<stop stop-color="#FF1CF7"/>
<stop offset="1" stop-color="#00F0FF"/>
</linearGradient>
<linearGradient id="paint31_linear_551_9691" x1="334.989" y1="800.101" x2="551.558" y2="354.402" gradientUnits="userSpaceOnUse">
<stop stop-color="#FF1CF7"/>
<stop offset="1" stop-color="#00F0FF"/>
</linearGradient>
<linearGradient id="paint32_linear_551_9691" x1="327.352" y1="799.594" x2="551.509" y2="359.784" gradientUnits="userSpaceOnUse">
<stop stop-color="#FF1CF7"/>
<stop offset="1" stop-color="#00F0FF"/>
</linearGradient>
<linearGradient id="paint33_linear_551_9691" x1="319.756" y1="799.023" x2="551.314" y2="365.23" gradientUnits="userSpaceOnUse">
<stop stop-color="#FF1CF7"/>
<stop offset="1" stop-color="#00F0FF"/>
</linearGradient>
<linearGradient id="paint34_linear_551_9691" x1="312.2" y1="798.39" x2="550.97" y2="370.735" gradientUnits="userSpaceOnUse">
<stop stop-color="#FF1CF7"/>
<stop offset="1" stop-color="#00F0FF"/>
</linearGradient>
<linearGradient id="paint35_linear_551_9691" x1="304.687" y1="797.696" x2="550.48" y2="376.291" gradientUnits="userSpaceOnUse">
<stop stop-color="#FF1CF7"/>
<stop offset="1" stop-color="#00F0FF"/>
</linearGradient>
<linearGradient id="paint36_linear_551_9691" x1="297.216" y1="796.944" x2="549.841" y2="381.896" gradientUnits="userSpaceOnUse">
<stop stop-color="#FF1CF7"/>
<stop offset="1" stop-color="#00F0FF"/>
</linearGradient>
<linearGradient id="paint37_linear_551_9691" x1="289.79" y1="796.135" x2="549.056" y2="387.543" gradientUnits="userSpaceOnUse">
<stop stop-color="#FF1CF7"/>
<stop offset="1" stop-color="#00F0FF"/>
</linearGradient>
<linearGradient id="paint38_linear_551_9691" x1="282.405" y1="795.267" x2="548.122" y2="393.221" gradientUnits="userSpaceOnUse">
<stop stop-color="#FF1CF7"/>
<stop offset="1" stop-color="#00F0FF"/>
</linearGradient>
<linearGradient id="paint39_linear_551_9691" x1="275.068" y1="794.341" x2="547.044" y2="398.926" gradientUnits="userSpaceOnUse">
<stop stop-color="#FF1CF7"/>
<stop offset="1" stop-color="#00F0FF"/>
</linearGradient>
<linearGradient id="paint40_linear_551_9691" x1="267.777" y1="793.36" x2="545.821" y2="404.654" gradientUnits="userSpaceOnUse">
<stop stop-color="#FF1CF7"/>
<stop offset="1" stop-color="#00F0FF"/>
</linearGradient>
<linearGradient id="paint41_linear_551_9691" x1="260.533" y1="792.33" x2="544.456" y2="410.403" gradientUnits="userSpaceOnUse">
<stop stop-color="#FF1CF7"/>
<stop offset="1" stop-color="#00F0FF"/>
</linearGradient>
<linearGradient id="paint42_linear_551_9691" x1="253.335" y1="791.24" x2="542.947" y2="416.158" gradientUnits="userSpaceOnUse">
<stop stop-color="#FF1CF7"/>
<stop offset="1" stop-color="#00F0FF"/>
</linearGradient>
<linearGradient id="paint43_linear_551_9691" x1="246.185" y1="790.097" x2="541.3" y2="421.917" gradientUnits="userSpaceOnUse">
<stop stop-color="#FF1CF7"/>
<stop offset="1" stop-color="#00F0FF"/>
</linearGradient>
<linearGradient id="paint44_linear_551_9691" x1="239.085" y1="788.908" x2="539.515" y2="427.683" gradientUnits="userSpaceOnUse">
<stop stop-color="#FF1CF7"/>
<stop offset="1" stop-color="#00F0FF"/>
</linearGradient>
<linearGradient id="paint45_linear_551_9691" x1="232.035" y1="787.667" x2="537.596" y2="433.442" gradientUnits="userSpaceOnUse">
<stop stop-color="#FF1CF7"/>
<stop offset="1" stop-color="#00F0FF"/>
</linearGradient>
<linearGradient id="paint46_linear_551_9691" x1="225.035" y1="786.375" x2="535.544" y2="439.19" gradientUnits="userSpaceOnUse">
<stop stop-color="#FF1CF7"/>
<stop offset="1" stop-color="#00F0FF"/>
</linearGradient>
<linearGradient id="paint47_linear_551_9691" x1="218.085" y1="785.04" x2="533.361" y2="444.93" gradientUnits="userSpaceOnUse">
<stop stop-color="#FF1CF7"/>
<stop offset="1" stop-color="#00F0FF"/>
</linearGradient>
<linearGradient id="paint48_linear_551_9691" x1="211.187" y1="783.649" x2="531.053" y2="450.644" gradientUnits="userSpaceOnUse">
<stop stop-color="#FF1CF7"/>
<stop offset="1" stop-color="#00F0FF"/>
</linearGradient>
<linearGradient id="paint49_linear_551_9691" x1="204.342" y1="782.225" x2="528.621" y2="456.349" gradientUnits="userSpaceOnUse">
<stop stop-color="#FF1CF7"/>
<stop offset="1" stop-color="#00F0FF"/>
</linearGradient>
<linearGradient id="paint50_linear_551_9691" x1="197.55" y1="780.746" x2="526.069" y2="462.018" gradientUnits="userSpaceOnUse">
<stop stop-color="#FF1CF7"/>
<stop offset="1" stop-color="#00F0FF"/>
</linearGradient>
<linearGradient id="paint51_linear_551_9691" x1="190.81" y1="779.229" x2="523.399" y2="467.664" gradientUnits="userSpaceOnUse">
<stop stop-color="#FF1CF7"/>
<stop offset="1" stop-color="#00F0FF"/>
</linearGradient>
<linearGradient id="paint52_linear_551_9691" x1="184.125" y1="777.669" x2="520.615" y2="473.279" gradientUnits="userSpaceOnUse">
<stop stop-color="#FF1CF7"/>
<stop offset="1" stop-color="#00F0FF"/>
</linearGradient>
<linearGradient id="paint53_linear_551_9691" x1="177.494" y1="776.064" x2="517.721" y2="478.853" gradientUnits="userSpaceOnUse">
<stop stop-color="#FF1CF7"/>
<stop offset="1" stop-color="#00F0FF"/>
</linearGradient>
<linearGradient id="paint54_linear_551_9691" x1="170.919" y1="774.425" x2="514.72" y2="484.396" gradientUnits="userSpaceOnUse">
<stop stop-color="#FF1CF7"/>
<stop offset="1" stop-color="#00F0FF"/>
</linearGradient>
<linearGradient id="paint55_linear_551_9691" x1="164.399" y1="772.745" x2="511.616" y2="489.897" gradientUnits="userSpaceOnUse">
<stop stop-color="#FF1CF7"/>
<stop offset="1" stop-color="#00F0FF"/>
</linearGradient>
<linearGradient id="paint56_linear_551_9691" x1="157.936" y1="771.031" x2="508.413" y2="495.359" gradientUnits="userSpaceOnUse">
<stop stop-color="#FF1CF7"/>
<stop offset="1" stop-color="#00F0FF"/>
</linearGradient>
<linearGradient id="paint57_linear_551_9691" x1="151.528" y1="769.278" x2="505.113" y2="500.773" gradientUnits="userSpaceOnUse">
<stop stop-color="#FF1CF7"/>
<stop offset="1" stop-color="#00F0FF"/>
</linearGradient>
<linearGradient id="paint58_linear_551_9691" x1="145.178" y1="767.487" x2="501.721" y2="506.137" gradientUnits="userSpaceOnUse">
<stop stop-color="#FF1CF7"/>
<stop offset="1" stop-color="#00F0FF"/>
</linearGradient>
<linearGradient id="paint59_linear_551_9691" x1="138.886" y1="765.669" x2="498.241" y2="511.46" gradientUnits="userSpaceOnUse">
<stop stop-color="#FF1CF7"/>
<stop offset="1" stop-color="#00F0FF"/>
</linearGradient>
<linearGradient id="paint60_linear_551_9691" x1="132.65" y1="763.819" x2="494.675" y2="516.735" gradientUnits="userSpaceOnUse">
<stop stop-color="#FF1CF7"/>
<stop offset="1" stop-color="#00F0FF"/>
</linearGradient>
<linearGradient id="paint61_linear_551_9691" x1="126.473" y1="761.936" x2="491.028" y2="521.956" gradientUnits="userSpaceOnUse">
<stop stop-color="#FF1CF7"/>
<stop offset="1" stop-color="#00F0FF"/>
</linearGradient>
<linearGradient id="paint62_linear_551_9691" x1="120.354" y1="760.016" x2="487.303" y2="527.119" gradientUnits="userSpaceOnUse">
<stop stop-color="#FF1CF7"/>
<stop offset="1" stop-color="#00F0FF"/>
</linearGradient>
<linearGradient id="paint63_linear_551_9691" x1="114.293" y1="758.076" x2="483.503" y2="532.238" gradientUnits="userSpaceOnUse">
<stop stop-color="#FF1CF7"/>
<stop offset="1" stop-color="#00F0FF"/>
</linearGradient>
<linearGradient id="paint64_linear_551_9691" x1="108.293" y1="756.108" x2="479.634" y2="537.304" gradientUnits="userSpaceOnUse">
<stop stop-color="#FF1CF7"/>
<stop offset="1" stop-color="#00F0FF"/>
</linearGradient>
<linearGradient id="paint65_linear_551_9691" x1="102.353" y1="754.11" x2="475.698" y2="542.311" gradientUnits="userSpaceOnUse">
<stop stop-color="#FF1CF7"/>
<stop offset="1" stop-color="#00F0FF"/>
</linearGradient>
<linearGradient id="paint66_linear_551_9691" x1="96.472" y1="752.091" x2="471.697" y2="547.268" gradientUnits="userSpaceOnUse">
<stop stop-color="#FF1CF7"/>
<stop offset="1" stop-color="#00F0FF"/>
</linearGradient>
<linearGradient id="paint67_linear_551_9691" x1="90.651" y1="750.045" x2="467.637" y2="552.168" gradientUnits="userSpaceOnUse">
<stop stop-color="#FF1CF7"/>
<stop offset="1" stop-color="#00F0FF"/>
</linearGradient>
<linearGradient id="paint68_linear_551_9691" x1="84.8908" y1="747.98" x2="463.52" y2="557.016" gradientUnits="userSpaceOnUse">
<stop stop-color="#FF1CF7"/>
<stop offset="1" stop-color="#00F0FF"/>
</linearGradient>
<linearGradient id="paint69_linear_551_9691" x1="79.1897" y1="745.894" x2="459.348" y2="561.811" gradientUnits="userSpaceOnUse">
<stop stop-color="#FF1CF7"/>
<stop offset="1" stop-color="#00F0FF"/>
</linearGradient>
<linearGradient id="paint70_linear_551_9691" x1="73.5489" y1="743.781" x2="455.124" y2="566.545" gradientUnits="userSpaceOnUse">
<stop stop-color="#FF1CF7"/>
<stop offset="1" stop-color="#00F0FF"/>
</linearGradient>
<linearGradient id="paint71_linear_551_9691" x1="67.9705" y1="741.663" x2="450.855" y2="571.239" gradientUnits="userSpaceOnUse">
<stop stop-color="#FF1CF7"/>
<stop offset="1" stop-color="#00F0FF"/>
</linearGradient>
<linearGradient id="paint72_linear_551_9691" x1="62.4536" y1="739.519" x2="446.542" y2="575.872" gradientUnits="userSpaceOnUse">
<stop stop-color="#FF1CF7"/>
<stop offset="1" stop-color="#00F0FF"/>
</linearGradient>
<linearGradient id="paint73_linear_551_9691" x1="56.9968" y1="737.363" x2="442.186" y2="580.456" gradientUnits="userSpaceOnUse">
<stop stop-color="#FF1CF7"/>
<stop offset="1" stop-color="#00F0FF"/>
</linearGradient>
<linearGradient id="paint74_linear_551_9691" x1="51.6008" y1="735.191" x2="437.79" y2="584.988" gradientUnits="userSpaceOnUse">
<stop stop-color="#FF1CF7"/>
<stop offset="1" stop-color="#00F0FF"/>
</linearGradient>
<linearGradient id="paint75_linear_551_9691" x1="46.2681" y1="733.001" x2="433.36" y2="589.464" gradientUnits="userSpaceOnUse">
<stop stop-color="#FF1CF7"/>
<stop offset="1" stop-color="#00F0FF"/>
</linearGradient>
<linearGradient id="paint76_linear_551_9691" x1="40.9957" y1="730.81" x2="428.896" y2="593.903" gradientUnits="userSpaceOnUse">
<stop stop-color="#FF1CF7"/>
<stop offset="1" stop-color="#00F0FF"/>
</linearGradient>
<linearGradient id="paint77_linear_551_9691" x1="35.7844" y1="728.602" x2="424.4" y2="598.288" gradientUnits="userSpaceOnUse">
<stop stop-color="#FF1CF7"/>
<stop offset="1" stop-color="#00F0FF"/>
</linearGradient>
<linearGradient id="paint78_linear_551_9691" x1="30.6347" y1="726.383" x2="419.875" y2="602.623" gradientUnits="userSpaceOnUse">
<stop stop-color="#FF1CF7"/>
<stop offset="1" stop-color="#00F0FF"/>
</linearGradient>
<linearGradient id="paint79_linear_551_9691" x1="25.547" y1="724.159" x2="415.324" y2="606.917" gradientUnits="userSpaceOnUse">
<stop stop-color="#FF1CF7"/>
<stop offset="1" stop-color="#00F0FF"/>
</linearGradient>
<linearGradient id="paint80_linear_551_9691" x1="20.5205" y1="721.926" x2="410.749" y2="611.164" gradientUnits="userSpaceOnUse">
<stop stop-color="#FF1CF7"/>
<stop offset="1" stop-color="#00F0FF"/>
</linearGradient>
<linearGradient id="paint81_linear_551_9691" x1="15.5554" y1="719.692" x2="406.151" y2="615.374" gradientUnits="userSpaceOnUse">
<stop stop-color="#FF1CF7"/>
<stop offset="1" stop-color="#00F0FF"/>
</linearGradient>
<linearGradient id="paint82_linear_551_9691" x1="10.6529" y1="717.446" x2="401.534" y2="619.534" gradientUnits="userSpaceOnUse">
<stop stop-color="#FF1CF7"/>
<stop offset="1" stop-color="#00F0FF"/>
</linearGradient>
<linearGradient id="paint83_linear_551_9691" x1="5.80991" y1="715.202" x2="396.897" y2="623.66" gradientUnits="userSpaceOnUse">
<stop stop-color="#FF1CF7"/>
<stop offset="1" stop-color="#00F0FF"/>
</linearGradient>
<linearGradient id="paint84_linear_551_9691" x1="1.0294" y1="712.96" x2="392.244" y2="627.751" gradientUnits="userSpaceOnUse">
<stop stop-color="#FF1CF7"/>
<stop offset="1" stop-color="#00F0FF"/>
</linearGradient>
<linearGradient id="paint85_linear_551_9691" x1="-3.68995" y1="710.713" x2="387.576" y2="631.803" gradientUnits="userSpaceOnUse">
<stop stop-color="#FF1CF7"/>
<stop offset="1" stop-color="#00F0FF"/>
</linearGradient>
<linearGradient id="paint86_linear_551_9691" x1="-8.34732" y1="708.463" x2="382.895" y2="635.816" gradientUnits="userSpaceOnUse">
<stop stop-color="#FF1CF7"/>
<stop offset="1" stop-color="#00F0FF"/>
</linearGradient>
<linearGradient id="paint87_linear_551_9691" x1="-12.9459" y1="706.221" x2="378.2" y2="639.803" gradientUnits="userSpaceOnUse">
<stop stop-color="#FF1CF7"/>
<stop offset="1" stop-color="#00F0FF"/>
</linearGradient>
<linearGradient id="paint88_linear_551_9691" x1="-17.483" y1="703.98" x2="373.495" y2="643.756" gradientUnits="userSpaceOnUse">
<stop stop-color="#FF1CF7"/>
<stop offset="1" stop-color="#00F0FF"/>
</linearGradient>
<linearGradient id="paint89_linear_551_9691" x1="-21.9583" y1="701.748" x2="368.781" y2="647.685" gradientUnits="userSpaceOnUse">
<stop stop-color="#FF1CF7"/>
<stop offset="1" stop-color="#00F0FF"/>
</linearGradient>
<linearGradient id="paint90_linear_551_9691" x1="-26.3744" y1="699.515" x2="364.058" y2="651.581" gradientUnits="userSpaceOnUse">
<stop stop-color="#FF1CF7"/>
<stop offset="1" stop-color="#00F0FF"/>
</linearGradient>
<linearGradient id="paint91_linear_551_9691" x1="-30.7301" y1="697.291" x2="359.326" y2="655.453" gradientUnits="userSpaceOnUse">
<stop stop-color="#FF1CF7"/>
<stop offset="1" stop-color="#00F0FF"/>
</linearGradient>
<linearGradient id="paint92_linear_551_9691" x1="-35.027" y1="695.079" x2="354.587" y2="659.306" gradientUnits="userSpaceOnUse">
<stop stop-color="#FF1CF7"/>
<stop offset="1" stop-color="#00F0FF"/>
</linearGradient>
<linearGradient id="paint93_linear_551_9691" x1="-39.2615" y1="692.879" x2="349.844" y2="663.14" gradientUnits="userSpaceOnUse">
<stop stop-color="#FF1CF7"/>
<stop offset="1" stop-color="#00F0FF"/>
</linearGradient>
<linearGradient id="paint94_linear_551_9691" x1="-43.4389" y1="690.681" x2="345.094" y2="666.947" gradientUnits="userSpaceOnUse">
<stop stop-color="#FF1CF7"/>
<stop offset="1" stop-color="#00F0FF"/>
</linearGradient>
<linearGradient id="paint95_linear_551_9691" x1="-47.5568" y1="688.499" x2="340.339" y2="670.741" gradientUnits="userSpaceOnUse">
<stop stop-color="#FF1CF7"/>
<stop offset="1" stop-color="#00F0FF"/>
</linearGradient>
<linearGradient id="paint96_linear_551_9691" x1="-51.6161" y1="686.331" x2="335.578" y2="674.52" gradientUnits="userSpaceOnUse">
<stop stop-color="#FF1CF7"/>
<stop offset="1" stop-color="#00F0FF"/>
</linearGradient>
<linearGradient id="paint97_linear_551_9691" x1="-55.6166" y1="684.176" x2="330.814" y2="678.284" gradientUnits="userSpaceOnUse">
<stop stop-color="#FF1CF7"/>
<stop offset="1" stop-color="#00F0FF"/>
</linearGradient>
<linearGradient id="paint98_linear_551_9691" x1="-59.5595" y1="682.033" x2="326.045" y2="682.033" gradientUnits="userSpaceOnUse">
<stop stop-color="#FF1CF7"/>
<stop offset="1" stop-color="#00F0FF"/>
</linearGradient>
</defs>
</svg>
