<svg width="428" height="914" viewBox="0 0 428 914" fill="none" xmlns="http://www.w3.org/2000/svg">
<g style="mix-blend-mode:luminosity" opacity="0.2">
<path opacity="0.010101" d="M48.4889 591.116C43.9262 585.707 42.9801 578.001 46.0637 571.362L251.564 128.934C255.294 120.905 263.969 116.391 272.398 118.093L700.334 204.47C707.83 205.983 713.432 212.089 714.376 219.773L775.57 718.212C776.513 725.896 772.598 733.532 765.757 737.352L375.197 955.41C367.504 959.706 358.078 958.104 352.56 951.563L48.4889 591.116Z" stroke="url(#paint0_linear_551_9973)" stroke-width="3"/>
<path opacity="0.020202" d="M43.8404 585.015C39.3664 579.522 38.5393 571.812 41.7198 565.244L253.526 127.832C257.379 119.875 266.136 115.53 274.549 117.403L700.246 212.126C707.719 213.789 713.227 220 714.053 227.694L767.538 726.344C768.364 734.039 764.332 741.591 757.432 745.274L364.399 955.074C356.631 959.22 347.216 957.431 341.796 950.776L43.8404 585.015Z" stroke="url(#paint1_linear_551_9973)" stroke-width="3"/>
<path opacity="0.030303" d="M39.3133 578.918C34.9283 573.343 34.22 565.629 37.4966 559.132L255.518 126.854C259.494 118.971 268.328 114.8 276.721 116.842L700.058 219.848C707.506 221.66 712.918 227.976 713.626 235.68L759.414 734.382C760.121 742.086 755.975 749.551 749.019 753.096L353.641 954.607C345.802 958.603 336.404 956.625 331.083 949.86L39.3133 578.918Z" stroke="url(#paint2_linear_551_9973)" stroke-width="3"/>
<path opacity="0.040404" d="M34.9053 572.847C30.6099 567.19 30.02 559.473 33.3922 553.048L257.536 126.02C261.634 118.213 270.54 114.217 278.909 116.429L699.768 227.654C707.188 229.615 712.503 236.033 713.092 243.745L751.198 742.34C751.788 750.052 747.527 757.429 740.517 760.835L342.925 954.029C335.018 957.871 325.641 955.706 320.422 948.832L34.9053 572.847Z" stroke="url(#paint3_linear_551_9973)" stroke-width="3"/>
<path opacity="0.050505" d="M30.6193 566.785C26.4139 561.048 25.9422 553.327 29.4092 546.976L259.582 125.31C263.8 117.584 272.774 113.764 281.115 116.145L699.377 235.522C706.767 237.631 711.982 244.152 712.454 251.87L742.895 750.199C743.366 757.917 738.994 765.205 731.932 768.471L332.255 953.323C324.285 957.009 314.933 954.656 309.817 947.677L30.6193 566.785Z" stroke="url(#paint4_linear_551_9973)" stroke-width="3"/>
<path opacity="0.0606061" d="M-23.5475 560.742C-27.6625 554.925 -28.016 547.203 -24.4548 540.925L211.652 124.733C215.987 117.091 225.026 113.449 233.334 115.998L648.882 243.459C656.24 245.715 661.355 252.336 661.709 260.06L684.504 757.965C684.857 765.689 680.374 772.886 673.263 776.01L271.63 952.496C263.6 956.025 254.279 953.485 249.269 946.403L-23.5475 560.742Z" stroke="url(#paint5_linear_551_9973)" stroke-width="3"/>
<path opacity="0.0707071" d="M-27.5952 554.714C-31.6192 548.819 -31.8548 541.095 -28.1999 534.892L213.743 124.282C218.195 116.726 227.293 113.265 235.565 115.98L648.284 251.454C655.606 253.857 660.62 260.577 660.855 268.304L676.027 765.63C676.262 773.357 671.67 780.461 664.513 783.444L261.054 951.544C252.968 954.913 243.682 952.187 238.78 945.004L-27.5952 554.714Z" stroke="url(#paint6_linear_551_9973)" stroke-width="3"/>
<path opacity="0.0808081" d="M-31.5251 548.719C-35.4576 542.745 -35.5754 535.021 -31.8274 528.893L215.854 123.973C220.421 116.506 229.573 113.226 237.804 116.107L647.58 259.521C654.865 262.07 659.775 268.888 659.893 276.617L667.465 773.207C667.583 780.936 662.884 787.946 655.681 790.785L250.527 950.481C242.388 953.689 233.142 950.778 228.35 943.498L-31.5251 548.719Z" stroke="url(#paint7_linear_551_9973)" stroke-width="3"/>
<path opacity="0.0909091" d="M-35.3372 542.745C-39.1777 536.694 -39.1777 528.969 -35.3372 522.918L217.982 123.792C222.663 116.417 231.864 113.321 240.051 116.366L646.771 267.644C654.016 270.339 658.822 277.254 658.822 284.983V780.681C658.822 788.41 654.016 795.325 646.771 798.02L240.051 949.298C231.864 952.343 222.663 949.247 217.982 941.872L-35.3372 542.745Z" stroke="url(#paint8_linear_551_9973)" stroke-width="3"/>
<path opacity="0.10101" d="M-39.0327 536.793C-42.7807 530.666 -42.6629 522.941 -38.7304 516.967L220.125 123.737C224.918 116.457 234.164 113.545 242.302 116.753L645.855 275.819C653.057 278.658 657.757 285.668 657.639 293.397L650.097 788.048C649.979 795.777 645.068 802.595 637.784 805.145L229.627 947.991C221.396 950.872 212.244 947.592 207.677 940.125L-39.0327 536.793Z" stroke="url(#paint9_linear_551_9973)" stroke-width="3"/>
<path opacity="0.111111" d="M7.38914 530.88C3.73423 524.677 3.96985 516.953 7.99384 511.057L272.283 123.823C277.185 116.641 286.471 113.915 294.558 117.284L694.833 284.058C701.991 287.04 706.583 294.144 706.347 301.871L691.294 795.322C691.058 803.049 686.045 809.769 678.722 812.172L269.26 946.577C260.988 949.292 251.89 945.831 247.438 938.275L7.38914 530.88Z" stroke="url(#paint10_linear_551_9973)" stroke-width="3"/>
<path opacity="0.121212" d="M3.92683 524.994C0.36558 518.717 0.719125 510.994 4.83408 505.177L274.453 124.037C279.463 116.955 288.784 114.415 296.814 117.944L693.704 292.345C700.814 295.47 705.297 302.667 704.944 310.39L682.415 802.487C682.061 810.211 676.946 816.831 669.588 819.088L258.948 945.044C250.64 947.592 241.602 943.951 237.266 936.308L3.92683 524.994Z" stroke="url(#paint11_linear_551_9973)" stroke-width="3"/>
<path opacity="0.131313" d="M0.580213 519.141C-2.88679 512.789 -2.41519 505.069 1.79025 499.332L276.633 124.381C281.749 117.402 291.101 115.049 299.071 118.735L692.467 300.681C699.528 303.947 703.901 311.235 703.429 318.953L673.461 809.546C672.99 817.264 667.774 823.785 660.384 825.894L248.696 943.395C240.355 945.776 231.38 941.956 227.163 934.23L0.580213 519.141Z" stroke="url(#paint12_linear_551_9973)" stroke-width="3"/>
<path opacity="0.141414" d="M-2.65424 513.331C-6.02637 506.906 -5.43652 499.188 -1.14109 493.532L278.819 124.863C284.038 117.99 293.416 115.824 301.322 119.666L691.119 309.072C698.129 312.478 702.39 319.856 701.8 327.567L664.432 816.505C663.843 824.216 658.528 830.635 651.108 832.596L238.501 941.64C230.132 943.852 221.225 939.855 217.128 932.049L-2.65424 513.331Z" stroke="url(#paint13_linear_551_9973)" stroke-width="3"/>
<path opacity="0.151515" d="M-5.77319 507.555C-9.04981 501.058 -8.3415 493.343 -3.95653 487.768L281.013 125.472C286.334 118.707 295.732 116.729 303.571 120.725L689.665 317.504C696.621 321.049 700.768 328.515 700.061 336.219L655.334 823.351C654.627 831.055 649.215 837.37 641.767 839.182L228.37 939.77C219.977 941.812 211.143 937.641 207.167 929.757L-5.77319 507.555Z" stroke="url(#paint14_linear_551_9973)" stroke-width="3"/>
<path opacity="0.161616" d="M-8.78208 501.825C-11.9625 495.257 -11.1355 487.546 -6.66143 482.054L283.208 126.218C288.628 119.564 298.043 117.774 305.811 121.92L688.099 325.985C694.999 329.668 699.03 337.219 698.205 344.914L646.164 830.093C645.339 837.788 639.831 843.999 632.358 845.662L218.3 937.795C209.886 939.667 201.129 935.323 197.276 927.366L-8.78208 501.825Z" stroke="url(#paint15_linear_551_9973)" stroke-width="3"/>
<path opacity="0.171717" d="M-11.679 496.131C-14.7626 489.493 -13.8165 481.786 -9.25382 476.378L285.405 127.088C290.923 120.547 300.349 118.945 308.042 123.241L686.423 334.499C693.264 338.319 697.179 345.956 696.236 353.64L636.928 836.719C635.984 844.402 630.382 850.508 622.886 852.021L208.294 935.705C199.865 937.407 191.19 932.892 187.46 924.864L-11.679 496.131Z" stroke="url(#paint16_linear_551_9973)" stroke-width="3"/>
<path opacity="0.181818" d="M-14.465 490.49C-17.451 483.781 -16.3855 476.08 -11.7347 470.756L287.602 128.097C293.215 121.671 302.647 120.257 310.263 124.699L684.637 343.06C691.417 347.015 695.215 354.735 694.153 362.406L627.625 843.239C626.564 850.91 620.868 856.909 613.352 858.272L198.356 933.514C189.914 935.045 181.325 930.363 177.721 922.266L-14.465 490.49Z" stroke="url(#paint17_linear_551_9973)" stroke-width="3"/>
<path opacity="0.191919" d="M-17.143 484.899C-20.0307 478.122 -18.8454 470.426 -14.1068 465.188L289.795 129.239C295.501 122.931 304.935 121.704 312.47 126.29L682.738 351.66C689.456 355.748 693.134 363.55 691.954 371.207L618.258 849.65C617.079 857.307 611.291 863.199 603.758 864.411L188.483 931.221C180.033 932.58 171.534 927.733 168.057 919.572L-17.143 484.899Z" stroke="url(#paint18_linear_551_9973)" stroke-width="3"/>
<path opacity="0.20202" d="M-19.711 479.354C-22.4996 472.508 -21.194 464.819 -16.3682 459.668L291.985 130.508C297.781 124.32 307.213 123.28 314.663 128.007L680.73 360.289C687.382 364.51 690.939 372.392 689.642 380.034L608.83 855.943C607.533 863.585 601.655 869.367 594.106 870.428L178.682 928.818C170.228 930.007 161.823 924.997 158.473 916.775L-19.711 479.354Z" stroke="url(#paint19_linear_551_9973)" stroke-width="3"/>
<path opacity="0.212121" d="M-22.1724 473.862C-24.8612 466.948 -23.4349 459.267 -18.5222 454.203L294.167 131.908C300.052 125.842 309.477 124.988 316.839 129.854L678.609 368.952C685.194 373.304 688.629 381.264 687.213 388.889L599.342 862.122C597.926 869.748 591.96 875.42 584.398 876.33L168.95 926.315C160.496 927.332 152.189 922.164 148.968 913.882L-22.1724 473.862Z" stroke="url(#paint20_linear_551_9973)" stroke-width="3"/>
<path opacity="0.222222" d="M-24.5277 468.421C-27.1158 461.441 -25.5683 453.768 -20.5692 448.793L296.341 133.436C302.312 127.495 311.725 126.826 318.996 131.827L676.376 377.642C682.891 382.123 686.203 390.159 684.668 397.766L589.795 868.184C588.261 875.791 582.207 881.352 574.635 882.111L159.291 923.708C150.84 924.554 142.636 919.23 139.544 910.893L-24.5277 468.421Z" stroke="url(#paint21_linear_551_9973)" stroke-width="3"/>
<path opacity="0.232323" d="M-26.7777 463.047C-29.2643 456.001 -27.5951 448.337 -22.5101 443.453L298.505 135.104C304.559 129.289 313.956 128.805 321.133 133.939L674.031 386.369C680.475 390.978 683.661 399.089 682.008 406.676L580.192 874.14C578.54 881.727 572.4 887.176 564.821 887.783L149.705 921.011C141.263 921.687 133.164 916.21 130.203 907.821L-26.7777 463.047Z" stroke="url(#paint22_linear_551_9973)" stroke-width="3"/>
<path opacity="0.242424" d="M-28.9229 457.722C-31.3072 450.612 -29.5155 442.958 -24.3451 438.165L300.656 136.893C306.791 131.206 316.169 130.905 323.249 136.169L671.574 395.113C677.944 399.848 681.004 408.031 679.233 415.597L570.536 879.97C568.765 887.536 562.541 892.871 554.956 893.326L140.196 918.209C131.765 918.715 123.775 913.087 120.946 904.65L-28.9229 457.722Z" stroke="url(#paint23_linear_551_9973)" stroke-width="3"/>
<path opacity="0.252525" d="M-30.9661 452.461C-33.2471 445.287 -31.3325 437.644 -26.0771 432.943L302.793 138.815C309.006 133.257 318.359 133.139 325.34 138.529L669.004 403.883C675.298 408.743 678.23 416.996 676.341 424.539L560.827 885.686C558.938 893.228 552.631 898.449 545.043 898.753L130.762 915.313C122.347 915.65 114.47 909.876 111.773 901.394L-30.9661 452.461Z" stroke="url(#paint24_linear_551_9973)" stroke-width="3"/>
<path opacity="0.262626" d="M-32.909 447.263C-35.0858 440.026 -33.0476 432.395 -27.7078 427.789L304.911 140.866C311.201 135.44 320.525 135.502 327.404 141.016L666.319 412.674C672.536 417.657 675.339 425.979 673.331 433.497L551.067 891.284C549.059 898.801 542.67 903.907 535.082 904.058L121.405 912.324C113.009 912.492 105.249 906.575 102.685 898.051L-32.909 447.263Z" stroke="url(#paint25_linear_551_9973)" stroke-width="3"/>
<path opacity="0.272727" d="M-34.751 442.123C-36.8227 434.824 -34.6603 427.206 -29.2365 422.695L307.012 143.038C313.375 137.746 322.666 137.988 329.44 143.621L663.523 421.477C669.66 426.581 672.332 434.97 670.205 442.461L541.259 896.756C539.132 904.247 532.664 909.236 525.078 909.236L112.129 909.236C103.756 909.236 96.115 903.18 93.6844 894.617L-34.751 442.123Z" stroke="url(#paint26_linear_551_9973)" stroke-width="3"/>
<path opacity="0.282828" d="M-36.4925 437.059C-38.4581 429.7 -36.1707 422.095 -30.6635 417.681L309.094 145.349C315.528 140.192 324.782 140.611 331.449 146.362L660.615 430.305C666.67 435.529 669.21 443.983 666.965 451.445L531.406 902.118C529.161 909.581 522.614 914.453 515.032 914.301L102.935 906.067C94.5883 905.9 87.0701 899.708 84.7737 891.11L-36.4925 437.059Z" stroke="url(#paint27_linear_551_9973)" stroke-width="3"/>
<path opacity="0.292929" d="M-38.1374 432.058C-39.996 424.638 -37.583 417.049 -31.9929 412.733L311.152 147.78C317.654 142.76 326.868 143.355 333.425 149.219L657.592 439.142C663.565 444.483 665.971 452.999 663.607 460.432L521.507 907.354C519.144 914.787 512.519 919.54 504.945 919.237L93.8213 902.803C85.5053 902.47 78.1127 896.146 75.9508 887.516L-38.1374 432.058Z" stroke="url(#paint28_linear_551_9973)" stroke-width="3"/>
<path opacity="0.30303" d="M-39.6868 427.127C-41.4373 419.648 -38.8979 412.075 -33.2255 407.859L313.184 150.339C319.753 145.456 328.922 146.225 335.368 152.2L654.456 447.99C660.343 453.447 662.614 462.023 660.133 469.424L511.566 912.469C509.084 919.87 502.383 924.504 494.818 924.05L84.791 899.451C76.5088 898.954 69.2446 892.502 67.2176 883.843L-39.6868 427.127Z" stroke="url(#paint29_linear_551_9973)" stroke-width="3"/>
<path opacity="0.313131" d="M-41.141 422.271C-42.7825 414.734 -40.1159 407.179 -34.3619 403.063L315.191 153.026C321.822 148.282 330.944 149.224 337.276 155.305L651.207 456.85C657.007 462.421 659.142 471.055 656.542 478.423L501.584 917.466C498.984 924.833 492.209 929.346 484.655 928.742L75.8454 896.018C67.6004 895.358 60.4673 888.781 58.5756 880.096L-41.141 422.271Z" stroke="url(#paint30_linear_551_9973)" stroke-width="3"/>
<path opacity="0.323232" d="M-42.5 417.486C-44.0313 409.893 -41.2369 402.357 -35.4018 398.343L317.171 155.835C323.863 151.233 332.933 152.345 339.149 158.53L647.847 465.715C653.558 471.398 655.556 480.088 652.837 487.42L491.566 922.338C488.847 929.671 481.999 934.062 474.46 933.307L66.9877 892.498C58.7833 891.677 51.7838 884.98 50.0276 876.272L-42.5 417.486Z" stroke="url(#paint31_linear_551_9973)" stroke-width="3"/>
<path opacity="0.333333" d="M-43.7682 412.778C-45.1884 405.13 -42.2653 397.615 -36.3499 393.705L319.119 158.772C325.869 154.311 334.884 155.591 340.982 161.876L644.372 474.586C649.992 480.379 651.852 489.122 649.014 496.418L481.509 927.09C478.672 934.385 471.752 938.654 464.23 937.749L58.2159 888.899C50.0553 887.917 43.1918 881.104 41.5713 872.377L-43.7682 412.778Z" stroke="url(#paint32_linear_551_9973)" stroke-width="3"/>
<path opacity="0.343434" d="M-44.9447 408.145C-46.2526 400.443 -43.2002 392.95 -37.2051 389.145L321.036 161.829C327.841 157.511 336.799 158.957 342.777 165.339L640.785 483.456C646.314 489.358 648.033 498.152 645.077 505.408L471.42 931.716C468.464 938.973 461.474 943.118 453.971 942.063L49.5335 885.217C41.4199 884.077 34.6946 877.152 33.21 868.409L-44.9447 408.145Z" stroke="url(#paint33_linear_551_9973)" stroke-width="3"/>
<path opacity="0.353535" d="M-46.0336 403.592C-47.2282 395.837 -44.0456 388.367 -37.9716 384.67L322.917 165.009C329.775 160.835 338.671 162.445 344.528 168.92L637.084 492.328C642.519 498.335 644.097 507.177 641.023 514.393L461.296 936.22C458.222 943.436 451.163 947.456 443.682 946.252L40.9391 881.459C32.8757 880.161 26.2906 873.128 24.9419 864.372L-46.0336 403.592Z" stroke="url(#paint34_linear_551_9973)" stroke-width="3"/>
<path opacity="0.363636" d="M-47.0325 399.117C-48.1127 391.31 -44.7991 383.865 -38.6469 380.277L324.765 168.31C331.673 164.281 340.504 166.052 346.239 172.617L633.274 501.194C638.612 507.306 640.048 516.194 636.856 523.367L451.144 940.598C447.951 947.771 440.825 951.666 433.368 950.314L32.4378 877.622C24.4276 876.169 17.9847 869.032 16.7719 860.266L-47.0325 399.117Z" stroke="url(#paint35_linear_551_9973)" stroke-width="3"/>
<path opacity="0.373737" d="M-47.9468 394.726C-48.9114 386.869 -45.4661 379.452 -39.2366 375.973L326.573 171.733C333.528 167.85 342.292 169.781 347.903 176.431L629.349 510.059C634.59 516.272 635.883 525.204 632.572 532.332L440.962 944.855C437.651 951.983 430.459 955.751 423.029 954.251L24.0267 873.714C16.0726 872.108 9.77371 864.87 8.69677 856.098L-47.9468 394.726Z" stroke="url(#paint36_linear_551_9973)" stroke-width="3"/>
<path opacity="0.383838" d="M-48.774 390.42C-49.6219 382.514 -46.0441 375.126 -39.7382 371.76L328.344 175.279C335.344 171.542 344.038 173.629 349.523 180.363L625.315 518.917C630.458 525.23 631.606 534.203 628.177 541.285L430.756 948.988C427.327 956.07 420.071 959.71 412.669 958.063L15.711 869.735C7.8158 867.978 1.66259 860.644 0.721344 851.869L-48.774 390.42Z" stroke="url(#paint37_linear_551_9973)" stroke-width="3"/>
<path opacity="0.393939" d="M-49.5214 386.197C-50.2515 378.244 -46.5405 370.886 -40.1591 367.634L330.07 178.94C337.112 175.351 345.733 177.592 351.092 184.405L621.165 527.764C626.208 534.175 627.21 543.186 623.663 550.219L420.521 952.995C416.974 960.028 409.656 963.54 402.285 961.746L7.48582 865.684C-0.347715 863.778 -6.35378 856.352 -7.1595 847.576L-49.5214 386.197Z" stroke="url(#paint38_linear_551_9973)" stroke-width="3"/>
<path opacity="0.40404" d="M-50.1844 382.059C-50.7957 374.061 -46.9507 366.736 -40.4948 363.599L331.755 182.719C338.837 179.278 347.382 181.671 352.613 188.559L616.908 536.599C621.848 543.105 622.704 552.152 619.04 559.133L410.267 956.877C406.603 963.859 399.223 967.241 391.885 965.302L-0.641633 861.564C-8.41084 859.511 -14.2684 851.997 -14.9389 843.224L-50.1844 382.059Z" stroke="url(#paint39_linear_551_9973)" stroke-width="3"/>
<path opacity="0.414141" d="M-50.7671 378.01C-51.2583 369.968 -47.2787 362.677 -40.7492 359.658L333.396 186.615C340.514 183.323 348.982 185.865 354.084 192.826L612.54 545.42C617.377 552.02 618.086 561.1 614.303 568.028L399.993 960.635C396.211 967.564 388.771 970.815 381.469 968.731L-8.67262 857.379C-16.3749 855.181 -22.0828 847.583 -22.6183 838.816L-50.7671 378.01Z" stroke="url(#paint40_linear_551_9973)" stroke-width="3"/>
<path opacity="0.424242" d="M-51.2705 374.054C-51.6406 365.97 -47.5257 358.716 -40.9237 355.815L334.99 190.631C342.143 187.488 350.53 190.177 355.503 197.207L608.062 554.23C612.795 560.921 613.355 570.03 609.455 576.904L389.701 964.272C385.801 971.146 378.304 974.265 371.039 972.037L-16.6061 853.135C-24.239 850.794 -29.7961 843.116 -30.1971 834.358L-51.2705 374.054Z" stroke="url(#paint41_linear_551_9973)" stroke-width="3"/>
<path opacity="0.434343" d="M-51.6986 370.183C-51.9465 362.059 -47.6955 354.844 -41.0222 352.064L336.535 194.756C343.719 191.762 352.023 194.595 356.866 201.691L603.472 563.016C608.1 569.795 608.51 578.932 604.493 585.749L379.391 967.778C375.374 974.595 367.82 977.582 360.595 975.211L-24.4429 848.823C-32.0042 846.341 -37.4096 838.588 -37.6764 829.842L-51.6986 370.183Z" stroke="url(#paint42_linear_551_9973)" stroke-width="3"/>
<path opacity="0.444444" d="M-52.051 366.403C-52.1755 358.24 -47.788 351.067 -41.0445 348.409L338.029 198.992C345.242 196.149 353.462 199.123 358.174 206.281L598.774 571.779C603.294 578.646 603.554 587.807 599.421 594.564L369.066 971.159C364.933 977.916 357.324 980.769 350.141 978.256L-32.1808 844.451C-39.6682 841.83 -44.921 834.006 -45.0541 825.274L-52.051 366.403Z" stroke="url(#paint43_linear_551_9973)" stroke-width="3"/>
<path opacity="0.454545" d="M-52.3291 362.722C-52.3291 354.522 -47.8043 347.393 -40.992 344.859L339.472 203.347C346.712 200.654 354.845 203.767 359.425 210.984L593.968 580.526C598.379 587.477 598.488 596.66 594.239 603.355L358.73 974.42C354.48 981.116 346.817 983.835 339.679 981.18L-39.8182 840.027C-47.2294 837.271 -52.3291 829.378 -52.3291 820.664L-52.3291 362.722Z" stroke="url(#paint44_linear_551_9973)" stroke-width="3"/>
<path opacity="0.464646" d="M-52.5347 359.132C-52.4092 350.898 -47.7468 343.815 -40.8668 341.407L340.862 207.81C348.125 205.268 356.17 208.517 360.618 215.79L589.053 589.246C593.355 596.279 593.312 605.48 588.947 612.111L348.383 977.555C344.017 984.186 336.303 986.769 329.211 983.974L-47.355 835.546C-54.688 832.655 -59.6338 824.699 -59.5012 816.006L-52.5347 359.132Z" stroke="url(#paint45_linear_551_9973)" stroke-width="3"/>
<path opacity="0.474747" d="M-52.6703 355.636C-52.4181 347.369 -47.6175 340.335 -40.6714 338.055L342.196 212.38C349.481 209.989 357.435 213.372 361.751 220.697L584.031 597.936C588.222 605.049 588.027 614.265 583.546 620.83L338.027 980.562C333.546 987.127 325.781 989.574 318.739 986.639L-54.7907 831.009C-62.0436 827.987 -66.8351 819.971 -66.5706 811.301L-52.6703 355.636Z" stroke="url(#paint46_linear_551_9973)" stroke-width="3"/>
<path opacity="0.484848" d="M-52.7378 352.241C-52.3579 343.944 -47.4186 336.962 -40.4078 334.811L343.473 217.064C350.776 214.824 358.638 218.337 362.821 225.712L578.901 606.602C582.98 613.792 582.631 623.021 578.035 629.517L327.664 983.449C323.068 989.946 315.254 992.255 308.263 989.183L-62.1251 826.427C-69.296 823.276 -73.9329 815.203 -73.5372 806.56L-52.7378 352.241Z" stroke="url(#paint47_linear_551_9973)" stroke-width="3"/>
<path opacity="0.494949" d="M-52.7371 348.936C-52.2286 340.61 -47.1503 333.682 -40.0762 331.663L344.692 221.845C352.012 219.756 359.78 223.398 363.83 230.818L573.666 615.227C577.632 622.492 577.129 631.73 572.419 638.156L317.297 986.204C312.586 992.63 304.726 994.8 297.787 991.591L-69.3559 821.787C-76.4429 818.509 -80.9251 810.384 -80.3989 801.77L-52.7371 348.936Z" stroke="url(#paint48_linear_551_9973)" stroke-width="3"/>
<path opacity="0.50505" d="M-52.6711 345.741C-52.0328 337.39 -46.8153 330.519 -39.6795 328.633L345.851 226.744C353.184 224.806 360.857 228.574 364.775 236.037L568.325 623.831C572.177 631.17 571.52 640.414 566.696 646.767L306.927 988.847C302.102 995.2 294.197 997.23 287.313 993.885L-76.4833 817.113C-83.4848 813.711 -87.8121 805.538 -87.1561 796.955L-52.6711 345.741Z" stroke="url(#paint49_linear_551_9973)" stroke-width="3"/>
<path opacity="0.515152" d="M-52.5415 342.636C-51.7725 334.261 -46.4154 327.45 -39.2197 325.699L346.948 231.737C354.293 229.949 361.869 233.84 365.653 241.344L562.879 632.389C566.616 639.798 565.804 649.045 560.867 655.322L296.555 991.355C291.618 997.632 283.669 999.523 276.842 996.043L-83.507 812.385C-90.4213 808.861 -94.5937 800.643 -93.8088 792.094L-52.5415 342.636Z" stroke="url(#paint50_linear_551_9973)" stroke-width="3"/>
<path opacity="0.525253" d="M-52.3496 339.636C-51.449 331.24 -45.9522 324.492 -38.6982 322.878L347.982 236.837C355.336 235.2 362.814 239.212 366.466 246.752L557.329 640.915C560.95 648.392 559.983 657.638 554.933 663.837L286.185 993.745C281.135 999.944 273.145 1001.69 266.377 998.08L-90.4259 807.62C-97.2516 803.977 -101.269 795.717 -100.356 787.205L-52.3496 339.636Z" stroke="url(#paint51_linear_551_9973)" stroke-width="3"/>
<path opacity="0.535354" d="M-52.0976 336.738C-51.0645 328.324 -45.4279 321.642 -38.1175 320.166L348.951 242.038C356.312 240.552 363.691 244.682 367.209 252.256L551.676 649.401C555.18 656.943 554.058 666.186 548.896 672.305L275.818 996.012C270.656 1002.13 262.626 1003.74 255.919 999.992L-97.2399 802.816C-103.975 799.055 -107.838 790.758 -106.798 782.285L-52.0976 336.738Z" stroke="url(#paint52_linear_551_9973)" stroke-width="3"/>
<path opacity="0.545455" d="M-51.7871 333.938C-50.6206 325.507 -44.8442 318.895 -37.4792 317.559L349.854 247.333C357.219 245.998 364.498 250.243 367.883 257.849L545.921 657.839C549.306 665.445 548.028 674.681 542.756 680.717L265.455 998.151C260.183 1004.19 252.114 1005.65 245.47 1001.77L-103.948 797.969C-110.593 794.094 -114.301 785.762 -113.135 777.331L-51.7871 333.938Z" stroke="url(#paint53_linear_551_9973)" stroke-width="3"/>
<path opacity="0.555556" d="M-51.4196 331.247C-50.1188 322.803 -44.2028 316.263 -36.7851 315.069L350.69 252.732C358.057 251.547 365.234 255.905 368.487 263.539L540.064 666.239C543.33 673.906 541.896 683.132 536.513 689.082L255.099 1000.17C249.716 1006.12 241.612 1007.44 235.032 1003.44L-110.551 793.093C-117.102 789.106 -120.657 780.742 -119.365 772.356L-51.4196 331.247Z" stroke="url(#paint54_linear_551_9973)" stroke-width="3"/>
<path opacity="0.565657" d="M-50.9961 328.659C-49.5604 320.203 -43.505 313.739 -36.0366 312.69L351.457 258.225C358.823 257.19 365.898 261.659 369.019 269.319L534.107 674.592C537.254 682.317 535.664 691.53 530.172 697.392L244.752 1002.07C239.26 1007.93 231.121 1009.11 224.609 1004.97L-117.046 788.183C-123.504 784.085 -126.905 775.695 -125.489 767.355L-50.9961 328.659Z" stroke="url(#paint55_linear_551_9973)" stroke-width="3"/>
<path opacity="0.575758" d="M-50.5196 326.178C-48.9482 317.715 -42.7535 311.33 -35.2366 310.426L352.153 263.817C359.517 262.931 366.489 267.508 369.477 275.191L528.05 682.9C531.077 690.681 529.33 699.877 523.73 705.649L234.415 1003.85C228.815 1009.62 220.644 1010.65 214.2 1006.39L-123.435 783.246C-129.798 779.04 -133.046 770.625 -131.506 762.334L-50.5196 326.178Z" stroke="url(#paint56_linear_551_9973)" stroke-width="3"/>
<path opacity="0.585859" d="M-49.992 323.8C-48.2842 315.332 -41.9508 309.03 -34.3875 308.272L352.777 269.497C360.136 268.76 367.004 273.444 369.86 281.147L521.894 691.155C524.799 698.99 522.897 708.165 517.189 713.844L224.09 1005.51C218.382 1011.19 210.181 1012.07 203.807 1007.68L-129.717 778.277C-135.984 773.966 -139.08 765.53 -137.418 757.29L-49.992 323.8Z" stroke="url(#paint57_linear_551_9973)" stroke-width="3"/>
<path opacity="0.59596" d="M-49.4136 321.526C-47.5688 313.056 -41.0971 306.839 -33.4897 306.23L353.329 275.266C360.681 274.678 367.443 279.465 370.169 287.186L515.641 699.354C518.424 707.241 516.366 716.392 510.552 721.976L213.779 1007.04C207.965 1012.62 199.735 1013.36 193.434 1008.85L-135.892 773.279C-142.061 768.866 -145.005 760.411 -143.222 752.225L-49.4136 321.526Z" stroke="url(#paint58_linear_551_9973)" stroke-width="3"/>
<path opacity="0.606061" d="M-48.7866 319.366C-46.8041 310.896 -40.1948 304.769 -32.5457 304.31L353.806 281.132C361.149 280.692 367.806 285.58 370.401 293.317L509.292 707.508C511.953 715.443 509.738 724.566 503.82 730.053L203.484 1008.46C197.566 1013.95 189.309 1014.53 183.082 1009.9L-141.958 768.265C-148.029 763.752 -150.822 755.281 -148.919 747.151L-48.7866 319.366Z" stroke="url(#paint59_linear_551_9973)" stroke-width="3"/>
<path opacity="0.616162" d="M-48.1147 317.314C-45.9941 308.848 -39.248 302.815 -31.5594 302.507L354.207 287.086C361.538 286.793 368.089 291.78 370.553 299.531L502.845 715.606C505.383 723.587 503.013 732.68 496.991 738.066L193.205 1009.76C187.183 1015.15 178.902 1015.58 172.751 1010.83L-147.918 763.231C-153.891 758.619 -156.533 750.136 -154.511 742.064L-48.1147 317.314Z" stroke="url(#paint60_linear_551_9973)" stroke-width="3"/>
<path opacity="0.626263" d="M-47.3971 315.367C-45.1381 306.909 -38.2559 300.972 -30.5305 300.818L354.531 293.124C361.848 292.977 368.293 298.061 370.627 305.822L496.305 723.643C498.719 731.669 496.194 740.728 490.069 746.01L182.946 1010.94C176.822 1016.22 168.519 1016.5 162.445 1011.64L-153.769 758.175C-159.642 753.467 -162.135 744.974 -159.995 736.962L-47.3971 315.367Z" stroke="url(#paint61_linear_551_9973)" stroke-width="3"/>
<path opacity="0.636364" d="M-46.6373 313.524C-44.2394 305.075 -37.2222 299.239 -29.4624 299.239L-29.4069 297.651L-29.4624 299.239L354.776 299.239C362.078 299.239 368.415 304.418 370.62 312.187L489.671 731.616C491.961 739.683 489.28 748.704 483.055 753.881L172.708 1012C166.483 1017.17 158.16 1017.3 152.165 1012.32L-159.512 753.097C-165.286 748.295 -167.63 739.795 -165.373 731.845L-46.6373 313.524L-47.9743 313.093L-46.6373 313.524Z" stroke="url(#paint62_linear_551_9973)" stroke-width="3"/>
<path opacity="0.646465" d="M-45.8366 311.798C-43.2995 303.363 -36.1485 297.631 -28.357 297.787L354.941 305.446C362.226 305.591 368.456 310.863 370.532 318.638L482.944 739.535C485.109 747.641 482.274 756.621 475.95 761.69L162.492 1012.94C156.167 1018.01 147.826 1017.99 141.913 1012.89L-165.148 748.013C-170.821 743.119 -173.017 734.615 -170.645 726.73L-45.8366 311.798Z" stroke="url(#paint63_linear_551_9973)" stroke-width="3"/>
<path opacity="0.656566" d="M-44.9954 310.182C-42.319 301.765 -35.0354 296.141 -27.2149 296.453L355.027 311.734C362.292 312.024 368.414 317.386 370.363 325.166L476.127 747.393C478.166 755.535 475.178 764.47 468.756 769.429L152.301 1013.77C145.879 1018.73 137.522 1018.56 131.691 1013.34L-170.675 742.917C-176.246 737.934 -178.296 729.429 -175.81 721.609L-44.9954 310.182Z" stroke="url(#paint64_linear_551_9973)" stroke-width="3"/>
<path opacity="0.666667" d="M-44.1162 308.673C-41.3003 300.275 -33.8856 294.763 -26.0387 295.234L355.032 318.095C362.275 318.53 368.288 323.98 370.11 331.762L469.22 755.18C471.134 763.357 467.992 772.244 461.474 777.089L142.136 1014.48C135.618 1019.33 127.248 1019 121.501 1013.67L-176.093 737.808C-181.563 732.738 -183.466 724.233 -180.867 716.481L-44.1162 308.673Z" stroke="url(#paint65_linear_551_9973)" stroke-width="3"/>
<path opacity="0.676768" d="M-43.2015 307.277C-40.2461 298.903 -32.7019 293.507 -24.8316 294.137L354.953 324.538C362.173 325.116 368.077 330.652 369.772 338.434L462.224 762.905C464.012 771.114 460.717 779.949 454.105 784.679L131.999 1015.08C125.386 1019.81 117.006 1019.33 111.344 1013.89L-181.404 732.695C-186.771 727.539 -188.53 719.037 -185.819 711.356L-43.2015 307.277Z" stroke="url(#paint66_linear_551_9973)" stroke-width="3"/>
<path opacity="0.686869" d="M-42.2527 305.99C-39.1577 297.644 -31.4857 292.367 -23.5949 293.157L354.791 331.052C361.985 331.773 367.78 337.394 369.349 345.175L455.14 770.559C456.802 778.797 453.356 787.577 446.65 792.189L121.891 1015.57C115.186 1020.18 106.796 1019.54 101.222 1013.99L-186.607 727.574C-191.871 722.336 -193.486 713.839 -190.664 706.229L-42.2527 305.99Z" stroke="url(#paint67_linear_551_9973)" stroke-width="3"/>
<path opacity="0.69697" d="M-41.271 304.817C-38.0367 296.501 -30.2387 291.347 -22.3304 292.299L354.543 337.643C361.71 338.505 367.396 344.21 368.84 351.986L447.971 778.147C449.505 786.411 445.909 795.132 439.113 799.623L111.814 1015.94C105.019 1020.43 96.6229 1019.64 91.1376 1013.98L-191.701 722.454C-196.862 717.134 -198.335 708.645 -195.404 701.109L-41.271 304.817Z" stroke="url(#paint68_linear_551_9973)" stroke-width="3"/>
<path opacity="0.707071" d="M-40.2599 303.757C-36.8864 295.475 -28.9645 290.448 -21.0417 291.562L354.209 344.305C361.347 345.309 366.923 351.094 368.243 358.865L440.715 785.663C442.122 793.952 438.376 802.61 431.491 806.979L101.769 1016.2C94.8844 1020.57 86.4849 1019.62 81.0899 1013.86L-196.689 717.334C-201.747 711.935 -203.078 703.456 -200.039 695.995L-40.2599 303.757Z" stroke="url(#paint69_linear_551_9973)" stroke-width="3"/>
<path opacity="0.717172" d="M-39.2203 302.801C-35.708 294.558 -27.6643 289.662 -19.7301 290.938L353.787 351.03C360.894 352.174 366.361 358.038 367.557 365.802L433.375 793.1C434.655 801.411 430.76 810.003 423.789 814.246L91.7574 1016.34C84.786 1020.58 76.3854 1019.48 71.0821 1013.61L-201.571 712.209C-206.524 706.733 -207.715 698.266 -204.569 690.882L-39.2203 302.801Z" stroke="url(#paint70_linear_551_9973)" stroke-width="3"/>
<path opacity="0.727273" d="M-38.1519 301.971C-34.5012 293.769 -26.3382 289.008 -18.3957 290.448L353.279 357.835C360.354 359.118 365.71 365.06 366.783 372.815L425.954 800.475C427.107 808.805 423.064 817.328 416.008 821.444L81.783 1016.39C74.727 1020.5 66.3277 1019.24 61.1175 1013.27L-206.343 707.102C-211.193 701.55 -212.244 693.097 -208.992 685.791L-38.1519 301.971Z" stroke="url(#paint71_linear_551_9973)" stroke-width="3"/>
<path opacity="0.737374" d="M-37.0576 301.245C-33.269 293.089 -24.9891 288.466 -17.0416 290.07L352.683 364.698C359.723 366.119 364.97 372.137 365.92 379.881L418.452 807.766C419.477 816.114 415.289 824.563 408.151 828.549L71.8463 1016.32C64.708 1020.3 56.3126 1018.88 51.197 1012.81L-211.008 701.993C-215.754 696.368 -216.666 687.93 -213.311 680.705L-37.0576 301.245Z" stroke="url(#paint72_linear_551_9973)" stroke-width="3"/>
<path opacity="0.747475" d="M-35.9407 300.635C-32.0147 292.528 -23.6206 288.047 -15.6713 289.816L351.996 371.627C359 373.185 364.136 379.277 364.966 387.009L410.87 814.982C411.767 823.345 407.434 831.718 400.216 835.571L61.9473 1016.14C54.7289 1019.99 46.3401 1018.41 41.3204 1012.25L-215.568 696.897C-220.209 691.199 -220.985 682.779 -217.526 675.636L-35.9407 300.635Z" stroke="url(#paint73_linear_551_9973)" stroke-width="3"/>
<path opacity="0.757576" d="M-34.8021 300.138C-30.7395 292.083 -22.2341 287.748 -14.2863 289.682L351.218 378.617C358.184 380.312 363.211 386.477 363.919 394.195L403.209 822.119C403.978 830.494 399.502 838.788 392.206 842.507L52.0882 1015.85C44.792 1019.57 36.4124 1017.83 31.4901 1011.57L-220.023 691.811C-224.559 686.044 -225.198 677.642 -221.637 670.582L-34.8021 300.138Z" stroke="url(#paint74_linear_551_9973)" stroke-width="3"/>
<path opacity="0.767677" d="M-33.6413 299.748C-29.4429 291.749 -20.8292 287.563 -12.8863 289.663L350.352 385.66C357.278 387.49 362.194 393.727 362.783 401.43L395.474 829.17C396.114 837.555 391.496 845.765 384.125 849.347L42.2729 1015.46C34.9014 1019.04 26.5338 1017.14 21.71 1010.79L-224.369 686.733C-228.801 680.897 -229.305 672.517 -225.644 665.541L-33.6413 299.748Z" stroke="url(#paint75_linear_551_9973)" stroke-width="3"/>
<path opacity="0.777778" d="M-32.4631 299.483C-28.1298 291.544 -19.4109 287.512 -11.4764 289.776L349.392 392.773C356.277 394.738 361.082 401.044 361.552 408.731L387.661 836.151C388.174 844.543 383.416 852.668 375.971 856.111L32.4995 1014.97C25.0553 1018.41 16.7024 1016.35 11.9785 1009.9L-228.612 681.682C-232.939 675.78 -233.309 667.422 -229.548 660.533L-32.4631 299.483Z" stroke="url(#paint76_linear_551_9973)" stroke-width="3"/>
<path opacity="0.787879" d="M-31.2684 299.324C-26.8012 291.45 -17.9805 287.574 -10.0577 290.004L348.338 399.935C355.181 402.033 359.876 408.408 360.227 416.077L379.774 843.043C380.159 851.44 375.262 859.475 367.748 862.777L22.7706 1014.37C15.2563 1017.67 6.92097 1015.45 2.29818 1008.91L-232.75 676.644C-236.972 670.676 -237.209 662.342 -233.351 655.541L-31.2684 299.324Z" stroke="url(#paint77_linear_551_9973)" stroke-width="3"/>
<path opacity="0.79798" d="M-30.0584 299.277C-25.4584 291.47 -16.5394 287.754 -8.63194 290.35L-8.11722 288.875L-8.63191 290.35L347.192 407.148C353.991 409.379 358.575 415.821 358.808 423.471L371.815 849.848C372.071 858.248 367.038 866.189 359.456 869.348L13.0879 1013.66C5.50606 1016.82 -2.80887 1014.44 -7.32929 1007.82L-236.784 671.623C-240.901 665.591 -241.006 657.284 -237.051 650.571L-30.0584 299.277L-31.281 298.526L-30.0584 299.277Z" stroke="url(#paint78_linear_551_9973)" stroke-width="3"/>
<path opacity="0.808081" d="M-28.8344 299.346C-24.1029 291.611 -15.0892 288.058 -7.20046 290.819L345.952 414.415C352.705 416.778 357.179 423.286 357.295 430.915L363.785 856.57C363.913 864.97 358.746 872.816 351.099 875.83L3.45322 1012.86C-4.19331 1015.87 -12.485 1013.33 -16.9018 1006.62L-240.714 666.628C-244.725 660.534 -244.7 652.253 -240.65 645.631L-28.8344 299.346Z" stroke="url(#paint79_linear_551_9973)" stroke-width="3"/>
<path opacity="0.818182" d="M-27.5991 299.526C-22.7374 291.866 -13.6327 288.48 -5.76636 291.406L344.617 421.73C351.323 424.224 355.686 430.796 355.686 438.403L355.686 863.204C355.686 871.602 350.385 879.348 342.677 882.215L-6.13293 1011.95C-13.8413 1014.82 -22.1068 1012.12 -26.4189 1005.33L-244.541 661.655C-248.448 655.5 -248.293 647.248 -244.148 640.718L-27.5991 299.526Z" stroke="url(#paint80_linear_551_9973)" stroke-width="3"/>
<path opacity="0.828283" d="M-26.3537 299.825C-21.3632 292.244 -12.1716 289.027 -4.3311 292.117L343.187 429.096C349.844 431.72 354.096 438.355 353.981 445.94L347.518 869.754C347.39 878.147 341.959 885.791 334.192 888.509L-15.6687 1010.95C-23.4361 1013.67 -31.6723 1010.81 -35.8786 1003.94L-248.266 656.714C-252.067 650.5 -251.784 642.278 -247.546 635.841L-26.3537 299.825Z" stroke="url(#paint81_linear_551_9973)" stroke-width="3"/>
<path opacity="0.838384" d="M-25.0987 300.228C-19.9811 292.73 -10.7066 289.685 -2.8956 292.94L341.662 436.499C348.27 439.252 352.411 445.949 352.18 453.51L339.285 876.207C339.029 884.593 333.47 892.131 325.647 894.699L-25.1518 1009.85C-32.9752 1012.42 -41.1793 1009.4 -45.2785 1002.44L-251.889 651.793C-255.584 645.522 -255.173 637.33 -250.844 630.987L-25.0987 300.228Z" stroke="url(#paint82_linear_551_9973)" stroke-width="3"/>
<path opacity="0.848485" d="M-23.8388 300.749C-18.5958 293.337 -9.24263 290.469 -1.46463 293.886L340.04 443.951C346.596 446.831 350.625 453.589 350.28 461.125L330.986 882.574C330.602 890.951 324.917 898.38 317.04 900.796L-34.5836 1008.65C-42.46 1011.07 -50.629 1007.89 -54.6201 1000.85L-255.412 646.909C-259.002 640.58 -258.464 632.421 -254.045 626.174L-23.8388 300.749Z" stroke="url(#paint83_linear_551_9973)" stroke-width="3"/>
<path opacity="0.858586" d="M-22.5728 301.386C-17.2059 294.064 -7.77856 291.374 -0.03724 294.954L338.321 451.445C344.824 454.453 348.743 461.271 348.284 468.78L322.624 888.852C322.113 897.218 316.303 904.535 308.377 906.798L-43.96 1007.36C-51.8863 1009.62 -60.017 1006.28 -63.899 999.171L-258.834 642.06C-262.318 635.676 -261.655 627.55 -257.146 621.4L-22.5728 301.386Z" stroke="url(#paint84_linear_551_9973)" stroke-width="3"/>
<path opacity="0.868687" d="M-21.3032 302.132C-15.8146 294.905 -6.31742 292.395 1.38357 296.137L336.506 458.976C342.955 462.109 346.762 468.986 346.19 476.468L314.2 895.035C313.562 903.386 307.631 910.59 299.658 912.697L-53.2808 1005.97C-61.2538 1008.08 -69.3432 1004.58 -73.115 997.395L-262.156 637.243C-265.535 630.805 -264.747 622.714 -260.151 616.662L-21.3032 302.132Z" stroke="url(#paint85_linear_551_9973)" stroke-width="3"/>
<path opacity="0.878788" d="M-20.031 302.987C-14.4225 295.857 -4.86028 293.53 2.79687 297.433L334.594 466.539C340.987 469.797 344.683 476.732 343.999 484.185L305.718 901.119C304.952 909.454 298.902 916.54 290.886 918.491L-62.5438 1004.49C-70.5603 1006.44 -78.6053 1002.78 -82.2659 995.523L-265.379 632.459C-268.653 625.968 -267.74 617.913 -263.058 611.959L-20.031 302.987Z" stroke="url(#paint86_linear_551_9973)" stroke-width="3"/>
<path opacity="0.888889" d="M-18.7609 303.96C-13.0346 296.93 -3.412 294.789 4.19763 298.851L332.582 474.142C338.919 477.524 342.503 484.515 341.706 491.939L297.174 907.115C296.282 915.431 290.116 922.397 282.059 924.19L-71.7508 1002.92C-79.8076 1004.71 -87.805 1000.9 -91.3535 993.567L-268.507 627.72C-271.674 621.178 -270.639 613.159 -265.871 607.306L-18.7609 303.96Z" stroke="url(#paint87_linear_551_9973)" stroke-width="3"/>
<path opacity="0.89899" d="M-17.4915 305.041C-11.6496 298.116 -1.97148 296.163 5.58701 300.383L330.473 481.774C336.751 485.279 340.223 492.326 339.316 499.72L288.575 913.011C287.557 921.306 281.276 928.15 273.182 929.784L-80.8976 1001.25C-88.9912 1002.89 -96.9381 998.915 -100.373 991.519L-271.536 623.018C-274.598 616.426 -273.441 608.444 -268.589 602.693L-17.4915 305.041Z" stroke="url(#paint88_linear_551_9973)" stroke-width="3"/>
<path opacity="0.909091" d="M-16.2241 306.24C-10.269 299.423 -0.540261 297.659 6.96358 302.036L328.266 489.442C334.485 493.069 337.845 500.171 336.826 507.533L279.922 918.816C278.777 927.088 272.385 933.807 264.258 935.28L-89.9827 999.507C-98.1099 1000.98 -106.003 996.852 -109.324 989.389L-274.469 618.365C-277.425 611.724 -276.146 603.781 -271.211 598.131L-16.2241 306.24Z" stroke="url(#paint89_linear_551_9973)" stroke-width="3"/>
<path opacity="0.919192" d="M-14.9625 307.543C-8.89659 300.837 0.877631 299.265 8.32324 303.796L325.96 497.131C332.118 500.879 335.366 508.034 334.237 515.365L271.213 924.517C269.943 932.763 263.442 939.354 255.285 940.666L-99.007 997.665C-107.164 998.978 -115 994.693 -118.207 987.167L-277.308 613.751C-280.158 607.061 -278.759 599.157 -273.742 593.612L-14.9625 307.543Z" stroke="url(#paint90_linear_551_9973)" stroke-width="3"/>
<path opacity="0.929293" d="M-13.7073 308.959C-7.53291 302.368 2.28163 300.989 9.66548 305.674L323.555 504.848C329.65 508.715 332.786 515.924 331.547 523.221L262.454 930.121C261.058 938.339 254.451 944.8 246.267 945.95L-107.968 995.74C-116.152 996.89 -123.928 992.451 -127.019 984.864L-280.052 609.185C-282.796 602.448 -281.277 594.585 -276.18 589.144L-13.7073 308.959Z" stroke="url(#paint91_linear_551_9973)" stroke-width="3"/>
<path opacity="0.939394" d="M-12.461 310.489C-6.1808 304.016 3.66885 302.831 10.9874 307.668L321.05 512.591C327.082 516.578 330.105 523.839 328.756 531.102L253.643 935.629C252.122 943.817 245.413 950.145 237.205 951.133L-116.866 993.733C-125.073 994.721 -132.786 990.127 -135.76 982.481L-282.705 604.671C-285.343 597.887 -283.705 590.066 -278.528 584.73L-12.461 310.489Z" stroke="url(#paint92_linear_551_9973)" stroke-width="3"/>
<path opacity="0.949495" d="M-11.2217 312.133C-4.83845 305.781 5.04102 304.791 12.2909 309.778L318.448 520.36C324.416 524.465 327.326 531.777 325.868 539.005L244.786 941.04C243.141 949.195 236.331 955.389 228.104 956.213L-125.696 991.647C-133.923 992.47 -141.569 987.724 -144.426 980.02L-285.262 600.21C-287.794 593.382 -286.038 585.602 -280.784 580.374L-11.2217 312.133Z" stroke="url(#paint93_linear_551_9973)" stroke-width="3"/>
<path opacity="0.959596" d="M-9.99594 313.877C-3.51228 307.65 6.39171 306.857 13.5694 311.991L315.745 528.139C321.647 532.361 324.443 539.723 322.877 546.916L235.88 946.341C234.111 954.461 227.204 960.519 218.961 961.179L-134.462 989.469C-142.705 990.129 -150.282 985.231 -153.02 977.472L-287.732 595.793C-290.157 588.921 -288.283 581.184 -282.952 576.063L-9.99594 313.877Z" stroke="url(#paint94_linear_551_9973)" stroke-width="3"/>
<path opacity="0.969697" d="M-8.7826 315.736C-2.20146 309.636 7.72161 309.04 14.8238 314.32L312.943 535.941C318.777 540.278 321.46 547.69 319.785 554.846L226.929 951.546C225.037 959.628 218.036 965.547 209.78 966.042L-143.16 987.216C-151.416 987.712 -158.92 982.663 -161.539 974.851L-290.111 591.435C-292.43 584.519 -290.438 576.827 -285.032 571.815L-8.7826 315.736Z" stroke="url(#paint95_linear_551_9973)" stroke-width="3"/>
<path opacity="0.979798" d="M-7.58386 317.704C-0.90813 311.734 9.02861 311.337 16.0519 316.76L310.041 543.758C315.807 548.21 318.376 555.671 316.593 562.789L217.935 956.648C215.92 964.691 208.827 970.469 200.562 970.8L-151.79 984.885C-160.054 985.215 -167.482 980.018 -169.982 972.155L-292.401 587.133C-294.613 580.175 -292.505 572.527 -287.024 567.625L-7.58386 317.704Z" stroke="url(#paint96_linear_551_9973)" stroke-width="3"/>
<path opacity="0.989899" d="M-6.40094 319.78C0.366392 313.942 10.3114 313.744 17.2525 319.307L307.04 551.586C312.737 556.153 315.191 563.662 313.301 570.741L208.899 961.646C206.762 969.648 199.581 975.283 191.311 975.448L-160.349 982.475C-168.619 982.64 -175.968 977.295 -178.348 969.384L-294.603 582.888C-296.709 575.888 -294.485 568.286 -288.931 563.495L-6.40094 319.78Z" stroke="url(#paint97_linear_551_9973)" stroke-width="3"/>
<path d="M-5.23593 321.96C1.61987 316.258 11.5676 316.258 18.4234 321.96L303.94 559.423C309.566 564.102 311.905 571.658 309.907 578.698L199.823 966.537C197.565 974.495 190.298 979.986 182.026 979.986H-168.839C-177.111 979.986 -184.377 974.495 -186.636 966.537L-296.72 578.698C-298.718 571.658 -296.379 564.102 -290.752 559.423L-5.23593 321.96Z" stroke="url(#paint98_linear_551_9973)" stroke-width="3"/>
</g>
<defs>
<linearGradient id="paint0_linear_551_9973" x1="463.051" y1="780.625" x2="377.923" y2="251.493" gradientUnits="userSpaceOnUse">
<stop stop-color="#FF1CF7"/>
<stop offset="1" stop-color="#00F0FF"/>
</linearGradient>
<linearGradient id="paint1_linear_551_9973" x1="454.692" y1="782.413" x2="380.181" y2="252.293" gradientUnits="userSpaceOnUse">
<stop stop-color="#FF1CF7"/>
<stop offset="1" stop-color="#00F0FF"/>
</linearGradient>
<linearGradient id="paint2_linear_551_9973" x1="446.339" y1="784.114" x2="382.469" y2="253.266" gradientUnits="userSpaceOnUse">
<stop stop-color="#FF1CF7"/>
<stop offset="1" stop-color="#00F0FF"/>
</linearGradient>
<linearGradient id="paint3_linear_551_9973" x1="437.992" y1="785.745" x2="384.78" y2="254.431" gradientUnits="userSpaceOnUse">
<stop stop-color="#FF1CF7"/>
<stop offset="1" stop-color="#00F0FF"/>
</linearGradient>
<linearGradient id="paint4_linear_551_9973" x1="429.655" y1="787.29" x2="387.108" y2="255.772" gradientUnits="userSpaceOnUse">
<stop stop-color="#FF1CF7"/>
<stop offset="1" stop-color="#00F0FF"/>
</linearGradient>
<linearGradient id="paint5_linear_551_9973" x1="371.326" y1="788.755" x2="339.443" y2="257.297" gradientUnits="userSpaceOnUse">
<stop stop-color="#FF1CF7"/>
<stop offset="1" stop-color="#00F0FF"/>
</linearGradient>
<linearGradient id="paint6_linear_551_9973" x1="363.009" y1="790.134" x2="341.777" y2="259" gradientUnits="userSpaceOnUse">
<stop stop-color="#FF1CF7"/>
<stop offset="1" stop-color="#00F0FF"/>
</linearGradient>
<linearGradient id="paint7_linear_551_9973" x1="354.703" y1="791.442" x2="344.102" y2="260.895" gradientUnits="userSpaceOnUse">
<stop stop-color="#FF1CF7"/>
<stop offset="1" stop-color="#00F0FF"/>
</linearGradient>
<linearGradient id="paint8_linear_551_9973" x1="346.41" y1="792.667" x2="346.41" y2="262.971" gradientUnits="userSpaceOnUse">
<stop stop-color="#FF1CF7"/>
<stop offset="1" stop-color="#00F0FF"/>
</linearGradient>
<linearGradient id="paint9_linear_551_9973" x1="338.132" y1="793.807" x2="348.693" y2="265.222" gradientUnits="userSpaceOnUse">
<stop stop-color="#FF1CF7"/>
<stop offset="1" stop-color="#00F0FF"/>
</linearGradient>
<linearGradient id="paint10_linear_551_9973" x1="379.869" y1="794.877" x2="400.945" y2="267.663" gradientUnits="userSpaceOnUse">
<stop stop-color="#FF1CF7"/>
<stop offset="1" stop-color="#00F0FF"/>
</linearGradient>
<linearGradient id="paint11_linear_551_9973" x1="371.624" y1="795.864" x2="403.155" y2="270.279" gradientUnits="userSpaceOnUse">
<stop stop-color="#FF1CF7"/>
<stop offset="1" stop-color="#00F0FF"/>
</linearGradient>
<linearGradient id="paint12_linear_551_9973" x1="363.397" y1="796.771" x2="405.318" y2="273.07" gradientUnits="userSpaceOnUse">
<stop stop-color="#FF1CF7"/>
<stop offset="1" stop-color="#00F0FF"/>
</linearGradient>
<linearGradient id="paint13_linear_551_9973" x1="355.188" y1="797.607" x2="407.423" y2="276.041" gradientUnits="userSpaceOnUse">
<stop stop-color="#FF1CF7"/>
<stop offset="1" stop-color="#00F0FF"/>
</linearGradient>
<linearGradient id="paint14_linear_551_9973" x1="347.001" y1="798.36" x2="409.467" y2="279.18" gradientUnits="userSpaceOnUse">
<stop stop-color="#FF1CF7"/>
<stop offset="1" stop-color="#00F0FF"/>
</linearGradient>
<linearGradient id="paint15_linear_551_9973" x1="338.834" y1="799.043" x2="411.438" y2="282.491" gradientUnits="userSpaceOnUse">
<stop stop-color="#FF1CF7"/>
<stop offset="1" stop-color="#00F0FF"/>
</linearGradient>
<linearGradient id="paint16_linear_551_9973" x1="330.69" y1="799.642" x2="413.332" y2="285.96" gradientUnits="userSpaceOnUse">
<stop stop-color="#FF1CF7"/>
<stop offset="1" stop-color="#00F0FF"/>
</linearGradient>
<linearGradient id="paint17_linear_551_9973" x1="322.57" y1="800.172" x2="415.142" y2="289.595" gradientUnits="userSpaceOnUse">
<stop stop-color="#FF1CF7"/>
<stop offset="1" stop-color="#00F0FF"/>
</linearGradient>
<linearGradient id="paint18_linear_551_9973" x1="314.474" y1="800.631" x2="416.859" y2="293.389" gradientUnits="userSpaceOnUse">
<stop stop-color="#FF1CF7"/>
<stop offset="1" stop-color="#00F0FF"/>
</linearGradient>
<linearGradient id="paint19_linear_551_9973" x1="306.405" y1="801.011" x2="418.481" y2="297.33" gradientUnits="userSpaceOnUse">
<stop stop-color="#FF1CF7"/>
<stop offset="1" stop-color="#00F0FF"/>
</linearGradient>
<linearGradient id="paint20_linear_551_9973" x1="298.363" y1="801.318" x2="419.999" y2="301.418" gradientUnits="userSpaceOnUse">
<stop stop-color="#FF1CF7"/>
<stop offset="1" stop-color="#00F0FF"/>
</linearGradient>
<linearGradient id="paint21_linear_551_9973" x1="290.349" y1="801.551" x2="421.408" y2="305.645" gradientUnits="userSpaceOnUse">
<stop stop-color="#FF1CF7"/>
<stop offset="1" stop-color="#00F0FF"/>
</linearGradient>
<linearGradient id="paint22_linear_551_9973" x1="282.364" y1="801.721" x2="422.703" y2="310.016" gradientUnits="userSpaceOnUse">
<stop stop-color="#FF1CF7"/>
<stop offset="1" stop-color="#00F0FF"/>
</linearGradient>
<linearGradient id="paint23_linear_551_9973" x1="274.411" y1="801.812" x2="423.881" y2="314.509" gradientUnits="userSpaceOnUse">
<stop stop-color="#FF1CF7"/>
<stop offset="1" stop-color="#00F0FF"/>
</linearGradient>
<linearGradient id="paint24_linear_551_9973" x1="266.488" y1="801.836" x2="424.934" y2="319.129" gradientUnits="userSpaceOnUse">
<stop stop-color="#FF1CF7"/>
<stop offset="1" stop-color="#00F0FF"/>
</linearGradient>
<linearGradient id="paint25_linear_551_9973" x1="258.596" y1="801.791" x2="425.859" y2="323.867" gradientUnits="userSpaceOnUse">
<stop stop-color="#FF1CF7"/>
<stop offset="1" stop-color="#00F0FF"/>
</linearGradient>
<linearGradient id="paint26_linear_551_9973" x1="250.739" y1="801.67" x2="426.654" y2="328.71" gradientUnits="userSpaceOnUse">
<stop stop-color="#FF1CF7"/>
<stop offset="1" stop-color="#00F0FF"/>
</linearGradient>
<linearGradient id="paint27_linear_551_9973" x1="242.917" y1="801.492" x2="427.316" y2="333.669" gradientUnits="userSpaceOnUse">
<stop stop-color="#FF1CF7"/>
<stop offset="1" stop-color="#00F0FF"/>
</linearGradient>
<linearGradient id="paint28_linear_551_9973" x1="235.129" y1="801.241" x2="427.838" y2="338.719" gradientUnits="userSpaceOnUse">
<stop stop-color="#FF1CF7"/>
<stop offset="1" stop-color="#00F0FF"/>
</linearGradient>
<linearGradient id="paint29_linear_551_9973" x1="227.378" y1="800.925" x2="428.221" y2="343.862" gradientUnits="userSpaceOnUse">
<stop stop-color="#FF1CF7"/>
<stop offset="1" stop-color="#00F0FF"/>
</linearGradient>
<linearGradient id="paint30_linear_551_9973" x1="219.663" y1="800.546" x2="428.461" y2="349.094" gradientUnits="userSpaceOnUse">
<stop stop-color="#FF1CF7"/>
<stop offset="1" stop-color="#00F0FF"/>
</linearGradient>
<linearGradient id="paint31_linear_551_9973" x1="211.989" y1="800.101" x2="428.558" y2="354.402" gradientUnits="userSpaceOnUse">
<stop stop-color="#FF1CF7"/>
<stop offset="1" stop-color="#00F0FF"/>
</linearGradient>
<linearGradient id="paint32_linear_551_9973" x1="204.352" y1="799.594" x2="428.509" y2="359.784" gradientUnits="userSpaceOnUse">
<stop stop-color="#FF1CF7"/>
<stop offset="1" stop-color="#00F0FF"/>
</linearGradient>
<linearGradient id="paint33_linear_551_9973" x1="196.756" y1="799.023" x2="428.314" y2="365.23" gradientUnits="userSpaceOnUse">
<stop stop-color="#FF1CF7"/>
<stop offset="1" stop-color="#00F0FF"/>
</linearGradient>
<linearGradient id="paint34_linear_551_9973" x1="189.2" y1="798.39" x2="427.97" y2="370.735" gradientUnits="userSpaceOnUse">
<stop stop-color="#FF1CF7"/>
<stop offset="1" stop-color="#00F0FF"/>
</linearGradient>
<linearGradient id="paint35_linear_551_9973" x1="181.687" y1="797.696" x2="427.48" y2="376.291" gradientUnits="userSpaceOnUse">
<stop stop-color="#FF1CF7"/>
<stop offset="1" stop-color="#00F0FF"/>
</linearGradient>
<linearGradient id="paint36_linear_551_9973" x1="174.216" y1="796.944" x2="426.841" y2="381.896" gradientUnits="userSpaceOnUse">
<stop stop-color="#FF1CF7"/>
<stop offset="1" stop-color="#00F0FF"/>
</linearGradient>
<linearGradient id="paint37_linear_551_9973" x1="166.79" y1="796.135" x2="426.056" y2="387.543" gradientUnits="userSpaceOnUse">
<stop stop-color="#FF1CF7"/>
<stop offset="1" stop-color="#00F0FF"/>
</linearGradient>
<linearGradient id="paint38_linear_551_9973" x1="159.405" y1="795.267" x2="425.122" y2="393.221" gradientUnits="userSpaceOnUse">
<stop stop-color="#FF1CF7"/>
<stop offset="1" stop-color="#00F0FF"/>
</linearGradient>
<linearGradient id="paint39_linear_551_9973" x1="152.068" y1="794.341" x2="424.044" y2="398.926" gradientUnits="userSpaceOnUse">
<stop stop-color="#FF1CF7"/>
<stop offset="1" stop-color="#00F0FF"/>
</linearGradient>
<linearGradient id="paint40_linear_551_9973" x1="144.777" y1="793.36" x2="422.821" y2="404.654" gradientUnits="userSpaceOnUse">
<stop stop-color="#FF1CF7"/>
<stop offset="1" stop-color="#00F0FF"/>
</linearGradient>
<linearGradient id="paint41_linear_551_9973" x1="137.533" y1="792.33" x2="421.456" y2="410.403" gradientUnits="userSpaceOnUse">
<stop stop-color="#FF1CF7"/>
<stop offset="1" stop-color="#00F0FF"/>
</linearGradient>
<linearGradient id="paint42_linear_551_9973" x1="130.335" y1="791.24" x2="419.947" y2="416.158" gradientUnits="userSpaceOnUse">
<stop stop-color="#FF1CF7"/>
<stop offset="1" stop-color="#00F0FF"/>
</linearGradient>
<linearGradient id="paint43_linear_551_9973" x1="123.185" y1="790.097" x2="418.3" y2="421.917" gradientUnits="userSpaceOnUse">
<stop stop-color="#FF1CF7"/>
<stop offset="1" stop-color="#00F0FF"/>
</linearGradient>
<linearGradient id="paint44_linear_551_9973" x1="116.085" y1="788.908" x2="416.515" y2="427.683" gradientUnits="userSpaceOnUse">
<stop stop-color="#FF1CF7"/>
<stop offset="1" stop-color="#00F0FF"/>
</linearGradient>
<linearGradient id="paint45_linear_551_9973" x1="109.035" y1="787.667" x2="414.596" y2="433.442" gradientUnits="userSpaceOnUse">
<stop stop-color="#FF1CF7"/>
<stop offset="1" stop-color="#00F0FF"/>
</linearGradient>
<linearGradient id="paint46_linear_551_9973" x1="102.035" y1="786.375" x2="412.544" y2="439.19" gradientUnits="userSpaceOnUse">
<stop stop-color="#FF1CF7"/>
<stop offset="1" stop-color="#00F0FF"/>
</linearGradient>
<linearGradient id="paint47_linear_551_9973" x1="95.085" y1="785.04" x2="410.361" y2="444.93" gradientUnits="userSpaceOnUse">
<stop stop-color="#FF1CF7"/>
<stop offset="1" stop-color="#00F0FF"/>
</linearGradient>
<linearGradient id="paint48_linear_551_9973" x1="88.1875" y1="783.649" x2="408.053" y2="450.644" gradientUnits="userSpaceOnUse">
<stop stop-color="#FF1CF7"/>
<stop offset="1" stop-color="#00F0FF"/>
</linearGradient>
<linearGradient id="paint49_linear_551_9973" x1="81.3422" y1="782.225" x2="405.621" y2="456.349" gradientUnits="userSpaceOnUse">
<stop stop-color="#FF1CF7"/>
<stop offset="1" stop-color="#00F0FF"/>
</linearGradient>
<linearGradient id="paint50_linear_551_9973" x1="74.5495" y1="780.746" x2="403.069" y2="462.018" gradientUnits="userSpaceOnUse">
<stop stop-color="#FF1CF7"/>
<stop offset="1" stop-color="#00F0FF"/>
</linearGradient>
<linearGradient id="paint51_linear_551_9973" x1="67.8105" y1="779.229" x2="400.399" y2="467.664" gradientUnits="userSpaceOnUse">
<stop stop-color="#FF1CF7"/>
<stop offset="1" stop-color="#00F0FF"/>
</linearGradient>
<linearGradient id="paint52_linear_551_9973" x1="61.1252" y1="777.669" x2="397.615" y2="473.279" gradientUnits="userSpaceOnUse">
<stop stop-color="#FF1CF7"/>
<stop offset="1" stop-color="#00F0FF"/>
</linearGradient>
<linearGradient id="paint53_linear_551_9973" x1="54.4944" y1="776.064" x2="394.721" y2="478.853" gradientUnits="userSpaceOnUse">
<stop stop-color="#FF1CF7"/>
<stop offset="1" stop-color="#00F0FF"/>
</linearGradient>
<linearGradient id="paint54_linear_551_9973" x1="47.9186" y1="774.425" x2="391.72" y2="484.396" gradientUnits="userSpaceOnUse">
<stop stop-color="#FF1CF7"/>
<stop offset="1" stop-color="#00F0FF"/>
</linearGradient>
<linearGradient id="paint55_linear_551_9973" x1="41.3993" y1="772.745" x2="388.616" y2="489.897" gradientUnits="userSpaceOnUse">
<stop stop-color="#FF1CF7"/>
<stop offset="1" stop-color="#00F0FF"/>
</linearGradient>
<linearGradient id="paint56_linear_551_9973" x1="34.9355" y1="771.031" x2="385.413" y2="495.359" gradientUnits="userSpaceOnUse">
<stop stop-color="#FF1CF7"/>
<stop offset="1" stop-color="#00F0FF"/>
</linearGradient>
<linearGradient id="paint57_linear_551_9973" x1="28.5277" y1="769.278" x2="382.113" y2="500.773" gradientUnits="userSpaceOnUse">
<stop stop-color="#FF1CF7"/>
<stop offset="1" stop-color="#00F0FF"/>
</linearGradient>
<linearGradient id="paint58_linear_551_9973" x1="22.1777" y1="767.487" x2="378.721" y2="506.137" gradientUnits="userSpaceOnUse">
<stop stop-color="#FF1CF7"/>
<stop offset="1" stop-color="#00F0FF"/>
</linearGradient>
<linearGradient id="paint59_linear_551_9973" x1="15.8856" y1="765.669" x2="375.241" y2="511.46" gradientUnits="userSpaceOnUse">
<stop stop-color="#FF1CF7"/>
<stop offset="1" stop-color="#00F0FF"/>
</linearGradient>
<linearGradient id="paint60_linear_551_9973" x1="9.6496" y1="763.819" x2="371.675" y2="516.735" gradientUnits="userSpaceOnUse">
<stop stop-color="#FF1CF7"/>
<stop offset="1" stop-color="#00F0FF"/>
</linearGradient>
<linearGradient id="paint61_linear_551_9973" x1="3.47279" y1="761.936" x2="368.028" y2="521.956" gradientUnits="userSpaceOnUse">
<stop stop-color="#FF1CF7"/>
<stop offset="1" stop-color="#00F0FF"/>
</linearGradient>
<linearGradient id="paint62_linear_551_9973" x1="-2.64612" y1="760.016" x2="364.303" y2="527.119" gradientUnits="userSpaceOnUse">
<stop stop-color="#FF1CF7"/>
<stop offset="1" stop-color="#00F0FF"/>
</linearGradient>
<linearGradient id="paint63_linear_551_9973" x1="-8.70652" y1="758.076" x2="360.503" y2="532.238" gradientUnits="userSpaceOnUse">
<stop stop-color="#FF1CF7"/>
<stop offset="1" stop-color="#00F0FF"/>
</linearGradient>
<linearGradient id="paint64_linear_551_9973" x1="-14.7067" y1="756.108" x2="356.634" y2="537.304" gradientUnits="userSpaceOnUse">
<stop stop-color="#FF1CF7"/>
<stop offset="1" stop-color="#00F0FF"/>
</linearGradient>
<linearGradient id="paint65_linear_551_9973" x1="-20.6469" y1="754.11" x2="352.698" y2="542.311" gradientUnits="userSpaceOnUse">
<stop stop-color="#FF1CF7"/>
<stop offset="1" stop-color="#00F0FF"/>
</linearGradient>
<linearGradient id="paint66_linear_551_9973" x1="-26.528" y1="752.091" x2="348.697" y2="547.268" gradientUnits="userSpaceOnUse">
<stop stop-color="#FF1CF7"/>
<stop offset="1" stop-color="#00F0FF"/>
</linearGradient>
<linearGradient id="paint67_linear_551_9973" x1="-32.349" y1="750.045" x2="344.637" y2="552.168" gradientUnits="userSpaceOnUse">
<stop stop-color="#FF1CF7"/>
<stop offset="1" stop-color="#00F0FF"/>
</linearGradient>
<linearGradient id="paint68_linear_551_9973" x1="-38.1092" y1="747.98" x2="340.52" y2="557.016" gradientUnits="userSpaceOnUse">
<stop stop-color="#FF1CF7"/>
<stop offset="1" stop-color="#00F0FF"/>
</linearGradient>
<linearGradient id="paint69_linear_551_9973" x1="-43.8103" y1="745.894" x2="336.348" y2="561.811" gradientUnits="userSpaceOnUse">
<stop stop-color="#FF1CF7"/>
<stop offset="1" stop-color="#00F0FF"/>
</linearGradient>
<linearGradient id="paint70_linear_551_9973" x1="-49.4511" y1="743.781" x2="332.124" y2="566.545" gradientUnits="userSpaceOnUse">
<stop stop-color="#FF1CF7"/>
<stop offset="1" stop-color="#00F0FF"/>
</linearGradient>
<linearGradient id="paint71_linear_551_9973" x1="-55.0295" y1="741.663" x2="327.855" y2="571.239" gradientUnits="userSpaceOnUse">
<stop stop-color="#FF1CF7"/>
<stop offset="1" stop-color="#00F0FF"/>
</linearGradient>
<linearGradient id="paint72_linear_551_9973" x1="-60.5464" y1="739.519" x2="323.542" y2="575.872" gradientUnits="userSpaceOnUse">
<stop stop-color="#FF1CF7"/>
<stop offset="1" stop-color="#00F0FF"/>
</linearGradient>
<linearGradient id="paint73_linear_551_9973" x1="-66.0032" y1="737.363" x2="319.186" y2="580.456" gradientUnits="userSpaceOnUse">
<stop stop-color="#FF1CF7"/>
<stop offset="1" stop-color="#00F0FF"/>
</linearGradient>
<linearGradient id="paint74_linear_551_9973" x1="-71.3992" y1="735.191" x2="314.79" y2="584.988" gradientUnits="userSpaceOnUse">
<stop stop-color="#FF1CF7"/>
<stop offset="1" stop-color="#00F0FF"/>
</linearGradient>
<linearGradient id="paint75_linear_551_9973" x1="-76.7319" y1="733.001" x2="310.36" y2="589.464" gradientUnits="userSpaceOnUse">
<stop stop-color="#FF1CF7"/>
<stop offset="1" stop-color="#00F0FF"/>
</linearGradient>
<linearGradient id="paint76_linear_551_9973" x1="-82.0043" y1="730.81" x2="305.896" y2="593.903" gradientUnits="userSpaceOnUse">
<stop stop-color="#FF1CF7"/>
<stop offset="1" stop-color="#00F0FF"/>
</linearGradient>
<linearGradient id="paint77_linear_551_9973" x1="-87.2156" y1="728.602" x2="301.4" y2="598.288" gradientUnits="userSpaceOnUse">
<stop stop-color="#FF1CF7"/>
<stop offset="1" stop-color="#00F0FF"/>
</linearGradient>
<linearGradient id="paint78_linear_551_9973" x1="-92.3653" y1="726.383" x2="296.875" y2="602.623" gradientUnits="userSpaceOnUse">
<stop stop-color="#FF1CF7"/>
<stop offset="1" stop-color="#00F0FF"/>
</linearGradient>
<linearGradient id="paint79_linear_551_9973" x1="-97.453" y1="724.159" x2="292.324" y2="606.917" gradientUnits="userSpaceOnUse">
<stop stop-color="#FF1CF7"/>
<stop offset="1" stop-color="#00F0FF"/>
</linearGradient>
<linearGradient id="paint80_linear_551_9973" x1="-102.48" y1="721.926" x2="287.749" y2="611.164" gradientUnits="userSpaceOnUse">
<stop stop-color="#FF1CF7"/>
<stop offset="1" stop-color="#00F0FF"/>
</linearGradient>
<linearGradient id="paint81_linear_551_9973" x1="-107.445" y1="719.692" x2="283.151" y2="615.374" gradientUnits="userSpaceOnUse">
<stop stop-color="#FF1CF7"/>
<stop offset="1" stop-color="#00F0FF"/>
</linearGradient>
<linearGradient id="paint82_linear_551_9973" x1="-112.347" y1="717.446" x2="278.534" y2="619.534" gradientUnits="userSpaceOnUse">
<stop stop-color="#FF1CF7"/>
<stop offset="1" stop-color="#00F0FF"/>
</linearGradient>
<linearGradient id="paint83_linear_551_9973" x1="-117.19" y1="715.202" x2="273.897" y2="623.66" gradientUnits="userSpaceOnUse">
<stop stop-color="#FF1CF7"/>
<stop offset="1" stop-color="#00F0FF"/>
</linearGradient>
<linearGradient id="paint84_linear_551_9973" x1="-121.971" y1="712.96" x2="269.244" y2="627.751" gradientUnits="userSpaceOnUse">
<stop stop-color="#FF1CF7"/>
<stop offset="1" stop-color="#00F0FF"/>
</linearGradient>
<linearGradient id="paint85_linear_551_9973" x1="-126.69" y1="710.713" x2="264.576" y2="631.803" gradientUnits="userSpaceOnUse">
<stop stop-color="#FF1CF7"/>
<stop offset="1" stop-color="#00F0FF"/>
</linearGradient>
<linearGradient id="paint86_linear_551_9973" x1="-131.347" y1="708.463" x2="259.895" y2="635.816" gradientUnits="userSpaceOnUse">
<stop stop-color="#FF1CF7"/>
<stop offset="1" stop-color="#00F0FF"/>
</linearGradient>
<linearGradient id="paint87_linear_551_9973" x1="-135.946" y1="706.221" x2="255.2" y2="639.803" gradientUnits="userSpaceOnUse">
<stop stop-color="#FF1CF7"/>
<stop offset="1" stop-color="#00F0FF"/>
</linearGradient>
<linearGradient id="paint88_linear_551_9973" x1="-140.483" y1="703.98" x2="250.495" y2="643.756" gradientUnits="userSpaceOnUse">
<stop stop-color="#FF1CF7"/>
<stop offset="1" stop-color="#00F0FF"/>
</linearGradient>
<linearGradient id="paint89_linear_551_9973" x1="-144.958" y1="701.748" x2="245.781" y2="647.685" gradientUnits="userSpaceOnUse">
<stop stop-color="#FF1CF7"/>
<stop offset="1" stop-color="#00F0FF"/>
</linearGradient>
<linearGradient id="paint90_linear_551_9973" x1="-149.374" y1="699.515" x2="241.058" y2="651.581" gradientUnits="userSpaceOnUse">
<stop stop-color="#FF1CF7"/>
<stop offset="1" stop-color="#00F0FF"/>
</linearGradient>
<linearGradient id="paint91_linear_551_9973" x1="-153.73" y1="697.291" x2="236.326" y2="655.453" gradientUnits="userSpaceOnUse">
<stop stop-color="#FF1CF7"/>
<stop offset="1" stop-color="#00F0FF"/>
</linearGradient>
<linearGradient id="paint92_linear_551_9973" x1="-158.027" y1="695.079" x2="231.587" y2="659.306" gradientUnits="userSpaceOnUse">
<stop stop-color="#FF1CF7"/>
<stop offset="1" stop-color="#00F0FF"/>
</linearGradient>
<linearGradient id="paint93_linear_551_9973" x1="-162.261" y1="692.879" x2="226.844" y2="663.14" gradientUnits="userSpaceOnUse">
<stop stop-color="#FF1CF7"/>
<stop offset="1" stop-color="#00F0FF"/>
</linearGradient>
<linearGradient id="paint94_linear_551_9973" x1="-166.439" y1="690.681" x2="222.094" y2="666.947" gradientUnits="userSpaceOnUse">
<stop stop-color="#FF1CF7"/>
<stop offset="1" stop-color="#00F0FF"/>
</linearGradient>
<linearGradient id="paint95_linear_551_9973" x1="-170.557" y1="688.499" x2="217.339" y2="670.741" gradientUnits="userSpaceOnUse">
<stop stop-color="#FF1CF7"/>
<stop offset="1" stop-color="#00F0FF"/>
</linearGradient>
<linearGradient id="paint96_linear_551_9973" x1="-174.616" y1="686.331" x2="212.578" y2="674.52" gradientUnits="userSpaceOnUse">
<stop stop-color="#FF1CF7"/>
<stop offset="1" stop-color="#00F0FF"/>
</linearGradient>
<linearGradient id="paint97_linear_551_9973" x1="-178.617" y1="684.176" x2="207.814" y2="678.284" gradientUnits="userSpaceOnUse">
<stop stop-color="#FF1CF7"/>
<stop offset="1" stop-color="#00F0FF"/>
</linearGradient>
<linearGradient id="paint98_linear_551_9973" x1="-182.559" y1="682.033" x2="203.045" y2="682.033" gradientUnits="userSpaceOnUse">
<stop stop-color="#FF1CF7"/>
<stop offset="1" stop-color="#00F0FF"/>
</linearGradient>
</defs>
</svg>
