<svg width="788" height="507" viewBox="0 0 788 507" fill="none" xmlns="http://www.w3.org/2000/svg">
<path opacity="0.010101" d="M275.094 271.605C269.527 265.84 268.305 257.146 272.067 250.069L409.644 -8.67401C413.406 -15.7505 421.298 -19.5994 429.191 -18.2077L717.783 32.679C725.676 34.0707 731.775 40.3865 732.891 48.3232L773.675 338.516C774.79 346.453 770.668 354.205 763.465 357.718L500.078 486.181C492.874 489.694 484.228 488.169 478.66 482.404L275.094 271.605Z" stroke="url(#paint0_linear_288_8857)" stroke-opacity="0.05" stroke-width="3"/>
<path opacity="0.020202" d="M271.799 267.996C266.333 262.135 265.263 253.42 269.148 246.41L410.934 -9.37816C414.82 -16.3879 422.777 -20.0985 430.645 -18.5692L717.728 37.2342C725.596 38.7634 731.584 45.1847 732.56 53.1397L768.202 343.417C769.179 351.372 764.922 359.051 757.658 362.438L492.602 486.035C485.339 489.423 476.72 487.747 471.254 481.886L271.799 267.996Z" stroke="url(#paint1_linear_288_8857)" stroke-opacity="0.05" stroke-width="3"/>
<path opacity="0.030303" d="M268.587 264.392C263.224 258.436 262.306 249.704 266.313 242.763L412.248 -10.003C416.255 -16.9439 424.276 -20.5151 432.116 -18.8487L717.607 41.8342C725.446 43.5006 731.321 50.0254 732.159 57.9962L762.668 348.266C763.505 356.237 759.115 363.841 751.794 367.101L485.158 485.815C477.836 489.074 469.248 487.249 463.885 481.293L268.587 264.392Z" stroke="url(#paint2_linear_288_8857)" stroke-opacity="0.05" stroke-width="3"/>
<path opacity="0.040404" d="M265.456 260.794C260.198 254.745 259.433 245.998 263.561 239.129L413.582 -10.5482C417.71 -17.4182 425.792 -20.8488 433.601 -19.0459L717.417 46.4781C725.226 48.281 730.986 54.9074 731.685 62.8916L757.072 353.064C757.77 361.049 753.248 368.575 745.87 371.706L477.745 485.519C470.367 488.65 461.812 486.675 456.554 480.627L265.456 260.794Z" stroke="url(#paint3_linear_288_8857)" stroke-opacity="0.05" stroke-width="3"/>
<path opacity="0.050505" d="M262.406 257.203C257.254 251.063 256.642 242.305 260.889 235.508L414.933 -11.0144C419.18 -17.8112 427.321 -21.1003 435.098 -19.1614L717.156 51.1637C724.933 53.1026 730.577 59.8286 731.136 67.8237L751.413 357.809C751.972 365.804 747.32 373.25 739.889 376.252L470.362 485.148C462.931 488.151 454.412 486.026 449.26 479.887L262.406 257.203Z" stroke="url(#paint4_linear_288_8857)" stroke-opacity="0.05" stroke-width="3"/>
<path opacity="0.0606061" d="M259.437 253.619C254.393 247.391 253.934 238.623 258.299 231.901L416.302 -11.4022C420.667 -18.1239 428.864 -21.2704 436.605 -19.196L716.826 55.8889C724.567 57.9632 730.093 64.7866 730.512 72.7903L745.695 362.498C746.115 370.502 741.333 377.866 733.85 380.738L463.013 484.702C455.531 487.575 447.05 485.302 442.006 479.074L259.437 253.619Z" stroke="url(#paint5_linear_288_8857)" stroke-opacity="0.05" stroke-width="3"/>
<path opacity="0.0707071" d="M256.547 250.046C251.613 243.73 251.307 234.955 255.788 228.311L417.685 -11.7105C422.166 -18.3549 430.417 -21.3579 438.121 -19.1487L716.424 60.6532C724.128 62.8624 729.533 69.7811 729.813 77.7909L739.917 367.132C740.197 375.142 735.287 382.421 727.756 385.162L455.698 484.183C448.167 486.925 439.727 484.504 434.792 478.189L256.547 250.046Z" stroke="url(#paint6_linear_288_8857)" stroke-opacity="0.05" stroke-width="3"/>
<path opacity="0.0808081" d="M253.738 246.485C248.914 240.084 248.761 231.305 253.358 224.74L419.082 -11.9379C423.679 -18.5032 431.98 -21.3616 439.645 -19.0183L715.95 65.4566C723.614 67.7999 728.898 74.8119 729.038 82.8254L734.081 371.712C734.221 379.725 729.185 386.917 721.607 389.526L448.418 483.593C440.84 486.202 432.443 483.635 427.62 477.234L253.738 246.485Z" stroke="url(#paint7_linear_288_8857)" stroke-opacity="0.05" stroke-width="3"/>
<path opacity="0.0909091" d="M251.008 242.936C246.298 236.452 246.298 227.672 251.008 221.188L420.492 -12.0864C425.203 -18.5704 433.553 -21.2836 441.175 -18.8069L715.405 70.2958C723.028 72.7725 728.188 79.8757 728.188 87.8904V376.233C728.188 384.247 723.028 391.351 715.405 393.827L441.175 482.93C433.553 485.407 425.203 482.693 420.492 476.209L251.008 242.936Z" stroke="url(#paint8_linear_288_8857)" stroke-opacity="0.05" stroke-width="3"/>
<path opacity="0.10101" d="M248.359 239.4C243.761 232.835 243.915 224.056 248.738 217.655L421.913 -12.1557C426.736 -18.5564 435.133 -21.1235 442.711 -18.5142L714.788 75.1695C722.366 77.7788 727.402 84.971 727.262 92.9845L722.24 380.695C722.1 388.709 716.816 395.721 709.152 398.064L433.971 482.195C426.306 484.539 418.005 481.68 413.408 475.115L248.359 239.4Z" stroke="url(#paint9_linear_288_8857)" stroke-opacity="0.05" stroke-width="3"/>
<path opacity="0.111111" d="M245.786 235.881C241.305 229.237 241.611 220.462 246.545 214.147L423.343 -12.1439C428.277 -18.4595 436.717 -20.8796 444.248 -18.1384L714.097 80.0784C721.628 82.8196 726.538 90.0986 726.258 98.1084L716.236 385.1C715.957 393.11 710.551 400.029 702.847 402.238L426.804 481.392C419.1 483.601 410.85 480.598 406.368 473.953L245.786 235.881Z" stroke="url(#paint10_linear_288_8857)" stroke-opacity="0.05" stroke-width="3"/>
<path opacity="0.121212" d="M243.295 232.378C238.929 225.657 239.389 216.889 244.433 210.66L424.783 -12.0536C429.827 -18.2822 438.307 -20.5547 445.79 -17.6825L713.334 85.0182C720.817 87.8904 725.599 95.254 725.179 103.258L710.181 389.444C709.761 397.448 704.236 404.271 696.494 406.345L419.68 480.517C411.939 482.592 403.742 479.445 399.377 472.724L243.295 232.378Z" stroke="url(#paint11_linear_288_8857)" stroke-opacity="0.05" stroke-width="3"/>
<path opacity="0.131313" d="M240.878 228.895C236.631 222.098 237.243 213.339 242.395 207.2L426.227 -11.8824C431.378 -18.022 439.898 -20.1461 447.329 -17.1437L712.495 89.9905C719.926 92.9928 724.579 100.439 724.02 108.434L704.07 393.728C703.511 401.724 697.867 408.449 690.091 410.388L412.595 479.576C404.818 481.515 396.677 478.226 392.43 471.429L240.878 228.895Z" stroke="url(#paint12_linear_288_8857)" stroke-opacity="0.05" stroke-width="3"/>
<path opacity="0.141414" d="M238.541 225.43C234.413 218.56 235.178 209.814 240.436 203.765L427.678 -11.6317C432.936 -17.6805 441.491 -19.6556 448.868 -16.524L711.584 94.992C718.961 98.1236 723.483 105.65 722.785 113.634L697.91 397.951C697.212 405.935 691.452 412.562 683.642 414.365L405.554 478.566C397.744 480.369 389.662 476.939 385.535 470.069L238.541 225.43Z" stroke="url(#paint13_linear_288_8857)" stroke-opacity="0.05" stroke-width="3"/>
<path opacity="0.151515" d="M236.28 221.986C232.273 215.045 233.191 206.313 238.553 200.357L429.132 -11.302C434.495 -17.258 443.083 -19.0835 450.405 -15.8236L710.597 100.021C717.919 103.281 722.309 110.885 721.471 118.856L691.7 402.111C690.862 410.082 684.987 416.607 677.148 418.273L398.556 477.489C390.716 479.156 382.695 475.585 378.688 468.644L236.28 221.986Z" stroke="url(#paint14_linear_288_8857)" stroke-opacity="0.05" stroke-width="3"/>
<path opacity="0.161616" d="M234.097 218.565C230.211 211.555 231.281 202.841 236.747 196.979L430.59 -10.8921C436.056 -16.7537 444.675 -18.429 451.938 -15.0418L709.536 105.078C716.8 108.465 721.057 116.144 720.08 124.099L685.441 406.209C684.465 414.163 678.477 420.585 670.609 422.114L391.603 476.347C383.736 477.877 375.779 474.166 371.893 467.156L234.097 218.565Z" stroke="url(#paint15_linear_288_8857)" stroke-opacity="0.05" stroke-width="3"/>
<path opacity="0.171717" d="M231.989 215.168C228.226 208.091 229.448 199.396 235.015 193.631L432.048 -10.4024C437.616 -16.1677 446.262 -17.6923 453.466 -14.1789L708.4 110.161C715.603 113.674 719.725 121.426 718.61 129.363L679.135 410.243C678.019 418.179 671.92 424.495 664.027 425.887L384.697 475.141C376.804 476.532 368.912 472.683 365.15 465.607L231.989 215.168Z" stroke="url(#paint16_linear_288_8857)" stroke-opacity="0.05" stroke-width="3"/>
<path opacity="0.181818" d="M229.955 211.795C226.316 204.653 227.69 195.982 233.357 190.314L433.505 -9.83389C439.173 -15.5011 447.845 -16.8746 454.986 -13.236L707.187 115.267C714.328 118.906 718.314 126.729 717.06 134.645L672.781 414.212C671.528 422.128 665.319 428.337 657.403 429.59L377.836 473.869C369.92 475.123 362.097 471.137 358.458 463.996L229.955 211.795Z" stroke="url(#paint17_linear_288_8857)" stroke-opacity="0.05" stroke-width="3"/>
<path opacity="0.191919" d="M227.999 208.448C224.485 201.245 226.01 192.598 231.775 187.031L434.963 -9.1858C440.728 -14.7533 449.423 -15.9752 456.499 -12.2126L705.901 120.396C712.977 124.159 716.826 132.051 715.434 139.944L666.385 418.117C664.993 426.01 658.677 432.109 650.741 433.224L371.025 472.536C363.089 473.651 355.336 469.529 351.823 462.326L227.999 208.448Z" stroke="url(#paint18_linear_288_8857)" stroke-opacity="0.05" stroke-width="3"/>
<path opacity="0.20202" d="M226.114 205.128C222.727 197.864 224.402 189.245 230.264 183.779L436.415 -8.4604C442.277 -13.9264 450.991 -14.9964 458.001 -11.1108L704.536 125.546C711.546 129.431 715.257 137.389 713.727 145.256L659.943 421.954C658.413 429.821 651.992 435.809 644.037 436.786L364.262 471.138C356.307 472.115 348.627 467.858 345.24 460.595L226.114 205.128Z" stroke="url(#paint19_linear_288_8857)" stroke-opacity="0.05" stroke-width="3"/>
<path opacity="0.212121" d="M224.304 201.838C221.044 194.516 222.87 185.928 228.826 180.565L437.864 -7.65401C443.82 -13.0169 452.552 -13.9347 459.493 -9.92734L703.096 130.717C710.037 134.724 713.608 142.745 711.942 150.585L653.459 425.727C651.792 433.567 645.268 439.442 637.297 440.279L357.549 469.682C349.578 470.52 341.974 466.13 338.715 458.808L224.304 201.838Z" stroke="url(#paint20_linear_288_8857)" stroke-opacity="0.05" stroke-width="3"/>
<path opacity="0.222222" d="M222.565 198.576C219.434 191.199 221.409 182.644 227.458 177.386L439.306 -6.77084C445.354 -12.0289 454.101 -12.7942 460.971 -8.66634L701.579 135.905C708.449 140.033 711.879 148.115 710.076 155.925L646.932 429.431C645.129 437.241 638.503 443.001 630.519 443.699L350.886 468.164C342.902 468.863 335.376 464.341 332.244 456.963L222.565 198.576Z" stroke="url(#paint21_linear_288_8857)" stroke-opacity="0.05" stroke-width="3"/>
<path opacity="0.232323" d="M220.901 195.347C217.899 187.916 220.023 179.397 226.162 174.245L440.742 -5.80832C446.881 -10.9601 455.64 -11.5725 462.437 -7.32542L699.986 141.112C706.783 145.359 710.072 153.5 708.133 161.277L640.368 433.069C638.429 440.846 631.703 446.49 623.708 447.049L344.277 466.588C336.282 467.147 328.836 462.495 325.833 455.064L220.901 195.347Z" stroke="url(#paint22_linear_288_8857)" stroke-opacity="0.05" stroke-width="3"/>
<path opacity="0.242424" d="M219.306 192.15C216.433 184.668 218.706 176.187 224.934 171.143L442.167 -4.76776C448.395 -9.81159 457.163 -10.2711 463.885 -5.90602L698.315 146.335C705.036 150.7 708.183 158.897 706.108 166.638L633.762 436.639C631.688 444.381 624.864 449.906 616.86 450.326L337.718 464.955C329.714 465.374 322.351 460.592 319.479 453.11L219.306 192.15Z" stroke="url(#paint23_linear_288_8857)" stroke-opacity="0.05" stroke-width="3"/>
<path opacity="0.252525" d="M217.782 188.986C215.041 181.455 217.461 173.015 223.776 168.081L443.582 -3.65054C449.898 -8.58489 458.673 -8.89133 465.317 -4.40959L696.567 151.57C703.212 156.052 706.215 164.303 704.005 172.007L627.12 440.139C624.911 447.843 617.992 453.249 609.982 453.529L331.214 463.263C323.204 463.543 315.925 458.633 313.184 451.102L217.782 188.986Z" stroke="url(#paint24_linear_288_8857)" stroke-opacity="0.05" stroke-width="3"/>
<path opacity="0.262626" d="M216.329 185.857C213.72 178.279 216.287 169.882 222.687 165.059L444.988 -2.45616C451.388 -7.27954 460.167 -7.43277 466.732 -2.83572L694.743 156.819C701.309 161.416 704.167 169.718 701.824 177.382L620.442 443.57C618.099 451.234 611.087 456.518 603.073 456.658L324.766 461.516C316.752 461.656 309.56 456.62 306.951 449.042L216.329 185.857Z" stroke="url(#paint25_linear_288_8857)" stroke-opacity="0.05" stroke-width="3"/>
<path opacity="0.272727" d="M214.945 182.764C212.469 175.142 215.182 166.791 221.666 162.081L446.38 -1.184C452.864 -5.89494 461.644 -5.89493 468.128 -1.18401L692.843 162.081C699.327 166.791 702.04 175.142 699.563 182.764L613.73 446.932C611.253 454.554 604.15 459.715 596.135 459.715L318.373 459.715C310.358 459.715 303.255 454.554 300.779 446.932L214.945 182.764Z" stroke="url(#paint26_linear_288_8857)" stroke-opacity="0.05" stroke-width="3"/>
<path opacity="0.282828" d="M213.63 179.708C211.287 172.044 214.145 163.742 220.711 159.145L447.759 0.164468C454.324 -4.43256 463.102 -4.27932 469.503 0.544016L690.865 167.352C697.265 172.175 699.832 180.572 697.223 188.15L606.984 450.223C604.375 457.801 597.182 462.837 589.169 462.697L312.037 457.86C304.023 457.72 297.011 452.436 294.668 444.772L213.63 179.708Z" stroke="url(#paint27_linear_288_8857)" stroke-opacity="0.05" stroke-width="3"/>
<path opacity="0.292929" d="M212.38 176.691C210.171 168.987 213.174 160.737 219.818 156.255L449.119 1.5897C455.764 -2.89205 464.538 -2.58566 470.854 2.34866L688.807 172.632C695.123 177.567 697.543 186.007 694.802 193.538L600.204 453.444C597.462 460.976 590.183 465.885 582.174 465.606L305.755 455.953C297.746 455.673 290.827 450.268 288.618 442.564L212.38 176.691Z" stroke="url(#paint28_linear_288_8857)" stroke-opacity="0.05" stroke-width="3"/>
<path opacity="0.30303" d="M211.198 173.712C209.124 165.971 212.271 157.774 218.992 153.409L450.464 3.08918C457.186 -1.27593 465.954 -0.816438 472.183 4.22735L686.674 177.919C692.903 182.963 695.175 191.444 692.303 198.926L593.394 456.593C590.521 464.076 583.158 468.858 575.154 468.438L299.534 453.993C291.53 453.574 284.707 448.048 282.632 440.307L211.198 173.712Z" stroke="url(#paint29_linear_288_8857)" stroke-opacity="0.05" stroke-width="3"/>
<path opacity="0.313131" d="M210.084 170.775C208.145 162.999 211.434 154.858 218.231 150.611L451.793 4.66533C458.589 0.418202 467.348 1.03065 473.488 6.18237L684.465 183.213C690.604 188.365 692.728 196.884 689.726 204.315L586.555 459.672C583.553 467.103 576.107 471.756 568.112 471.197L293.372 451.985C285.377 451.426 278.651 445.782 276.712 438.006L210.084 170.775Z" stroke="url(#paint30_linear_288_8857)" stroke-opacity="0.05" stroke-width="3"/>
<path opacity="0.323232" d="M209.033 167.878C207.23 160.069 210.661 151.987 217.531 147.859L453.1 6.31466C459.97 2.1868 468.717 2.95201 474.766 8.2101L682.177 188.51C688.226 193.768 690.201 202.324 687.07 209.701L579.688 462.677C576.556 470.055 569.03 474.577 561.046 473.878L287.268 449.926C279.284 449.227 272.658 443.467 270.855 435.658L209.033 167.878Z" stroke="url(#paint31_linear_288_8857)" stroke-opacity="0.05" stroke-width="3"/>
<path opacity="0.333333" d="M208.048 165.025C206.381 157.186 209.952 149.165 216.893 145.157L454.388 8.03954C461.329 4.0322 470.061 4.94995 476.017 10.3128L679.814 193.812C685.77 199.175 687.595 207.763 684.335 215.085L572.794 465.612C569.534 472.933 561.93 477.323 553.959 476.486L281.226 447.82C273.255 446.982 266.731 441.107 265.064 433.268L208.048 165.025Z" stroke="url(#paint32_linear_288_8857)" stroke-opacity="0.05" stroke-width="3"/>
<path opacity="0.343434" d="M207.124 162.215C205.595 154.347 209.305 146.39 216.315 142.504L455.653 9.83731C462.663 5.95169 471.377 7.02169 477.239 12.4877L677.372 199.115C683.234 204.581 684.909 213.2 681.522 220.463L565.873 468.472C562.486 475.736 554.807 479.993 546.852 479.016L275.244 445.667C267.289 444.69 260.868 438.702 259.338 430.835L207.124 162.215Z" stroke="url(#paint33_linear_288_8857)" stroke-opacity="0.05" stroke-width="3"/>
<path opacity="0.353535" d="M206.263 159.45C204.872 151.557 208.721 143.666 215.797 139.903L456.895 11.7093C463.971 7.94663 472.666 9.16858 478.431 14.736L674.854 204.419C680.619 209.987 682.144 218.634 678.631 225.837L558.929 471.262C555.416 478.465 547.663 482.587 539.727 481.472L269.324 443.469C261.387 442.354 255.072 436.255 253.68 428.362L206.263 159.45Z" stroke="url(#paint34_linear_288_8857)" stroke-opacity="0.05" stroke-width="3"/>
<path opacity="0.363636" d="M205.465 156.73C204.211 148.814 208.197 140.991 215.338 137.353L458.113 13.653C465.254 10.0144 473.926 11.3879 479.593 17.0551L672.26 209.722C677.927 215.389 679.301 224.061 675.662 231.202L551.962 473.977C548.324 481.118 540.501 485.104 532.585 483.85L263.467 441.226C255.551 439.972 249.343 433.764 248.089 425.848L205.465 156.73Z" stroke="url(#paint35_linear_288_8857)" stroke-opacity="0.05" stroke-width="3"/>
<path opacity="0.373737" d="M204.728 154.058C203.612 146.122 207.734 138.369 214.938 134.856L459.306 15.6696C466.509 12.1561 475.156 13.6808 480.723 19.446L669.59 215.023C675.158 220.789 676.38 229.483 672.617 236.56L544.975 476.619C541.212 483.696 533.321 487.545 525.428 486.153L257.674 438.941C249.781 437.549 243.682 431.233 242.567 423.297L204.728 154.058Z" stroke="url(#paint36_linear_288_8857)" stroke-opacity="0.05" stroke-width="3"/>
<path opacity="0.383838" d="M204.048 151.433C203.072 143.478 207.328 135.798 214.592 132.411L460.47 17.7565C467.734 14.3693 476.353 16.0446 481.819 21.9061L666.843 220.32C672.309 226.181 673.379 234.896 669.493 241.906L537.966 479.187C534.08 486.197 526.123 489.908 518.255 488.378L251.943 436.612C244.076 435.083 238.088 428.662 237.111 420.707L204.048 151.433Z" stroke="url(#paint37_linear_288_8857)" stroke-opacity="0.05" stroke-width="3"/>
<path opacity="0.393939" d="M203.429 148.856C202.591 140.886 206.981 133.282 214.303 130.022L461.607 19.9149C468.929 16.655 477.517 18.4805 482.88 24.4365L664.02 225.612C669.383 231.568 670.3 240.3 666.293 247.241L530.939 481.682C526.931 488.623 518.91 492.194 511.071 490.528L246.278 434.244C238.438 432.578 232.563 426.053 231.725 418.082L203.429 148.856Z" stroke="url(#paint38_linear_288_8857)" stroke-opacity="0.05" stroke-width="3"/>
<path opacity="0.40404" d="M202.865 146.329C202.167 138.344 206.689 130.818 214.066 127.687L462.714 22.1422C470.092 19.0106 478.647 20.9856 483.905 27.0344L661.12 230.897C666.378 236.946 667.143 245.693 663.015 252.563L523.893 484.101C519.765 490.971 511.683 494.402 503.874 492.599L240.676 431.835C232.867 430.032 227.106 423.406 226.408 415.422L202.865 146.329Z" stroke="url(#paint39_linear_288_8857)" stroke-opacity="0.05" stroke-width="3"/>
<path opacity="0.414141" d="M202.359 143.853C201.8 135.858 206.453 128.412 213.884 125.409L463.791 24.4405C471.222 21.4381 479.741 23.5622 484.893 29.7018L658.146 236.176C663.297 242.316 663.91 251.074 659.663 257.871L516.832 486.448C512.585 493.245 504.444 496.534 496.667 494.595L235.141 429.389C227.364 427.451 221.72 420.725 221.161 412.729L202.359 143.853Z" stroke="url(#paint40_linear_288_8857)" stroke-opacity="0.05" stroke-width="3"/>
<path opacity="0.424242" d="M201.908 141.428C201.489 133.424 206.271 126.061 213.753 123.189L464.835 26.8072C472.318 23.935 480.799 26.2075 485.842 32.436L655.095 241.446C660.139 247.674 660.599 256.442 656.233 263.164L509.755 488.721C505.39 495.442 497.193 498.589 489.452 496.515L229.67 426.906C221.929 424.832 216.403 418.009 215.984 410.005L201.908 141.428Z" stroke="url(#paint41_linear_288_8857)" stroke-opacity="0.05" stroke-width="3"/>
<path opacity="0.434343" d="M201.513 139.055C201.234 131.045 206.143 123.766 213.675 121.025L465.848 29.2415C473.38 26.5003 481.82 28.9204 486.754 35.2361L651.971 246.705C656.906 253.02 657.212 261.795 652.73 268.44L502.667 490.918C498.185 497.563 489.934 500.566 482.23 498.356L224.268 424.387C216.564 422.178 211.159 415.259 210.879 407.249L201.513 139.055Z" stroke="url(#paint42_linear_288_8857)" stroke-opacity="0.05" stroke-width="3"/>
<path opacity="0.444444" d="M201.171 136.736C201.031 128.722 206.067 121.53 213.645 118.921L466.827 31.7436C474.405 29.1343 482.801 31.7013 487.625 38.1021L648.773 251.953C653.596 258.353 653.749 267.132 649.152 273.697L495.566 493.042C490.969 499.607 482.667 502.465 475.002 500.122L218.933 421.834C211.268 419.49 205.984 412.478 205.845 404.465L201.171 136.736Z" stroke="url(#paint43_linear_288_8857)" stroke-opacity="0.05" stroke-width="3"/>
<path opacity="0.454545" d="M200.882 134.471C200.882 126.456 206.042 119.353 213.665 116.877L467.77 34.3127C475.393 31.836 483.743 34.5492 488.454 41.0332L645.499 257.188C650.21 263.672 650.21 272.452 645.499 278.936L488.454 495.091C483.743 501.575 475.393 504.288 467.77 501.811L213.665 419.248C206.042 416.771 200.882 409.668 200.882 401.653L200.882 134.471Z" stroke="url(#paint44_linear_288_8857)" stroke-opacity="0.05" stroke-width="3"/>
<path opacity="0.464646" d="M200.644 132.26C200.784 124.247 206.067 117.235 213.732 114.892L468.677 36.9471C476.342 34.6038 484.644 37.4623 489.241 44.0276L642.153 262.409C646.75 268.974 646.597 277.753 641.773 284.154L481.333 497.065C476.509 503.466 468.113 506.033 460.535 503.424L208.465 416.629C200.887 414.02 195.851 406.828 195.991 398.814L200.644 132.26Z" stroke="url(#paint45_linear_288_8857)" stroke-opacity="0.05" stroke-width="3"/>
<path opacity="0.474747" d="M200.455 130.105C200.734 122.095 206.14 115.176 213.844 112.967L469.546 39.6459C477.25 37.4368 485.501 40.4397 489.982 47.0842L638.731 267.614C643.213 274.258 642.907 283.033 637.972 289.348L474.202 498.964C469.268 505.28 460.828 507.7 453.297 504.959L203.333 413.979C195.801 411.238 190.891 403.959 191.171 395.949L200.455 130.105Z" stroke="url(#paint46_linear_288_8857)" stroke-opacity="0.05" stroke-width="3"/>
<path opacity="0.484848" d="M200.316 128.006C200.735 120.002 206.261 113.179 214.002 111.105L470.377 42.4094C478.119 40.335 486.316 43.4815 490.681 50.2031L635.238 272.802C639.603 279.524 639.144 288.292 634.1 294.52L467.066 500.789C462.023 507.018 453.542 509.29 446.059 506.418L198.27 411.301C190.787 408.428 186.005 401.065 186.425 393.061L200.316 128.006Z" stroke="url(#paint47_linear_288_8857)" stroke-opacity="0.05" stroke-width="3"/>
<path opacity="0.494949" d="M200.225 125.964C200.784 117.969 206.427 111.243 214.204 109.304L471.168 45.2356C478.945 43.2967 487.086 46.5857 491.333 53.3826L631.672 277.972C635.919 284.769 635.306 293.527 630.155 299.667L459.925 502.539C454.773 508.679 446.254 510.803 438.823 507.801L193.276 408.593C185.845 405.591 181.192 398.145 181.751 390.15L200.225 125.964Z" stroke="url(#paint48_linear_288_8857)" stroke-opacity="0.05" stroke-width="3"/>
<path opacity="0.50505" d="M200.182 123.981C200.881 115.997 206.641 109.37 214.45 107.568L471.921 48.1258C479.73 46.3229 487.812 49.7535 491.94 56.6234L628.035 283.124C632.163 289.994 631.398 298.741 626.14 304.789L452.781 504.216C447.523 510.265 438.968 512.24 431.59 509.108L188.353 405.86C180.975 402.729 176.453 395.203 177.152 387.219L200.182 123.981Z" stroke="url(#paint49_linear_288_8857)" stroke-opacity="0.05" stroke-width="3"/>
<path opacity="0.515152" d="M200.184 122.056C201.022 114.085 206.897 107.561 214.736 105.894L472.63 51.0772C480.47 49.4109 488.491 52.982 492.498 59.9229L624.326 288.255C628.333 295.196 627.415 303.928 622.052 309.884L445.633 505.818C440.27 511.774 431.682 513.6 424.36 510.34L183.499 403.102C176.177 399.842 171.787 392.238 172.625 384.267L200.184 122.056Z" stroke="url(#paint50_linear_288_8857)" stroke-opacity="0.05" stroke-width="3"/>
<path opacity="0.525253" d="M200.23 120.19C201.206 112.235 207.194 105.814 215.062 104.285L473.296 54.089C481.164 52.5597 489.121 56.2703 493.007 63.2801L620.544 293.364C624.43 300.374 623.36 309.089 617.894 314.95L438.482 507.346C433.016 513.207 424.397 514.882 417.134 511.495L178.714 400.318C171.45 396.931 167.193 389.252 168.17 381.297L200.23 120.19Z" stroke="url(#paint51_linear_288_8857)" stroke-opacity="0.05" stroke-width="3"/>
<path opacity="0.535354" d="M200.32 118.385C201.436 110.448 207.535 104.132 215.428 102.74L473.92 57.1612C481.813 55.7695 489.704 59.6184 493.467 66.6949L616.694 298.451C620.456 305.527 619.235 314.222 613.667 319.987L431.333 508.799C425.766 514.565 417.119 516.089 409.916 512.576L174 397.512C166.797 393.999 162.675 386.247 163.79 378.31L200.32 118.385Z" stroke="url(#paint52_linear_288_8857)" stroke-opacity="0.05" stroke-width="3"/>
<path opacity="0.545455" d="M200.454 116.639C201.707 108.723 207.916 102.515 215.832 101.261L474.5 60.2921C482.416 59.0383 490.239 63.0243 493.877 70.1655L612.774 303.513C616.412 310.654 615.039 319.326 609.372 324.993L424.186 510.179C418.519 515.846 409.847 517.22 402.706 513.581L169.358 394.685C162.217 391.046 158.231 383.223 159.485 375.307L200.454 116.639Z" stroke="url(#paint53_linear_288_8857)" stroke-opacity="0.05" stroke-width="3"/>
<path opacity="0.555556" d="M200.627 114.955C202.019 107.062 208.335 100.963 216.271 99.8473L475.032 63.4808C482.969 62.3654 490.721 66.4873 494.235 73.6909L608.783 308.55C612.296 315.753 610.772 324.4 605.007 329.967L417.04 511.484C411.275 517.052 402.58 518.274 395.504 514.511L164.786 391.836C157.709 388.074 153.86 380.182 155.252 372.289L200.627 114.955Z" stroke="url(#paint54_linear_288_8857)" stroke-opacity="0.05" stroke-width="3"/>
<path opacity="0.565657" d="M200.842 113.333C202.371 105.466 208.792 99.4776 216.747 98.5009L475.52 66.7275C483.475 65.7508 491.155 70.0074 494.542 77.2712L604.725 313.561C608.112 320.824 606.437 329.443 600.575 334.909L409.9 512.717C404.038 518.183 395.323 519.253 388.314 515.368L160.286 388.97C153.276 385.084 149.565 377.127 151.095 369.259L200.842 113.333Z" stroke="url(#paint55_linear_288_8857)" stroke-opacity="0.05" stroke-width="3"/>
<path opacity="0.575758" d="M201.094 111.773C202.76 103.933 209.285 98.058 217.256 97.2203L475.959 70.0294C483.93 69.1916 491.534 73.5817 494.794 80.9034L600.597 318.543C603.857 325.865 602.032 334.453 596.076 339.816L402.763 513.876C396.807 519.239 388.075 520.156 381.134 516.149L155.856 386.085C148.915 382.077 145.344 374.056 147.01 366.217L201.094 111.773Z" stroke="url(#paint56_linear_288_8857)" stroke-opacity="0.05" stroke-width="3"/>
<path opacity="0.585859" d="M201.384 110.276C203.187 102.467 209.813 96.7067 217.798 96.0081L476.351 73.3877C484.335 72.6891 491.861 77.2112 494.993 84.5887L596.403 323.497C599.535 330.875 597.56 339.43 591.511 344.688L395.633 514.962C389.584 520.22 380.838 520.985 373.968 516.858L151.498 383.184C144.628 379.056 141.197 370.974 143 363.165L201.384 110.276Z" stroke="url(#paint57_linear_288_8857)" stroke-opacity="0.05" stroke-width="3"/>
<path opacity="0.59596" d="M201.711 108.842C203.65 101.066 210.376 95.4221 218.371 94.863L476.693 76.7994C484.688 76.2403 492.134 80.893 495.137 88.3241L592.142 328.421C595.144 335.852 593.02 344.372 586.881 349.523L388.511 515.975C382.372 521.127 373.613 521.739 366.816 517.492L147.211 380.268C140.415 376.021 137.125 367.88 139.064 360.103L201.711 108.842Z" stroke="url(#paint58_linear_288_8857)" stroke-opacity="0.05" stroke-width="3"/>
<path opacity="0.606061" d="M202.073 107.473C204.148 99.7315 210.971 94.206 218.975 93.7866L476.986 80.2648C484.99 79.8453 492.353 84.6273 495.225 92.1096L587.815 333.314C590.687 340.797 588.415 349.278 582.186 354.321L381.399 516.916C375.17 521.96 366.402 522.419 359.681 518.054L142.997 377.338C136.276 372.973 133.129 364.776 135.203 357.035L202.073 107.473Z" stroke="url(#paint59_linear_288_8857)" stroke-opacity="0.05" stroke-width="3"/>
<path opacity="0.616162" d="M202.469 106.168C204.678 98.4636 211.597 93.0581 219.607 92.7784L477.227 83.7821C485.237 83.5024 492.516 88.4121 495.257 95.9434L583.422 338.175C586.164 345.706 583.743 354.146 577.428 359.081L374.296 517.784C367.981 522.719 359.206 523.025 352.561 518.543L138.854 374.396C132.21 369.914 129.207 361.664 131.416 353.959L202.469 106.168Z" stroke="url(#paint60_linear_288_8857)" stroke-opacity="0.05" stroke-width="3"/>
<path opacity="0.626263" d="M202.898 104.928C205.241 97.2638 212.253 91.9798 220.267 91.84L477.417 87.3514C485.431 87.2115 492.623 92.2475 495.232 99.8255L578.965 343.003C581.574 350.581 579.007 358.978 572.606 363.801L367.206 518.582C360.805 523.405 352.026 523.558 345.461 518.961L134.783 371.443C128.218 366.846 125.36 358.544 127.703 350.88L202.898 104.928Z" stroke="url(#paint61_linear_288_8857)" stroke-opacity="0.05" stroke-width="3"/>
<path opacity="0.636364" d="M203.358 103.754C205.834 96.1317 212.937 90.9709 220.952 90.9709L477.554 90.9709C485.569 90.9709 492.672 96.1317 495.149 103.754L574.443 347.797C576.92 355.419 574.206 363.77 567.722 368.481L360.127 519.308C353.643 524.018 344.863 524.018 338.379 519.307L130.784 368.481C124.3 363.77 121.586 355.419 124.063 347.797L203.358 103.754Z" stroke="url(#paint62_linear_288_8857)" stroke-opacity="0.05" stroke-width="3"/>
<path opacity="0.646465" d="M203.849 102.645C206.459 95.067 213.651 90.031 221.664 90.1708L477.64 94.6389C485.653 94.7788 492.665 100.063 495.008 107.727L569.86 352.555C572.203 360.219 569.344 368.521 562.779 373.118L353.065 519.962C346.499 524.559 337.721 524.405 331.32 519.582L126.858 365.509C120.457 360.686 117.89 352.289 120.499 344.711L203.849 102.645Z" stroke="url(#paint63_linear_288_8857)" stroke-opacity="0.05" stroke-width="3"/>
<path opacity="0.656566" d="M204.37 101.603C207.111 94.0713 214.39 89.1616 222.399 89.4413L477.67 98.3555C485.68 98.6353 492.599 104.041 494.808 111.745L565.213 357.277C567.422 364.981 564.419 373.231 557.775 377.713L346.017 520.546C339.372 525.027 330.598 524.721 324.282 519.787L123.003 362.53C116.688 357.596 114.267 349.156 117.009 341.625L204.37 101.603Z" stroke="url(#paint64_linear_288_8857)" stroke-opacity="0.05" stroke-width="3"/>
<path opacity="0.666667" d="M204.916 100.626C207.788 93.1433 215.151 88.3614 223.155 88.7808L477.644 102.118C485.648 102.538 492.471 108.063 494.546 115.805L560.503 361.96C562.577 369.701 559.431 377.898 552.709 382.263L338.983 521.058C332.262 525.423 323.494 524.964 317.265 519.92L119.218 359.545C112.99 354.501 110.717 346.02 113.59 338.538L204.916 100.626Z" stroke="url(#paint65_linear_288_8857)" stroke-opacity="0.05" stroke-width="3"/>
<path opacity="0.676768" d="M205.491 99.7167C208.493 92.2856 215.939 87.6329 223.934 88.192L477.566 105.928C485.561 106.487 492.287 112.13 494.226 119.907L555.735 366.605C557.674 374.382 554.385 382.523 547.588 386.77L331.971 521.502C325.174 525.749 316.415 525.137 310.276 519.985L115.508 356.556C109.369 351.404 107.245 342.885 110.247 335.454L205.491 99.7167Z" stroke="url(#paint66_linear_288_8857)" stroke-opacity="0.05" stroke-width="3"/>
<path opacity="0.686869" d="M206.09 98.8745C209.222 91.4969 216.748 86.9749 224.732 87.6734L477.43 109.782C485.414 110.48 492.04 116.24 493.843 124.05L550.905 371.211C552.708 379.02 549.277 387.103 542.407 391.23L324.976 521.877C318.106 526.004 309.359 525.239 303.31 519.981L111.868 353.563C105.82 348.305 103.844 339.75 106.976 332.372L206.09 98.8745Z" stroke="url(#paint67_linear_288_8857)" stroke-opacity="0.05" stroke-width="3"/>
<path opacity="0.69697" d="M206.714 98.0996C209.974 90.7778 217.578 86.3877 225.549 87.2255L477.238 113.679C485.208 114.517 491.733 120.392 493.4 128.231L546.017 375.776C547.683 383.616 544.112 391.637 537.171 395.644L318.002 522.182C311.061 526.189 302.329 525.271 296.373 519.908L108.301 350.568C102.345 345.205 100.52 336.617 103.779 329.295L206.714 98.0996Z" stroke="url(#paint68_linear_288_8857)" stroke-opacity="0.05" stroke-width="3"/>
<path opacity="0.707071" d="M207.36 97.3936C210.747 90.1298 218.426 85.8732 226.381 86.8499L476.986 117.62C484.941 118.597 491.363 124.585 492.892 132.453L541.069 380.301C542.598 388.168 538.888 396.126 531.878 400.012L311.047 522.42C304.038 526.305 295.323 525.235 289.461 519.769L104.804 347.573C98.9422 342.107 97.2669 333.489 100.654 326.225L207.36 97.3936Z" stroke="url(#paint69_linear_288_8857)" stroke-opacity="0.05" stroke-width="3"/>
<path opacity="0.717172" d="M208.028 96.7543C211.542 89.5508 219.294 85.4288 227.231 86.5442L476.679 121.602C484.615 122.717 490.931 128.816 492.323 136.709L536.065 384.782C537.457 392.675 533.608 400.566 526.531 404.329L304.117 522.589C297.04 526.351 288.346 525.13 282.581 519.562L101.379 344.578C95.6139 339.01 94.0892 330.364 97.6026 323.16L208.028 96.7543Z" stroke="url(#paint70_linear_288_8857)" stroke-opacity="0.05" stroke-width="3"/>
<path opacity="0.727273" d="M208.717 96.1843C212.356 89.0432 220.179 85.0572 228.095 86.3109L476.313 125.625C484.229 126.879 490.437 133.087 491.691 141.003L531.005 389.221C532.259 397.137 528.273 404.96 521.131 408.598L297.211 522.692C290.07 526.33 281.398 524.957 275.731 519.289L98.0263 341.585C92.359 335.918 90.9856 327.246 94.6242 320.105L208.717 96.1843Z" stroke="url(#paint71_linear_288_8857)" stroke-opacity="0.05" stroke-width="3"/>
<path opacity="0.737374" d="M209.423 95.6823C213.186 88.6058 221.077 84.7569 228.97 86.1486L475.885 129.686C483.778 131.078 489.877 137.394 490.993 145.331L525.887 393.615C527.002 401.551 522.88 409.304 515.677 412.817L290.328 522.727C283.124 526.241 274.477 524.716 268.91 518.951L94.7423 338.595C89.1748 332.83 87.9529 324.135 91.7156 317.059L209.423 95.6823Z" stroke="url(#paint72_linear_288_8857)" stroke-opacity="0.05" stroke-width="3"/>
<path opacity="0.747475" d="M210.148 95.2499C214.034 88.2401 221.991 84.5295 229.859 86.0588L475.399 133.787C483.267 135.316 489.255 141.738 490.231 149.693L520.715 397.964C521.692 405.919 517.435 413.598 510.172 416.986L283.471 522.698C276.207 526.085 267.589 524.41 262.123 518.548L91.5301 335.61C86.0641 329.748 84.9941 321.034 88.8797 314.024L210.148 95.2499Z" stroke="url(#paint73_linear_288_8857)" stroke-opacity="0.05" stroke-width="3"/>
<path opacity="0.757576" d="M210.892 94.8848C214.899 87.9438 222.92 84.3727 230.759 86.039L474.855 137.923C482.694 139.589 488.569 146.114 489.407 154.085L515.492 402.266C516.33 410.237 511.94 417.841 504.618 421.101L276.644 522.601C269.322 525.861 260.734 524.036 255.371 518.08L88.3906 332.629C83.0277 326.673 82.1099 317.941 86.1173 311L210.892 94.8848Z" stroke="url(#paint74_linear_288_8857)" stroke-opacity="0.05" stroke-width="3"/>
<path opacity="0.767677" d="M211.648 94.5895C215.776 87.7196 223.858 84.289 231.667 86.0919L474.247 142.096C482.056 143.899 487.816 150.525 488.515 158.509L510.213 406.523C510.912 414.507 506.39 422.033 499.012 425.164L269.842 522.441C262.465 525.573 253.91 523.598 248.652 517.549L85.3189 329.656C80.0608 323.607 79.2956 314.86 83.4234 307.991L211.648 94.5895Z" stroke="url(#paint75_linear_288_8857)" stroke-opacity="0.05" stroke-width="3"/>
<path opacity="0.777778" d="M212.419 94.3639C216.666 87.5671 224.806 84.278 232.583 86.2169L473.578 146.304C481.355 148.243 486.998 154.969 487.558 162.964L504.883 410.732C505.442 418.727 500.79 426.173 493.358 429.175L263.071 522.217C255.64 525.22 247.121 523.095 241.969 516.956L82.318 326.691C77.1663 320.552 76.5538 311.793 80.8009 304.996L212.419 94.3639Z" stroke="url(#paint76_linear_288_8857)" stroke-opacity="0.05" stroke-width="3"/>
<path opacity="0.787879" d="M213.202 94.2075C217.567 87.4858 225.764 84.3393 233.506 86.4137L472.848 150.545C480.589 152.62 486.115 159.443 486.534 167.447L499.502 414.892C499.922 422.896 495.14 430.259 487.658 433.132L256.33 521.93C248.848 524.802 240.367 522.53 235.323 516.301L79.3869 323.736C74.3431 317.507 73.8836 308.739 78.2487 302.018L213.202 94.2075Z" stroke="url(#paint77_linear_288_8857)" stroke-opacity="0.05" stroke-width="3"/>
<path opacity="0.79798" d="M213.997 94.1191C218.478 87.4746 226.729 84.4717 234.433 86.6808L472.054 154.818C479.759 157.027 485.164 163.946 485.444 171.955L494.071 419.002C494.351 427.012 489.441 434.291 481.91 437.032L249.62 521.579C242.089 524.32 233.649 521.9 228.714 515.584L76.5246 320.79C71.5902 314.474 71.2838 305.699 75.7656 299.055L213.997 94.1191Z" stroke="url(#paint78_linear_288_8857)" stroke-opacity="0.05" stroke-width="3"/>
<path opacity="0.808081" d="M214.802 94.1012C219.399 87.536 227.701 84.6775 235.365 87.0207L471.199 159.122C478.863 161.466 484.147 168.478 484.287 176.491L488.591 423.063C488.731 431.077 483.695 438.269 476.117 440.878L242.943 521.166C235.365 523.776 226.969 521.209 222.145 514.808L73.732 317.857C68.9087 311.456 68.7554 302.677 73.3524 296.112L214.802 94.1012Z" stroke="url(#paint79_linear_288_8857)" stroke-opacity="0.05" stroke-width="3"/>
<path opacity="0.818182" d="M215.616 94.1516C220.327 87.6676 228.677 84.9544 236.3 87.4311L470.281 163.456C477.903 165.933 483.064 173.036 483.064 181.051L483.064 427.072C483.064 435.087 477.903 442.19 470.28 444.667L236.3 520.692C228.677 523.169 220.327 520.455 215.616 513.971L71.0082 314.935C66.2973 308.451 66.2973 299.671 71.0082 293.187L215.616 94.1516Z" stroke="url(#paint80_linear_288_8857)" stroke-opacity="0.05" stroke-width="3"/>
<path opacity="0.828283" d="M216.438 94.272C221.261 87.8712 229.657 85.3041 237.236 87.9135L469.298 167.819C476.876 170.428 481.912 177.62 481.772 185.634L477.489 431.031C477.349 439.044 472.065 446.056 464.4 448.399L229.691 520.157C222.026 522.501 213.724 519.642 209.127 513.077L68.3523 312.029C63.7553 305.464 63.9085 296.685 68.7319 290.284L216.438 94.272Z" stroke="url(#paint81_linear_288_8857)" stroke-opacity="0.05" stroke-width="3"/>
<path opacity="0.838384" d="M217.267 94.461C222.201 88.1453 230.641 85.7252 238.172 88.4664L468.252 172.209C475.784 174.95 480.693 182.229 480.414 190.239L471.869 434.936C471.589 442.946 466.183 449.864 458.479 452.074L223.118 519.562C215.414 521.771 207.163 518.768 202.681 512.124L65.7652 309.137C61.2834 302.493 61.5898 293.718 66.5242 287.402L217.267 94.461Z" stroke="url(#paint82_linear_288_8857)" stroke-opacity="0.05" stroke-width="3"/>
<path opacity="0.848485" d="M218.099 94.7203C223.143 88.4917 231.624 86.2193 239.106 89.0915L467.141 176.626C474.623 179.498 479.405 186.862 478.986 194.865L466.202 438.789C465.783 446.793 460.257 453.616 452.516 455.69L216.58 518.909C208.839 520.984 200.642 517.837 196.277 511.115L63.2439 306.263C58.8788 299.541 59.3383 290.773 64.3821 284.545L218.099 94.7203Z" stroke="url(#paint83_linear_288_8857)" stroke-opacity="0.05" stroke-width="3"/>
<path opacity="0.858586" d="M218.937 95.0477C224.089 88.9081 232.608 86.784 240.039 89.7864L465.966 181.067C473.398 184.069 478.05 191.515 477.491 199.51L460.494 442.587C459.935 450.583 454.291 457.309 446.514 459.247L210.082 518.197C202.305 520.136 194.164 516.847 189.917 510.05L60.7914 303.405C56.5443 296.608 57.1567 287.85 62.3085 281.71L218.937 95.0477Z" stroke="url(#paint84_linear_288_8857)" stroke-opacity="0.05" stroke-width="3"/>
<path opacity="0.868687" d="M219.777 95.4448C225.035 89.396 233.59 87.421 240.968 90.5526L464.727 185.533C472.104 188.664 476.626 196.19 475.928 204.174L454.742 446.332C454.043 454.316 448.283 460.943 440.474 462.746L203.621 517.427C195.812 519.23 187.73 515.8 183.602 508.93L58.4048 300.567C54.2769 293.697 55.0421 284.951 60.3003 278.902L219.777 95.4448Z" stroke="url(#paint85_linear_288_8857)" stroke-opacity="0.05" stroke-width="3"/>
<path opacity="0.878788" d="M220.617 95.9113C225.98 89.9553 234.568 88.1298 241.89 91.3897L463.42 190.021C470.742 193.281 475.132 200.885 474.294 208.856L448.947 450.022C448.109 457.993 442.234 464.518 434.394 466.184L197.198 516.602C189.359 518.268 181.338 514.697 177.331 507.756L56.083 297.749C52.0757 290.808 52.9935 282.076 58.3563 276.12L220.617 95.9113Z" stroke="url(#paint86_linear_288_8857)" stroke-opacity="0.05" stroke-width="3"/>
<path opacity="0.888889" d="M221.46 96.4461C226.926 90.5845 235.545 88.9092 242.808 92.2963L462.051 194.531C469.315 197.918 473.571 205.597 472.595 213.552L443.113 453.656C442.137 461.611 436.149 468.032 428.281 469.562L190.819 515.72C182.951 517.249 174.994 513.539 171.108 506.529L53.8291 294.952C49.9435 287.942 51.0135 279.227 56.4795 273.366L221.46 96.4461Z" stroke="url(#paint87_linear_288_8857)" stroke-opacity="0.05" stroke-width="3"/>
<path opacity="0.89899" d="M222.299 97.0497C227.867 91.2844 236.514 89.7597 243.717 93.2732L460.614 199.061C467.817 202.574 471.939 210.326 470.824 218.263L437.239 457.234C436.123 465.171 430.024 471.487 422.131 472.878L184.478 514.783C176.585 516.175 168.693 512.326 164.931 505.249L51.6381 292.177C47.8754 285.1 49.0973 276.406 54.6648 270.64L222.299 97.0497Z" stroke="url(#paint88_linear_288_8857)" stroke-opacity="0.05" stroke-width="3"/>
<path opacity="0.909091" d="M223.138 97.7229C228.805 92.0556 237.477 90.6821 244.618 94.3207L459.112 203.611C466.253 207.249 470.239 215.072 468.985 222.988L431.327 460.756C430.073 468.672 423.864 474.881 415.948 476.134L178.18 513.793C170.264 515.047 162.441 511.061 158.803 503.92L49.5128 289.426C45.8742 282.285 47.2477 273.613 52.915 267.946L223.138 97.7229Z" stroke="url(#paint89_linear_288_8857)" stroke-opacity="0.05" stroke-width="3"/>
<path opacity="0.919192" d="M223.972 98.4625C229.737 92.895 238.432 91.6731 245.508 95.4358L457.543 208.177C464.62 211.939 468.468 219.831 467.077 227.724L425.376 464.219C423.984 472.112 417.669 478.211 409.732 479.327L171.925 512.748C163.988 513.864 156.236 509.742 152.723 502.538L47.4505 286.698C43.9371 279.495 45.4617 270.848 51.227 265.281L223.972 98.4625Z" stroke="url(#paint90_linear_288_8857)" stroke-opacity="0.05" stroke-width="3"/>
<path opacity="0.929293" d="M224.802 99.2712C230.664 93.8052 239.378 92.7352 246.388 96.6208L455.908 212.76C462.918 216.646 466.629 224.603 465.1 232.47L419.39 467.625C417.861 475.493 411.44 481.481 403.485 482.457L165.714 511.652C157.759 512.629 150.08 508.372 146.693 501.108L45.452 283.997C42.0648 276.733 43.7401 268.114 49.6017 262.648L224.802 99.2712Z" stroke="url(#paint91_linear_288_8857)" stroke-opacity="0.05" stroke-width="3"/>
<path opacity="0.939394" d="M225.626 100.148C231.582 94.785 240.314 93.8672 247.255 97.8746L454.208 217.359C461.149 221.366 464.72 229.387 463.053 237.227L413.369 470.973C411.703 478.812 405.178 484.687 397.207 485.525L159.548 510.504C151.577 511.342 143.973 506.952 140.713 499.63L43.5163 281.322C40.2564 274 42.0819 265.412 48.038 260.049L225.626 100.148Z" stroke="url(#paint92_linear_288_8857)" stroke-opacity="0.05" stroke-width="3"/>
<path opacity="0.949495" d="M226.443 101.093C232.492 95.835 241.238 95.0698 248.108 99.1976L452.44 221.973C459.31 226.101 462.741 234.183 460.938 241.992L407.314 474.263C405.511 482.072 398.885 487.832 390.9 488.531L153.427 509.307C145.443 510.006 137.917 505.484 134.785 498.106L41.6425 278.675C38.5109 271.298 40.486 262.743 46.5347 257.485L226.443 101.093Z" stroke="url(#paint93_linear_288_8857)" stroke-opacity="0.05" stroke-width="3"/>
<path opacity="0.959596" d="M227.253 102.104C233.392 96.9521 242.151 96.3396 248.948 100.587L450.607 226.598C457.404 230.845 460.693 238.986 458.754 246.762L401.227 477.492C399.288 485.268 392.562 490.912 384.567 491.471L147.354 508.058C139.358 508.618 131.913 503.965 128.91 496.534L39.8314 276.056C36.8291 268.625 38.9531 260.106 45.0927 254.954L227.253 102.104Z" stroke="url(#paint94_linear_288_8857)" stroke-opacity="0.05" stroke-width="3"/>
<path opacity="0.969697" d="M228.052 103.183C234.28 98.139 243.048 97.6794 249.77 102.045L448.707 231.236C455.429 235.601 458.575 243.798 456.501 251.539L395.108 480.662C393.033 488.403 386.21 493.929 378.206 494.348L141.326 506.763C133.323 507.182 125.959 502.4 123.087 494.918L38.0802 273.468C35.208 265.985 37.4804 257.505 43.709 252.461L228.052 103.183Z" stroke="url(#paint95_linear_288_8857)" stroke-opacity="0.05" stroke-width="3"/>
<path opacity="0.979798" d="M228.839 104.327C235.155 99.3924 243.93 99.086 250.574 103.568L446.739 235.882C453.383 240.364 456.386 248.615 454.177 256.319L388.956 483.77C386.747 491.474 379.828 496.88 371.819 497.159L135.346 505.417C127.336 505.697 120.057 500.787 117.316 493.256L36.3878 270.908C33.6466 263.377 36.0667 254.937 42.3823 250.003L228.839 104.327Z" stroke="url(#paint96_linear_288_8857)" stroke-opacity="0.05" stroke-width="3"/>
<path opacity="0.989899" d="M229.615 105.539C236.016 100.715 244.795 100.562 251.36 105.159L444.704 240.54C451.269 245.137 454.128 253.439 451.784 261.103L382.776 486.819C380.433 494.484 373.421 499.768 365.407 499.908L129.414 504.027C121.4 504.167 114.208 499.131 111.599 491.553L34.7551 268.382C32.1458 260.804 34.7128 252.408 41.1136 247.585L229.615 105.539Z" stroke="url(#paint97_linear_288_8857)" stroke-opacity="0.05" stroke-width="3"/>
<path d="M230.38 106.816C236.864 102.105 245.644 102.105 252.128 106.816L442.604 245.205C449.088 249.916 451.801 258.266 449.325 265.889L376.569 489.807C374.093 497.43 366.989 502.59 358.975 502.59H123.533C115.518 502.59 108.415 497.43 105.939 489.807L33.1831 265.889C30.7064 258.266 33.4196 249.916 39.9036 245.205L230.38 106.816Z" stroke="url(#paint98_linear_288_8857)" stroke-opacity="0.05" stroke-width="3"/>
<defs>
<linearGradient id="paint0_linear_288_8857" x1="558.067" y1="382.303" x2="512.707" y2="59.5534" gradientUnits="userSpaceOnUse">
<stop stop-color="#FF1CF7"/>
<stop offset="1" stop-color="#00F0FF"/>
</linearGradient>
<linearGradient id="paint1_linear_288_8857" x1="552.264" y1="383.387" x2="512.616" y2="60.4853" gradientUnits="userSpaceOnUse">
<stop stop-color="#FF1CF7"/>
<stop offset="1" stop-color="#00F0FF"/>
</linearGradient>
<linearGradient id="paint2_linear_288_8857" x1="546.466" y1="384.422" x2="512.522" y2="61.469" gradientUnits="userSpaceOnUse">
<stop stop-color="#FF1CF7"/>
<stop offset="1" stop-color="#00F0FF"/>
</linearGradient>
<linearGradient id="paint3_linear_288_8857" x1="540.674" y1="385.408" x2="512.424" y2="62.5046" gradientUnits="userSpaceOnUse">
<stop stop-color="#FF1CF7"/>
<stop offset="1" stop-color="#00F0FF"/>
</linearGradient>
<linearGradient id="paint4_linear_288_8857" x1="534.887" y1="386.345" x2="512.318" y2="63.5911" gradientUnits="userSpaceOnUse">
<stop stop-color="#FF1CF7"/>
<stop offset="1" stop-color="#00F0FF"/>
</linearGradient>
<linearGradient id="paint5_linear_288_8857" x1="529.107" y1="387.232" x2="512.205" y2="64.7274" gradientUnits="userSpaceOnUse">
<stop stop-color="#FF1CF7"/>
<stop offset="1" stop-color="#00F0FF"/>
</linearGradient>
<linearGradient id="paint6_linear_288_8857" x1="523.333" y1="388.071" x2="512.083" y2="65.9143" gradientUnits="userSpaceOnUse">
<stop stop-color="#FF1CF7"/>
<stop offset="1" stop-color="#00F0FF"/>
</linearGradient>
<linearGradient id="paint7_linear_288_8857" x1="517.568" y1="388.862" x2="511.953" y2="67.1527" gradientUnits="userSpaceOnUse">
<stop stop-color="#FF1CF7"/>
<stop offset="1" stop-color="#00F0FF"/>
</linearGradient>
<linearGradient id="paint8_linear_288_8857" x1="511.813" y1="389.604" x2="511.813" y2="68.4405" gradientUnits="userSpaceOnUse">
<stop stop-color="#FF1CF7"/>
<stop offset="1" stop-color="#00F0FF"/>
</linearGradient>
<linearGradient id="paint9_linear_288_8857" x1="506.068" y1="390.297" x2="511.662" y2="69.7775" gradientUnits="userSpaceOnUse">
<stop stop-color="#FF1CF7"/>
<stop offset="1" stop-color="#00F0FF"/>
</linearGradient>
<linearGradient id="paint10_linear_288_8857" x1="500.332" y1="390.944" x2="511.499" y2="71.1653" gradientUnits="userSpaceOnUse">
<stop stop-color="#FF1CF7"/>
<stop offset="1" stop-color="#00F0FF"/>
</linearGradient>
<linearGradient id="paint11_linear_288_8857" x1="494.61" y1="391.542" x2="511.325" y2="72.6009" gradientUnits="userSpaceOnUse">
<stop stop-color="#FF1CF7"/>
<stop offset="1" stop-color="#00F0FF"/>
</linearGradient>
<linearGradient id="paint12_linear_288_8857" x1="488.898" y1="392.094" x2="511.135" y2="74.0867" gradientUnits="userSpaceOnUse">
<stop stop-color="#FF1CF7"/>
<stop offset="1" stop-color="#00F0FF"/>
</linearGradient>
<linearGradient id="paint13_linear_288_8857" x1="483.201" y1="392.599" x2="510.933" y2="75.6207" gradientUnits="userSpaceOnUse">
<stop stop-color="#FF1CF7"/>
<stop offset="1" stop-color="#00F0FF"/>
</linearGradient>
<linearGradient id="paint14_linear_288_8857" x1="477.518" y1="393.057" x2="510.716" y2="77.2024" gradientUnits="userSpaceOnUse">
<stop stop-color="#FF1CF7"/>
<stop offset="1" stop-color="#00F0FF"/>
</linearGradient>
<linearGradient id="paint15_linear_288_8857" x1="471.85" y1="393.469" x2="510.483" y2="78.8324" gradientUnits="userSpaceOnUse">
<stop stop-color="#FF1CF7"/>
<stop offset="1" stop-color="#00F0FF"/>
</linearGradient>
<linearGradient id="paint16_linear_288_8857" x1="466.198" y1="393.836" x2="510.233" y2="80.5103" gradientUnits="userSpaceOnUse">
<stop stop-color="#FF1CF7"/>
<stop offset="1" stop-color="#00F0FF"/>
</linearGradient>
<linearGradient id="paint17_linear_288_8857" x1="460.562" y1="394.157" x2="509.965" y2="82.2347" gradientUnits="userSpaceOnUse">
<stop stop-color="#FF1CF7"/>
<stop offset="1" stop-color="#00F0FF"/>
</linearGradient>
<linearGradient id="paint18_linear_288_8857" x1="454.945" y1="394.433" x2="509.681" y2="84.0062" gradientUnits="userSpaceOnUse">
<stop stop-color="#FF1CF7"/>
<stop offset="1" stop-color="#00F0FF"/>
</linearGradient>
<linearGradient id="paint19_linear_288_8857" x1="449.343" y1="394.663" x2="509.376" y2="85.8224" gradientUnits="userSpaceOnUse">
<stop stop-color="#FF1CF7"/>
<stop offset="1" stop-color="#00F0FF"/>
</linearGradient>
<linearGradient id="paint20_linear_288_8857" x1="443.762" y1="394.851" x2="509.052" y2="87.6867" gradientUnits="userSpaceOnUse">
<stop stop-color="#FF1CF7"/>
<stop offset="1" stop-color="#00F0FF"/>
</linearGradient>
<linearGradient id="paint21_linear_288_8857" x1="438.199" y1="394.993" x2="508.706" y2="89.5947" gradientUnits="userSpaceOnUse">
<stop stop-color="#FF1CF7"/>
<stop offset="1" stop-color="#00F0FF"/>
</linearGradient>
<linearGradient id="paint22_linear_288_8857" x1="432.658" y1="395.093" x2="508.34" y2="91.5487" gradientUnits="userSpaceOnUse">
<stop stop-color="#FF1CF7"/>
<stop offset="1" stop-color="#00F0FF"/>
</linearGradient>
<linearGradient id="paint23_linear_288_8857" x1="427.136" y1="395.15" x2="507.95" y2="93.5472" gradientUnits="userSpaceOnUse">
<stop stop-color="#FF1CF7"/>
<stop offset="1" stop-color="#00F0FF"/>
</linearGradient>
<linearGradient id="paint24_linear_288_8857" x1="421.637" y1="395.163" x2="507.538" y2="95.5889" gradientUnits="userSpaceOnUse">
<stop stop-color="#FF1CF7"/>
<stop offset="1" stop-color="#00F0FF"/>
</linearGradient>
<linearGradient id="paint25_linear_288_8857" x1="416.16" y1="395.135" x2="507.103" y2="97.6739" gradientUnits="userSpaceOnUse">
<stop stop-color="#FF1CF7"/>
<stop offset="1" stop-color="#00F0FF"/>
</linearGradient>
<linearGradient id="paint26_linear_288_8857" x1="410.708" y1="395.066" x2="506.644" y2="99.8027" gradientUnits="userSpaceOnUse">
<stop stop-color="#FF1CF7"/>
<stop offset="1" stop-color="#00F0FF"/>
</linearGradient>
<linearGradient id="paint27_linear_288_8857" x1="405.279" y1="394.955" x2="506.16" y2="101.974" gradientUnits="userSpaceOnUse">
<stop stop-color="#FF1CF7"/>
<stop offset="1" stop-color="#00F0FF"/>
</linearGradient>
<linearGradient id="paint28_linear_288_8857" x1="399.872" y1="394.805" x2="505.648" y2="104.187" gradientUnits="userSpaceOnUse">
<stop stop-color="#FF1CF7"/>
<stop offset="1" stop-color="#00F0FF"/>
</linearGradient>
<linearGradient id="paint29_linear_288_8857" x1="394.492" y1="394.613" x2="505.111" y2="106.441" gradientUnits="userSpaceOnUse">
<stop stop-color="#FF1CF7"/>
<stop offset="1" stop-color="#00F0FF"/>
</linearGradient>
<linearGradient id="paint30_linear_288_8857" x1="389.139" y1="394.383" x2="504.547" y2="108.737" gradientUnits="userSpaceOnUse">
<stop stop-color="#FF1CF7"/>
<stop offset="1" stop-color="#00F0FF"/>
</linearGradient>
<linearGradient id="paint31_linear_288_8857" x1="383.811" y1="394.112" x2="503.955" y2="111.072" gradientUnits="userSpaceOnUse">
<stop stop-color="#FF1CF7"/>
<stop offset="1" stop-color="#00F0FF"/>
</linearGradient>
<linearGradient id="paint32_linear_288_8857" x1="378.512" y1="393.804" x2="503.335" y2="113.447" gradientUnits="userSpaceOnUse">
<stop stop-color="#FF1CF7"/>
<stop offset="1" stop-color="#00F0FF"/>
</linearGradient>
<linearGradient id="paint33_linear_288_8857" x1="373.239" y1="393.458" x2="502.684" y2="115.861" gradientUnits="userSpaceOnUse">
<stop stop-color="#FF1CF7"/>
<stop offset="1" stop-color="#00F0FF"/>
</linearGradient>
<linearGradient id="paint34_linear_288_8857" x1="367.994" y1="393.076" x2="502.004" y2="118.314" gradientUnits="userSpaceOnUse">
<stop stop-color="#FF1CF7"/>
<stop offset="1" stop-color="#00F0FF"/>
</linearGradient>
<linearGradient id="paint35_linear_288_8857" x1="362.78" y1="392.655" x2="501.295" y2="120.805" gradientUnits="userSpaceOnUse">
<stop stop-color="#FF1CF7"/>
<stop offset="1" stop-color="#00F0FF"/>
</linearGradient>
<linearGradient id="paint36_linear_288_8857" x1="357.596" y1="392.2" x2="500.555" y2="123.333" gradientUnits="userSpaceOnUse">
<stop stop-color="#FF1CF7"/>
<stop offset="1" stop-color="#00F0FF"/>
</linearGradient>
<linearGradient id="paint37_linear_288_8857" x1="352.441" y1="391.708" x2="499.782" y2="125.897" gradientUnits="userSpaceOnUse">
<stop stop-color="#FF1CF7"/>
<stop offset="1" stop-color="#00F0FF"/>
</linearGradient>
<linearGradient id="paint38_linear_288_8857" x1="347.317" y1="391.182" x2="498.977" y2="128.498" gradientUnits="userSpaceOnUse">
<stop stop-color="#FF1CF7"/>
<stop offset="1" stop-color="#00F0FF"/>
</linearGradient>
<linearGradient id="paint39_linear_288_8857" x1="342.223" y1="390.62" x2="498.139" y2="131.133" gradientUnits="userSpaceOnUse">
<stop stop-color="#FF1CF7"/>
<stop offset="1" stop-color="#00F0FF"/>
</linearGradient>
<linearGradient id="paint40_linear_288_8857" x1="337.162" y1="390.026" x2="497.267" y2="133.804" gradientUnits="userSpaceOnUse">
<stop stop-color="#FF1CF7"/>
<stop offset="1" stop-color="#00F0FF"/>
</linearGradient>
<linearGradient id="paint41_linear_288_8857" x1="332.133" y1="389.399" x2="496.362" y2="136.509" gradientUnits="userSpaceOnUse">
<stop stop-color="#FF1CF7"/>
<stop offset="1" stop-color="#00F0FF"/>
</linearGradient>
<linearGradient id="paint42_linear_288_8857" x1="327.138" y1="388.739" x2="495.423" y2="139.247" gradientUnits="userSpaceOnUse">
<stop stop-color="#FF1CF7"/>
<stop offset="1" stop-color="#00F0FF"/>
</linearGradient>
<linearGradient id="paint43_linear_288_8857" x1="322.176" y1="388.048" x2="494.448" y2="142.018" gradientUnits="userSpaceOnUse">
<stop stop-color="#FF1CF7"/>
<stop offset="1" stop-color="#00F0FF"/>
</linearGradient>
<linearGradient id="paint44_linear_288_8857" x1="317.248" y1="387.326" x2="493.438" y2="144.821" gradientUnits="userSpaceOnUse">
<stop stop-color="#FF1CF7"/>
<stop offset="1" stop-color="#00F0FF"/>
</linearGradient>
<linearGradient id="paint45_linear_288_8857" x1="312.355" y1="386.573" x2="492.393" y2="147.656" gradientUnits="userSpaceOnUse">
<stop stop-color="#FF1CF7"/>
<stop offset="1" stop-color="#00F0FF"/>
</linearGradient>
<linearGradient id="paint46_linear_288_8857" x1="307.496" y1="385.79" x2="491.309" y2="150.52" gradientUnits="userSpaceOnUse">
<stop stop-color="#FF1CF7"/>
<stop offset="1" stop-color="#00F0FF"/>
</linearGradient>
<linearGradient id="paint47_linear_288_8857" x1="302.672" y1="384.979" x2="490.19" y2="153.414" gradientUnits="userSpaceOnUse">
<stop stop-color="#FF1CF7"/>
<stop offset="1" stop-color="#00F0FF"/>
</linearGradient>
<linearGradient id="paint48_linear_288_8857" x1="297.884" y1="384.138" x2="489.032" y2="156.337" gradientUnits="userSpaceOnUse">
<stop stop-color="#FF1CF7"/>
<stop offset="1" stop-color="#00F0FF"/>
</linearGradient>
<linearGradient id="paint49_linear_288_8857" x1="293.135" y1="383.272" x2="487.839" y2="159.29" gradientUnits="userSpaceOnUse">
<stop stop-color="#FF1CF7"/>
<stop offset="1" stop-color="#00F0FF"/>
</linearGradient>
<linearGradient id="paint50_linear_288_8857" x1="288.42" y1="382.377" x2="486.606" y2="162.27" gradientUnits="userSpaceOnUse">
<stop stop-color="#FF1CF7"/>
<stop offset="1" stop-color="#00F0FF"/>
</linearGradient>
<linearGradient id="paint51_linear_288_8857" x1="283.742" y1="381.456" x2="485.333" y2="165.276" gradientUnits="userSpaceOnUse">
<stop stop-color="#FF1CF7"/>
<stop offset="1" stop-color="#00F0FF"/>
</linearGradient>
<linearGradient id="paint52_linear_288_8857" x1="279.102" y1="380.511" x2="484.022" y2="168.309" gradientUnits="userSpaceOnUse">
<stop stop-color="#FF1CF7"/>
<stop offset="1" stop-color="#00F0FF"/>
</linearGradient>
<linearGradient id="paint53_linear_288_8857" x1="274.501" y1="379.54" x2="482.673" y2="171.368" gradientUnits="userSpaceOnUse">
<stop stop-color="#FF1CF7"/>
<stop offset="1" stop-color="#00F0FF"/>
</linearGradient>
<linearGradient id="paint54_linear_288_8857" x1="269.936" y1="378.545" x2="481.282" y2="174.45" gradientUnits="userSpaceOnUse">
<stop stop-color="#FF1CF7"/>
<stop offset="1" stop-color="#00F0FF"/>
</linearGradient>
<linearGradient id="paint55_linear_288_8857" x1="265.412" y1="377.527" x2="479.852" y2="177.558" gradientUnits="userSpaceOnUse">
<stop stop-color="#FF1CF7"/>
<stop offset="1" stop-color="#00F0FF"/>
</linearGradient>
<linearGradient id="paint56_linear_288_8857" x1="260.925" y1="376.485" x2="478.38" y2="180.688" gradientUnits="userSpaceOnUse">
<stop stop-color="#FF1CF7"/>
<stop offset="1" stop-color="#00F0FF"/>
</linearGradient>
<linearGradient id="paint57_linear_288_8857" x1="256.478" y1="375.423" x2="476.868" y2="183.841" gradientUnits="userSpaceOnUse">
<stop stop-color="#FF1CF7"/>
<stop offset="1" stop-color="#00F0FF"/>
</linearGradient>
<linearGradient id="paint58_linear_288_8857" x1="252.07" y1="374.339" x2="475.315" y2="187.014" gradientUnits="userSpaceOnUse">
<stop stop-color="#FF1CF7"/>
<stop offset="1" stop-color="#00F0FF"/>
</linearGradient>
<linearGradient id="paint59_linear_288_8857" x1="247.702" y1="373.236" x2="473.721" y2="190.21" gradientUnits="userSpaceOnUse">
<stop stop-color="#FF1CF7"/>
<stop offset="1" stop-color="#00F0FF"/>
</linearGradient>
<linearGradient id="paint60_linear_288_8857" x1="243.375" y1="372.112" x2="472.084" y2="193.424" gradientUnits="userSpaceOnUse">
<stop stop-color="#FF1CF7"/>
<stop offset="1" stop-color="#00F0FF"/>
</linearGradient>
<linearGradient id="paint61_linear_288_8857" x1="239.087" y1="370.97" x2="470.405" y2="196.659" gradientUnits="userSpaceOnUse">
<stop stop-color="#FF1CF7"/>
<stop offset="1" stop-color="#00F0FF"/>
</linearGradient>
<linearGradient id="paint62_linear_288_8857" x1="234.84" y1="369.81" x2="468.684" y2="199.912" gradientUnits="userSpaceOnUse">
<stop stop-color="#FF1CF7"/>
<stop offset="1" stop-color="#00F0FF"/>
</linearGradient>
<linearGradient id="paint63_linear_288_8857" x1="230.635" y1="368.632" x2="466.921" y2="203.183" gradientUnits="userSpaceOnUse">
<stop stop-color="#FF1CF7"/>
<stop offset="1" stop-color="#00F0FF"/>
</linearGradient>
<linearGradient id="paint64_linear_288_8857" x1="226.471" y1="367.438" x2="465.115" y2="206.47" gradientUnits="userSpaceOnUse">
<stop stop-color="#FF1CF7"/>
<stop offset="1" stop-color="#00F0FF"/>
</linearGradient>
<linearGradient id="paint65_linear_288_8857" x1="222.346" y1="366.227" x2="463.265" y2="209.773" gradientUnits="userSpaceOnUse">
<stop stop-color="#FF1CF7"/>
<stop offset="1" stop-color="#00F0FF"/>
</linearGradient>
<linearGradient id="paint66_linear_288_8857" x1="218.265" y1="365.003" x2="461.373" y2="213.092" gradientUnits="userSpaceOnUse">
<stop stop-color="#FF1CF7"/>
<stop offset="1" stop-color="#00F0FF"/>
</linearGradient>
<linearGradient id="paint67_linear_288_8857" x1="214.224" y1="363.763" x2="459.437" y2="216.425" gradientUnits="userSpaceOnUse">
<stop stop-color="#FF1CF7"/>
<stop offset="1" stop-color="#00F0FF"/>
</linearGradient>
<linearGradient id="paint68_linear_288_8857" x1="210.227" y1="362.51" x2="457.458" y2="219.771" gradientUnits="userSpaceOnUse">
<stop stop-color="#FF1CF7"/>
<stop offset="1" stop-color="#00F0FF"/>
</linearGradient>
<linearGradient id="paint69_linear_288_8857" x1="206.269" y1="361.245" x2="455.434" y2="223.131" gradientUnits="userSpaceOnUse">
<stop stop-color="#FF1CF7"/>
<stop offset="1" stop-color="#00F0FF"/>
</linearGradient>
<linearGradient id="paint70_linear_288_8857" x1="202.355" y1="359.968" x2="453.368" y2="226.502" gradientUnits="userSpaceOnUse">
<stop stop-color="#FF1CF7"/>
<stop offset="1" stop-color="#00F0FF"/>
</linearGradient>
<linearGradient id="paint71_linear_288_8857" x1="198.484" y1="358.68" x2="451.257" y2="229.885" gradientUnits="userSpaceOnUse">
<stop stop-color="#FF1CF7"/>
<stop offset="1" stop-color="#00F0FF"/>
</linearGradient>
<linearGradient id="paint72_linear_288_8857" x1="194.653" y1="357.381" x2="449.101" y2="233.278" gradientUnits="userSpaceOnUse">
<stop stop-color="#FF1CF7"/>
<stop offset="1" stop-color="#00F0FF"/>
</linearGradient>
<linearGradient id="paint73_linear_288_8857" x1="190.866" y1="356.073" x2="446.902" y2="236.682" gradientUnits="userSpaceOnUse">
<stop stop-color="#FF1CF7"/>
<stop offset="1" stop-color="#00F0FF"/>
</linearGradient>
<linearGradient id="paint74_linear_288_8857" x1="187.123" y1="354.756" x2="444.66" y2="240.093" gradientUnits="userSpaceOnUse">
<stop stop-color="#FF1CF7"/>
<stop offset="1" stop-color="#00F0FF"/>
</linearGradient>
<linearGradient id="paint75_linear_288_8857" x1="183.42" y1="353.431" x2="442.372" y2="243.512" gradientUnits="userSpaceOnUse">
<stop stop-color="#FF1CF7"/>
<stop offset="1" stop-color="#00F0FF"/>
</linearGradient>
<linearGradient id="paint76_linear_288_8857" x1="179.76" y1="352.099" x2="440.04" y2="246.94" gradientUnits="userSpaceOnUse">
<stop stop-color="#FF1CF7"/>
<stop offset="1" stop-color="#00F0FF"/>
</linearGradient>
<linearGradient id="paint77_linear_288_8857" x1="176.144" y1="350.761" x2="437.663" y2="250.373" gradientUnits="userSpaceOnUse">
<stop stop-color="#FF1CF7"/>
<stop offset="1" stop-color="#00F0FF"/>
</linearGradient>
<linearGradient id="paint78_linear_288_8857" x1="172.569" y1="349.416" x2="435.242" y2="253.811" gradientUnits="userSpaceOnUse">
<stop stop-color="#FF1CF7"/>
<stop offset="1" stop-color="#00F0FF"/>
</linearGradient>
<linearGradient id="paint79_linear_288_8857" x1="169.038" y1="348.068" x2="432.777" y2="257.255" gradientUnits="userSpaceOnUse">
<stop stop-color="#FF1CF7"/>
<stop offset="1" stop-color="#00F0FF"/>
</linearGradient>
<linearGradient id="paint80_linear_288_8857" x1="165.549" y1="346.714" x2="430.268" y2="260.702" gradientUnits="userSpaceOnUse">
<stop stop-color="#FF1CF7"/>
<stop offset="1" stop-color="#00F0FF"/>
</linearGradient>
<linearGradient id="paint81_linear_288_8857" x1="162.103" y1="345.358" x2="427.714" y2="264.153" gradientUnits="userSpaceOnUse">
<stop stop-color="#FF1CF7"/>
<stop offset="1" stop-color="#00F0FF"/>
</linearGradient>
<linearGradient id="paint82_linear_288_8857" x1="158.701" y1="343.998" x2="425.116" y2="267.605" gradientUnits="userSpaceOnUse">
<stop stop-color="#FF1CF7"/>
<stop offset="1" stop-color="#00F0FF"/>
</linearGradient>
<linearGradient id="paint83_linear_288_8857" x1="155.339" y1="342.638" x2="422.473" y2="271.06" gradientUnits="userSpaceOnUse">
<stop stop-color="#FF1CF7"/>
<stop offset="1" stop-color="#00F0FF"/>
</linearGradient>
<linearGradient id="paint84_linear_288_8857" x1="152.022" y1="341.276" x2="419.787" y2="274.514" gradientUnits="userSpaceOnUse">
<stop stop-color="#FF1CF7"/>
<stop offset="1" stop-color="#00F0FF"/>
</linearGradient>
<linearGradient id="paint85_linear_288_8857" x1="148.746" y1="339.914" x2="417.056" y2="277.969" gradientUnits="userSpaceOnUse">
<stop stop-color="#FF1CF7"/>
<stop offset="1" stop-color="#00F0FF"/>
</linearGradient>
<linearGradient id="paint86_linear_288_8857" x1="145.512" y1="338.553" x2="414.28" y2="281.424" gradientUnits="userSpaceOnUse">
<stop stop-color="#FF1CF7"/>
<stop offset="1" stop-color="#00F0FF"/>
</linearGradient>
<linearGradient id="paint87_linear_288_8857" x1="142.322" y1="337.192" x2="411.463" y2="284.876" gradientUnits="userSpaceOnUse">
<stop stop-color="#FF1CF7"/>
<stop offset="1" stop-color="#00F0FF"/>
</linearGradient>
<linearGradient id="paint88_linear_288_8857" x1="139.172" y1="335.834" x2="408.6" y2="288.327" gradientUnits="userSpaceOnUse">
<stop stop-color="#FF1CF7"/>
<stop offset="1" stop-color="#00F0FF"/>
</linearGradient>
<linearGradient id="paint89_linear_288_8857" x1="136.066" y1="334.479" x2="405.694" y2="291.775" gradientUnits="userSpaceOnUse">
<stop stop-color="#FF1CF7"/>
<stop offset="1" stop-color="#00F0FF"/>
</linearGradient>
<linearGradient id="paint90_linear_288_8857" x1="133.001" y1="333.127" x2="402.744" y2="295.217" gradientUnits="userSpaceOnUse">
<stop stop-color="#FF1CF7"/>
<stop offset="1" stop-color="#00F0FF"/>
</linearGradient>
<linearGradient id="paint91_linear_288_8857" x1="129.977" y1="331.779" x2="399.751" y2="298.655" gradientUnits="userSpaceOnUse">
<stop stop-color="#FF1CF7"/>
<stop offset="1" stop-color="#00F0FF"/>
</linearGradient>
<linearGradient id="paint92_linear_288_8857" x1="126.996" y1="330.437" x2="396.715" y2="302.088" gradientUnits="userSpaceOnUse">
<stop stop-color="#FF1CF7"/>
<stop offset="1" stop-color="#00F0FF"/>
</linearGradient>
<linearGradient id="paint93_linear_288_8857" x1="124.056" y1="329.101" x2="393.636" y2="305.516" gradientUnits="userSpaceOnUse">
<stop stop-color="#FF1CF7"/>
<stop offset="1" stop-color="#00F0FF"/>
</linearGradient>
<linearGradient id="paint94_linear_288_8857" x1="121.158" y1="327.77" x2="390.515" y2="308.934" gradientUnits="userSpaceOnUse">
<stop stop-color="#FF1CF7"/>
<stop offset="1" stop-color="#00F0FF"/>
</linearGradient>
<linearGradient id="paint95_linear_288_8857" x1="118.3" y1="326.447" x2="387.351" y2="312.347" gradientUnits="userSpaceOnUse">
<stop stop-color="#FF1CF7"/>
<stop offset="1" stop-color="#00F0FF"/>
</linearGradient>
<linearGradient id="paint96_linear_288_8857" x1="115.482" y1="325.131" x2="384.143" y2="315.749" gradientUnits="userSpaceOnUse">
<stop stop-color="#FF1CF7"/>
<stop offset="1" stop-color="#00F0FF"/>
</linearGradient>
<linearGradient id="paint97_linear_288_8857" x1="112.704" y1="323.825" x2="380.894" y2="319.143" gradientUnits="userSpaceOnUse">
<stop stop-color="#FF1CF7"/>
<stop offset="1" stop-color="#00F0FF"/>
</linearGradient>
<linearGradient id="paint98_linear_288_8857" x1="109.969" y1="322.527" x2="377.605" y2="322.527" gradientUnits="userSpaceOnUse">
<stop stop-color="#FF1CF7"/>
<stop offset="1" stop-color="#00F0FF"/>
</linearGradient>
</defs>
</svg>
