<svg width="397" height="139" viewBox="0 0 397 139" fill="none" xmlns="http://www.w3.org/2000/svg">
<g opacity="0.2">
<path d="M197.841 -10.9851L81.2651 12.6149" stroke="#F9D857" stroke-width="2"/>
<path d="M197.841 -10.9851L81.2651 12.6149" stroke="#BAA5D4" stroke-width="2"/>
<path d="M198.673 -7.83896L85.4287 26.7744" stroke="#F9D857" stroke-width="2"/>
<path d="M198.673 -7.83896L85.4287 26.7744" stroke="#BAA5D4" stroke-width="2"/>
<path d="M200.339 -4.6922L91.2573 40.9345" stroke="#F9D857" stroke-width="2"/>
<path d="M200.339 -4.6922L91.2573 40.9345" stroke="#BAA5D4" stroke-width="2"/>
<path d="M201.172 -2.33307L97.9189 54.307" stroke="#F9D857" stroke-width="2"/>
<path d="M201.172 -2.33307L97.9189 54.307" stroke="#BAA5D4" stroke-width="2"/>
<path d="M202.837 0.813705L107.079 66.8937" stroke="#F9D857" stroke-width="2"/>
<path d="M202.837 0.813705L107.079 66.8937" stroke="#BAA5D4" stroke-width="2"/>
<path d="M205.335 3.17282L117.07 77.9062" stroke="#F9D857" stroke-width="2"/>
<path d="M205.335 3.17282L117.07 77.9062" stroke="#BAA5D4" stroke-width="2"/>
<path d="M207.833 4.74875L127.895 88.9221" stroke="#F9D857" stroke-width="2"/>
<path d="M207.833 4.74875L127.895 88.9221" stroke="#BAA5D4" stroke-width="2"/>
<path d="M210.331 7.10597L140.386 98.3593" stroke="#F9D857" stroke-width="2"/>
<path d="M210.331 7.10597L140.386 98.3593" stroke="#BAA5D4" stroke-width="2"/>
<path d="M212.829 8.68188L152.876 106.229" stroke="#F9D857" stroke-width="2"/>
<path d="M212.829 8.68188L152.876 106.229" stroke="#BAA5D4" stroke-width="2"/>
<path d="M215.327 10.2547L167.031 112.521" stroke="#F9D857" stroke-width="2"/>
<path d="M215.327 10.2547L167.031 112.521" stroke="#BAA5D4" stroke-width="2"/>
<path d="M218.658 11.041L182.02 118.028" stroke="#F9D857" stroke-width="2"/>
<path d="M218.658 11.041L182.02 118.028" stroke="#BAA5D4" stroke-width="2"/>
<path d="M221.988 11.828L197.008 121.961" stroke="#F9D857" stroke-width="2"/>
<path d="M221.988 11.828L197.008 121.961" stroke="#BAA5D4" stroke-width="2"/>
<path d="M225.319 12.615L212.829 124.322" stroke="#F9D857" stroke-width="2"/>
<path d="M225.319 12.615L212.829 124.322" stroke="#BAA5D4" stroke-width="2"/>
<path d="M228.65 12.615V125.108" stroke="#F9D857" stroke-width="2"/>
<path d="M228.65 12.615V125.108" stroke="#BAA5D4" stroke-width="2"/>
<path d="M231.98 12.615L243.638 124.322" stroke="#F9D857" stroke-width="2"/>
<path d="M231.98 12.615L243.638 124.322" stroke="#BAA5D4" stroke-width="2"/>
<path d="M234.479 11.828L259.459 121.961" stroke="#F9D857" stroke-width="2"/>
<path d="M234.479 11.828L259.459 121.961" stroke="#BAA5D4" stroke-width="2"/>
<path d="M237.809 11.041L274.447 118.028" stroke="#F9D857" stroke-width="2"/>
<path d="M237.809 11.041L274.447 118.028" stroke="#BAA5D4" stroke-width="2"/>
<path d="M241.14 10.2547L289.436 112.521" stroke="#F9D857" stroke-width="2"/>
<path d="M241.14 10.2547L289.436 112.521" stroke="#BAA5D4" stroke-width="2"/>
<path d="M243.639 8.68188L303.592 106.229" stroke="#F9D857" stroke-width="2"/>
<path d="M243.639 8.68188L303.592 106.229" stroke="#BAA5D4" stroke-width="2"/>
<path d="M246.968 7.10597L316.914 98.3593" stroke="#F9D857" stroke-width="2"/>
<path d="M246.968 7.10597L316.914 98.3593" stroke="#BAA5D4" stroke-width="2"/>
<path d="M249.467 4.74875L328.572 88.9221" stroke="#F9D857" stroke-width="2"/>
<path d="M249.467 4.74875L328.572 88.9221" stroke="#BAA5D4" stroke-width="2"/>
<path d="M251.133 3.17282L340.23 77.9062" stroke="#F9D857" stroke-width="2"/>
<path d="M251.133 3.17282L340.23 77.9062" stroke="#BAA5D4" stroke-width="2"/>
<path d="M253.63 0.813705L350.222 66.8937" stroke="#F9D857" stroke-width="2"/>
<path d="M253.63 0.813705L350.222 66.8937" stroke="#BAA5D4" stroke-width="2"/>
<path d="M255.295 -2.33307L358.548 54.307" stroke="#F9D857" stroke-width="2"/>
<path d="M255.295 -2.33307L358.548 54.307" stroke="#BAA5D4" stroke-width="2"/>
<path d="M256.961 -4.6922L365.21 40.9345" stroke="#F9D857" stroke-width="2"/>
<path d="M256.961 -4.6922L365.21 40.9345" stroke="#BAA5D4" stroke-width="2"/>
<path d="M257.794 -7.83896L371.039 26.7744" stroke="#F9D857" stroke-width="2"/>
<path d="M257.794 -7.83896L371.039 26.7744" stroke="#BAA5D4" stroke-width="2"/>
<path d="M258.627 -10.9851L375.202 12.6149" stroke="#F9D857" stroke-width="2"/>
<path d="M258.627 -10.9851L375.202 12.6149" stroke="#BAA5D4" stroke-width="2"/>
<path d="M196.899 -18.175L77.83 -23.8837" stroke="#527D77" stroke-width="2"/>
<path d="M196.841 -14.9326L77.9725 -9.18891" stroke="#527D77" stroke-width="2"/>
<path d="M197.588 -11.4848L79.7238 5.91504" stroke="#527D77" stroke-width="2"/>
<path d="M197.745 -9.00108L82.4937 20.462" stroke="#527D77" stroke-width="2"/>
<path d="M198.492 -5.55451L87.8929 34.8594" stroke="#527D77" stroke-width="2"/>
<path d="M200.258 -2.66486L94.5276 47.94" stroke="#527D77" stroke-width="2"/>
<path d="M202.24 -0.534543L101.966 61.2247" stroke="#527D77" stroke-width="2"/>
<path d="M204.007 2.35795L111.445 73.3992" stroke="#527D77" stroke-width="2"/>
<path d="M205.988 4.48765L121.354 84.051" stroke="#527D77" stroke-width="2"/>
<path d="M207.97 6.61988L133.303 93.5929" stroke="#527D77" stroke-width="2"/>
<path d="M210.973 8.19197L146.273 102.575" stroke="#527D77" stroke-width="2"/>
<path d="M213.974 9.76519L159.673 110.038" stroke="#527D77" stroke-width="2"/>
<path d="M216.976 11.3409L174.308 116.187" stroke="#527D77" stroke-width="2"/>
<path d="M220.193 12.1537L189.375 120.814" stroke="#527D77" stroke-width="2"/>
<path d="M223.41 12.9701L204.068 123.721" stroke="#527D77" stroke-width="2"/>
<path d="M226.038 12.8216L219.995 125.31" stroke="#527D77" stroke-width="2"/>
<path d="M229.471 12.8745L235.551 125.174" stroke="#527D77" stroke-width="2"/>
<path d="M232.904 12.928L251.537 123.519" stroke="#527D77" stroke-width="2"/>
<path d="M235.748 12.0206L266.935 120.903" stroke="#527D77" stroke-width="2"/>
<path d="M239.396 11.3164L281.958 116.563" stroke="#527D77" stroke-width="2"/>
<path d="M242.456 9.64805L295.805 110.296" stroke="#527D77" stroke-width="2"/>
<path d="M244.495 8.53541L310.082 102.508" stroke="#527D77" stroke-width="2"/>
<path d="M247.555 6.86451L322.751 94.311" stroke="#527D77" stroke-width="2"/>
<path d="M250.025 4.23201L334.243 84.189" stroke="#527D77" stroke-width="2"/>
<path d="M252.28 2.36231L344.341 72.9029" stroke="#527D77" stroke-width="2"/>
<path d="M253.947 -0.474747L353.85 60.6494" stroke="#527D77" stroke-width="2"/>
<path d="M255.613 -3.31182L361.751 47.9887" stroke="#527D77" stroke-width="2"/>
<path d="M257.064 -5.38672L368.043 34.923" stroke="#527D77" stroke-width="2"/>
<path d="M257.927 -8.42835L372.943 20.6871" stroke="#527D77" stroke-width="2"/>
<path d="M258.788 -11.4655L376.232 6.04837" stroke="#527D77" stroke-width="2"/>
<path d="M258.846 -14.7079L377.914 -8.99914" stroke="#527D77" stroke-width="2"/>
<path d="M258.904 -17.9531L377.773 -23.6968" stroke="#527D77" stroke-width="2"/>
<path d="M258.962 -21.1951L376.022 -38.7985" stroke="#527D77" stroke-width="2"/>
<path d="M257.999 -23.8827L373.25 -53.3458" stroke="#527D77" stroke-width="2"/>
</g>
</svg>
