<svg width="254" height="56" viewBox="0 0 254 56" fill="none" xmlns="http://www.w3.org/2000/svg">
<g opacity="0.2">
<path d="M137.083 -3.39209L79.918 1.45087" stroke="#F9D857" stroke-width="2"/>
<path d="M137.083 -3.39209L79.918 1.45087" stroke="#BAA5D4" stroke-width="2"/>
<path d="M137.083 -2.42285L81.1172 7.26306" stroke="#F9D857" stroke-width="2"/>
<path d="M137.083 -2.42285L81.1172 7.26306" stroke="#BAA5D4" stroke-width="2"/>
<path d="M137.483 -1.13159L83.1162 13.0744" stroke="#F9D857" stroke-width="2"/>
<path d="M137.483 -1.13159L83.1162 13.0744" stroke="#BAA5D4" stroke-width="2"/>
<path d="M138.282 0.159912L85.9141 18.886" stroke="#F9D857" stroke-width="2"/>
<path d="M138.282 0.159912L85.9141 18.886" stroke="#BAA5D4" stroke-width="2"/>
<path d="M138.682 1.12817L89.1123 24.3744" stroke="#F9D857" stroke-width="2"/>
<path d="M138.682 1.12817L89.1123 24.3744" stroke="#BAA5D4" stroke-width="2"/>
<path d="M139.482 2.41968L93.5098 29.5402" stroke="#F9D857" stroke-width="2"/>
<path d="M139.482 2.41968L93.5098 29.5402" stroke="#BAA5D4" stroke-width="2"/>
<path d="M140.681 3.3877L98.3066 34.0597" stroke="#F9D857" stroke-width="2"/>
<path d="M140.681 3.3877L98.3066 34.0597" stroke="#BAA5D4" stroke-width="2"/>
<path d="M141.88 4.03467L103.503 38.5811" stroke="#F9D857" stroke-width="2"/>
<path d="M141.88 4.03467L103.503 38.5811" stroke="#BAA5D4" stroke-width="2"/>
<path d="M143.08 5.00195L109.5 42.4541" stroke="#F9D857" stroke-width="2"/>
<path d="M143.08 5.00195L109.5 42.4541" stroke="#BAA5D4" stroke-width="2"/>
<path d="M144.279 5.64868L115.496 45.6838" stroke="#F9D857" stroke-width="2"/>
<path d="M144.279 5.64868L115.496 45.6838" stroke="#BAA5D4" stroke-width="2"/>
<path d="M145.478 6.29419L122.292 48.2665" stroke="#F9D857" stroke-width="2"/>
<path d="M145.478 6.29419L122.292 48.2665" stroke="#BAA5D4" stroke-width="2"/>
<path d="M147.077 6.61719L129.488 50.5267" stroke="#F9D857" stroke-width="2"/>
<path d="M147.077 6.61719L129.488 50.5267" stroke="#BAA5D4" stroke-width="2"/>
<path d="M148.676 6.93994L136.683 52.1409" stroke="#F9D857" stroke-width="2"/>
<path d="M148.676 6.93994L136.683 52.1409" stroke="#BAA5D4" stroke-width="2"/>
<path d="M150.275 7.26294L144.279 53.1096" stroke="#F9D857" stroke-width="2"/>
<path d="M150.275 7.26294L144.279 53.1096" stroke="#BAA5D4" stroke-width="2"/>
<path d="M151.874 7.26294V53.4325" stroke="#F9D857" stroke-width="2"/>
<path d="M151.874 7.26294V53.4325" stroke="#BAA5D4" stroke-width="2"/>
<path d="M153.473 7.26294L159.07 53.1096" stroke="#F9D857" stroke-width="2"/>
<path d="M153.473 7.26294L159.07 53.1096" stroke="#BAA5D4" stroke-width="2"/>
<path d="M154.672 6.93994L166.665 52.1409" stroke="#F9D857" stroke-width="2"/>
<path d="M154.672 6.93994L166.665 52.1409" stroke="#BAA5D4" stroke-width="2"/>
<path d="M156.271 6.61719L173.861 50.5267" stroke="#F9D857" stroke-width="2"/>
<path d="M156.271 6.61719L173.861 50.5267" stroke="#BAA5D4" stroke-width="2"/>
<path d="M157.871 6.29419L181.057 48.2665" stroke="#F9D857" stroke-width="2"/>
<path d="M157.871 6.29419L181.057 48.2665" stroke="#BAA5D4" stroke-width="2"/>
<path d="M159.07 5.64868L187.852 45.6838" stroke="#F9D857" stroke-width="2"/>
<path d="M159.07 5.64868L187.852 45.6838" stroke="#BAA5D4" stroke-width="2"/>
<path d="M160.668 5.00195L194.248 42.4541" stroke="#F9D857" stroke-width="2"/>
<path d="M160.668 5.00195L194.248 42.4541" stroke="#BAA5D4" stroke-width="2"/>
<path d="M161.868 4.03467L199.845 38.5811" stroke="#F9D857" stroke-width="2"/>
<path d="M161.868 4.03467L199.845 38.5811" stroke="#BAA5D4" stroke-width="2"/>
<path d="M162.667 3.3877L205.442 34.0597" stroke="#F9D857" stroke-width="2"/>
<path d="M162.667 3.3877L205.442 34.0597" stroke="#BAA5D4" stroke-width="2"/>
<path d="M163.867 2.41968L210.239 29.5402" stroke="#F9D857" stroke-width="2"/>
<path d="M163.867 2.41968L210.239 29.5402" stroke="#BAA5D4" stroke-width="2"/>
<path d="M164.667 1.12817L214.236 24.3744" stroke="#F9D857" stroke-width="2"/>
<path d="M164.667 1.12817L214.236 24.3744" stroke="#BAA5D4" stroke-width="2"/>
<path d="M165.466 0.159912L217.434 18.886" stroke="#F9D857" stroke-width="2"/>
<path d="M165.466 0.159912L217.434 18.886" stroke="#BAA5D4" stroke-width="2"/>
<path d="M165.866 -1.13159L220.233 13.0744" stroke="#F9D857" stroke-width="2"/>
<path d="M165.866 -1.13159L220.233 13.0744" stroke="#BAA5D4" stroke-width="2"/>
<path d="M166.266 -2.42285L222.232 7.26306" stroke="#F9D857" stroke-width="2"/>
<path d="M166.266 -2.42285L222.232 7.26306" stroke="#BAA5D4" stroke-width="2"/>
<path d="M166.665 -3.39209L223.431 1.45087" stroke="#F9D857" stroke-width="2"/>
<path d="M166.665 -3.39209L223.431 1.45087" stroke="#BAA5D4" stroke-width="2"/>
<path d="M136.631 -5.37389L79.4678 -7.71688" stroke="#527D77" stroke-width="2"/>
<path d="M136.603 -4.04311L79.5359 -1.68577" stroke="#527D77" stroke-width="2"/>
<path d="M136.962 -2.62791L80.377 4.51332" stroke="#527D77" stroke-width="2"/>
<path d="M137.037 -1.60861L81.7068 10.4836" stroke="#527D77" stroke-width="2"/>
<path d="M137.395 -0.194174L84.2987 16.3925" stroke="#527D77" stroke-width="2"/>
<path d="M138.244 0.991986L87.4843 21.7612" stroke="#527D77" stroke-width="2"/>
<path d="M139.195 1.86632L91.0552 27.2135" stroke="#527D77" stroke-width="2"/>
<path d="M140.043 3.05349L95.6055 32.2102" stroke="#527D77" stroke-width="2"/>
<path d="M140.995 3.92744L100.363 36.5818" stroke="#527D77" stroke-width="2"/>
<path d="M141.946 4.80248L106.1 40.4979" stroke="#527D77" stroke-width="2"/>
<path d="M143.387 5.44778L112.326 44.1843" stroke="#527D77" stroke-width="2"/>
<path d="M144.828 6.09333L118.759 47.2472" stroke="#527D77" stroke-width="2"/>
<path d="M146.27 6.74002L125.786 49.771" stroke="#527D77" stroke-width="2"/>
<path d="M147.814 7.07373L133.018 51.6701" stroke="#527D77" stroke-width="2"/>
<path d="M149.358 7.40893L140.072 52.8633" stroke="#527D77" stroke-width="2"/>
<path d="M150.62 7.3479L147.719 53.5155" stroke="#527D77" stroke-width="2"/>
<path d="M152.268 7.36963L155.187 53.4597" stroke="#527D77" stroke-width="2"/>
<path d="M153.916 7.3916L162.861 52.7804" stroke="#527D77" stroke-width="2"/>
<path d="M155.282 7.01904L170.254 51.7065" stroke="#527D77" stroke-width="2"/>
<path d="M157.033 6.73023L177.467 49.9256" stroke="#527D77" stroke-width="2"/>
<path d="M158.502 6.04541L184.114 47.3532" stroke="#527D77" stroke-width="2"/>
<path d="M159.481 5.58862L190.968 44.1568" stroke="#527D77" stroke-width="2"/>
<path d="M160.95 4.90283L197.05 40.7926" stroke="#527D77" stroke-width="2"/>
<path d="M162.136 3.82251L202.568 36.6385" stroke="#527D77" stroke-width="2"/>
<path d="M163.218 3.05518L207.415 32.0064" stroke="#527D77" stroke-width="2"/>
<path d="M164.019 1.89087L211.981 26.9774" stroke="#527D77" stroke-width="2"/>
<path d="M164.819 0.726318L215.774 21.7811" stroke="#527D77" stroke-width="2"/>
<path d="M165.515 -0.125244L218.794 16.4187" stroke="#527D77" stroke-width="2"/>
<path d="M165.929 -1.37354L221.147 10.576" stroke="#527D77" stroke-width="2"/>
<path d="M166.343 -2.61992L222.726 4.56814" stroke="#527D77" stroke-width="2"/>
<path d="M166.371 -3.95077L223.534 -1.60778" stroke="#527D77" stroke-width="2"/>
<path d="M166.399 -5.28269L223.466 -7.64003" stroke="#527D77" stroke-width="2"/>
<path d="M166.426 -6.61315L222.624 -13.8379" stroke="#527D77" stroke-width="2"/>
<path d="M165.964 -7.71631L221.294 -19.8086" stroke="#527D77" stroke-width="2"/>
<path d="M165.502 -8.81894L218.985 -25.322" stroke="#527D77" stroke-width="2"/>
</g>
</svg>
