<svg width="616" height="205" viewBox="0 0 616 205" fill="none" xmlns="http://www.w3.org/2000/svg">
<g opacity="0.2">
<path d="M267.096 -48.3174L71.7998 4.72584" stroke="#F9D857" stroke-width="2"/>
<path d="M267.096 -48.3174L71.7998 4.72584" stroke="#BAA5D4" stroke-width="2"/>
<path d="M269.968 -43.4951L81.8516 26.4255" stroke="#F9D857" stroke-width="2"/>
<path d="M269.968 -43.4951L81.8516 26.4255" stroke="#BAA5D4" stroke-width="2"/>
<path d="M271.404 -39.8799L93.3394 46.9181" stroke="#F9D857" stroke-width="2"/>
<path d="M271.404 -39.8799L93.3394 46.9181" stroke="#BAA5D4" stroke-width="2"/>
<path d="M274.276 -35.0576L109.136 66.2067" stroke="#F9D857" stroke-width="2"/>
<path d="M274.276 -35.0576L109.136 66.2067" stroke="#BAA5D4" stroke-width="2"/>
<path d="M278.583 -31.4424L126.367 83.0828" stroke="#F9D857" stroke-width="2"/>
<path d="M278.583 -31.4424L126.367 83.0828" stroke="#BAA5D4" stroke-width="2"/>
<path d="M282.891 -29.0273L145.035 99.9641" stroke="#F9D857" stroke-width="2"/>
<path d="M282.891 -29.0273L145.035 99.9641" stroke="#BAA5D4" stroke-width="2"/>
<path d="M287.2 -25.415L166.576 114.426" stroke="#F9D857" stroke-width="2"/>
<path d="M287.2 -25.415L166.576 114.426" stroke="#BAA5D4" stroke-width="2"/>
<path d="M291.508 -23L188.116 126.485" stroke="#F9D857" stroke-width="2"/>
<path d="M291.508 -23L188.116 126.485" stroke="#BAA5D4" stroke-width="2"/>
<path d="M295.816 -20.5898L212.527 136.129" stroke="#F9D857" stroke-width="2"/>
<path d="M295.816 -20.5898L212.527 136.129" stroke="#BAA5D4" stroke-width="2"/>
<path d="M301.56 -19.3848L238.376 144.567" stroke="#F9D857" stroke-width="2"/>
<path d="M301.56 -19.3848L238.376 144.567" stroke="#BAA5D4" stroke-width="2"/>
<path d="M307.303 -18.1787L264.223 150.595" stroke="#F9D857" stroke-width="2"/>
<path d="M307.303 -18.1787L264.223 150.595" stroke="#BAA5D4" stroke-width="2"/>
<path d="M313.048 -16.9727L291.508 154.212" stroke="#F9D857" stroke-width="2"/>
<path d="M313.048 -16.9727L291.508 154.212" stroke="#BAA5D4" stroke-width="2"/>
<path d="M318.792 -16.9727V155.418" stroke="#F9D857" stroke-width="2"/>
<path d="M318.792 -16.9727V155.418" stroke="#BAA5D4" stroke-width="2"/>
<path d="M324.536 -16.9727L344.64 154.212" stroke="#F9D857" stroke-width="2"/>
<path d="M324.536 -16.9727L344.64 154.212" stroke="#BAA5D4" stroke-width="2"/>
<path d="M328.844 -18.1787L371.924 150.595" stroke="#F9D857" stroke-width="2"/>
<path d="M328.844 -18.1787L371.924 150.595" stroke="#BAA5D4" stroke-width="2"/>
<path d="M334.587 -19.3848L397.772 144.567" stroke="#F9D857" stroke-width="2"/>
<path d="M334.587 -19.3848L397.772 144.567" stroke="#BAA5D4" stroke-width="2"/>
<path d="M340.332 -20.5898L423.62 136.129" stroke="#F9D857" stroke-width="2"/>
<path d="M340.332 -20.5898L423.62 136.129" stroke="#BAA5D4" stroke-width="2"/>
<path d="M344.64 -23L448.032 126.485" stroke="#F9D857" stroke-width="2"/>
<path d="M344.64 -23L448.032 126.485" stroke="#BAA5D4" stroke-width="2"/>
<path d="M350.383 -25.415L471.007 114.426" stroke="#F9D857" stroke-width="2"/>
<path d="M350.383 -25.415L471.007 114.426" stroke="#BAA5D4" stroke-width="2"/>
<path d="M354.692 -29.0273L491.112 99.9641" stroke="#F9D857" stroke-width="2"/>
<path d="M354.692 -29.0273L491.112 99.9641" stroke="#BAA5D4" stroke-width="2"/>
<path d="M357.564 -31.4424L511.217 83.0828" stroke="#F9D857" stroke-width="2"/>
<path d="M357.564 -31.4424L511.217 83.0828" stroke="#BAA5D4" stroke-width="2"/>
<path d="M361.872 -35.0576L528.448 66.2067" stroke="#F9D857" stroke-width="2"/>
<path d="M361.872 -35.0576L528.448 66.2067" stroke="#BAA5D4" stroke-width="2"/>
<path d="M364.744 -39.8799L542.808 46.9181" stroke="#F9D857" stroke-width="2"/>
<path d="M364.744 -39.8799L542.808 46.9181" stroke="#BAA5D4" stroke-width="2"/>
<path d="M367.615 -43.4951L554.296 26.4255" stroke="#F9D857" stroke-width="2"/>
<path d="M367.615 -43.4951L554.296 26.4255" stroke="#BAA5D4" stroke-width="2"/>
<path d="M369.052 -48.3174L564.349 4.72584" stroke="#F9D857" stroke-width="2"/>
<path d="M369.052 -48.3174L564.349 4.72584" stroke="#BAA5D4" stroke-width="2"/>
<path d="M265.224 -53.9045L61.9605 -27.2402" stroke="#527D77" stroke-width="2"/>
<path d="M265.495 -50.0984L66.7377 -4.94765" stroke="#527D77" stroke-width="2"/>
<path d="M266.782 -44.8167L76.0487 17.1156" stroke="#527D77" stroke-width="2"/>
<path d="M269.829 -40.3885L87.4912 37.1609" stroke="#527D77" stroke-width="2"/>
<path d="M273.247 -37.1238L100.32 57.519" stroke="#527D77" stroke-width="2"/>
<path d="M276.293 -32.6912L116.666 76.1759" stroke="#527D77" stroke-width="2"/>
<path d="M279.711 -29.4276L133.755 92.4993" stroke="#527D77" stroke-width="2"/>
<path d="M283.128 -26.1601L154.361 107.122" stroke="#527D77" stroke-width="2"/>
<path d="M288.306 -23.7509L176.728 120.886" stroke="#527D77" stroke-width="2"/>
<path d="M293.483 -21.3398L199.838 132.323" stroke="#527D77" stroke-width="2"/>
<path d="M298.659 -18.9253L225.077 141.747" stroke="#527D77" stroke-width="2"/>
<path d="M304.208 -17.6797L251.059 148.837" stroke="#527D77" stroke-width="2"/>
<path d="M309.755 -16.4287L276.397 153.291" stroke="#527D77" stroke-width="2"/>
<path d="M314.288 -16.6563L303.867 155.727" stroke="#527D77" stroke-width="2"/>
<path d="M320.208 -16.5752L330.692 155.519" stroke="#527D77" stroke-width="2"/>
<path d="M326.127 -16.4932L358.261 152.982" stroke="#527D77" stroke-width="2"/>
<path d="M331.033 -17.8838L384.815 148.973" stroke="#527D77" stroke-width="2"/>
<path d="M337.324 -18.9629L410.725 142.323" stroke="#527D77" stroke-width="2"/>
<path d="M342.6 -21.5195L434.604 132.718" stroke="#527D77" stroke-width="2"/>
<path d="M346.117 -23.2246L459.226 120.784" stroke="#527D77" stroke-width="2"/>
<path d="M351.394 -25.7852L481.074 108.222" stroke="#527D77" stroke-width="2"/>
<path d="M355.655 -29.8193L500.892 92.7108" stroke="#527D77" stroke-width="2"/>
<path d="M359.543 -32.6846L518.306 75.4153" stroke="#527D77" stroke-width="2"/>
<path d="M362.417 -37.0322L534.706 56.6374" stroke="#527D77" stroke-width="2"/>
<path d="M365.292 -41.3799L548.332 37.2355" stroke="#527D77" stroke-width="2"/>
<path d="M367.793 -44.5596L559.182 17.2131" stroke="#527D77" stroke-width="2"/>
</g>
</svg>
