<svg width="25" height="24" viewBox="0 0 25 24" fill="none" xmlns="http://www.w3.org/2000/svg">
<path d="M20.334 2H4.33398C3.22941 2 2.33398 2.89543 2.33398 4V8C2.33398 9.10457 3.22941 10 4.33398 10H20.334C21.4386 10 22.334 9.10457 22.334 8V4C22.334 2.89543 21.4386 2 20.334 2Z" stroke="#6282C0" stroke-width="2" stroke-linecap="round" stroke-linejoin="round"/>
<path d="M20.334 14H4.33398C3.22941 14 2.33398 14.8954 2.33398 16V20C2.33398 21.1046 3.22941 22 4.33398 22H20.334C21.4386 22 22.334 21.1046 22.334 20V16C22.334 14.8954 21.4386 14 20.334 14Z" stroke="#6282C0" stroke-width="2" stroke-linecap="round" stroke-linejoin="round"/>
<path d="M6.33398 6H6.34398" stroke="#6282C0" stroke-width="2" stroke-linecap="round" stroke-linejoin="round"/>
<path d="M6.33398 18H6.34398" stroke="#6282C0" stroke-width="2" stroke-linecap="round" stroke-linejoin="round"/>
</svg>
