<svg width="20" height="16" viewBox="0 0 20 16" fill="none" xmlns="http://www.w3.org/2000/svg">
<path d="M19.5023 1.96114C18.7852 2.27052 18.0047 2.49317 17.2008 2.57989C18.0354 2.08404 18.6604 1.30067 18.9586 0.376767C18.1754 0.84268 17.3174 1.16939 16.4227 1.34239C16.0487 0.942611 15.5964 0.624126 15.094 0.406785C14.5916 0.189443 14.0498 0.0779021 13.5023 0.0791113C11.2875 0.0791113 9.50625 1.87442 9.50625 4.07755C9.50625 4.38692 9.54375 4.6963 9.60469 4.99396C6.28828 4.82052 3.33047 3.23614 1.36406 0.810361C1.00576 1.42235 0.818001 2.11917 0.820312 2.82833C0.820312 4.21583 1.52578 5.43927 2.60156 6.1588C1.96759 6.13383 1.34846 5.95958 0.794531 5.65021V5.69942C0.794531 7.64239 2.16797 9.25255 3.99844 9.62286C3.65475 9.71214 3.30119 9.75781 2.94609 9.7588C2.68594 9.7588 2.43984 9.73302 2.19141 9.69786C2.69766 11.2822 4.17187 12.433 5.92734 12.4705C4.55391 13.5463 2.83359 14.1791 0.965625 14.1791C0.630469 14.1791 0.321094 14.1674 0 14.1299C1.77187 15.2666 3.87422 15.9229 6.13828 15.9229C13.4883 15.9229 17.5102 9.8338 17.5102 4.54864C17.5102 4.37521 17.5102 4.20177 17.4984 4.02833C18.2766 3.4588 18.9586 2.75333 19.5023 1.96114Z" fill="#F5F5F5"/>
</svg>
