<svg width="25" height="17" viewBox="0 0 25 17" fill="none" xmlns="http://www.w3.org/2000/svg">
<path d="M12.8304 -0.000976562H12.9639C14.1969 0.00352344 20.4444 0.0485237 22.1289 0.501524C22.6381 0.639776 23.1022 0.909257 23.4746 1.28304C23.8471 1.65681 24.115 2.1218 24.2514 2.63152C24.4029 3.20152 24.5094 3.95602 24.5814 4.73452L24.5964 4.89052L24.6294 5.28052L24.6414 5.43652C24.7389 6.80752 24.7509 8.09152 24.7524 8.37202V8.48452C24.7509 8.77552 24.7374 10.1465 24.6294 11.5745L24.6174 11.732L24.6039 11.888C24.5289 12.746 24.4179 13.598 24.2514 14.225C24.1154 14.735 23.8477 15.2002 23.4751 15.574C23.1026 15.9478 22.6384 16.2172 22.1289 16.355C20.3889 16.823 13.7754 16.856 12.8589 16.8575H12.6459C12.1824 16.8575 10.2654 16.8485 8.25541 16.7795L8.00041 16.7705L7.86991 16.7645L7.61341 16.754L7.35691 16.7435C5.69191 16.67 4.10641 16.5515 3.37591 16.3535C2.86664 16.2158 2.4025 15.9467 2.02999 15.5731C1.65748 15.1996 1.38968 14.7347 1.25341 14.225C1.08691 13.5995 0.975906 12.746 0.900906 11.888L0.888906 11.7305L0.876906 11.5745C0.802878 10.5581 0.761856 9.53959 0.753906 8.52052L0.753906 8.33602C0.756906 8.01352 0.768906 6.89902 0.849906 5.66902L0.860406 5.51452L0.864906 5.43652L0.876906 5.28052L0.909906 4.89052L0.924906 4.73452C0.996906 3.95602 1.10341 3.20002 1.25491 2.63152C1.39095 2.12159 1.65865 1.65639 2.03118 1.28255C2.4037 0.908704 2.86796 0.639362 3.37741 0.501524C4.10791 0.306524 5.69341 0.186523 7.35841 0.111523L7.61341 0.101023L7.87141 0.0920237L8.00041 0.0875236L8.25691 0.0770237C9.68447 0.0310855 11.1126 0.00558273 12.5409 0.000523508H12.8304V-0.000976562ZM10.3539 4.81402V12.041L16.5894 8.42902L10.3539 4.81402Z" fill="#F5F5F5"/>
</svg>
